<svg width="110" height="26" viewBox="0 0 110 26" fill="none" xmlns="http://www.w3.org/2000/svg">
<g filter="url(#filter0_dd)">
<path d="M14.124 13H12.18L6.366 6.484V13H4.746V0.147999H6.366V6.376L12.036 0.147999H13.872L8.292 6.394L14.124 13ZM20.247 3.172C21.435 3.172 22.389 3.586 23.109 4.414C23.841 5.242 24.207 6.49 24.207 8.158C24.207 9.802 23.841 11.05 23.109 11.902C22.389 12.754 21.429 13.18 20.229 13.18C19.485 13.18 18.867 13.042 18.375 12.766C17.895 12.478 17.517 12.148 17.241 11.776H17.133C17.157 11.98 17.181 12.238 17.205 12.55C17.229 12.862 17.241 13.132 17.241 13.36V17.32H15.657V3.352H16.953L17.169 4.666H17.241C17.529 4.246 17.907 3.892 18.375 3.604C18.843 3.316 19.467 3.172 20.247 3.172ZM19.959 4.504C18.975 4.504 18.279 4.78 17.871 5.332C17.475 5.884 17.265 6.724 17.241 7.852V8.158C17.241 9.346 17.433 10.264 17.817 10.912C18.213 11.548 18.939 11.866 19.995 11.866C20.583 11.866 21.063 11.704 21.435 11.38C21.819 11.056 22.101 10.618 22.281 10.066C22.473 9.502 22.569 8.86 22.569 8.14C22.569 7.036 22.353 6.154 21.921 5.494C21.501 4.834 20.847 4.504 19.959 4.504ZM30.3852 3.19C31.5612 3.19 32.4312 3.448 32.9952 3.964C33.5592 4.48 33.8412 5.302 33.8412 6.43V13H32.6892L32.3832 11.632H32.3112C31.8912 12.16 31.4472 12.55 30.9792 12.802C30.5232 13.054 29.8872 13.18 29.0712 13.18C28.1952 13.18 27.4692 12.952 26.8932 12.496C26.3172 12.028 26.0292 11.302 26.0292 10.318C26.0292 9.358 26.4072 8.62 27.1632 8.104C27.9192 7.576 29.0832 7.288 30.6552 7.24L32.2932 7.186V6.61C32.2932 5.806 32.1192 5.248 31.7712 4.936C31.4232 4.624 30.9312 4.468 30.2952 4.468C29.7912 4.468 29.3112 4.546 28.8552 4.702C28.3992 4.846 27.9732 5.014 27.5772 5.206L27.0912 4.018C27.5112 3.79 28.0092 3.598 28.5852 3.442C29.1612 3.274 29.7612 3.19 30.3852 3.19ZM30.8532 8.338C29.6532 8.386 28.8192 8.578 28.3512 8.914C27.8952 9.25 27.6672 9.724 27.6672 10.336C27.6672 10.876 27.8292 11.272 28.1532 11.524C28.4892 11.776 28.9152 11.902 29.4312 11.902C30.2472 11.902 30.9252 11.68 31.4652 11.236C32.0052 10.78 32.2752 10.084 32.2752 9.148V8.284L30.8532 8.338ZM40.691 13.18C39.839 13.18 39.077 13.006 38.405 12.658C37.745 12.31 37.223 11.77 36.839 11.038C36.467 10.306 36.281 9.37 36.281 8.23C36.281 7.042 36.479 6.076 36.875 5.332C37.271 4.588 37.805 4.042 38.477 3.694C39.161 3.346 39.935 3.172 40.799 3.172C41.291 3.172 41.765 3.226 42.221 3.334C42.677 3.43 43.049 3.55 43.337 3.694L42.851 5.008C42.563 4.9 42.227 4.798 41.843 4.702C41.459 4.606 41.099 4.558 40.763 4.558C38.867 4.558 37.919 5.776 37.919 8.212C37.919 9.376 38.147 10.27 38.603 10.894C39.071 11.506 39.761 11.812 40.673 11.812C41.201 11.812 41.663 11.758 42.059 11.65C42.467 11.542 42.839 11.41 43.175 11.254V12.658C42.851 12.826 42.491 12.952 42.095 13.036C41.711 13.132 41.243 13.18 40.691 13.18ZM47.0535 3.352V7.366H52.2915V3.352H53.8755V13H52.2915V8.698H47.0535V13H45.4695V3.352H47.0535ZM65.3184 8.158C65.3184 9.754 64.9104 10.99 64.0944 11.866C63.2904 12.742 62.1984 13.18 60.8184 13.18C59.9664 13.18 59.2044 12.988 58.5324 12.604C57.8724 12.208 57.3504 11.638 56.9664 10.894C56.5824 10.138 56.3904 9.226 56.3904 8.158C56.3904 6.562 56.7924 5.332 57.5964 4.468C58.4004 3.604 59.4924 3.172 60.8724 3.172C61.7484 3.172 62.5164 3.37 63.1764 3.766C63.8484 4.15 64.3704 4.714 64.7424 5.458C65.1264 6.19 65.3184 7.09 65.3184 8.158ZM58.0284 8.158C58.0284 9.298 58.2504 10.204 58.6944 10.876C59.1504 11.536 59.8704 11.866 60.8544 11.866C61.8264 11.866 62.5404 11.536 62.9964 10.876C63.4524 10.204 63.6804 9.298 63.6804 8.158C63.6804 7.018 63.4524 6.124 62.9964 5.476C62.5404 4.828 61.8204 4.504 60.8364 4.504C59.8524 4.504 59.1384 4.828 58.6944 5.476C58.2504 6.124 58.0284 7.018 58.0284 8.158ZM68.4228 13H66.5868L69.3408 8.95C68.9688 8.854 68.6088 8.704 68.2608 8.5C67.9128 8.284 67.6308 7.99 67.4148 7.618C67.1988 7.234 67.0908 6.76 67.0908 6.196C67.0908 5.272 67.4028 4.57 68.0268 4.09C68.6508 3.598 69.4788 3.352 70.5108 3.352H74.8308V13H73.2468V9.166H70.9068L68.4228 13ZM68.6208 6.214C68.6208 6.766 68.8248 7.18 69.2328 7.456C69.6528 7.72 70.2348 7.852 70.9788 7.852H73.2468V4.666H70.6728C69.9408 4.666 69.4128 4.81 69.0888 5.098C68.7768 5.386 68.6208 5.758 68.6208 6.214ZM82.4735 3.172C83.6615 3.172 84.6155 3.586 85.3355 4.414C86.0675 5.242 86.4335 6.49 86.4335 8.158C86.4335 9.802 86.0675 11.05 85.3355 11.902C84.6155 12.754 83.6555 13.18 82.4555 13.18C81.7115 13.18 81.0935 13.042 80.6015 12.766C80.1215 12.478 79.7435 12.148 79.4675 11.776H79.3595C79.3835 11.98 79.4075 12.238 79.4315 12.55C79.4555 12.862 79.4675 13.132 79.4675 13.36V17.32H77.8835V3.352H79.1795L79.3955 4.666H79.4675C79.7555 4.246 80.1335 3.892 80.6015 3.604C81.0695 3.316 81.6935 3.172 82.4735 3.172ZM82.1855 4.504C81.2015 4.504 80.5055 4.78 80.0975 5.332C79.7015 5.884 79.4915 6.724 79.4675 7.852V8.158C79.4675 9.346 79.6595 10.264 80.0435 10.912C80.4395 11.548 81.1655 11.866 82.2215 11.866C82.8095 11.866 83.2895 11.704 83.6615 11.38C84.0455 11.056 84.3275 10.618 84.5075 10.066C84.6995 9.502 84.7955 8.86 84.7955 8.14C84.7955 7.036 84.5795 6.154 84.1475 5.494C83.7275 4.834 83.0735 4.504 82.1855 4.504ZM92.8277 13.18C91.9757 13.18 91.2137 13.006 90.5417 12.658C89.8817 12.31 89.3597 11.77 88.9757 11.038C88.6037 10.306 88.4177 9.37 88.4177 8.23C88.4177 7.042 88.6157 6.076 89.0117 5.332C89.4077 4.588 89.9417 4.042 90.6137 3.694C91.2977 3.346 92.0717 3.172 92.9357 3.172C93.4277 3.172 93.9017 3.226 94.3577 3.334C94.8137 3.43 95.1857 3.55 95.4737 3.694L94.9877 5.008C94.6997 4.9 94.3637 4.798 93.9797 4.702C93.5957 4.606 93.2357 4.558 92.8997 4.558C91.0037 4.558 90.0557 5.776 90.0557 8.212C90.0557 9.376 90.2837 10.27 90.7397 10.894C91.2077 11.506 91.8977 11.812 92.8097 11.812C93.3377 11.812 93.7997 11.758 94.1957 11.65C94.6037 11.542 94.9757 11.41 95.3117 11.254V12.658C94.9877 12.826 94.6277 12.952 94.2317 13.036C93.8477 13.132 93.3797 13.18 92.8277 13.18ZM103.312 3.352H105.04L100.918 7.996L105.382 13H103.546L99.1902 8.104V13H97.6062V3.352H99.1902V8.032L103.312 3.352Z" fill="#262121"/>
</g>
<defs>
<filter id="filter0_dd" x="0.746094" y="0.147949" width="108.636" height="25.172" filterUnits="userSpaceOnUse" color-interpolation-filters="sRGB">
<feFlood flood-opacity="0" result="BackgroundImageFix"/>
<feColorMatrix in="SourceAlpha" type="matrix" values="0 0 0 0 0 0 0 0 0 0 0 0 0 0 0 0 0 0 127 0"/>
<feOffset dy="4"/>
<feGaussianBlur stdDeviation="2"/>
<feColorMatrix type="matrix" values="0 0 0 0 0 0 0 0 0 0 0 0 0 0 0 0 0 0 0.25 0"/>
<feBlend mode="normal" in2="BackgroundImageFix" result="effect1_dropShadow"/>
<feColorMatrix in="SourceAlpha" type="matrix" values="0 0 0 0 0 0 0 0 0 0 0 0 0 0 0 0 0 0 127 0"/>
<feOffset dy="4"/>
<feGaussianBlur stdDeviation="2"/>
<feColorMatrix type="matrix" values="0 0 0 0 0 0 0 0 0 0 0 0 0 0 0 0 0 0 0.25 0"/>
<feBlend mode="normal" in2="effect1_dropShadow" result="effect2_dropShadow"/>
<feBlend mode="normal" in="SourceGraphic" in2="effect2_dropShadow" result="shape"/>
</filter>
</defs>
</svg>
