<svg width="110" height="35" viewBox="0 0 110 35" fill="none" xmlns="http://www.w3.org/2000/svg">
<g filter="url(#filter0_d)">
<path d="M15.832 26L7.372 3.464H7.228C7.3 4.208 7.36 5.216 7.408 6.488C7.456 7.736 7.48 9.044 7.48 10.412V26H4.492V0.295998H9.28L17.2 21.356H17.344L25.408 0.295998H30.16V26H26.956V10.196C26.956 8.948 26.98 7.712 27.028 6.488C27.1 5.264 27.16 4.268 27.208 3.5H27.064L18.496 26H15.832ZM44.1722 6.344C45.8282 6.344 47.2442 6.704 48.4202 7.424C49.6202 8.144 50.5322 9.164 51.1562 10.484C51.8042 11.78 52.1282 13.304 52.1282 15.056V16.964H38.9162C38.9642 19.148 39.5162 20.816 40.5722 21.968C41.6522 23.096 43.1522 23.66 45.0722 23.66C46.2962 23.66 47.3762 23.552 48.3122 23.336C49.2722 23.096 50.2562 22.76 51.2642 22.328V25.1C50.2802 25.532 49.3082 25.844 48.3482 26.036C47.3882 26.252 46.2482 26.36 44.9282 26.36C43.1042 26.36 41.4842 25.988 40.0682 25.244C38.6762 24.5 37.5842 23.396 36.7922 21.932C36.0242 20.444 35.6402 18.632 35.6402 16.496C35.6402 14.384 35.9882 12.572 36.6842 11.06C37.4042 9.548 38.4002 8.384 39.6722 7.568C40.9682 6.752 42.4682 6.344 44.1722 6.344ZM44.1362 8.936C42.6242 8.936 41.4242 9.428 40.5362 10.412C39.6722 11.372 39.1562 12.716 38.9882 14.444H48.8162C48.7922 12.812 48.4082 11.492 47.6642 10.484C46.9202 9.452 45.7442 8.936 44.1362 8.936ZM60.2085 6.704V14.732H70.6845V6.704H73.8525V26H70.6845V17.396H60.2085V26H57.0405V6.704H60.2085ZM105.018 16.316C105.018 19.508 104.25 21.98 102.714 23.732C101.178 25.484 99.1023 26.36 96.4863 26.36C94.0383 26.36 92.0583 25.592 90.5463 24.056C89.0583 22.52 88.2183 20.3 88.0263 17.396H83.1303V26H79.9623V6.704H83.1303V14.732H88.0623C88.3263 12.02 89.2023 9.944 90.6903 8.504C92.1783 7.064 94.1343 6.344 96.5583 6.344C98.2143 6.344 99.6783 6.74 100.95 7.532C102.222 8.3 103.218 9.428 103.938 10.916C104.658 12.38 105.018 14.18 105.018 16.316ZM91.2663 16.316C91.2663 18.74 91.6863 20.588 92.5263 21.86C93.3663 23.108 94.6983 23.732 96.5223 23.732C98.3703 23.732 99.7023 23.108 100.518 21.86C101.334 20.588 101.742 18.74 101.742 16.316C101.742 13.892 101.322 12.068 100.482 10.844C99.6663 9.62 98.3463 9.008 96.5223 9.008C94.6983 9.008 93.3663 9.62 92.5263 10.844C91.6863 12.068 91.2663 13.892 91.2663 16.316Z" fill="#161414"/>
</g>
<defs>
<filter id="filter0_d" x="0.491943" y="0.296021" width="108.526" height="34.064" filterUnits="userSpaceOnUse" color-interpolation-filters="sRGB">
<feFlood flood-opacity="0" result="BackgroundImageFix"/>
<feColorMatrix in="SourceAlpha" type="matrix" values="0 0 0 0 0 0 0 0 0 0 0 0 0 0 0 0 0 0 127 0"/>
<feOffset dy="4"/>
<feGaussianBlur stdDeviation="2"/>
<feColorMatrix type="matrix" values="0 0 0 0 0 0 0 0 0 0 0 0 0 0 0 0 0 0 0.25 0"/>
<feBlend mode="normal" in2="BackgroundImageFix" result="effect1_dropShadow"/>
<feBlend mode="normal" in="SourceGraphic" in2="effect1_dropShadow" result="shape"/>
</filter>
</defs>
</svg>
