<svg width="189" height="59" viewBox="0 0 189 59" fill="none" xmlns="http://www.w3.org/2000/svg">
<g filter="url(#filter0_d)">
<path d="M5.328 18V0.863999H18.192V18H16.056V2.76H7.488V18H5.328ZM24.5867 12.984C24.5867 13.176 24.5787 13.464 24.5627 13.848C24.5467 14.232 24.5227 14.616 24.4907 15C24.4747 15.384 24.4587 15.688 24.4427 15.912L31.3307 5.136H33.9227V18H31.9547V10.416C31.9547 10.16 31.9547 9.824 31.9547 9.408C31.9707 8.992 31.9867 8.584 32.0027 8.184C32.0187 7.768 32.0347 7.456 32.0507 7.248L25.2107 18H22.5947V5.136H24.5867V12.984ZM50.7126 22.464H48.6486V18H38.0166V5.136H40.1286V16.224H46.7766V5.136H48.8886V16.248H50.7126V22.464ZM65.8766 22.464H63.8126V18H53.1806V5.136H55.2926V16.224H61.9406V5.136H64.0526V16.248H65.8766V22.464ZM73.2167 4.92C74.7847 4.92 75.9447 5.264 76.6967 5.952C77.4487 6.64 77.8247 7.736 77.8247 9.24V18H76.2887L75.8807 16.176H75.7847C75.2247 16.88 74.6327 17.4 74.0087 17.736C73.4007 18.072 72.5527 18.24 71.4647 18.24C70.2967 18.24 69.3287 17.936 68.5607 17.328C67.7927 16.704 67.4087 15.736 67.4087 14.424C67.4087 13.144 67.9127 12.16 68.9207 11.472C69.9287 10.768 71.4807 10.384 73.5767 10.32L75.7607 10.248V9.48C75.7607 8.408 75.5287 7.664 75.0647 7.248C74.6007 6.832 73.9447 6.624 73.0967 6.624C72.4247 6.624 71.7847 6.728 71.1767 6.936C70.5687 7.128 70.0007 7.352 69.4727 7.608L68.8247 6.024C69.3847 5.72 70.0487 5.464 70.8167 5.256C71.5847 5.032 72.3847 4.92 73.2167 4.92ZM73.8407 11.784C72.2407 11.848 71.1287 12.104 70.5047 12.552C69.8967 13 69.5927 13.632 69.5927 14.448C69.5927 15.168 69.8087 15.696 70.2407 16.032C70.6887 16.368 71.2567 16.536 71.9447 16.536C73.0327 16.536 73.9367 16.24 74.6567 15.648C75.3767 15.04 75.7367 14.112 75.7367 12.864V11.712L73.8407 11.784ZM91.1743 4.728C90.6783 4.808 90.3343 4.984 90.1423 5.256C89.9663 5.512 89.8783 5.96 89.8783 6.6H91.1023V8.88H88.7503V6.96C88.7503 5.92 88.9423 5.136 89.3263 4.608C89.7103 4.08 90.3263 3.816 91.1743 3.816V4.728ZM94.6303 4.728C94.1343 4.808 93.7903 4.984 93.5983 5.256C93.4223 5.512 93.3343 5.96 93.3343 6.6H94.5583V8.88H92.2063V6.96C92.2063 5.92 92.3983 5.136 92.7823 4.608C93.1663 4.08 93.7823 3.816 94.6303 3.816V4.728ZM105.49 18L99.8496 2.976H99.7536C99.8016 3.472 99.8416 4.144 99.8736 4.992C99.9056 5.824 99.9216 6.696 99.9216 7.608V18H97.9296V0.863999H101.122L106.402 14.904H106.498L111.874 0.863999H115.042V18H112.906V7.464C112.906 6.632 112.922 5.808 112.954 4.992C113.002 4.176 113.042 3.512 113.074 3H112.978L107.266 18H105.49ZM120.207 18H117.759L121.431 12.6C120.935 12.472 120.455 12.272 119.991 12C119.527 11.712 119.151 11.32 118.863 10.824C118.575 10.312 118.431 9.68 118.431 8.928C118.431 7.696 118.847 6.76 119.679 6.12C120.511 5.464 121.615 5.136 122.991 5.136H128.751V18H126.639V12.888H123.519L120.207 18ZM120.471 8.952C120.471 9.688 120.743 10.24 121.287 10.608C121.847 10.96 122.623 11.136 123.615 11.136H126.639V6.888H123.207C122.231 6.888 121.527 7.08 121.095 7.464C120.679 7.848 120.471 8.344 120.471 8.952ZM137.981 18.24C136.845 18.24 135.829 18.008 134.933 17.544C134.053 17.08 133.357 16.36 132.845 15.384C132.349 14.408 132.101 13.16 132.101 11.64C132.101 10.056 132.365 8.768 132.893 7.776C133.421 6.784 134.133 6.056 135.029 5.592C135.941 5.128 136.973 4.896 138.125 4.896C138.781 4.896 139.413 4.968 140.021 5.112C140.629 5.24 141.125 5.4 141.509 5.592L140.861 7.344C140.477 7.2 140.029 7.064 139.517 6.936C139.005 6.808 138.525 6.744 138.077 6.744C135.549 6.744 134.285 8.368 134.285 11.616C134.285 13.168 134.589 14.36 135.197 15.192C135.821 16.008 136.741 16.416 137.957 16.416C138.661 16.416 139.277 16.344 139.805 16.2C140.349 16.056 140.845 15.88 141.293 15.672V17.544C140.861 17.768 140.381 17.936 139.853 18.048C139.341 18.176 138.717 18.24 137.981 18.24ZM146.465 5.136V10.488H153.449V5.136H155.561V18H153.449V12.264H146.465V18H144.353V5.136H146.465ZM170.818 11.544C170.818 13.672 170.274 15.32 169.186 16.488C168.114 17.656 166.658 18.24 164.818 18.24C163.682 18.24 162.666 17.984 161.77 17.472C160.89 16.944 160.194 16.184 159.682 15.192C159.17 14.184 158.914 12.968 158.914 11.544C158.914 9.416 159.45 7.776 160.522 6.624C161.594 5.472 163.05 4.896 164.89 4.896C166.058 4.896 167.082 5.16 167.962 5.688C168.858 6.2 169.554 6.952 170.05 7.944C170.562 8.92 170.818 10.12 170.818 11.544ZM161.098 11.544C161.098 13.064 161.394 14.272 161.986 15.168C162.594 16.048 163.554 16.488 164.866 16.488C166.162 16.488 167.114 16.048 167.722 15.168C168.33 14.272 168.634 13.064 168.634 11.544C168.634 10.024 168.33 8.832 167.722 7.968C167.114 7.104 166.154 6.672 164.842 6.672C163.53 6.672 162.578 7.104 161.986 7.968C161.394 8.832 161.098 10.024 161.098 11.544ZM179.133 4.896C180.237 4.896 181.181 5.136 181.965 5.616C182.765 6.096 183.373 6.776 183.789 7.656C184.221 8.52 184.437 9.536 184.437 10.704V11.976H175.629C175.661 13.432 176.029 14.544 176.733 15.312C177.453 16.064 178.453 16.44 179.733 16.44C180.549 16.44 181.269 16.368 181.893 16.224C182.533 16.064 183.189 15.84 183.861 15.552V17.4C183.205 17.688 182.557 17.896 181.917 18.024C181.277 18.168 180.517 18.24 179.637 18.24C178.421 18.24 177.341 17.992 176.397 17.496C175.469 17 174.741 16.264 174.213 15.288C173.701 14.296 173.445 13.088 173.445 11.664C173.445 10.256 173.677 9.048 174.141 8.04C174.621 7.032 175.285 6.256 176.133 5.712C176.997 5.168 177.997 4.896 179.133 4.896ZM179.109 6.624C178.101 6.624 177.301 6.952 176.709 7.608C176.133 8.248 175.789 9.144 175.677 10.296H182.229C182.213 9.208 181.957 8.328 181.461 7.656C180.965 6.968 180.181 6.624 179.109 6.624ZM9.912 31.92C11.48 31.92 12.64 32.264 13.392 32.952C14.144 33.64 14.52 34.736 14.52 36.24V45H12.984L12.576 43.176H12.48C11.92 43.88 11.328 44.4 10.704 44.736C10.096 45.072 9.248 45.24 8.16 45.24C6.992 45.24 6.024 44.936 5.256 44.328C4.488 43.704 4.104 42.736 4.104 41.424C4.104 40.144 4.608 39.16 5.616 38.472C6.624 37.768 8.176 37.384 10.272 37.32L12.456 37.248V36.48C12.456 35.408 12.224 34.664 11.76 34.248C11.296 33.832 10.64 33.624 9.792 33.624C9.12 33.624 8.48 33.728 7.872 33.936C7.264 34.128 6.696 34.352 6.168 34.608L5.52 33.024C6.08 32.72 6.744 32.464 7.512 32.256C8.28 32.032 9.08 31.92 9.912 31.92ZM10.536 38.784C8.936 38.848 7.824 39.104 7.2 39.552C6.592 40 6.288 40.632 6.288 41.448C6.288 42.168 6.504 42.696 6.936 43.032C7.384 43.368 7.952 43.536 8.64 43.536C9.728 43.536 10.632 43.24 11.352 42.648C12.072 42.04 12.432 41.112 12.432 39.864V38.712L10.536 38.784ZM23.6531 45.24C22.5171 45.24 21.5011 45.008 20.6051 44.544C19.7251 44.08 19.0291 43.36 18.5171 42.384C18.0211 41.408 17.7731 40.16 17.7731 38.64C17.7731 37.056 18.0371 35.768 18.5651 34.776C19.0931 33.784 19.8051 33.056 20.7011 32.592C21.6131 32.128 22.6451 31.896 23.7971 31.896C24.4531 31.896 25.0851 31.968 25.6931 32.112C26.3011 32.24 26.7971 32.4 27.1811 32.592L26.5331 34.344C26.1491 34.2 25.7011 34.064 25.1891 33.936C24.6771 33.808 24.1971 33.744 23.7491 33.744C21.2211 33.744 19.9571 35.368 19.9571 38.616C19.9571 40.168 20.2611 41.36 20.8691 42.192C21.4931 43.008 22.4131 43.416 23.6291 43.416C24.3331 43.416 24.9491 43.344 25.4771 43.2C26.0211 43.056 26.5171 42.88 26.9651 42.672V44.544C26.5331 44.768 26.0531 44.936 25.5251 45.048C25.0131 45.176 24.3891 45.24 23.6531 45.24ZM35.1844 45.24C34.0484 45.24 33.0324 45.008 32.1364 44.544C31.2564 44.08 30.5604 43.36 30.0484 42.384C29.5524 41.408 29.3044 40.16 29.3044 38.64C29.3044 37.056 29.5684 35.768 30.0964 34.776C30.6244 33.784 31.3364 33.056 32.2324 32.592C33.1444 32.128 34.1764 31.896 35.3284 31.896C35.9844 31.896 36.6164 31.968 37.2244 32.112C37.8324 32.24 38.3284 32.4 38.7124 32.592L38.0644 34.344C37.6804 34.2 37.2324 34.064 36.7204 33.936C36.2084 33.808 35.7284 33.744 35.2804 33.744C32.7524 33.744 31.4884 35.368 31.4884 38.616C31.4884 40.168 31.7924 41.36 32.4004 42.192C33.0244 43.008 33.9444 43.416 35.1604 43.416C35.8644 43.416 36.4804 43.344 37.0084 43.2C37.5524 43.056 38.0484 42.88 38.4964 42.672V44.544C38.0644 44.768 37.5844 44.936 37.0564 45.048C36.5444 45.176 35.9204 45.24 35.1844 45.24ZM52.7396 38.544C52.7396 40.672 52.1956 42.32 51.1076 43.488C50.0356 44.656 48.5796 45.24 46.7396 45.24C45.6036 45.24 44.5876 44.984 43.6916 44.472C42.8116 43.944 42.1156 43.184 41.6036 42.192C41.0916 41.184 40.8356 39.968 40.8356 38.544C40.8356 36.416 41.3716 34.776 42.4436 33.624C43.5156 32.472 44.9716 31.896 46.8116 31.896C47.9796 31.896 49.0036 32.16 49.8836 32.688C50.7796 33.2 51.4756 33.952 51.9716 34.944C52.4836 35.92 52.7396 37.12 52.7396 38.544ZM43.0196 38.544C43.0196 40.064 43.3156 41.272 43.9076 42.168C44.5156 43.048 45.4756 43.488 46.7876 43.488C48.0836 43.488 49.0356 43.048 49.6436 42.168C50.2516 41.272 50.5556 40.064 50.5556 38.544C50.5556 37.024 50.2516 35.832 49.6436 34.968C49.0356 34.104 48.0756 33.672 46.7636 33.672C45.4516 33.672 44.4996 34.104 43.9076 34.968C43.3156 35.832 43.0196 37.024 43.0196 38.544ZM62.2069 31.896C63.7909 31.896 65.0629 32.448 66.0229 33.552C66.9989 34.656 67.4869 36.32 67.4869 38.544C67.4869 40.736 66.9989 42.4 66.0229 43.536C65.0629 44.672 63.7829 45.24 62.1829 45.24C61.1909 45.24 60.3669 45.056 59.7109 44.688C59.0709 44.304 58.5669 43.864 58.1989 43.368H58.0549C58.0869 43.64 58.1189 43.984 58.1509 44.4C58.1829 44.816 58.1989 45.176 58.1989 45.48V50.76H56.0869V32.136H57.8149L58.1029 33.888H58.1989C58.5829 33.328 59.0869 32.856 59.7109 32.472C60.3349 32.088 61.1669 31.896 62.2069 31.896ZM61.8229 33.672C60.5109 33.672 59.5829 34.04 59.0389 34.776C58.5109 35.512 58.2309 36.632 58.1989 38.136V38.544C58.1989 40.128 58.4549 41.352 58.9669 42.216C59.4949 43.064 60.4629 43.488 61.8709 43.488C62.6549 43.488 63.2949 43.272 63.7909 42.84C64.3029 42.408 64.6789 41.824 64.9189 41.088C65.1749 40.336 65.3029 39.48 65.3029 38.52C65.3029 37.048 65.0149 35.872 64.4389 34.992C63.8789 34.112 63.0069 33.672 61.8229 33.672ZM79.4981 33.912H75.2981V45H73.2101V33.912H69.0581V32.136H79.4981V33.912ZM84.0242 39.984C84.0242 40.176 84.0162 40.464 84.0002 40.848C83.9842 41.232 83.9602 41.616 83.9282 42C83.9122 42.384 83.8962 42.688 83.8802 42.912L90.7682 32.136H93.3602V45H91.3922V37.416C91.3922 37.16 91.3922 36.824 91.3922 36.408C91.4082 35.992 91.4242 35.584 91.4402 35.184C91.4562 34.768 91.4722 34.456 91.4882 34.248L84.6482 45H82.0322V32.136H84.0242V39.984ZM96.3741 34.968C96.8701 34.888 97.2061 34.72 97.3821 34.464C97.5741 34.192 97.6701 33.736 97.6701 33.096H96.4461V30.816H98.7981V32.736C98.7981 33.776 98.6061 34.56 98.2221 35.088C97.8381 35.616 97.2221 35.88 96.3741 35.88V34.968ZM99.8301 34.968C100.326 34.888 100.662 34.72 100.838 34.464C101.03 34.192 101.126 33.736 101.126 33.096H99.9021V30.816H102.254V32.736C102.254 33.776 102.062 34.56 101.678 35.088C101.294 35.616 100.678 35.88 99.8301 35.88V34.968Z" fill="#EEDEDE"/>
</g>
<defs>
<filter id="filter0_d" x="0.104004" y="0.864014" width="188.333" height="57.896" filterUnits="userSpaceOnUse" color-interpolation-filters="sRGB">
<feFlood flood-opacity="0" result="BackgroundImageFix"/>
<feColorMatrix in="SourceAlpha" type="matrix" values="0 0 0 0 0 0 0 0 0 0 0 0 0 0 0 0 0 0 127 0"/>
<feOffset dy="4"/>
<feGaussianBlur stdDeviation="2"/>
<feColorMatrix type="matrix" values="0 0 0 0 0 0 0 0 0 0 0 0 0 0 0 0 0 0 0.25 0"/>
<feBlend mode="normal" in2="BackgroundImageFix" result="effect1_dropShadow"/>
<feBlend mode="normal" in="SourceGraphic" in2="effect1_dropShadow" result="shape"/>
</filter>
</defs>
</svg>
