<svg width="145" height="79" viewBox="0 0 145 79" fill="none" xmlns="http://www.w3.org/2000/svg">
<path d="M5.642 1.97C4.56867 1.97 3.724 2.32933 3.108 3.048C2.492 3.76667 2.184 4.75133 2.184 6.002C2.184 7.24333 2.46867 8.228 3.038 8.956C3.61667 9.67467 4.48 10.034 5.628 10.034C6.06667 10.034 6.482 9.99667 6.874 9.922C7.266 9.84733 7.64867 9.754 8.022 9.642V10.734C7.64867 10.874 7.26133 10.9767 6.86 11.042C6.468 11.1073 5.99667 11.14 5.446 11.14C4.42867 11.14 3.57933 10.93 2.898 10.51C2.21667 10.09 1.70333 9.49267 1.358 8.718C1.022 7.94333 0.854 7.03333 0.854 5.988C0.854 4.98 1.036 4.09333 1.4 3.328C1.77333 2.55333 2.31933 1.95133 3.038 1.522C3.75667 1.08333 4.62933 0.863999 5.656 0.863999C6.71067 0.863999 7.63 1.06 8.414 1.452L7.91 2.516C7.602 2.376 7.25667 2.25 6.874 2.138C6.50067 2.026 6.09 1.97 5.642 1.97ZM16.5597 7.234C16.5597 8.47533 16.2424 9.43667 15.6077 10.118C14.9824 10.7993 14.133 11.14 13.0597 11.14C12.397 11.14 11.8044 10.9907 11.2817 10.692C10.7684 10.384 10.3624 9.94067 10.0637 9.362C9.76504 8.774 9.6157 8.06467 9.6157 7.234C9.6157 5.99267 9.92837 5.036 10.5537 4.364C11.179 3.692 12.0284 3.356 13.1017 3.356C13.783 3.356 14.3804 3.51 14.8937 3.818C15.4164 4.11667 15.8224 4.55533 16.1117 5.134C16.4104 5.70333 16.5597 6.40333 16.5597 7.234ZM10.8897 7.234C10.8897 8.12067 11.0624 8.82533 11.4077 9.348C11.7624 9.86133 12.3224 10.118 13.0877 10.118C13.8437 10.118 14.399 9.86133 14.7537 9.348C15.1084 8.82533 15.2857 8.12067 15.2857 7.234C15.2857 6.34733 15.1084 5.652 14.7537 5.148C14.399 4.644 13.839 4.392 13.0737 4.392C12.3084 4.392 11.753 4.644 11.4077 5.148C11.0624 5.652 10.8897 6.34733 10.8897 7.234ZM21.5223 11.14C20.8596 11.14 20.2669 11.0047 19.7443 10.734C19.2309 10.4633 18.8249 10.0433 18.5263 9.474C18.2369 8.90467 18.0923 8.17667 18.0923 7.29C18.0923 6.366 18.2463 5.61467 18.5543 5.036C18.8623 4.45733 19.2776 4.03267 19.8003 3.762C20.3323 3.49133 20.9343 3.356 21.6063 3.356C21.9889 3.356 22.3576 3.398 22.7123 3.482C23.0669 3.55667 23.3563 3.65 23.5803 3.762L23.2023 4.784C22.9783 4.7 22.7169 4.62067 22.4183 4.546C22.1196 4.47133 21.8396 4.434 21.5783 4.434C20.1036 4.434 19.3663 5.38133 19.3663 7.276C19.3663 8.18133 19.5436 8.87667 19.8983 9.362C20.2623 9.838 20.7989 10.076 21.5083 10.076C21.9189 10.076 22.2783 10.034 22.5863 9.95C22.9036 9.866 23.1929 9.76333 23.4543 9.642V10.734C23.2023 10.8647 22.9223 10.9627 22.6143 11.028C22.3156 11.1027 21.9516 11.14 21.5223 11.14ZM30.4188 4.532H27.9688V11H26.7508V4.532H24.3288V3.496H30.4188V4.532ZM34.739 3.37C35.6537 3.37 36.3304 3.57067 36.769 3.972C37.2077 4.37333 37.427 5.01267 37.427 5.89V11H36.531L36.293 9.936H36.237C35.9104 10.3467 35.565 10.65 35.201 10.846C34.8464 11.042 34.3517 11.14 33.717 11.14C33.0357 11.14 32.471 10.9627 32.023 10.608C31.575 10.244 31.351 9.67933 31.351 8.914C31.351 8.16733 31.645 7.59333 32.233 7.192C32.821 6.78133 33.7264 6.55733 34.949 6.52L36.223 6.478V6.03C36.223 5.40467 36.0877 4.97067 35.817 4.728C35.5464 4.48533 35.1637 4.364 34.669 4.364C34.277 4.364 33.9037 4.42467 33.549 4.546C33.1944 4.658 32.863 4.78867 32.555 4.938L32.177 4.014C32.5037 3.83667 32.891 3.68733 33.339 3.566C33.787 3.43533 34.2537 3.37 34.739 3.37ZM35.103 7.374C34.1697 7.41133 33.521 7.56067 33.157 7.822C32.8024 8.08333 32.625 8.452 32.625 8.928C32.625 9.348 32.751 9.656 33.003 9.852C33.2644 10.048 33.5957 10.146 33.997 10.146C34.6317 10.146 35.159 9.97333 35.579 9.628C35.999 9.27333 36.209 8.732 36.209 8.004V7.332L35.103 7.374ZM45.7787 5.386C45.7787 5.85267 45.6387 6.21667 45.3587 6.478C45.0787 6.73933 44.7194 6.91667 44.2807 7.01V7.066C44.7474 7.13133 45.1534 7.29933 45.4987 7.57C45.844 7.83133 46.0167 8.242 46.0167 8.802C46.0167 9.43667 45.7787 9.964 45.3027 10.384C44.836 10.7947 44.0614 11 42.9787 11H39.7447V3.496H42.9647C43.4967 3.496 43.9727 3.55667 44.3927 3.678C44.822 3.79 45.158 3.986 45.4007 4.266C45.6527 4.53667 45.7787 4.91 45.7787 5.386ZM44.5327 5.54C44.5327 5.18533 44.402 4.92867 44.1407 4.77C43.8887 4.602 43.4734 4.518 42.8947 4.518H40.9767V6.576H42.6707C43.912 6.576 44.5327 6.23067 44.5327 5.54ZM44.7427 8.802C44.7427 8.37267 44.5794 8.06467 44.2527 7.878C43.926 7.69133 43.4454 7.598 42.8107 7.598H40.9767V10.006H42.8387C43.4547 10.006 43.926 9.91733 44.2527 9.74C44.5794 9.55333 44.7427 9.24067 44.7427 8.802ZM47.4611 9.684H48.7771V11H47.4611V9.684ZM47.4611 5.498H48.7771V6.814H47.4611V5.498ZM51.2603 11V1.004H58.7643V11H57.5183V2.11H52.5203V11H51.2603ZM62.4946 8.074C62.4946 8.186 62.4899 8.354 62.4806 8.578C62.4712 8.802 62.4572 9.026 62.4386 9.25C62.4292 9.474 62.4199 9.65133 62.4106 9.782L66.4286 3.496H67.9406V11H66.7926V6.576C66.7926 6.42667 66.7926 6.23067 66.7926 5.988C66.8019 5.74533 66.8112 5.50733 66.8206 5.274C66.8299 5.03133 66.8392 4.84933 66.8486 4.728L62.8586 11H61.3326V3.496H62.4946V8.074ZM74.7667 3.496H76.1107L72.9047 7.108L76.3767 11H74.9487L71.5607 7.192V11H70.3287V3.496H71.5607V7.136L74.7667 3.496ZM80.5808 3.37C81.4955 3.37 82.1722 3.57067 82.6108 3.972C83.0495 4.37333 83.2688 5.01267 83.2688 5.89V11H82.3728L82.1348 9.936H82.0788C81.7522 10.3467 81.4068 10.65 81.0428 10.846C80.6882 11.042 80.1935 11.14 79.5588 11.14C78.8775 11.14 78.3128 10.9627 77.8648 10.608C77.4168 10.244 77.1928 9.67933 77.1928 8.914C77.1928 8.16733 77.4868 7.59333 78.0748 7.192C78.6628 6.78133 79.5682 6.55733 80.7908 6.52L82.0648 6.478V6.03C82.0648 5.40467 81.9295 4.97067 81.6588 4.728C81.3882 4.48533 81.0055 4.364 80.5108 4.364C80.1188 4.364 79.7455 4.42467 79.3908 4.546C79.0362 4.658 78.7048 4.78867 78.3968 4.938L78.0188 4.014C78.3455 3.83667 78.7328 3.68733 79.1808 3.566C79.6288 3.43533 80.0955 3.37 80.5808 3.37ZM80.9448 7.374C80.0115 7.41133 79.3628 7.56067 78.9988 7.822C78.6442 8.08333 78.4668 8.452 78.4668 8.928C78.4668 9.348 78.5928 9.656 78.8448 9.852C79.1062 10.048 79.4375 10.146 79.8388 10.146C80.4735 10.146 81.0008 9.97333 81.4208 9.628C81.8408 9.27333 82.0508 8.732 82.0508 8.004V7.332L80.9448 7.374ZM86.8185 3.496V6.618H90.8925V3.496H92.1245V11H90.8925V7.654H86.8185V11H85.5865V3.496H86.8185ZM99.6805 4.532H97.2305V11H96.0125V4.532H93.5905V3.496H99.6805V4.532ZM102.391 3.496V6.618H106.465V3.496H107.697V11H106.465V7.654H102.391V11H101.159V3.496H102.391ZM112.915 3.37C113.829 3.37 114.506 3.57067 114.945 3.972C115.383 4.37333 115.603 5.01267 115.603 5.89V11H114.707L114.469 9.936H114.413C114.086 10.3467 113.741 10.65 113.377 10.846C113.022 11.042 112.527 11.14 111.893 11.14C111.211 11.14 110.647 10.9627 110.199 10.608C109.751 10.244 109.527 9.67933 109.527 8.914C109.527 8.16733 109.821 7.59333 110.409 7.192C110.997 6.78133 111.902 6.55733 113.125 6.52L114.399 6.478V6.03C114.399 5.40467 114.263 4.97067 113.993 4.728C113.722 4.48533 113.339 4.364 112.845 4.364C112.453 4.364 112.079 4.42467 111.725 4.546C111.37 4.658 111.039 4.78867 110.731 4.938L110.353 4.014C110.679 3.83667 111.067 3.68733 111.515 3.566C111.963 3.43533 112.429 3.37 112.915 3.37ZM113.279 7.374C112.345 7.41133 111.697 7.56067 111.333 7.822C110.978 8.08333 110.801 8.452 110.801 8.928C110.801 9.348 110.927 9.656 111.179 9.852C111.44 10.048 111.771 10.146 112.173 10.146C112.807 10.146 113.335 9.97333 113.755 9.628C114.175 9.27333 114.385 8.732 114.385 8.004V7.332L113.279 7.374ZM118.382 11H116.954L119.096 7.85C118.807 7.77533 118.527 7.65867 118.256 7.5C117.986 7.332 117.766 7.10333 117.598 6.814C117.43 6.51533 117.346 6.14667 117.346 5.708C117.346 4.98933 117.589 4.44333 118.074 4.07C118.56 3.68733 119.204 3.496 120.006 3.496H123.366V11H122.134V8.018H120.314L118.382 11ZM118.536 5.722C118.536 6.15133 118.695 6.47333 119.012 6.688C119.339 6.89333 119.792 6.996 120.37 6.996H122.134V4.518H120.132C119.563 4.518 119.152 4.63 118.9 4.854C118.658 5.078 118.536 5.36733 118.536 5.722ZM7.532 19.496V27H6.3V20.546H2.422V27H1.19V19.496H7.532ZM12.8243 19.356C13.4683 19.356 14.019 19.496 14.4763 19.776C14.943 20.056 15.2977 20.4527 15.5403 20.966C15.7923 21.47 15.9183 22.0627 15.9183 22.744V23.486H10.7803C10.799 24.3353 11.0137 24.984 11.4243 25.432C11.8443 25.8707 12.4277 26.09 13.1743 26.09C13.6503 26.09 14.0703 26.048 14.4343 25.964C14.8077 25.8707 15.1903 25.74 15.5823 25.572V26.65C15.1997 26.818 14.8217 26.9393 14.4483 27.014C14.075 27.098 13.6317 27.14 13.1183 27.14C12.409 27.14 11.779 26.9953 11.2283 26.706C10.687 26.4167 10.2623 25.9873 9.95433 25.418C9.65566 24.8393 9.50633 24.1347 9.50633 23.304C9.50633 22.4827 9.64166 21.778 9.91233 21.19C10.1923 20.602 10.5797 20.1493 11.0743 19.832C11.5783 19.5147 12.1617 19.356 12.8243 19.356ZM12.8103 20.364C12.2223 20.364 11.7557 20.5553 11.4103 20.938C11.0743 21.3113 10.8737 21.834 10.8083 22.506H14.6303C14.621 21.8713 14.4717 21.358 14.1823 20.966C13.893 20.5647 13.4357 20.364 12.8103 20.364ZM24.1707 19.496V27H22.9387V20.546H19.0607V27H17.8287V19.496H24.1707ZM32.907 19.496V27H31.675V20.546H27.797V27H26.565V19.496H32.907ZM38.1993 19.356C38.8433 19.356 39.394 19.496 39.8513 19.776C40.318 20.056 40.6727 20.4527 40.9153 20.966C41.1673 21.47 41.2933 22.0627 41.2933 22.744V23.486H36.1553C36.174 24.3353 36.3887 24.984 36.7993 25.432C37.2193 25.8707 37.8027 26.09 38.5493 26.09C39.0253 26.09 39.4453 26.048 39.8093 25.964C40.1827 25.8707 40.5653 25.74 40.9573 25.572V26.65C40.5747 26.818 40.1967 26.9393 39.8233 27.014C39.45 27.098 39.0067 27.14 38.4933 27.14C37.784 27.14 37.154 26.9953 36.6033 26.706C36.062 26.4167 35.6373 25.9873 35.3293 25.418C35.0307 24.8393 34.8813 24.1347 34.8813 23.304C34.8813 22.4827 35.0167 21.778 35.2873 21.19C35.5673 20.602 35.9547 20.1493 36.4493 19.832C36.9533 19.5147 37.5367 19.356 38.1993 19.356ZM38.1853 20.364C37.5973 20.364 37.1307 20.5553 36.7853 20.938C36.4493 21.3113 36.2487 21.834 36.1833 22.506H40.0053C39.996 21.8713 39.8467 21.358 39.5573 20.966C39.268 20.5647 38.8107 20.364 38.1853 20.364ZM46.7737 19.356C47.6977 19.356 48.4397 19.678 48.9997 20.322C49.569 20.966 49.8537 21.9367 49.8537 23.234C49.8537 24.5127 49.569 25.4833 48.9997 26.146C48.4397 26.8087 47.693 27.14 46.7597 27.14C46.181 27.14 45.7003 27.0327 45.3177 26.818C44.9443 26.594 44.6503 26.3373 44.4357 26.048H44.3517C44.3703 26.2067 44.389 26.4073 44.4077 26.65C44.4263 26.8927 44.4357 27.1027 44.4357 27.28V30.36H43.2037V19.496H44.2117L44.3797 20.518H44.4357C44.6597 20.1913 44.9537 19.916 45.3177 19.692C45.6817 19.468 46.167 19.356 46.7737 19.356ZM46.5497 20.392C45.7843 20.392 45.243 20.6067 44.9257 21.036C44.6177 21.4653 44.4543 22.1187 44.4357 22.996V23.234C44.4357 24.158 44.585 24.872 44.8837 25.376C45.1917 25.8707 45.7563 26.118 46.5777 26.118C47.035 26.118 47.4083 25.992 47.6977 25.74C47.9963 25.488 48.2157 25.1473 48.3557 24.718C48.505 24.2793 48.5797 23.78 48.5797 23.22C48.5797 22.3613 48.4117 21.6753 48.0757 21.162C47.749 20.6487 47.2403 20.392 46.5497 20.392ZM58.341 23.234C58.341 24.4753 58.0236 25.4367 57.389 26.118C56.7636 26.7993 55.9143 27.14 54.841 27.14C54.1783 27.14 53.5856 26.9907 53.063 26.692C52.5496 26.384 52.1436 25.9407 51.845 25.362C51.5463 24.774 51.397 24.0647 51.397 23.234C51.397 21.9927 51.7096 21.036 52.335 20.364C52.9603 19.692 53.8096 19.356 54.883 19.356C55.5643 19.356 56.1616 19.51 56.675 19.818C57.1976 20.1167 57.6036 20.5553 57.893 21.134C58.1916 21.7033 58.341 22.4033 58.341 23.234ZM52.671 23.234C52.671 24.1207 52.8436 24.8253 53.189 25.348C53.5436 25.8613 54.1036 26.118 54.869 26.118C55.625 26.118 56.1803 25.8613 56.535 25.348C56.8896 24.8253 57.067 24.1207 57.067 23.234C57.067 22.3473 56.8896 21.652 56.535 21.148C56.1803 20.644 55.6203 20.392 54.855 20.392C54.0896 20.392 53.5343 20.644 53.189 21.148C52.8436 21.652 52.671 22.3473 52.671 23.234ZM61.5255 19.496V22.618H65.5995V19.496H66.8315V27H65.5995V23.654H61.5255V27H60.2935V19.496H61.5255ZM70.3696 24.074C70.3696 24.186 70.3649 24.354 70.3556 24.578C70.3462 24.802 70.3322 25.026 70.3136 25.25C70.3042 25.474 70.2949 25.6513 70.2856 25.782L74.3036 19.496H75.8156V27H74.6676V22.576C74.6676 22.4267 74.6676 22.2307 74.6676 21.988C74.6769 21.7453 74.6862 21.5073 74.6956 21.274C74.7049 21.0313 74.7142 20.8493 74.7236 20.728L70.7336 27H69.2076V19.496H70.3696V24.074ZM77.8537 28.092C78.143 28.0453 78.339 27.9427 78.4417 27.784C78.5537 27.6347 78.6097 27.3733 78.6097 27H77.8957V25.67H79.2677V26.79C79.2677 27.3967 79.1557 27.854 78.9317 28.162C78.7077 28.47 78.3483 28.624 77.8537 28.624V28.092ZM0.014 35.496H1.33L2.954 39.766C3.094 40.1393 3.22 40.4987 3.332 40.844C3.444 41.18 3.528 41.502 3.584 41.81H3.64C3.696 41.5767 3.78467 41.2733 3.906 40.9C4.02733 40.5173 4.15333 40.1347 4.284 39.752L5.81 35.496H7.14L3.906 44.036C3.64467 44.7453 3.304 45.31 2.884 45.73C2.47333 46.15 1.904 46.36 1.176 46.36C0.952 46.36 0.756 46.346 0.588 46.318C0.42 46.2993 0.275333 46.276 0.154 46.248V45.268C0.256667 45.2867 0.378 45.3053 0.518 45.324C0.667333 45.3427 0.821333 45.352 0.98 45.352C1.40933 45.352 1.75467 45.2307 2.016 44.988C2.28667 44.7453 2.49667 44.4233 2.646 44.022L3.038 43.028L0.014 35.496ZM14.3607 37.386C14.3607 37.8527 14.2207 38.2167 13.9407 38.478C13.6607 38.7393 13.3014 38.9167 12.8627 39.01V39.066C13.3294 39.1313 13.7354 39.2993 14.0807 39.57C14.4261 39.8313 14.5987 40.242 14.5987 40.802C14.5987 41.4367 14.3607 41.964 13.8847 42.384C13.4181 42.7947 12.6434 43 11.5607 43H8.32672V35.496H11.5467C12.0787 35.496 12.5547 35.5567 12.9747 35.678C13.4041 35.79 13.7401 35.986 13.9827 36.266C14.2347 36.5367 14.3607 36.91 14.3607 37.386ZM13.1147 37.54C13.1147 37.1853 12.9841 36.9287 12.7227 36.77C12.4707 36.602 12.0554 36.518 11.4767 36.518H9.55872V38.576H11.2527C12.4941 38.576 13.1147 38.2307 13.1147 37.54ZM13.3247 40.802C13.3247 40.3727 13.1614 40.0647 12.8347 39.878C12.5081 39.6913 12.0274 39.598 11.3927 39.598H9.55872V42.006H11.4207C12.0367 42.006 12.5081 41.9173 12.8347 41.74C13.1614 41.5533 13.3247 41.2407 13.3247 40.802ZM19.2911 35.356C19.9351 35.356 20.4858 35.496 20.9431 35.776C21.4098 36.056 21.7645 36.4527 22.0071 36.966C22.2591 37.47 22.3851 38.0627 22.3851 38.744V39.486H17.2471C17.2658 40.3353 17.4805 40.984 17.8911 41.432C18.3111 41.8707 18.8945 42.09 19.6411 42.09C20.1171 42.09 20.5371 42.048 20.9011 41.964C21.2745 41.8707 21.6571 41.74 22.0491 41.572V42.65C21.6665 42.818 21.2885 42.9393 20.9151 43.014C20.5418 43.098 20.0985 43.14 19.5851 43.14C18.8758 43.14 18.2458 42.9953 17.6951 42.706C17.1538 42.4167 16.7291 41.9873 16.4211 41.418C16.1225 40.8393 15.9731 40.1347 15.9731 39.304C15.9731 38.4827 16.1085 37.778 16.3791 37.19C16.6591 36.602 17.0465 36.1493 17.5411 35.832C18.0451 35.5147 18.6285 35.356 19.2911 35.356ZM19.2771 36.364C18.6891 36.364 18.2225 36.5553 17.8771 36.938C17.5411 37.3113 17.3405 37.834 17.2751 38.506H21.0971C21.0878 37.8713 20.9385 37.358 20.6491 36.966C20.3598 36.5647 19.9025 36.364 19.2771 36.364ZM30.0075 43H28.7615V36.518H26.5495C26.4281 38.0953 26.2601 39.3693 26.0455 40.34C25.8308 41.3013 25.5461 42.0013 25.1915 42.44C24.8368 42.8787 24.3888 43.098 23.8475 43.098C23.7261 43.098 23.6048 43.0887 23.4835 43.07C23.3715 43.0607 23.2781 43.0373 23.2035 43V42.076C23.2595 42.0947 23.3201 42.1087 23.3855 42.118C23.4508 42.1273 23.5161 42.132 23.5815 42.132C24.0855 42.132 24.4868 41.5953 24.7855 40.522C25.0935 39.4487 25.3268 37.7733 25.4855 35.496H30.0075V43ZM33.5512 40.074C33.5512 40.186 33.5466 40.354 33.5372 40.578C33.5279 40.802 33.5139 41.026 33.4952 41.25C33.4859 41.474 33.4766 41.6513 33.4672 41.782L37.4852 35.496H38.9972V43H37.8492V38.576C37.8492 38.4267 37.8492 38.2307 37.8492 37.988C37.8586 37.7453 37.8679 37.5073 37.8772 37.274C37.8866 37.0313 37.8959 36.8493 37.9052 36.728L33.9152 43H32.3892V35.496H33.5512V40.074ZM42.4633 38.226C42.4633 39.0847 42.944 39.514 43.9053 39.514C44.372 39.514 44.7966 39.444 45.1793 39.304C45.562 39.1547 45.954 38.9587 46.3553 38.716V35.496H47.5873V43H46.3553V39.654C45.9353 39.9247 45.52 40.1393 45.1093 40.298C44.708 40.4473 44.2226 40.522 43.6533 40.522C42.888 40.522 42.2906 40.3213 41.8613 39.92C41.4413 39.5187 41.2313 38.982 41.2313 38.31V35.496H42.4633V38.226ZM52.8693 35.356C53.5133 35.356 54.0639 35.496 54.5213 35.776C54.9879 36.056 55.3426 36.4527 55.5853 36.966C55.8373 37.47 55.9633 38.0627 55.9633 38.744V39.486H50.8253C50.8439 40.3353 51.0586 40.984 51.4693 41.432C51.8893 41.8707 52.4726 42.09 53.2193 42.09C53.6953 42.09 54.1153 42.048 54.4793 41.964C54.8526 41.8707 55.2353 41.74 55.6273 41.572V42.65C55.2446 42.818 54.8666 42.9393 54.4933 43.014C54.1199 43.098 53.6766 43.14 53.1633 43.14C52.4539 43.14 51.8239 42.9953 51.2733 42.706C50.7319 42.4167 50.3073 41.9873 49.9993 41.418C49.7006 40.8393 49.5513 40.1347 49.5513 39.304C49.5513 38.4827 49.6866 37.778 49.9573 37.19C50.2373 36.602 50.6246 36.1493 51.1193 35.832C51.6233 35.5147 52.2066 35.356 52.8693 35.356ZM52.8553 36.364C52.2673 36.364 51.8006 36.5553 51.4553 36.938C51.1193 37.3113 50.9186 37.834 50.8533 38.506H54.6753C54.6659 37.8713 54.5166 37.358 54.2273 36.966C53.9379 36.5647 53.4806 36.364 52.8553 36.364ZM59.1056 35.496V38.618H63.1796V35.496H64.4116V43H63.1796V39.654H59.1056V43H57.8736V35.496H59.1056ZM68.0197 35.496V38.618H72.0937V35.496H73.3257V43H72.0937V39.654H68.0197V43H66.7877V35.496H68.0197ZM78.5437 35.37C79.4584 35.37 80.1351 35.5707 80.5737 35.972C81.0124 36.3733 81.2317 37.0127 81.2317 37.89V43H80.3357L80.0977 41.936H80.0417C79.7151 42.3467 79.3697 42.65 79.0057 42.846C78.6511 43.042 78.1564 43.14 77.5217 43.14C76.8404 43.14 76.2757 42.9627 75.8277 42.608C75.3797 42.244 75.1557 41.6793 75.1557 40.914C75.1557 40.1673 75.4497 39.5933 76.0377 39.192C76.6257 38.7813 77.5311 38.5573 78.7537 38.52L80.0277 38.478V38.03C80.0277 37.4047 79.8924 36.9707 79.6217 36.728C79.3511 36.4853 78.9684 36.364 78.4737 36.364C78.0817 36.364 77.7084 36.4247 77.3537 36.546C76.9991 36.658 76.6677 36.7887 76.3597 36.938L75.9817 36.014C76.3084 35.8367 76.6957 35.6873 77.1437 35.566C77.5917 35.4353 78.0584 35.37 78.5437 35.37ZM78.9077 39.374C77.9744 39.4113 77.3257 39.5607 76.9617 39.822C76.6071 40.0833 76.4297 40.452 76.4297 40.928C76.4297 41.348 76.5557 41.656 76.8077 41.852C77.0691 42.048 77.4004 42.146 77.8017 42.146C78.4364 42.146 78.9637 41.9733 79.3837 41.628C79.8037 41.2733 80.0137 40.732 80.0137 40.004V39.332L78.9077 39.374ZM84.0114 43H82.5834L84.7254 39.85C84.436 39.7753 84.156 39.6587 83.8854 39.5C83.6147 39.332 83.3954 39.1033 83.2274 38.814C83.0594 38.5153 82.9754 38.1467 82.9754 37.708C82.9754 36.9893 83.218 36.4433 83.7034 36.07C84.1887 35.6873 84.8327 35.496 85.6354 35.496H88.9954V43H87.7634V40.018H85.9434L84.0114 43ZM84.1654 37.722C84.1654 38.1513 84.324 38.4733 84.6414 38.688C84.968 38.8933 85.4207 38.996 85.9994 38.996H87.7634V36.518H85.7614C85.192 36.518 84.7814 36.63 84.5294 36.854C84.2867 37.078 84.1654 37.3673 84.1654 37.722ZM101.977 35.496V43H100.745V36.546H96.8673V43H95.6353V35.496H101.977ZM110.896 39.234C110.896 40.4753 110.578 41.4367 109.944 42.118C109.318 42.7993 108.469 43.14 107.396 43.14C106.733 43.14 106.14 42.9907 105.618 42.692C105.104 42.384 104.698 41.9407 104.4 41.362C104.101 40.774 103.952 40.0647 103.952 39.234C103.952 37.9927 104.264 37.036 104.89 36.364C105.515 35.692 106.364 35.356 107.438 35.356C108.119 35.356 108.716 35.51 109.23 35.818C109.752 36.1167 110.158 36.5553 110.448 37.134C110.746 37.7033 110.896 38.4033 110.896 39.234ZM105.226 39.234C105.226 40.1207 105.398 40.8253 105.744 41.348C106.098 41.8613 106.658 42.118 107.424 42.118C108.18 42.118 108.735 41.8613 109.09 41.348C109.444 40.8253 109.622 40.1207 109.622 39.234C109.622 38.3473 109.444 37.652 109.09 37.148C108.735 36.644 108.175 36.392 107.41 36.392C106.644 36.392 106.089 36.644 105.744 37.148C105.398 37.652 105.226 38.3473 105.226 39.234ZM116.418 35.356C117.342 35.356 118.084 35.678 118.644 36.322C119.214 36.966 119.498 37.9367 119.498 39.234C119.498 40.5127 119.214 41.4833 118.644 42.146C118.084 42.8087 117.338 43.14 116.404 43.14C115.826 43.14 115.345 43.0327 114.962 42.818C114.589 42.594 114.295 42.3373 114.08 42.048H113.996C114.015 42.2067 114.034 42.4073 114.052 42.65C114.071 42.8927 114.08 43.1027 114.08 43.28V46.36H112.848V35.496H113.856L114.024 36.518H114.08C114.304 36.1913 114.598 35.916 114.962 35.692C115.326 35.468 115.812 35.356 116.418 35.356ZM116.194 36.392C115.429 36.392 114.888 36.6067 114.57 37.036C114.262 37.4653 114.099 38.1187 114.08 38.996V39.234C114.08 40.158 114.23 40.872 114.528 41.376C114.836 41.8707 115.401 42.118 116.222 42.118C116.68 42.118 117.053 41.992 117.342 41.74C117.641 41.488 117.86 41.1473 118 40.718C118.15 40.2793 118.224 39.78 118.224 39.22C118.224 38.3613 118.056 37.6753 117.72 37.162C117.394 36.6487 116.885 36.392 116.194 36.392ZM128.867 45.604H127.663V43H121.461V35.496H122.693V41.964H126.571V35.496H127.803V41.978H128.867V45.604ZM131.469 40.074C131.469 40.186 131.465 40.354 131.455 40.578C131.446 40.802 131.432 41.026 131.413 41.25C131.404 41.474 131.395 41.6513 131.385 41.782L135.403 35.496H136.915V43H135.767V38.576C135.767 38.4267 135.767 38.2307 135.767 37.988C135.777 37.7453 135.786 37.5073 135.795 37.274C135.805 37.0313 135.814 36.8493 135.823 36.728L131.833 43H130.307V35.496H131.469V40.074ZM139.765 43H138.337L140.479 39.85C140.19 39.7753 139.91 39.6587 139.639 39.5C139.369 39.332 139.149 39.1033 138.981 38.814C138.813 38.5153 138.729 38.1467 138.729 37.708C138.729 36.9893 138.972 36.4433 139.457 36.07C139.943 35.6873 140.587 35.496 141.389 35.496H144.749V43H143.517V40.018H141.697L139.765 43ZM139.919 37.722C139.919 38.1513 140.078 38.4733 140.395 38.688C140.722 38.8933 141.175 38.996 141.753 38.996H143.517V36.518H141.515C140.946 36.518 140.535 36.63 140.283 36.854C140.041 37.078 139.919 37.3673 139.919 37.722ZM9.24 51.496V59H8.134V54.212C8.134 54.016 8.13867 53.8107 8.148 53.596C8.16667 53.3813 8.18533 53.1713 8.204 52.966H8.162L5.712 59H4.676L2.296 52.966H2.254C2.282 53.386 2.296 53.8153 2.296 54.254V59H1.19V51.496H2.828L5.194 57.53L7.602 51.496H9.24ZM18.1593 55.234C18.1593 56.4753 17.842 57.4367 17.2073 58.118C16.582 58.7993 15.7326 59.14 14.6593 59.14C13.9966 59.14 13.404 58.9907 12.8813 58.692C12.368 58.384 11.962 57.9407 11.6633 57.362C11.3646 56.774 11.2153 56.0647 11.2153 55.234C11.2153 53.9927 11.528 53.036 12.1533 52.364C12.7786 51.692 13.628 51.356 14.7013 51.356C15.3826 51.356 15.98 51.51 16.4933 51.818C17.016 52.1167 17.422 52.5553 17.7113 53.134C18.01 53.7033 18.1593 54.4033 18.1593 55.234ZM12.4893 55.234C12.4893 56.1207 12.662 56.8253 13.0073 57.348C13.362 57.8613 13.922 58.118 14.6873 58.118C15.4433 58.118 15.9986 57.8613 16.3533 57.348C16.708 56.8253 16.8853 56.1207 16.8853 55.234C16.8853 54.3473 16.708 53.652 16.3533 53.148C15.9986 52.644 15.4386 52.392 14.6733 52.392C13.908 52.392 13.3526 52.644 13.0073 53.148C12.662 53.652 12.4893 54.3473 12.4893 55.234ZM27.5179 61.604H26.3139V59H20.1119V51.496H21.3439V57.964H25.2219V51.496H26.4539V57.978H27.5179V61.604ZM31.7996 51.37C32.7142 51.37 33.3909 51.5707 33.8296 51.972C34.2682 52.3733 34.4876 53.0127 34.4876 53.89V59H33.5916L33.3536 57.936H33.2976C32.9709 58.3467 32.6256 58.65 32.2616 58.846C31.9069 59.042 31.4122 59.14 30.7776 59.14C30.0962 59.14 29.5316 58.9627 29.0836 58.608C28.6356 58.244 28.4116 57.6793 28.4116 56.914C28.4116 56.1673 28.7056 55.5933 29.2936 55.192C29.8816 54.7813 30.7869 54.5573 32.0096 54.52L33.2836 54.478V54.03C33.2836 53.4047 33.1482 52.9707 32.8776 52.728C32.6069 52.4853 32.2242 52.364 31.7296 52.364C31.3376 52.364 30.9642 52.4247 30.6096 52.546C30.2549 52.658 29.9236 52.7887 29.6156 52.938L29.2376 52.014C29.5642 51.8367 29.9516 51.6873 30.3996 51.566C30.8476 51.4353 31.3142 51.37 31.7996 51.37ZM32.1636 55.374C31.2302 55.4113 30.5816 55.5607 30.2176 55.822C29.8629 56.0833 29.6856 56.452 29.6856 56.928C29.6856 57.348 29.8116 57.656 30.0636 57.852C30.3249 58.048 30.6562 58.146 31.0576 58.146C31.6922 58.146 32.2196 57.9733 32.6396 57.628C33.0596 57.2733 33.2696 56.732 33.2696 56.004V55.332L32.1636 55.374ZM40.3752 51.356C41.2992 51.356 42.0412 51.678 42.6012 52.322C43.1706 52.966 43.4552 53.9367 43.4552 55.234C43.4552 56.5127 43.1706 57.4833 42.6012 58.146C42.0412 58.8087 41.2946 59.14 40.3612 59.14C39.7826 59.14 39.3019 59.0327 38.9192 58.818C38.5459 58.594 38.2519 58.3373 38.0372 58.048H37.9532C37.9719 58.2067 37.9906 58.4073 38.0092 58.65C38.0279 58.8927 38.0372 59.1027 38.0372 59.28V62.36H36.8052V51.496H37.8132L37.9812 52.518H38.0372C38.2612 52.1913 38.5552 51.916 38.9192 51.692C39.2832 51.468 39.7686 51.356 40.3752 51.356ZM40.1512 52.392C39.3859 52.392 38.8446 52.6067 38.5272 53.036C38.2192 53.4653 38.0559 54.1187 38.0372 54.996V55.234C38.0372 56.158 38.1866 56.872 38.4852 57.376C38.7932 57.8707 39.3579 58.118 40.1792 58.118C40.6366 58.118 41.0099 57.992 41.2992 57.74C41.5979 57.488 41.8172 57.1473 41.9572 56.718C42.1066 56.2793 42.1812 55.78 42.1812 55.22C42.1812 54.3613 42.0132 53.6753 41.6772 53.162C41.3506 52.6487 40.8419 52.392 40.1512 52.392ZM48.3165 51.356C48.9605 51.356 49.5112 51.496 49.9685 51.776C50.4352 52.056 50.7898 52.4527 51.0325 52.966C51.2845 53.47 51.4105 54.0627 51.4105 54.744V55.486H46.2725C46.2912 56.3353 46.5058 56.984 46.9165 57.432C47.3365 57.8707 47.9198 58.09 48.6665 58.09C49.1425 58.09 49.5625 58.048 49.9265 57.964C50.2998 57.8707 50.6825 57.74 51.0745 57.572V58.65C50.6918 58.818 50.3138 58.9393 49.9405 59.014C49.5672 59.098 49.1238 59.14 48.6105 59.14C47.9012 59.14 47.2712 58.9953 46.7205 58.706C46.1792 58.4167 45.7545 57.9873 45.4465 57.418C45.1478 56.8393 44.9985 56.1347 44.9985 55.304C44.9985 54.4827 45.1338 53.778 45.4045 53.19C45.6845 52.602 46.0718 52.1493 46.5665 51.832C47.0705 51.5147 47.6538 51.356 48.3165 51.356ZM48.3025 52.364C47.7145 52.364 47.2478 52.5553 46.9025 52.938C46.5665 53.3113 46.3658 53.834 46.3005 54.506H50.1225C50.1132 53.8713 49.9638 53.358 49.6745 52.966C49.3852 52.5647 48.9278 52.364 48.3025 52.364ZM59.0329 59H57.7869V52.518H55.5749C55.4535 54.0953 55.2855 55.3693 55.0709 56.34C54.8562 57.3013 54.5715 58.0013 54.2169 58.44C53.8622 58.8787 53.4142 59.098 52.8729 59.098C52.7515 59.098 52.6302 59.0887 52.5089 59.07C52.3969 59.0607 52.3035 59.0373 52.2289 59V58.076C52.2849 58.0947 52.3455 58.1087 52.4109 58.118C52.4762 58.1273 52.5415 58.132 52.6069 58.132C53.1109 58.132 53.5122 57.5953 53.8109 56.522C54.1189 55.4487 54.3522 53.7733 54.5109 51.496H59.0329V59ZM67.1266 59H65.8806V52.518H63.6686C63.5473 54.0953 63.3793 55.3693 63.1646 56.34C62.9499 57.3013 62.6653 58.0013 62.3106 58.44C61.9559 58.8787 61.5079 59.098 60.9666 59.098C60.8453 59.098 60.7239 59.0887 60.6026 59.07C60.4906 59.0607 60.3973 59.0373 60.3226 59V58.076C60.3786 58.0947 60.4393 58.1087 60.5046 58.118C60.5699 58.1273 60.6353 58.132 60.7006 58.132C61.2046 58.132 61.6059 57.5953 61.9046 56.522C62.2126 55.4487 62.4459 53.7733 62.6046 51.496H67.1266V59ZM69.5084 59V51.496H70.7404V54.576H72.6864C73.657 54.576 74.3757 54.7533 74.8424 55.108C75.309 55.4627 75.5424 55.9947 75.5424 56.704C75.5424 57.404 75.3137 57.964 74.8564 58.384C74.399 58.7947 73.657 59 72.6304 59H69.5084ZM76.7884 59V51.496H78.0204V59H76.7884ZM72.5184 58.006C73.0504 58.006 73.4844 57.9173 73.8204 57.74C74.1564 57.5533 74.3244 57.2313 74.3244 56.774C74.3244 56.3167 74.1704 56.0087 73.8624 55.85C73.5544 55.682 73.111 55.598 72.5324 55.598H70.7404V58.006H72.5184ZM80.0548 60.092C80.3442 60.0453 80.5402 59.9427 80.6428 59.784C80.7548 59.6347 80.8108 59.3733 80.8108 59H80.0968V57.67H81.4688V58.79C81.4688 59.3967 81.3568 59.854 81.1328 60.162C80.9088 60.47 80.5495 60.624 80.0548 60.624V60.092ZM93.2274 52.532H90.7774V59H89.5594V52.532H87.1374V51.496H93.2274V52.532ZM101.093 55.234C101.093 56.4753 100.776 57.4367 100.141 58.118C99.5156 58.7993 98.6662 59.14 97.5929 59.14C96.9302 59.14 96.3376 58.9907 95.8149 58.692C95.3016 58.384 94.8956 57.9407 94.5969 57.362C94.2982 56.774 94.1489 56.0647 94.1489 55.234C94.1489 53.9927 94.4616 53.036 95.0869 52.364C95.7122 51.692 96.5616 51.356 97.6349 51.356C98.3162 51.356 98.9136 51.51 99.4269 51.818C99.9496 52.1167 100.356 52.5553 100.645 53.134C100.944 53.7033 101.093 54.4033 101.093 55.234ZM95.4229 55.234C95.4229 56.1207 95.5956 56.8253 95.9409 57.348C96.2956 57.8613 96.8556 58.118 97.6209 58.118C98.3769 58.118 98.9322 57.8613 99.2869 57.348C99.6416 56.8253 99.8189 56.1207 99.8189 55.234C99.8189 54.3473 99.6416 53.652 99.2869 53.148C98.9322 52.644 98.3722 52.392 97.6069 52.392C96.8416 52.392 96.2862 52.644 95.9409 53.148C95.5956 53.652 95.4229 54.3473 95.4229 55.234ZM111.095 51.496V59H109.989V54.212C109.989 54.016 109.994 53.8107 110.003 53.596C110.022 53.3813 110.041 53.1713 110.059 52.966H110.017L107.567 59H106.531L104.151 52.966H104.109C104.137 53.386 104.151 53.8153 104.151 54.254V59H103.045V51.496H104.683L107.049 57.53L109.457 51.496H111.095ZM116.333 51.37C117.247 51.37 117.924 51.5707 118.363 51.972C118.801 52.3733 119.021 53.0127 119.021 53.89V59H118.125L117.887 57.936H117.831C117.504 58.3467 117.159 58.65 116.795 58.846C116.44 59.042 115.945 59.14 115.311 59.14C114.629 59.14 114.065 58.9627 113.617 58.608C113.169 58.244 112.945 57.6793 112.945 56.914C112.945 56.1673 113.239 55.5933 113.827 55.192C114.415 54.7813 115.32 54.5573 116.543 54.52L117.817 54.478V54.03C117.817 53.4047 117.681 52.9707 117.411 52.728C117.14 52.4853 116.757 52.364 116.263 52.364C115.871 52.364 115.497 52.4247 115.143 52.546C114.788 52.658 114.457 52.7887 114.149 52.938L113.771 52.014C114.097 51.8367 114.485 51.6873 114.933 51.566C115.381 51.4353 115.847 51.37 116.333 51.37ZM116.697 55.374C115.763 55.4113 115.115 55.5607 114.751 55.822C114.396 56.0833 114.219 56.452 114.219 56.928C114.219 57.348 114.345 57.656 114.597 57.852C114.858 58.048 115.189 58.146 115.591 58.146C116.225 58.146 116.753 57.9733 117.173 57.628C117.593 57.2733 117.803 56.732 117.803 56.004V55.332L116.697 55.374ZM126.518 52.532H124.068V59H122.85V52.532H120.428V51.496H126.518V52.532ZM127.997 59V51.496H129.229V54.576H131.175C132.145 54.576 132.864 54.7533 133.331 55.108C133.797 55.4627 134.031 55.9947 134.031 56.704C134.031 57.404 133.802 57.964 133.345 58.384C132.887 58.7947 132.145 59 131.119 59H127.997ZM135.277 59V51.496H136.509V59H135.277ZM131.007 58.006C131.539 58.006 131.973 57.9173 132.309 57.74C132.645 57.5533 132.813 57.2313 132.813 56.774C132.813 56.3167 132.659 56.0087 132.351 55.85C132.043 55.682 131.599 55.598 131.021 55.598H129.229V58.006H131.007ZM138.543 60.092C138.832 60.0453 139.028 59.9427 139.131 59.784C139.243 59.6347 139.299 59.3733 139.299 59H138.585V57.67H139.957V58.79C139.957 59.3967 139.845 59.854 139.621 60.162C139.397 60.47 139.038 60.624 138.543 60.624V60.092ZM6.37 68.532H3.92V75H2.702V68.532H0.28V67.496H6.37V68.532ZM14.2355 71.234C14.2355 72.4753 13.9182 73.4367 13.2835 74.118C12.6582 74.7993 11.8088 75.14 10.7355 75.14C10.0728 75.14 9.48015 74.9907 8.95748 74.692C8.44415 74.384 8.03815 73.9407 7.73948 73.362C7.44082 72.774 7.29148 72.0647 7.29148 71.234C7.29148 69.9927 7.60415 69.036 8.22948 68.364C8.85482 67.692 9.70415 67.356 10.7775 67.356C11.4588 67.356 12.0562 67.51 12.5695 67.818C13.0922 68.1167 13.4982 68.5553 13.7875 69.134C14.0862 69.7033 14.2355 70.4033 14.2355 71.234ZM8.56548 71.234C8.56548 72.1207 8.73815 72.8253 9.08348 73.348C9.43815 73.8613 9.99815 74.118 10.7635 74.118C11.5195 74.118 12.0748 73.8613 12.4295 73.348C12.7842 72.8253 12.9615 72.1207 12.9615 71.234C12.9615 70.3473 12.7842 69.652 12.4295 69.148C12.0748 68.644 11.5148 68.392 10.7495 68.392C9.98415 68.392 9.42882 68.644 9.08348 69.148C8.73815 69.652 8.56548 70.3473 8.56548 71.234ZM24.238 67.496V75H23.132V70.212C23.132 70.016 23.1367 69.8107 23.146 69.596C23.1647 69.3813 23.1834 69.1713 23.202 68.966H23.16L20.71 75H19.674L17.294 68.966H17.252C17.28 69.386 17.294 69.8153 17.294 70.254V75H16.188V67.496H17.826L20.192 73.53L22.6 67.496H24.238ZM29.4754 67.37C30.39 67.37 31.0667 67.5707 31.5054 67.972C31.944 68.3733 32.1634 69.0127 32.1634 69.89V75H31.2674L31.0294 73.936H30.9734C30.6467 74.3467 30.3014 74.65 29.9374 74.846C29.5827 75.042 29.088 75.14 28.4534 75.14C27.772 75.14 27.2074 74.9627 26.7594 74.608C26.3114 74.244 26.0874 73.6793 26.0874 72.914C26.0874 72.1673 26.3814 71.5933 26.9694 71.192C27.5574 70.7813 28.4627 70.5573 29.6854 70.52L30.9594 70.478V70.03C30.9594 69.4047 30.824 68.9707 30.5534 68.728C30.2827 68.4853 29.9 68.364 29.4054 68.364C29.0134 68.364 28.64 68.4247 28.2854 68.546C27.9307 68.658 27.5994 68.7887 27.2914 68.938L26.9134 68.014C27.24 67.8367 27.6274 67.6873 28.0754 67.566C28.5234 67.4353 28.99 67.37 29.4754 67.37ZM29.8394 71.374C28.906 71.4113 28.2574 71.5607 27.8934 71.822C27.5387 72.0833 27.3614 72.452 27.3614 72.928C27.3614 73.348 27.4874 73.656 27.7394 73.852C28.0007 74.048 28.332 74.146 28.7334 74.146C29.368 74.146 29.8954 73.9733 30.3154 73.628C30.7354 73.2733 30.9454 72.732 30.9454 72.004V71.332L29.8394 71.374ZM39.661 68.532H37.211V75H35.993V68.532H33.571V67.496H39.661V68.532ZM42.3712 67.496V70.618H46.4452V67.496H47.6772V75H46.4452V71.654H42.3712V75H41.1392V67.496H42.3712ZM50.0533 75V67.496H51.2853V70.576H53.2313C54.2019 70.576 54.9206 70.7533 55.3873 71.108C55.8539 71.4627 56.0873 71.9947 56.0873 72.704C56.0873 73.404 55.8586 73.964 55.4013 74.384C54.9439 74.7947 54.2019 75 53.1753 75H50.0533ZM57.3333 75V67.496H58.5653V75H57.3333ZM53.0633 74.006C53.5953 74.006 54.0293 73.9173 54.3653 73.74C54.7013 73.5533 54.8693 73.2313 54.8693 72.774C54.8693 72.3167 54.7153 72.0087 54.4073 71.85C54.0993 71.682 53.6559 71.598 53.0773 71.598H51.2853V74.006H53.0633ZM67.0258 64.388C66.9604 65.088 66.7224 65.62 66.3118 65.984C65.9104 66.3387 65.2664 66.516 64.3798 66.516C63.4651 66.516 62.8164 66.3387 62.4338 65.984C62.0604 65.6293 61.8504 65.0973 61.8038 64.388H62.9518C62.9984 64.892 63.1291 65.2327 63.3438 65.41C63.5678 65.578 63.9224 65.662 64.4078 65.662C64.8371 65.662 65.1731 65.5733 65.4158 65.396C65.6678 65.2093 65.8171 64.8733 65.8638 64.388H67.0258ZM62.1118 72.074C62.1118 72.186 62.1071 72.354 62.0978 72.578C62.0884 72.802 62.0744 73.026 62.0558 73.25C62.0464 73.474 62.0371 73.6513 62.0278 73.782L66.0458 67.496H67.5578V75H66.4098V70.576C66.4098 70.4267 66.4098 70.2307 66.4098 69.988C66.4191 69.7453 66.4284 69.5073 66.4378 69.274C66.4471 69.0313 66.4564 68.8493 66.4658 68.728L62.4758 75H60.9498V67.496H62.1118V72.074ZM77.2215 75.14C76.5588 75.14 75.9662 75.0047 75.4435 74.734C74.9302 74.4633 74.5242 74.0433 74.2255 73.474C73.9362 72.9047 73.7915 72.1767 73.7915 71.29C73.7915 70.366 73.9455 69.6147 74.2535 69.036C74.5615 68.4573 74.9768 68.0327 75.4995 67.762C76.0315 67.4913 76.6335 67.356 77.3055 67.356C77.6882 67.356 78.0568 67.398 78.4115 67.482C78.7662 67.5567 79.0555 67.65 79.2795 67.762L78.9015 68.784C78.6775 68.7 78.4162 68.6207 78.1175 68.546C77.8188 68.4713 77.5388 68.434 77.2775 68.434C75.8028 68.434 75.0655 69.3813 75.0655 71.276C75.0655 72.1813 75.2428 72.8767 75.5975 73.362C75.9615 73.838 76.4982 74.076 77.2075 74.076C77.6182 74.076 77.9775 74.034 78.2855 73.95C78.6028 73.866 78.8922 73.7633 79.1535 73.642V74.734C78.9015 74.8647 78.6215 74.9627 78.3135 75.028C78.0148 75.1027 77.6508 75.14 77.2215 75.14ZM87.462 71.234C87.462 72.4753 87.1447 73.4367 86.51 74.118C85.8847 74.7993 85.0354 75.14 83.962 75.14C83.2994 75.14 82.7067 74.9907 82.184 74.692C81.6707 74.384 81.2647 73.9407 80.966 73.362C80.6674 72.774 80.518 72.0647 80.518 71.234C80.518 69.9927 80.8307 69.036 81.456 68.364C82.0814 67.692 82.9307 67.356 84.004 67.356C84.6854 67.356 85.2827 67.51 85.796 67.818C86.3187 68.1167 86.7247 68.5553 87.014 69.134C87.3127 69.7033 87.462 70.4033 87.462 71.234ZM81.792 71.234C81.792 72.1207 81.9647 72.8253 82.31 73.348C82.6647 73.8613 83.2247 74.118 83.99 74.118C84.746 74.118 85.3014 73.8613 85.656 73.348C86.0107 72.8253 86.188 72.1207 86.188 71.234C86.188 70.3473 86.0107 69.652 85.656 69.148C85.3014 68.644 84.7414 68.392 83.976 68.392C83.2107 68.392 82.6554 68.644 82.31 69.148C81.9647 69.652 81.792 70.3473 81.792 71.234ZM88.1019 67.496H89.4179L91.0419 71.766C91.1819 72.1393 91.3079 72.4987 91.4199 72.844C91.5319 73.18 91.6159 73.502 91.6719 73.81H91.7279C91.7839 73.5767 91.8726 73.2733 91.9939 72.9C92.1152 72.5173 92.2412 72.1347 92.3719 71.752L93.8979 67.496H95.2279L91.9939 76.036C91.7326 76.7453 91.3919 77.31 90.9719 77.73C90.5612 78.15 89.9919 78.36 89.2639 78.36C89.0399 78.36 88.8439 78.346 88.6759 78.318C88.5079 78.2993 88.3632 78.276 88.2419 78.248V77.268C88.3446 77.2867 88.4659 77.3053 88.6059 77.324C88.7552 77.3427 88.9092 77.352 89.0679 77.352C89.4972 77.352 89.8426 77.2307 90.1039 76.988C90.3746 76.7453 90.5846 76.4233 90.7339 76.022L91.1259 75.028L88.1019 67.496ZM99.4246 75.14C98.7619 75.14 98.1693 75.0047 97.6466 74.734C97.1333 74.4633 96.7273 74.0433 96.4286 73.474C96.1393 72.9047 95.9946 72.1767 95.9946 71.29C95.9946 70.366 96.1486 69.6147 96.4566 69.036C96.7646 68.4573 97.1799 68.0327 97.7026 67.762C98.2346 67.4913 98.8366 67.356 99.5086 67.356C99.8913 67.356 100.26 67.398 100.615 67.482C100.969 67.5567 101.259 67.65 101.483 67.762L101.105 68.784C100.881 68.7 100.619 68.6207 100.321 68.546C100.022 68.4713 99.7419 68.434 99.4806 68.434C98.0059 68.434 97.2686 69.3813 97.2686 71.276C97.2686 72.1813 97.4459 72.8767 97.8006 73.362C98.1646 73.838 98.7013 74.076 99.4106 74.076C99.8213 74.076 100.181 74.034 100.489 73.95C100.806 73.866 101.095 73.7633 101.357 73.642V74.734C101.105 74.8647 100.825 74.9627 100.517 75.028C100.218 75.1027 99.8539 75.14 99.4246 75.14Z" fill="#E2D6D6"/>
</svg>
