<svg width="162" height="46" viewBox="0 0 162 46" fill="none" xmlns="http://www.w3.org/2000/svg">
<path d="M0.328 18V0.863999H13.192V18H11.056V2.76H2.488V18H0.328ZM19.5867 12.984C19.5867 13.176 19.5787 13.464 19.5627 13.848C19.5467 14.232 19.5227 14.616 19.4907 15C19.4747 15.384 19.4587 15.688 19.4427 15.912L26.3307 5.136H28.9227V18H26.9547V10.416C26.9547 10.16 26.9547 9.824 26.9547 9.408C26.9707 8.992 26.9867 8.584 27.0027 8.184C27.0187 7.768 27.0347 7.456 27.0507 7.248L20.2107 18H17.5947V5.136H19.5867V12.984ZM45.7126 22.464H43.6486V18H33.0166V5.136H35.1286V16.224H41.7766V5.136H43.8886V16.248H45.7126V22.464ZM60.8766 22.464H58.8126V18H48.1806V5.136H50.2926V16.224H56.9406V5.136H59.0526V16.248H60.8766V22.464ZM68.2167 4.92C69.7847 4.92 70.9447 5.264 71.6967 5.952C72.4487 6.64 72.8247 7.736 72.8247 9.24V18H71.2887L70.8807 16.176H70.7847C70.2247 16.88 69.6327 17.4 69.0087 17.736C68.4007 18.072 67.5527 18.24 66.4647 18.24C65.2967 18.24 64.3287 17.936 63.5607 17.328C62.7927 16.704 62.4087 15.736 62.4087 14.424C62.4087 13.144 62.9127 12.16 63.9207 11.472C64.9287 10.768 66.4807 10.384 68.5767 10.32L70.7607 10.248V9.48C70.7607 8.408 70.5287 7.664 70.0647 7.248C69.6007 6.832 68.9447 6.624 68.0967 6.624C67.4247 6.624 66.7847 6.728 66.1767 6.936C65.5687 7.128 65.0007 7.352 64.4727 7.608L63.8247 6.024C64.3847 5.72 65.0487 5.464 65.8167 5.256C66.5847 5.032 67.3847 4.92 68.2167 4.92ZM68.8407 11.784C67.2407 11.848 66.1287 12.104 65.5047 12.552C64.8967 13 64.5927 13.632 64.5927 14.448C64.5927 15.168 64.8087 15.696 65.2407 16.032C65.6887 16.368 66.2567 16.536 66.9447 16.536C68.0327 16.536 68.9367 16.24 69.6567 15.648C70.3767 15.04 70.7367 14.112 70.7367 12.864V11.712L68.8407 11.784ZM86.1743 4.728C85.6783 4.808 85.3343 4.984 85.1423 5.256C84.9663 5.512 84.8783 5.96 84.8783 6.6H86.1023V8.88H83.7503V6.96C83.7503 5.92 83.9423 5.136 84.3263 4.608C84.7103 4.08 85.3263 3.816 86.1743 3.816V4.728ZM89.6303 4.728C89.1343 4.808 88.7903 4.984 88.5983 5.256C88.4223 5.512 88.3343 5.96 88.3343 6.6H89.5583V8.88H87.2063V6.96C87.2063 5.92 87.3983 5.136 87.7823 4.608C88.1663 4.08 88.7823 3.816 89.6303 3.816V4.728ZM105.026 18H102.866V10.968C101.938 11.288 101.066 11.552 100.25 11.76C99.4496 11.952 98.5536 12.048 97.5616 12.048C95.9616 12.048 94.7216 11.68 93.8416 10.944C92.9616 10.192 92.5216 9.112 92.5216 7.704V0.863999H94.6816V7.392C94.6816 8.32 94.9216 9.016 95.4016 9.48C95.8976 9.928 96.6896 10.152 97.7776 10.152C98.7216 10.152 99.5696 10.064 100.322 9.888C101.074 9.712 101.922 9.472 102.866 9.168V0.863999H105.026V18ZM111.391 12.984C111.391 13.176 111.383 13.464 111.367 13.848C111.351 14.232 111.327 14.616 111.295 15C111.279 15.384 111.263 15.688 111.247 15.912L118.135 5.136H120.727V18H118.759V10.416C118.759 10.16 118.759 9.824 118.759 9.408C118.775 8.992 118.791 8.584 118.807 8.184C118.823 7.768 118.839 7.456 118.855 7.248L112.015 18H109.399V5.136H111.391V12.984ZM132.429 5.136H134.733L129.237 11.328L135.189 18H132.741L126.933 11.472V18H124.821V5.136H126.933V11.376L132.429 5.136ZM142.024 4.896C143.128 4.896 144.072 5.136 144.856 5.616C145.656 6.096 146.264 6.776 146.68 7.656C147.112 8.52 147.328 9.536 147.328 10.704V11.976H138.52C138.552 13.432 138.92 14.544 139.624 15.312C140.344 16.064 141.344 16.44 142.624 16.44C143.44 16.44 144.16 16.368 144.784 16.224C145.424 16.064 146.08 15.84 146.752 15.552V17.4C146.096 17.688 145.448 17.896 144.808 18.024C144.168 18.168 143.408 18.24 142.528 18.24C141.312 18.24 140.232 17.992 139.288 17.496C138.36 17 137.632 16.264 137.104 15.288C136.592 14.296 136.336 13.088 136.336 11.664C136.336 10.256 136.568 9.048 137.032 8.04C137.512 7.032 138.176 6.256 139.024 5.712C139.888 5.168 140.888 4.896 142.024 4.896ZM142 6.624C140.992 6.624 140.192 6.952 139.6 7.608C139.024 8.248 138.68 9.144 138.568 10.296H145.12C145.104 9.208 144.848 8.328 144.352 7.656C143.856 6.968 143.072 6.624 142 6.624ZM152.715 5.136V10.488H159.699V5.136H161.811V18H159.699V12.264H152.715V18H150.603V5.136H152.715ZM5.224 27.864C7.368 27.864 8.984 28.184 10.072 28.824C11.176 29.448 11.728 30.544 11.728 32.112C11.728 33.12 11.448 33.96 10.888 34.632C10.328 35.288 9.52 35.712 8.464 35.904V36.024C9.184 36.136 9.832 36.344 10.408 36.648C11 36.952 11.464 37.384 11.8 37.944C12.136 38.504 12.304 39.232 12.304 40.128C12.304 41.68 11.768 42.88 10.696 43.728C9.64 44.576 8.192 45 6.352 45H0.328V27.864H5.224ZM5.656 35.16C7.128 35.16 8.136 34.928 8.68 34.464C9.224 33.984 9.496 33.28 9.496 32.352C9.496 31.408 9.16 30.736 8.488 30.336C7.832 29.92 6.776 29.712 5.32 29.712H2.488V35.16H5.656ZM2.488 36.96V43.176H5.944C7.464 43.176 8.52 42.88 9.112 42.288C9.704 41.696 10 40.92 10 39.96C10 39.064 9.688 38.344 9.064 37.8C8.456 37.24 7.36 36.96 5.776 36.96H2.488ZM20.5214 31.92C22.0894 31.92 23.2494 32.264 24.0014 32.952C24.7534 33.64 25.1294 34.736 25.1294 36.24V45H23.5934L23.1854 43.176H23.0894C22.5294 43.88 21.9374 44.4 21.3134 44.736C20.7054 45.072 19.8574 45.24 18.7694 45.24C17.6014 45.24 16.6334 44.936 15.8654 44.328C15.0974 43.704 14.7134 42.736 14.7134 41.424C14.7134 40.144 15.2174 39.16 16.2254 38.472C17.2334 37.768 18.7854 37.384 20.8814 37.32L23.0654 37.248V36.48C23.0654 35.408 22.8334 34.664 22.3694 34.248C21.9054 33.832 21.2494 33.624 20.4014 33.624C19.7294 33.624 19.0894 33.728 18.4814 33.936C17.8734 34.128 17.3054 34.352 16.7774 34.608L16.1294 33.024C16.6894 32.72 17.3534 32.464 18.1214 32.256C18.8894 32.032 19.6894 31.92 20.5214 31.92ZM21.1454 38.784C19.5454 38.848 18.4334 39.104 17.8094 39.552C17.2014 40 16.8974 40.632 16.8974 41.448C16.8974 42.168 17.1134 42.696 17.5454 43.032C17.9934 43.368 18.5614 43.536 19.2494 43.536C20.3374 43.536 21.2414 43.24 21.9614 42.648C22.6814 42.04 23.0414 41.112 23.0414 39.864V38.712L21.1454 38.784ZM34.2625 45.24C33.1265 45.24 32.1105 45.008 31.2145 44.544C30.3345 44.08 29.6385 43.36 29.1265 42.384C28.6305 41.408 28.3825 40.16 28.3825 38.64C28.3825 37.056 28.6465 35.768 29.1745 34.776C29.7025 33.784 30.4145 33.056 31.3105 32.592C32.2225 32.128 33.2545 31.896 34.4065 31.896C35.0625 31.896 35.6945 31.968 36.3025 32.112C36.9105 32.24 37.4065 32.4 37.7905 32.592L37.1425 34.344C36.7585 34.2 36.3105 34.064 35.7985 33.936C35.2865 33.808 34.8065 33.744 34.3585 33.744C31.8305 33.744 30.5665 35.368 30.5665 38.616C30.5665 40.168 30.8705 41.36 31.4785 42.192C32.1025 43.008 33.0225 43.416 34.2385 43.416C34.9425 43.416 35.5585 43.344 36.0865 43.2C36.6305 43.056 37.1265 42.88 37.5745 42.672V44.544C37.1425 44.768 36.6625 44.936 36.1345 45.048C35.6225 45.176 34.9985 45.24 34.2625 45.24ZM45.5058 31.92C47.0738 31.92 48.2338 32.264 48.9858 32.952C49.7378 33.64 50.1138 34.736 50.1138 36.24V45H48.5778L48.1698 43.176H48.0738C47.5138 43.88 46.9218 44.4 46.2978 44.736C45.6898 45.072 44.8418 45.24 43.7538 45.24C42.5858 45.24 41.6178 44.936 40.8498 44.328C40.0818 43.704 39.6978 42.736 39.6978 41.424C39.6978 40.144 40.2018 39.16 41.2098 38.472C42.2178 37.768 43.7698 37.384 45.8658 37.32L48.0498 37.248V36.48C48.0498 35.408 47.8178 34.664 47.3538 34.248C46.8898 33.832 46.2338 33.624 45.3858 33.624C44.7138 33.624 44.0738 33.728 43.4658 33.936C42.8578 34.128 42.2898 34.352 41.7617 34.608L41.1138 33.024C41.6738 32.72 42.3378 32.464 43.1058 32.256C43.8738 32.032 44.6738 31.92 45.5058 31.92ZM46.1298 38.784C44.5298 38.848 43.4178 39.104 42.7938 39.552C42.1858 40 41.8818 40.632 41.8818 41.448C41.8818 42.168 42.0978 42.696 42.5298 43.032C42.9778 43.368 43.5458 43.536 44.2338 43.536C45.3218 43.536 46.2258 43.24 46.9458 42.648C47.6658 42.04 48.0258 41.112 48.0258 39.864V38.712L46.1298 38.784ZM53.4149 37.272C53.4149 34.456 53.8389 32.264 54.6869 30.696C55.5349 29.112 56.9029 28.12 58.7909 27.72C59.8309 27.496 60.8469 27.296 61.8389 27.12C62.8309 26.944 63.7589 26.784 64.6229 26.64L64.9829 28.488C64.4229 28.568 63.7909 28.672 63.0869 28.8C62.3829 28.912 61.6869 29.032 60.9989 29.16C60.3109 29.272 59.7189 29.384 59.2229 29.496C58.1829 29.72 57.3589 30.264 56.7509 31.128C56.1429 31.976 55.7989 33.304 55.7189 35.112H55.8629C56.0869 34.808 56.3909 34.496 56.7749 34.176C57.1749 33.856 57.6469 33.584 58.1909 33.36C58.7509 33.136 59.3829 33.024 60.0869 33.024C61.7509 33.024 63.0069 33.56 63.8549 34.632C64.7029 35.704 65.1269 37.096 65.1269 38.808C65.1269 40.232 64.8789 41.424 64.3829 42.384C63.8869 43.344 63.1989 44.064 62.3189 44.544C61.4389 45.008 60.4149 45.24 59.2469 45.24C57.4709 45.24 56.0549 44.56 54.9989 43.2C53.9429 41.84 53.4149 39.864 53.4149 37.272ZM59.4149 43.488C60.4549 43.488 61.2949 43.152 61.9349 42.48C62.5749 41.808 62.8949 40.656 62.8949 39.024C62.8949 37.712 62.6469 36.68 62.1509 35.928C61.6709 35.16 60.8709 34.776 59.7509 34.776C59.0469 34.776 58.4069 34.936 57.8309 35.256C57.2549 35.56 56.7749 35.912 56.3909 36.312C56.0069 36.712 55.7349 37.048 55.5749 37.32C55.5749 38.104 55.6309 38.864 55.7429 39.6C55.8549 40.336 56.0469 41 56.3189 41.592C56.6069 42.168 56.9989 42.632 57.4949 42.984C58.0069 43.32 58.6469 43.488 59.4149 43.488ZM70.4461 39.984C70.4461 40.176 70.4381 40.464 70.4221 40.848C70.4061 41.232 70.3821 41.616 70.3501 42C70.3341 42.384 70.3181 42.688 70.3021 42.912L77.1901 32.136H79.7821V45H77.8141V37.416C77.8141 37.16 77.8141 36.824 77.8141 36.408C77.8301 35.992 77.8461 35.584 77.8621 35.184C77.8781 34.768 77.8941 34.456 77.9101 34.248L71.0701 45H68.4541V32.136H70.4461V39.984ZM82.7959 34.968C83.2919 34.888 83.6279 34.72 83.8039 34.464C83.9959 34.192 84.0919 33.736 84.0919 33.096H82.8679V30.816H85.2199V32.736C85.2199 33.776 85.0279 34.56 84.6439 35.088C84.2599 35.616 83.6439 35.88 82.7959 35.88V34.968ZM86.2519 34.968C86.7479 34.888 87.0839 34.72 87.2599 34.464C87.4519 34.192 87.5479 33.736 87.5479 33.096H86.3239V30.816H88.6759V32.736C88.6759 33.776 88.4839 34.56 88.0999 35.088C87.7159 35.616 87.0999 35.88 86.2519 35.88V34.968Z" fill="#E4D4D4"/>
</svg>
