<svg width="339" height="512" viewBox="0 0 339 512" fill="none" xmlns="http://www.w3.org/2000/svg">
<path d="M12.432 36.92V61.784C12.432 62.296 12.688 62.616 13.2 62.744C15.76 63.256 18.384 63.512 21.072 63.512C33.104 63.512 39.12 58.616 39.12 48.824C39.12 39.864 33.104 35.384 21.072 35.384C18.256 35.384 15.632 35.576 13.2 35.96C12.688 36.088 12.432 36.408 12.432 36.92ZM7.152 71.192C5.616 71 4.336 70.296 3.312 69.08C2.352 67.864 1.872 66.488 1.872 64.952V6.392C1.872 4.92 2.416 3.64 3.504 2.55199C4.592 1.464 5.872 0.919998 7.344 0.919998H40.848C42 0.919998 42.992 1.336 43.824 2.168C44.656 3 45.072 3.99199 45.072 5.144C45.072 6.296 44.656 7.288 43.824 8.12C42.992 8.952 42 9.368 40.848 9.368H13.296C12.72 9.368 12.432 9.624 12.432 10.136V27.032C12.432 27.608 12.688 27.832 13.2 27.704C15.888 27.32 18.832 27.128 22.032 27.128C30.928 27.128 37.616 28.984 42.096 32.696C46.64 36.408 48.912 41.752 48.912 48.728C48.912 56.6 46.608 62.456 42 66.296C37.456 70.072 30.32 71.96 20.592 71.96C16.24 71.96 11.76 71.704 7.152 71.192ZM93.2888 46.04C93.2888 33.88 88.8728 27.8 80.0408 27.8C71.2088 27.8 66.7928 33.88 66.7928 46.04C66.7928 58.2 71.2088 64.28 80.0408 64.28C88.8728 64.28 93.2888 58.2 93.2888 46.04ZM97.3208 65.24C93.1608 69.72 87.4008 71.96 80.0408 71.96C72.6808 71.96 66.9208 69.72 62.7608 65.24C58.6008 60.696 56.5208 54.296 56.5208 46.04C56.5208 37.784 58.6008 31.416 62.7608 26.936C66.9208 22.392 72.6808 20.12 80.0408 20.12C87.4008 20.12 93.1608 22.392 97.3208 26.936C101.481 31.416 103.561 37.784 103.561 46.04C103.561 54.296 101.481 60.696 97.3208 65.24ZM113.204 71.576C112.18 71.704 111.252 71.416 110.42 70.712C109.652 70.008 109.268 69.112 109.268 68.024C109.268 66.936 109.652 65.976 110.42 65.144C111.188 64.312 112.148 63.8 113.3 63.608C116.628 62.968 118.868 61.368 120.02 58.808C121.172 56.248 121.748 51.672 121.748 45.08V26.552C121.748 25.08 122.292 23.8 123.38 22.712C124.468 21.624 125.748 21.08 127.22 21.08H155.156C156.628 21.08 157.908 21.624 158.996 22.712C160.084 23.8 160.628 25.08 160.628 26.552V66.2C160.628 67.544 160.148 68.696 159.188 69.656C158.292 70.552 157.172 71 155.828 71C154.484 71 153.332 70.552 152.372 69.656C151.476 68.696 151.028 67.544 151.028 66.2V29.816C151.028 29.24 150.772 28.952 150.26 28.952H131.924C131.412 28.952 131.156 29.24 131.156 29.816V46.808C131.156 55.512 129.876 61.624 127.316 65.144C124.82 68.6 120.116 70.744 113.204 71.576ZM184.043 44.216V62.744C184.043 63.256 184.331 63.576 184.907 63.704C186.891 64.088 188.907 64.28 190.955 64.28C195.883 64.28 199.499 63.352 201.803 61.496C204.171 59.576 205.355 56.664 205.355 52.76C205.355 49.56 204.139 47.096 201.707 45.368C199.275 43.576 195.627 42.68 190.763 42.68C188.587 42.68 186.603 42.872 184.811 43.256C184.299 43.384 184.043 43.704 184.043 44.216ZM179.819 71.384C178.283 71.192 177.003 70.488 175.979 69.272C174.955 68.056 174.443 66.648 174.443 65.048V25.88C174.443 24.536 174.891 23.416 175.787 22.52C176.747 21.56 177.899 21.08 179.243 21.08C180.587 21.08 181.707 21.56 182.603 22.52C183.563 23.416 184.043 24.536 184.043 25.88V34.904C184.043 35.48 184.299 35.704 184.811 35.576C186.987 35.192 189.451 35 192.203 35C199.499 35 205.067 36.6 208.907 39.8C212.811 42.936 214.763 47.256 214.763 52.76C214.763 59.224 212.747 64.056 208.715 67.256C204.747 70.392 198.603 71.96 190.283 71.96C186.635 71.96 183.147 71.768 179.819 71.384ZM230.728 71C229.256 71 227.976 70.456 226.888 69.368C225.8 68.28 225.256 67 225.256 65.528V25.784C225.256 24.504 225.704 23.416 226.6 22.52C227.56 21.56 228.68 21.08 229.96 21.08C231.24 21.08 232.328 21.56 233.224 22.52C234.184 23.416 234.664 24.504 234.664 25.784V62.264C234.664 62.84 234.92 63.128 235.432 63.128H249.448C249.96 63.128 250.216 62.84 250.216 62.264V25.688C250.216 24.408 250.664 23.32 251.56 22.424C252.456 21.528 253.544 21.08 254.824 21.08C256.04 21.08 257.096 21.528 257.992 22.424C258.888 23.32 259.336 24.408 259.336 25.688V62.264C259.336 62.84 259.624 63.128 260.2 63.128H274.216C274.728 63.128 274.984 62.84 274.984 62.264V25.784C274.984 24.504 275.432 23.416 276.328 22.52C277.288 21.56 278.408 21.08 279.688 21.08C280.968 21.08 282.056 21.56 282.952 22.52C283.912 23.416 284.392 24.504 284.392 25.784V65.528C284.392 67 283.848 68.28 282.76 69.368C281.672 70.456 280.392 71 278.92 71H230.728ZM317.393 27.608C310.097 27.608 306.001 31.928 305.105 40.568C304.977 41.144 305.233 41.432 305.873 41.432H327.377C327.889 41.432 328.145 41.144 328.145 40.568C327.761 31.928 324.177 27.608 317.393 27.608ZM319.793 71.96C311.793 71.96 305.617 69.784 301.265 65.432C296.977 61.08 294.833 54.616 294.833 46.04C294.833 37.464 296.753 31 300.593 26.648C304.497 22.296 310.097 20.12 317.393 20.12C330.705 20.12 337.585 27.928 338.033 43.544C338.097 45.08 337.553 46.36 336.401 47.384C335.249 48.408 333.905 48.92 332.369 48.92H305.777C305.265 48.92 305.009 49.176 305.009 49.688C305.777 59.544 311.025 64.472 320.753 64.472C324.145 64.472 327.473 63.928 330.737 62.84C331.697 62.52 332.593 62.648 333.425 63.224C334.257 63.8 334.673 64.6 334.673 65.624C334.673 66.84 334.289 67.928 333.521 68.888C332.753 69.848 331.761 70.488 330.545 70.808C327.025 71.576 323.441 71.96 319.793 71.96ZM26.352 192.112C17.264 192.112 10.736 190.288 6.768 186.64C2.864 182.928 0.912 176.848 0.912 168.4V149.104C0.912 147.696 1.424 146.48 2.448 145.456C3.472 144.432 4.688 143.92 6.096 143.92C7.504 143.92 8.688 144.432 9.648 145.456C10.672 146.416 11.184 147.632 11.184 149.104V167.152C11.184 173.36 12.4 177.616 14.832 179.92C17.264 182.16 21.744 183.28 28.272 183.28C32.496 183.28 36.112 182.32 39.12 180.4C39.568 180.144 39.792 179.696 39.792 179.056V149.2C39.792 147.728 40.304 146.48 41.328 145.456C42.416 144.432 43.664 143.92 45.072 143.92C46.48 143.92 47.696 144.432 48.72 145.456C49.808 146.48 50.352 147.728 50.352 149.2V208.72C50.352 210.192 49.808 211.44 48.72 212.464C47.696 213.488 46.48 214 45.072 214C43.664 214 42.416 213.488 41.328 212.464C40.304 211.44 39.792 210.192 39.792 208.72V189.616C39.792 189.424 39.696 189.296 39.504 189.232C39.376 189.104 39.248 189.104 39.12 189.232C35.536 191.152 31.28 192.112 26.352 192.112ZM84.3308 170.608C77.0348 170.608 72.9388 174.928 72.0428 183.568C71.9148 184.144 72.1708 184.432 72.8108 184.432H94.3148C94.8268 184.432 95.0828 184.144 95.0828 183.568C94.6988 174.928 91.1148 170.608 84.3308 170.608ZM86.7308 214.96C78.7308 214.96 72.5548 212.784 68.2028 208.432C63.9148 204.08 61.7708 197.616 61.7708 189.04C61.7708 180.464 63.6908 174 67.5308 169.648C71.4348 165.296 77.0348 163.12 84.3308 163.12C97.6428 163.12 104.523 170.928 104.971 186.544C105.035 188.08 104.491 189.36 103.339 190.384C102.187 191.408 100.843 191.92 99.3068 191.92H72.7148C72.2028 191.92 71.9468 192.176 71.9468 192.688C72.7148 202.544 77.9628 207.472 87.6908 207.472C91.0828 207.472 94.4108 206.928 97.6748 205.84C98.6348 205.52 99.5308 205.648 100.363 206.224C101.195 206.8 101.611 207.6 101.611 208.624C101.611 209.84 101.227 210.928 100.459 211.888C99.6908 212.848 98.6988 213.488 97.4828 213.808C93.9628 214.576 90.3788 214.96 86.7308 214.96ZM124.199 212.56C123.303 213.52 122.183 214 120.839 214C119.495 214 118.343 213.52 117.383 212.56C116.423 211.6 115.943 210.448 115.943 209.104V169.552C115.943 168.08 116.455 166.8 117.479 165.712C118.567 164.624 119.847 164.08 121.319 164.08H121.607C125.255 164.08 127.943 165.68 129.671 168.88L142.727 193.072C142.727 193.136 142.759 193.168 142.823 193.168L142.919 193.072L156.071 168.88C157.799 165.68 160.455 164.08 164.039 164.08H164.519C165.991 164.08 167.239 164.624 168.263 165.712C169.351 166.8 169.895 168.08 169.895 169.552V209.008C169.895 210.352 169.415 211.536 168.455 212.56C167.495 213.52 166.343 214 164.999 214C163.655 214 162.471 213.52 161.447 212.56C160.487 211.536 160.007 210.352 160.007 209.008V177.136L159.911 177.04H159.815L149.159 196.624C147.815 199.12 145.703 200.368 142.823 200.368C140.007 200.368 137.927 199.12 136.583 196.624L125.831 177.04H125.735L125.639 177.136V209.104C125.639 210.448 125.159 211.6 124.199 212.56ZM10.896 355.464C9.872 356.488 8.624 357 7.152 357C5.68 357 4.432 356.488 3.408 355.464C2.384 354.44 1.872 353.192 1.872 351.72V292.392C1.872 290.92 2.416 289.64 3.504 288.552C4.592 287.464 5.872 286.92 7.344 286.92H47.28C48.752 286.92 50.032 287.464 51.12 288.552C52.208 289.64 52.752 290.92 52.752 292.392V351.72C52.752 353.192 52.24 354.44 51.216 355.464C50.192 356.488 48.944 357 47.472 357C46 357 44.752 356.488 43.728 355.464C42.704 354.44 42.192 353.192 42.192 351.72V296.424C42.192 295.848 41.904 295.56 41.328 295.56H13.296C12.72 295.56 12.432 295.848 12.432 296.424V351.72C12.432 353.192 11.92 354.44 10.896 355.464ZM77.6483 324.84V339.24C77.6483 342.184 78.8643 344.776 81.2963 347.016C83.7923 349.192 86.7363 350.28 90.1283 350.28C93.9683 350.28 97.0083 348.744 99.2483 345.672C101.488 342.6 102.608 338.056 102.608 332.04C102.608 319.88 98.4483 313.8 90.1283 313.8C86.7363 313.8 83.7923 314.92 81.2963 317.16C78.8643 319.336 77.6483 321.896 77.6483 324.84ZM76.1123 376.68C75.1523 377.64 73.9683 378.12 72.5603 378.12C71.1523 378.12 69.9683 377.64 69.0083 376.68C68.0483 375.72 67.5683 374.536 67.5683 373.128V311.784C67.5683 310.504 68.0163 309.416 68.9123 308.52C69.8723 307.56 70.9923 307.08 72.2723 307.08C73.5523 307.08 74.6723 307.56 75.6323 308.52C76.5923 309.416 77.1043 310.504 77.1683 311.784V313.224C77.1683 313.288 77.2003 313.32 77.2643 313.32C77.3283 313.32 77.3923 313.288 77.4563 313.224C79.8243 310.6 82.1603 308.776 84.4643 307.752C86.7683 306.664 89.4563 306.12 92.5283 306.12C98.6083 306.12 103.472 308.392 107.12 312.936C110.832 317.48 112.688 323.848 112.688 332.04C112.688 339.976 110.768 346.28 106.928 350.952C103.152 355.624 98.3523 357.96 92.5283 357.96C86.8323 357.96 81.9683 355.912 77.9363 351.816C77.8723 351.752 77.8083 351.72 77.7443 351.72C77.6803 351.72 77.6483 351.752 77.6483 351.816V373.128C77.6483 374.536 77.1363 375.72 76.1123 376.68ZM157.039 332.04C157.039 319.88 152.623 313.8 143.791 313.8C134.959 313.8 130.543 319.88 130.543 332.04C130.543 344.2 134.959 350.28 143.791 350.28C152.623 350.28 157.039 344.2 157.039 332.04ZM161.071 351.24C156.911 355.72 151.151 357.96 143.791 357.96C136.431 357.96 130.671 355.72 126.511 351.24C122.351 346.696 120.271 340.296 120.271 332.04C120.271 323.784 122.351 317.416 126.511 312.936C130.671 308.392 136.431 306.12 143.791 306.12C151.151 306.12 156.911 308.392 161.071 312.936C165.231 317.416 167.311 323.784 167.311 332.04C167.311 340.296 165.231 346.696 161.071 351.24ZM198.458 357.96C190.778 357.96 184.858 355.784 180.698 351.432C176.538 347.016 174.458 340.552 174.458 332.04C174.458 323.656 176.474 317.256 180.506 312.84C184.538 308.36 190.202 306.12 197.498 306.12C200.89 306.12 204.122 306.344 207.194 306.792C208.41 306.984 209.402 307.56 210.17 308.52C211.002 309.48 211.418 310.6 211.418 311.88C211.418 312.968 210.97 313.832 210.074 314.472C209.242 315.112 208.282 315.304 207.194 315.048C204.378 314.408 201.402 314.088 198.266 314.088C193.85 314.088 190.522 315.528 188.282 318.408C186.106 321.224 185.018 325.768 185.018 332.04C185.018 338.44 186.17 343.048 188.474 345.864C190.842 348.68 194.426 350.088 199.226 350.088C202.234 350.088 205.114 349.672 207.866 348.84C208.89 348.52 209.818 348.68 210.65 349.32C211.482 349.896 211.898 350.696 211.898 351.72C211.898 353 211.482 354.152 210.65 355.176C209.818 356.2 208.794 356.84 207.578 357.096C204.506 357.672 201.466 357.96 198.458 357.96ZM226.216 314.856C225.192 314.856 224.296 314.504 223.528 313.8C222.76 313.032 222.376 312.104 222.376 311.016C222.376 309.928 222.76 309 223.528 308.232C224.296 307.464 225.192 307.08 226.216 307.08H261.928C262.952 307.08 263.848 307.464 264.616 308.232C265.448 309 265.864 309.928 265.864 311.016C265.864 312.04 265.48 312.936 264.712 313.704C263.944 314.472 263.016 314.856 261.928 314.856H250.12C249.544 314.856 249.256 315.144 249.256 315.72V351.816C249.256 353.224 248.744 354.44 247.72 355.464C246.696 356.488 245.48 357 244.072 357C242.664 357 241.448 356.488 240.424 355.464C239.4 354.44 238.888 353.224 238.888 351.816V315.72C238.888 315.144 238.6 314.856 238.024 314.856H226.216ZM310.226 332.04C310.226 319.88 305.81 313.8 296.978 313.8C288.146 313.8 283.73 319.88 283.73 332.04C283.73 344.2 288.146 350.28 296.978 350.28C305.81 350.28 310.226 344.2 310.226 332.04ZM314.258 351.24C310.098 355.72 304.338 357.96 296.978 357.96C289.618 357.96 283.858 355.72 279.698 351.24C275.538 346.696 273.458 340.296 273.458 332.04C273.458 323.784 275.538 317.416 279.698 312.936C283.858 308.392 289.618 306.12 296.978 306.12C304.338 306.12 310.098 308.392 314.258 312.936C318.418 317.416 320.498 323.784 320.498 332.04C320.498 340.296 318.418 346.696 314.258 351.24ZM10.896 498.464C9.872 499.488 8.624 500 7.152 500C5.68 500 4.432 499.488 3.408 498.464C2.384 497.44 1.872 496.192 1.872 494.72V435.392C1.872 433.92 2.416 432.64 3.504 431.552C4.592 430.464 5.872 429.92 7.344 429.92H47.28C48.752 429.92 50.032 430.464 51.12 431.552C52.208 432.64 52.752 433.92 52.752 435.392V494.72C52.752 496.192 52.24 497.44 51.216 498.464C50.192 499.488 48.944 500 47.472 500C46 500 44.752 499.488 43.728 498.464C42.704 497.44 42.192 496.192 42.192 494.72V439.424C42.192 438.848 41.904 438.56 41.328 438.56H13.296C12.72 438.56 12.432 438.848 12.432 439.424V494.72C12.432 496.192 11.92 497.44 10.896 498.464ZM72.8483 500C71.3763 500 70.1283 499.488 69.1043 498.464C68.0803 497.44 67.5683 496.224 67.5683 494.816V455.072C67.5683 453.664 68.0483 452.48 69.0083 451.52C70.0323 450.56 71.2483 450.08 72.6562 450.08C74.0642 450.08 75.2483 450.56 76.2083 451.52C77.1683 452.48 77.6483 453.664 77.6483 455.072V486.272L77.7443 486.368H77.8403L97.1363 454.496C98.9923 451.552 101.648 450.08 105.104 450.08C106.576 450.08 107.824 450.592 108.848 451.616C109.872 452.64 110.384 453.856 110.384 455.264V495.008C110.384 496.416 109.872 497.6 108.848 498.56C107.888 499.52 106.704 500 105.296 500C103.888 500 102.704 499.52 101.744 498.56C100.784 497.6 100.304 496.416 100.304 495.008V463.808L100.208 463.712H100.112L80.8163 495.584C78.9603 498.528 76.3043 500 72.8483 500ZM129.569 500C128.097 500 126.817 499.456 125.729 498.368C124.705 497.28 124.193 496 124.193 494.528V454.88C124.193 453.536 124.641 452.416 125.537 451.52C126.497 450.56 127.649 450.08 128.993 450.08C130.337 450.08 131.457 450.56 132.353 451.52C133.313 452.416 133.793 453.536 133.793 454.88V491.264C133.793 491.84 134.049 492.128 134.561 492.128H155.105C155.617 492.128 155.873 491.84 155.873 491.264V454.88C155.873 453.536 156.321 452.416 157.217 451.52C158.177 450.56 159.329 450.08 160.673 450.08C162.017 450.08 163.137 450.56 164.033 451.52C164.993 452.416 165.473 453.536 165.473 454.88V491.264C165.473 491.84 165.761 492.128 166.337 492.128H168.737C170.209 492.128 171.457 492.672 172.481 493.76C173.569 494.784 174.113 496.032 174.113 497.504V507.2C174.113 508.416 173.697 509.44 172.865 510.272C172.033 511.104 171.009 511.52 169.793 511.52C168.577 511.52 167.553 511.104 166.721 510.272C165.889 509.44 165.473 508.416 165.473 507.2V500.864C165.473 500.288 165.217 500 164.705 500H129.569ZM189.476 500C188.004 500 186.724 499.456 185.636 498.368C184.612 497.28 184.1 496 184.1 494.528V454.88C184.1 453.536 184.548 452.416 185.444 451.52C186.404 450.56 187.556 450.08 188.9 450.08C190.244 450.08 191.364 450.56 192.26 451.52C193.22 452.416 193.7 453.536 193.7 454.88V491.264C193.7 491.84 193.956 492.128 194.468 492.128H215.012C215.524 492.128 215.78 491.84 215.78 491.264V454.88C215.78 453.536 216.228 452.416 217.124 451.52C218.084 450.56 219.236 450.08 220.58 450.08C221.924 450.08 223.044 450.56 223.94 451.52C224.9 452.416 225.38 453.536 225.38 454.88V491.264C225.38 491.84 225.668 492.128 226.244 492.128H228.644C230.116 492.128 231.364 492.672 232.388 493.76C233.476 494.784 234.02 496.032 234.02 497.504V507.2C234.02 508.416 233.604 509.44 232.772 510.272C231.94 511.104 230.916 511.52 229.7 511.52C228.484 511.52 227.46 511.104 226.628 510.272C225.796 509.44 225.38 508.416 225.38 507.2V500.864C225.38 500.288 225.124 500 224.612 500H189.476ZM267.526 474.848C262.278 474.848 258.31 475.744 255.622 477.536C252.998 479.264 251.686 481.632 251.686 484.64C251.686 487.008 252.39 488.96 253.798 490.496C255.206 492.032 256.902 492.8 258.886 492.8C263.11 492.8 266.47 491.488 268.966 488.864C271.526 486.176 272.806 482.528 272.806 477.92V475.616C272.806 475.104 272.518 474.848 271.942 474.848H267.526ZM256.486 500.96C252.134 500.96 248.55 499.552 245.734 496.736C242.982 493.92 241.606 490.208 241.606 485.6C241.606 479.968 243.75 475.616 248.038 472.544C252.326 469.408 258.822 467.84 267.526 467.84H271.942C272.518 467.84 272.806 467.552 272.806 466.976V465.92C272.806 462.528 272.006 460.16 270.406 458.816C268.806 457.472 265.926 456.8 261.766 456.8C258.054 456.8 253.638 457.568 248.518 459.104C247.558 459.424 246.63 459.296 245.734 458.72C244.902 458.08 244.486 457.248 244.486 456.224C244.486 454.944 244.87 453.792 245.638 452.768C246.406 451.744 247.398 451.104 248.614 450.848C253.222 449.696 257.606 449.12 261.766 449.12C269.83 449.12 275.366 450.56 278.374 453.44C281.382 456.32 282.886 461.6 282.886 469.28V495.296C282.886 496.576 282.406 497.696 281.446 498.656C280.55 499.552 279.462 500 278.182 500C276.902 500 275.782 499.552 274.822 498.656C273.926 497.696 273.446 496.576 273.382 495.296L273.286 492.896C273.286 492.832 273.254 492.8 273.19 492.8C273.062 492.8 272.998 492.832 272.998 492.896C269.286 498.272 263.782 500.96 256.486 500.96Z" fill="#7D0A0A"/>
</svg>
