<svg width="142" height="100" viewBox="0 0 142 100" fill="none" xmlns="http://www.w3.org/2000/svg">
<path d="M2.328 18V0.863999H15.192V18H13.056V2.76H4.488V18H2.328ZM21.5867 12.984C21.5867 13.176 21.5787 13.464 21.5627 13.848C21.5467 14.232 21.5227 14.616 21.4907 15C21.4747 15.384 21.4587 15.688 21.4427 15.912L28.3307 5.136H30.9227V18H28.9547V10.416C28.9547 10.16 28.9547 9.824 28.9547 9.408C28.9707 8.992 28.9867 8.584 29.0027 8.184C29.0187 7.768 29.0347 7.456 29.0507 7.248L22.2107 18H19.5947V5.136H21.5867V12.984ZM47.7126 22.464H45.6486V18H35.0166V5.136H37.1286V16.224H43.7766V5.136H45.8886V16.248H47.7126V22.464ZM62.8766 22.464H60.8126V18H50.1806V5.136H52.2926V16.224H58.9406V5.136H61.0526V16.248H62.8766V22.464ZM70.2167 4.92C71.7847 4.92 72.9447 5.264 73.6967 5.952C74.4487 6.64 74.8247 7.736 74.8247 9.24V18H73.2887L72.8807 16.176H72.7847C72.2247 16.88 71.6327 17.4 71.0087 17.736C70.4007 18.072 69.5527 18.24 68.4647 18.24C67.2967 18.24 66.3287 17.936 65.5607 17.328C64.7927 16.704 64.4087 15.736 64.4087 14.424C64.4087 13.144 64.9127 12.16 65.9207 11.472C66.9287 10.768 68.4807 10.384 70.5767 10.32L72.7607 10.248V9.48C72.7607 8.408 72.5287 7.664 72.0647 7.248C71.6007 6.832 70.9447 6.624 70.0967 6.624C69.4247 6.624 68.7847 6.728 68.1767 6.936C67.5687 7.128 67.0007 7.352 66.4727 7.608L65.8247 6.024C66.3847 5.72 67.0487 5.464 67.8167 5.256C68.5847 5.032 69.3847 4.92 70.2167 4.92ZM70.8407 11.784C69.2407 11.848 68.1287 12.104 67.5047 12.552C66.8967 13 66.5927 13.632 66.5927 14.448C66.5927 15.168 66.8087 15.696 67.2407 16.032C67.6887 16.368 68.2567 16.536 68.9447 16.536C70.0327 16.536 70.9367 16.24 71.6567 15.648C72.3767 15.04 72.7367 14.112 72.7367 12.864V11.712L70.8407 11.784ZM4.104 31.728C3.608 31.808 3.264 31.984 3.072 32.256C2.896 32.512 2.808 32.96 2.808 33.6H4.032V35.88H1.68V33.96C1.68 32.92 1.872 32.136 2.256 31.608C2.64 31.08 3.256 30.816 4.104 30.816V31.728ZM7.56 31.728C7.064 31.808 6.72 31.984 6.528 32.256C6.352 32.512 6.264 32.96 6.264 33.6H7.488V35.88H5.136V33.96C5.136 32.92 5.328 32.136 5.712 31.608C6.096 31.08 6.712 30.816 7.56 30.816V31.728ZM10.8593 45V27.864H23.7233V45H21.5873V29.76H13.0193V45H10.8593ZM33.0939 31.896C34.1979 31.896 35.1419 32.136 35.9259 32.616C36.7259 33.096 37.3339 33.776 37.7499 34.656C38.1819 35.52 38.3979 36.536 38.3979 37.704V38.976H29.5899C29.6219 40.432 29.9899 41.544 30.6939 42.312C31.4139 43.064 32.4139 43.44 33.6939 43.44C34.5099 43.44 35.2299 43.368 35.8539 43.224C36.4939 43.064 37.1499 42.84 37.8219 42.552V44.4C37.1659 44.688 36.5179 44.896 35.8779 45.024C35.2379 45.168 34.4779 45.24 33.5979 45.24C32.3819 45.24 31.3019 44.992 30.3579 44.496C29.4299 44 28.7019 43.264 28.1739 42.288C27.6619 41.296 27.4059 40.088 27.4059 38.664C27.4059 37.256 27.6379 36.048 28.1019 35.04C28.5819 34.032 29.2459 33.256 30.0939 32.712C30.9579 32.168 31.9579 31.896 33.0939 31.896ZM33.0699 33.624C32.0619 33.624 31.2619 33.952 30.6699 34.608C30.0939 35.248 29.7499 36.144 29.6379 37.296H36.1899C36.1739 36.208 35.9179 35.328 35.4219 34.656C34.9259 33.968 34.1419 33.624 33.0699 33.624ZM52.5448 32.136V45H50.4328V33.936H43.7848V45H41.6728V32.136H52.5448ZM67.5214 32.136V45H65.4094V33.936H58.7614V45H56.6494V32.136H67.5214ZM76.5939 31.896C77.6979 31.896 78.6419 32.136 79.4259 32.616C80.2259 33.096 80.8339 33.776 81.2499 34.656C81.6819 35.52 81.8979 36.536 81.8979 37.704V38.976H73.0899C73.1219 40.432 73.4899 41.544 74.1939 42.312C74.9139 43.064 75.9139 43.44 77.1939 43.44C78.0099 43.44 78.7299 43.368 79.3539 43.224C79.9939 43.064 80.6499 42.84 81.3219 42.552V44.4C80.6659 44.688 80.0179 44.896 79.3779 45.024C78.7379 45.168 77.9779 45.24 77.0979 45.24C75.8819 45.24 74.8019 44.992 73.8579 44.496C72.9299 44 72.2019 43.264 71.6739 42.288C71.1619 41.296 70.9059 40.088 70.9059 38.664C70.9059 37.256 71.1379 36.048 71.6019 35.04C72.0819 34.032 72.7459 33.256 73.5939 32.712C74.4579 32.168 75.4579 31.896 76.5939 31.896ZM76.5699 33.624C75.5619 33.624 74.7619 33.952 74.1699 34.608C73.5939 35.248 73.2499 36.144 73.1379 37.296H79.6899C79.6739 36.208 79.4179 35.328 78.9219 34.656C78.4259 33.968 77.6419 33.624 76.5699 33.624ZM91.2928 31.896C92.8768 31.896 94.1488 32.448 95.1088 33.552C96.0848 34.656 96.5728 36.32 96.5728 38.544C96.5728 40.736 96.0848 42.4 95.1088 43.536C94.1488 44.672 92.8688 45.24 91.2688 45.24C90.2768 45.24 89.4528 45.056 88.7968 44.688C88.1568 44.304 87.6528 43.864 87.2848 43.368H87.1408C87.1728 43.64 87.2048 43.984 87.2368 44.4C87.2688 44.816 87.2848 45.176 87.2848 45.48V50.76H85.1728V32.136H86.9008L87.1888 33.888H87.2848C87.6688 33.328 88.1728 32.856 88.7968 32.472C89.4208 32.088 90.2528 31.896 91.2928 31.896ZM90.9088 33.672C89.5968 33.672 88.6688 34.04 88.1248 34.776C87.5968 35.512 87.3168 36.632 87.2848 38.136V38.544C87.2848 40.128 87.5408 41.352 88.0528 42.216C88.5808 43.064 89.5488 43.488 90.9568 43.488C91.7408 43.488 92.3808 43.272 92.8768 42.84C93.3888 42.408 93.7648 41.824 94.0048 41.088C94.2608 40.336 94.3888 39.48 94.3888 38.52C94.3888 37.048 94.1008 35.872 93.5248 34.992C92.9648 34.112 92.0928 33.672 90.9088 33.672ZM111.122 38.544C111.122 40.672 110.578 42.32 109.49 43.488C108.418 44.656 106.962 45.24 105.122 45.24C103.986 45.24 102.97 44.984 102.074 44.472C101.194 43.944 100.498 43.184 99.9864 42.192C99.4744 41.184 99.2184 39.968 99.2184 38.544C99.2184 36.416 99.7544 34.776 100.826 33.624C101.898 32.472 103.354 31.896 105.194 31.896C106.362 31.896 107.386 32.16 108.266 32.688C109.162 33.2 109.858 33.952 110.354 34.944C110.866 35.92 111.122 37.12 111.122 38.544ZM101.402 38.544C101.402 40.064 101.698 41.272 102.29 42.168C102.898 43.048 103.858 43.488 105.17 43.488C106.466 43.488 107.418 43.048 108.026 42.168C108.634 41.272 108.938 40.064 108.938 38.544C108.938 37.024 108.634 35.832 108.026 34.968C107.418 34.104 106.458 33.672 105.146 33.672C103.834 33.672 102.882 34.104 102.29 34.968C101.698 35.832 101.402 37.024 101.402 38.544ZM116.582 32.136V37.488H123.566V32.136H125.678V45H123.566V39.264H116.582V45H114.47V32.136H116.582ZM131.743 39.984C131.743 40.176 131.735 40.464 131.719 40.848C131.703 41.232 131.679 41.616 131.647 42C131.631 42.384 131.615 42.688 131.599 42.912L138.487 32.136H141.079V45H139.111V37.416C139.111 37.16 139.111 36.824 139.111 36.408C139.127 35.992 139.143 35.584 139.159 35.184C139.175 34.768 139.191 34.456 139.207 34.248L132.367 45H129.751V32.136H131.743V39.984ZM10.704 56.736C12.56 56.768 14.024 57.072 15.096 57.648C16.168 58.224 16.928 58.992 17.376 59.952C17.824 60.896 18.048 61.952 18.048 63.12C18.048 63.888 17.928 64.656 17.688 65.424C17.464 66.176 17.072 66.864 16.512 67.488C15.952 68.096 15.2 68.592 14.256 68.976C13.312 69.36 12.128 69.568 10.704 69.6V72.24H8.568V69.6C7.112 69.568 5.904 69.36 4.944 68.976C4 68.576 3.256 68.064 2.712 67.44C2.168 66.8 1.784 66.104 1.56 65.352C1.336 64.6 1.224 63.856 1.224 63.12C1.224 61.984 1.448 60.944 1.896 60C2.36 59.04 3.128 58.264 4.2 57.672C5.272 57.08 6.728 56.768 8.568 56.736V54.624H10.704V56.736ZM8.568 58.56C7.288 58.592 6.264 58.8 5.496 59.184C4.744 59.568 4.208 60.096 3.888 60.768C3.568 61.424 3.408 62.2 3.408 63.096C3.408 64.504 3.816 65.632 4.632 66.48C5.464 67.312 6.776 67.76 8.568 67.824V58.56ZM10.704 67.824C12.56 67.76 13.88 67.304 14.664 66.456C15.464 65.592 15.864 64.472 15.864 63.096C15.864 62.184 15.704 61.4 15.384 60.744C15.064 60.072 14.528 59.552 13.776 59.184C13.024 58.8 12 58.592 10.704 58.56V67.824ZM27.4491 58.896C29.0331 58.896 30.3051 59.448 31.2651 60.552C32.2411 61.656 32.7291 63.32 32.7291 65.544C32.7291 67.736 32.2411 69.4 31.2651 70.536C30.3051 71.672 29.0251 72.24 27.4251 72.24C26.4331 72.24 25.6091 72.056 24.9531 71.688C24.3131 71.304 23.8091 70.864 23.4411 70.368H23.2971C23.3291 70.64 23.3611 70.984 23.3931 71.4C23.4251 71.816 23.4411 72.176 23.4411 72.48V77.76H21.3291V59.136H23.0571L23.3451 60.888H23.4411C23.8251 60.328 24.3291 59.856 24.9531 59.472C25.5771 59.088 26.4091 58.896 27.4491 58.896ZM27.0651 60.672C25.7531 60.672 24.8251 61.04 24.2811 61.776C23.7531 62.512 23.4731 63.632 23.4411 65.136V65.544C23.4411 67.128 23.6971 68.352 24.2091 69.216C24.7371 70.064 25.7051 70.488 27.1131 70.488C27.8971 70.488 28.5371 70.272 29.0331 69.84C29.5451 69.408 29.9211 68.824 30.1611 68.088C30.4171 67.336 30.5451 66.48 30.5451 65.52C30.5451 64.048 30.2571 62.872 29.6811 61.992C29.1211 61.112 28.2491 60.672 27.0651 60.672ZM41.0627 58.896C42.1667 58.896 43.1107 59.136 43.8947 59.616C44.6947 60.096 45.3027 60.776 45.7187 61.656C46.1507 62.52 46.3667 63.536 46.3667 64.704V65.976H37.5587C37.5907 67.432 37.9587 68.544 38.6627 69.312C39.3827 70.064 40.3827 70.44 41.6627 70.44C42.4787 70.44 43.1987 70.368 43.8227 70.224C44.4627 70.064 45.1187 69.84 45.7907 69.552V71.4C45.1347 71.688 44.4867 71.896 43.8467 72.024C43.2067 72.168 42.4467 72.24 41.5667 72.24C40.3507 72.24 39.2707 71.992 38.3267 71.496C37.3987 71 36.6707 70.264 36.1427 69.288C35.6307 68.296 35.3747 67.088 35.3747 65.664C35.3747 64.256 35.6067 63.048 36.0707 62.04C36.5507 61.032 37.2147 60.256 38.0627 59.712C38.9267 59.168 39.9267 58.896 41.0627 58.896ZM41.0387 60.624C40.0307 60.624 39.2307 60.952 38.6387 61.608C38.0627 62.248 37.7187 63.144 37.6067 64.296H44.1587C44.1427 63.208 43.8867 62.328 43.3907 61.656C42.8947 60.968 42.1107 60.624 41.0387 60.624ZM67.0896 59.136V72H49.6416V59.136H51.7536V70.224H57.2976V59.136H59.4096V70.224H64.9776V59.136H67.0896ZM83.6766 72.24C82.5406 72.24 81.5246 72.008 80.6286 71.544C79.7486 71.08 79.0526 70.36 78.5406 69.384C78.0446 68.408 77.7966 67.16 77.7966 65.64C77.7966 64.056 78.0606 62.768 78.5886 61.776C79.1166 60.784 79.8286 60.056 80.7246 59.592C81.6366 59.128 82.6686 58.896 83.8206 58.896C84.4766 58.896 85.1086 58.968 85.7166 59.112C86.3246 59.24 86.8206 59.4 87.2046 59.592L86.5566 61.344C86.1726 61.2 85.7246 61.064 85.2126 60.936C84.7006 60.808 84.2206 60.744 83.7726 60.744C81.2446 60.744 79.9806 62.368 79.9806 65.616C79.9806 67.168 80.2846 68.36 80.8926 69.192C81.5166 70.008 82.4366 70.416 83.6526 70.416C84.3566 70.416 84.9726 70.344 85.5006 70.2C86.0446 70.056 86.5406 69.88 86.9886 69.672V71.544C86.5566 71.768 86.0766 71.936 85.5486 72.048C85.0366 72.176 84.4126 72.24 83.6766 72.24ZM10.92 87.912H6.72V99H4.632V87.912H0.48V86.136H10.92V87.912ZM24.4037 92.544C24.4037 94.672 23.8597 96.32 22.7717 97.488C21.6997 98.656 20.2437 99.24 18.4037 99.24C17.2677 99.24 16.2517 98.984 15.3557 98.472C14.4757 97.944 13.7797 97.184 13.2677 96.192C12.7557 95.184 12.4997 93.968 12.4997 92.544C12.4997 90.416 13.0357 88.776 14.1077 87.624C15.1797 86.472 16.6357 85.896 18.4757 85.896C19.6437 85.896 20.6677 86.16 21.5477 86.688C22.4437 87.2 23.1397 87.952 23.6357 88.944C24.1477 89.92 24.4037 91.12 24.4037 92.544ZM14.6837 92.544C14.6837 94.064 14.9797 95.272 15.5717 96.168C16.1797 97.048 17.1397 97.488 18.4517 97.488C19.7477 97.488 20.6997 97.048 21.3077 96.168C21.9157 95.272 22.2197 94.064 22.2197 92.544C22.2197 91.024 21.9157 89.832 21.3077 88.968C20.6997 88.104 19.7397 87.672 18.4277 87.672C17.1157 87.672 16.1637 88.104 15.5717 88.968C14.9797 89.832 14.6837 91.024 14.6837 92.544ZM41.5509 86.136V99H39.6549V90.792C39.6549 90.456 39.6629 90.104 39.6789 89.736C39.7109 89.368 39.7429 89.008 39.7749 88.656H39.7029L35.5029 99H33.7269L29.6469 88.656H29.5749C29.6229 89.376 29.6469 90.112 29.6469 90.864V99H27.7509V86.136H30.5589L34.6149 96.48L38.7429 86.136H41.5509ZM50.5292 85.92C52.0972 85.92 53.2572 86.264 54.0092 86.952C54.7612 87.64 55.1372 88.736 55.1372 90.24V99H53.6012L53.1932 97.176H53.0972C52.5372 97.88 51.9452 98.4 51.3212 98.736C50.7132 99.072 49.8652 99.24 48.7772 99.24C47.6092 99.24 46.6412 98.936 45.8732 98.328C45.1052 97.704 44.7212 96.736 44.7212 95.424C44.7212 94.144 45.2252 93.16 46.2332 92.472C47.2412 91.768 48.7932 91.384 50.8892 91.32L53.0732 91.248V90.48C53.0732 89.408 52.8412 88.664 52.3772 88.248C51.9132 87.832 51.2572 87.624 50.4092 87.624C49.7372 87.624 49.0972 87.728 48.4892 87.936C47.8812 88.128 47.3132 88.352 46.7852 88.608L46.1372 87.024C46.6972 86.72 47.3612 86.464 48.1292 86.256C48.8972 86.032 49.6972 85.92 50.5292 85.92ZM51.1532 92.784C49.5532 92.848 48.4412 93.104 47.8172 93.552C47.2092 94 46.9052 94.632 46.9052 95.448C46.9052 96.168 47.1212 96.696 47.5532 97.032C48.0012 97.368 48.5692 97.536 49.2572 97.536C50.3452 97.536 51.2492 97.24 51.9692 96.648C52.6892 96.04 53.0492 95.112 53.0492 93.864V92.712L51.1532 92.784ZM67.9903 87.912H63.7903V99H61.7023V87.912H57.5503V86.136H67.9903V87.912ZM75.3964 85.92C76.9644 85.92 78.1244 86.264 78.8764 86.952C79.6284 87.64 80.0044 88.736 80.0044 90.24V99H78.4684L78.0604 97.176H77.9644C77.4044 97.88 76.8124 98.4 76.1884 98.736C75.5804 99.072 74.7324 99.24 73.6444 99.24C72.4764 99.24 71.5084 98.936 70.7404 98.328C69.9724 97.704 69.5884 96.736 69.5884 95.424C69.5884 94.144 70.0924 93.16 71.1004 92.472C72.1084 91.768 73.6604 91.384 75.7564 91.32L77.9404 91.248V90.48C77.9404 89.408 77.7084 88.664 77.2444 88.248C76.7804 87.832 76.1244 87.624 75.2764 87.624C74.6044 87.624 73.9644 87.728 73.3564 87.936C72.7484 88.128 72.1804 88.352 71.6524 88.608L71.0044 87.024C71.5644 86.72 72.2284 86.464 72.9964 86.256C73.7644 86.032 74.5644 85.92 75.3964 85.92ZM76.0204 92.784C74.4204 92.848 73.3084 93.104 72.6844 93.552C72.0764 94 71.7724 94.632 71.7724 95.448C71.7724 96.168 71.9884 96.696 72.4204 97.032C72.8684 97.368 73.4364 97.536 74.1244 97.536C75.2124 97.536 76.1164 97.24 76.8364 96.648C77.5564 96.04 77.9164 95.112 77.9164 93.864V92.712L76.0204 92.784ZM97.7775 86.136V99H95.8815V90.792C95.8815 90.456 95.8895 90.104 95.9055 89.736C95.9375 89.368 95.9695 89.008 96.0015 88.656H95.9295L91.7295 99H89.9535L85.8735 88.656H85.8015C85.8495 89.376 85.8735 90.112 85.8735 90.864V99H83.9775V86.136H86.7855L90.8415 96.48L94.9695 86.136H97.7775ZM103.876 93.984C103.876 94.176 103.868 94.464 103.852 94.848C103.836 95.232 103.812 95.616 103.78 96C103.764 96.384 103.748 96.688 103.732 96.912L110.62 86.136H113.212V99H111.244V91.416C111.244 91.16 111.244 90.824 111.244 90.408C111.26 89.992 111.276 89.584 111.292 89.184C111.308 88.768 111.324 88.456 111.34 88.248L104.5 99H101.884V86.136H103.876V93.984ZM116.226 88.968C116.722 88.888 117.058 88.72 117.234 88.464C117.426 88.192 117.522 87.736 117.522 87.096H116.298V84.816H118.65V86.736C118.65 87.776 118.458 88.56 118.074 89.088C117.69 89.616 117.074 89.88 116.226 89.88V88.968ZM119.682 88.968C120.178 88.888 120.514 88.72 120.69 88.464C120.882 88.192 120.978 87.736 120.978 87.096H119.754V84.816H122.106V86.736C122.106 87.776 121.914 88.56 121.53 89.088C121.146 89.616 120.53 89.88 119.682 89.88V88.968Z" fill="#DED6D6"/>
</svg>
