<svg width="173" height="77" viewBox="0 0 173 77" fill="none" xmlns="http://www.w3.org/2000/svg">
<path d="M5.642 1.97C4.56867 1.97 3.724 2.32933 3.108 3.048C2.492 3.76667 2.184 4.75133 2.184 6.002C2.184 7.24333 2.46867 8.228 3.038 8.956C3.61667 9.67467 4.48 10.034 5.628 10.034C6.06667 10.034 6.482 9.99667 6.874 9.922C7.266 9.84733 7.64867 9.754 8.022 9.642V10.734C7.64867 10.874 7.26133 10.9767 6.86 11.042C6.468 11.1073 5.99667 11.14 5.446 11.14C4.42867 11.14 3.57933 10.93 2.898 10.51C2.21667 10.09 1.70333 9.49267 1.358 8.718C1.022 7.94333 0.854 7.03333 0.854 5.988C0.854 4.98 1.036 4.09333 1.4 3.328C1.77333 2.55333 2.31933 1.95133 3.038 1.522C3.75667 1.08333 4.62933 0.863999 5.656 0.863999C6.71067 0.863999 7.63 1.06 8.414 1.452L7.91 2.516C7.602 2.376 7.25667 2.25 6.874 2.138C6.50067 2.026 6.09 1.97 5.642 1.97ZM16.5597 7.234C16.5597 8.47533 16.2424 9.43667 15.6077 10.118C14.9824 10.7993 14.133 11.14 13.0597 11.14C12.397 11.14 11.8044 10.9907 11.2817 10.692C10.7684 10.384 10.3624 9.94067 10.0637 9.362C9.76504 8.774 9.6157 8.06467 9.6157 7.234C9.6157 5.99267 9.92837 5.036 10.5537 4.364C11.179 3.692 12.0284 3.356 13.1017 3.356C13.783 3.356 14.3804 3.51 14.8937 3.818C15.4164 4.11667 15.8224 4.55533 16.1117 5.134C16.4104 5.70333 16.5597 6.40333 16.5597 7.234ZM10.8897 7.234C10.8897 8.12067 11.0624 8.82533 11.4077 9.348C11.7624 9.86133 12.3224 10.118 13.0877 10.118C13.8437 10.118 14.399 9.86133 14.7537 9.348C15.1084 8.82533 15.2857 8.12067 15.2857 7.234C15.2857 6.34733 15.1084 5.652 14.7537 5.148C14.399 4.644 13.839 4.392 13.0737 4.392C12.3084 4.392 11.753 4.644 11.4077 5.148C11.0624 5.652 10.8897 6.34733 10.8897 7.234ZM21.5223 11.14C20.8596 11.14 20.2669 11.0047 19.7443 10.734C19.2309 10.4633 18.8249 10.0433 18.5263 9.474C18.2369 8.90467 18.0923 8.17667 18.0923 7.29C18.0923 6.366 18.2463 5.61467 18.5543 5.036C18.8623 4.45733 19.2776 4.03267 19.8003 3.762C20.3323 3.49133 20.9343 3.356 21.6063 3.356C21.9889 3.356 22.3576 3.398 22.7123 3.482C23.0669 3.55667 23.3563 3.65 23.5803 3.762L23.2023 4.784C22.9783 4.7 22.7169 4.62067 22.4183 4.546C22.1196 4.47133 21.8396 4.434 21.5783 4.434C20.1036 4.434 19.3663 5.38133 19.3663 7.276C19.3663 8.18133 19.5436 8.87667 19.8983 9.362C20.2623 9.838 20.7989 10.076 21.5083 10.076C21.9189 10.076 22.2783 10.034 22.5863 9.95C22.9036 9.866 23.1929 9.76333 23.4543 9.642V10.734C23.2023 10.8647 22.9223 10.9627 22.6143 11.028C22.3156 11.1027 21.9516 11.14 21.5223 11.14ZM30.4188 4.532H27.9688V11H26.7508V4.532H24.3288V3.496H30.4188V4.532ZM34.739 3.37C35.6537 3.37 36.3304 3.57067 36.769 3.972C37.2077 4.37333 37.427 5.01267 37.427 5.89V11H36.531L36.293 9.936H36.237C35.9104 10.3467 35.565 10.65 35.201 10.846C34.8464 11.042 34.3517 11.14 33.717 11.14C33.0357 11.14 32.471 10.9627 32.023 10.608C31.575 10.244 31.351 9.67933 31.351 8.914C31.351 8.16733 31.645 7.59333 32.233 7.192C32.821 6.78133 33.7264 6.55733 34.949 6.52L36.223 6.478V6.03C36.223 5.40467 36.0877 4.97067 35.817 4.728C35.5464 4.48533 35.1637 4.364 34.669 4.364C34.277 4.364 33.9037 4.42467 33.549 4.546C33.1944 4.658 32.863 4.78867 32.555 4.938L32.177 4.014C32.5037 3.83667 32.891 3.68733 33.339 3.566C33.787 3.43533 34.2537 3.37 34.739 3.37ZM35.103 7.374C34.1697 7.41133 33.521 7.56067 33.157 7.822C32.8024 8.08333 32.625 8.452 32.625 8.928C32.625 9.348 32.751 9.656 33.003 9.852C33.2644 10.048 33.5957 10.146 33.997 10.146C34.6317 10.146 35.159 9.97333 35.579 9.628C35.999 9.27333 36.209 8.732 36.209 8.004V7.332L35.103 7.374ZM45.7787 5.386C45.7787 5.85267 45.6387 6.21667 45.3587 6.478C45.0787 6.73933 44.7194 6.91667 44.2807 7.01V7.066C44.7474 7.13133 45.1534 7.29933 45.4987 7.57C45.844 7.83133 46.0167 8.242 46.0167 8.802C46.0167 9.43667 45.7787 9.964 45.3027 10.384C44.836 10.7947 44.0614 11 42.9787 11H39.7447V3.496H42.9647C43.4967 3.496 43.9727 3.55667 44.3927 3.678C44.822 3.79 45.158 3.986 45.4007 4.266C45.6527 4.53667 45.7787 4.91 45.7787 5.386ZM44.5327 5.54C44.5327 5.18533 44.402 4.92867 44.1407 4.77C43.8887 4.602 43.4734 4.518 42.8947 4.518H40.9767V6.576H42.6707C43.912 6.576 44.5327 6.23067 44.5327 5.54ZM44.7427 8.802C44.7427 8.37267 44.5794 8.06467 44.2527 7.878C43.926 7.69133 43.4454 7.598 42.8107 7.598H40.9767V10.006H42.8387C43.4547 10.006 43.926 9.91733 44.2527 9.74C44.5794 9.55333 44.7427 9.24067 44.7427 8.802ZM47.4611 9.684H48.7771V11H47.4611V9.684ZM47.4611 5.498H48.7771V6.814H47.4611V5.498ZM55.5443 1.97C54.471 1.97 53.6263 2.32933 53.0103 3.048C52.3943 3.76667 52.0863 4.75133 52.0863 6.002C52.0863 7.24333 52.371 8.228 52.9403 8.956C53.519 9.67467 54.3823 10.034 55.5303 10.034C55.969 10.034 56.3843 9.99667 56.7763 9.922C57.1683 9.84733 57.551 9.754 57.9243 9.642V10.734C57.551 10.874 57.1637 10.9767 56.7623 11.042C56.3703 11.1073 55.899 11.14 55.3483 11.14C54.331 11.14 53.4817 10.93 52.8003 10.51C52.119 10.09 51.6057 9.49267 51.2603 8.718C50.9243 7.94333 50.7563 7.03333 50.7563 5.988C50.7563 4.98 50.9383 4.09333 51.3023 3.328C51.6757 2.55333 52.2217 1.95133 52.9403 1.522C53.659 1.08333 54.5317 0.863999 55.5583 0.863999C56.613 0.863999 57.5323 1.06 58.3163 1.452L57.8123 2.516C57.5043 2.376 57.159 2.25 56.7763 2.138C56.403 2.026 55.9923 1.97 55.5443 1.97ZM66.462 7.234C66.462 8.47533 66.1447 9.43667 65.51 10.118C64.8847 10.7993 64.0354 11.14 62.962 11.14C62.2994 11.14 61.7067 10.9907 61.184 10.692C60.6707 10.384 60.2647 9.94067 59.966 9.362C59.6674 8.774 59.518 8.06467 59.518 7.234C59.518 5.99267 59.8307 5.036 60.456 4.364C61.0814 3.692 61.9307 3.356 63.004 3.356C63.6854 3.356 64.2827 3.51 64.796 3.818C65.3187 4.11667 65.7247 4.55533 66.014 5.134C66.3127 5.70333 66.462 6.40333 66.462 7.234ZM60.792 7.234C60.792 8.12067 60.9647 8.82533 61.31 9.348C61.6647 9.86133 62.2247 10.118 62.99 10.118C63.746 10.118 64.3014 9.86133 64.656 9.348C65.0107 8.82533 65.188 8.12067 65.188 7.234C65.188 6.34733 65.0107 5.652 64.656 5.148C64.3014 4.644 63.7414 4.392 62.976 4.392C62.2107 4.392 61.6554 4.644 61.31 5.148C60.9647 5.652 60.792 6.34733 60.792 7.234ZM67.1019 3.496H68.4179L70.0419 7.766C70.1819 8.13933 70.3079 8.49867 70.4199 8.844C70.5319 9.18 70.6159 9.502 70.6719 9.81H70.7279C70.7839 9.57667 70.8726 9.27333 70.9939 8.9C71.1152 8.51733 71.2412 8.13467 71.3719 7.752L72.8979 3.496H74.2279L70.9939 12.036C70.7326 12.7453 70.3919 13.31 69.9719 13.73C69.5612 14.15 68.9919 14.36 68.2639 14.36C68.0399 14.36 67.8439 14.346 67.6759 14.318C67.5079 14.2993 67.3632 14.276 67.2419 14.248V13.268C67.3446 13.2867 67.4659 13.3053 67.6059 13.324C67.7552 13.3427 67.9092 13.352 68.0679 13.352C68.4972 13.352 68.8426 13.2307 69.1039 12.988C69.3746 12.7453 69.5846 12.4233 69.7339 12.022L70.1259 11.028L67.1019 3.496ZM78.4246 11.14C77.7619 11.14 77.1693 11.0047 76.6466 10.734C76.1333 10.4633 75.7273 10.0433 75.4286 9.474C75.1393 8.90467 74.9946 8.17667 74.9946 7.29C74.9946 6.366 75.1486 5.61467 75.4566 5.036C75.7646 4.45733 76.1799 4.03267 76.7026 3.762C77.2346 3.49133 77.8366 3.356 78.5086 3.356C78.8913 3.356 79.2599 3.398 79.6146 3.482C79.9693 3.55667 80.2586 3.65 80.4826 3.762L80.1046 4.784C79.8806 4.7 79.6193 4.62067 79.3206 4.546C79.0219 4.47133 78.7419 4.434 78.4806 4.434C77.0059 4.434 76.2686 5.38133 76.2686 7.276C76.2686 8.18133 76.4459 8.87667 76.8006 9.362C77.1646 9.838 77.7013 10.076 78.4106 10.076C78.8213 10.076 79.1806 10.034 79.4886 9.95C79.8059 9.866 80.0953 9.76333 80.3566 9.642V10.734C80.1046 10.8647 79.8246 10.9627 79.5166 11.028C79.2179 11.1027 78.8539 11.14 78.4246 11.14ZM86.0148 6.492C86.0148 4.84933 86.2621 3.57067 86.7568 2.656C87.2515 1.732 88.0495 1.15333 89.1508 0.92C89.7575 0.789333 90.3501 0.672666 90.9288 0.569999C91.5075 0.467333 92.0488 0.373999 92.5528 0.289999L92.7628 1.368C92.4361 1.41467 92.0675 1.47533 91.6568 1.55C91.2461 1.61533 90.8401 1.68533 90.4388 1.76C90.0375 1.82533 89.6921 1.89067 89.4028 1.956C88.7961 2.08667 88.3155 2.404 87.9608 2.908C87.6061 3.40267 87.4055 4.17733 87.3588 5.232H87.4428C87.5735 5.05467 87.7508 4.87267 87.9748 4.686C88.2081 4.49933 88.4835 4.34067 88.8008 4.21C89.1275 4.07933 89.4961 4.014 89.9068 4.014C90.8775 4.014 91.6101 4.32667 92.1048 4.952C92.5995 5.57733 92.8468 6.38933 92.8468 7.388C92.8468 8.21867 92.7021 8.914 92.4128 9.474C92.1235 10.034 91.7221 10.454 91.2088 10.734C90.6955 11.0047 90.0981 11.14 89.4168 11.14C88.3808 11.14 87.5548 10.7433 86.9388 9.95C86.3228 9.15667 86.0148 8.004 86.0148 6.492ZM89.5148 10.118C90.1215 10.118 90.6115 9.922 90.9848 9.53C91.3581 9.138 91.5448 8.466 91.5448 7.514C91.5448 6.74867 91.4001 6.14667 91.1108 5.708C90.8308 5.26 90.3641 5.036 89.7108 5.036C89.3001 5.036 88.9268 5.12933 88.5908 5.316C88.2548 5.49333 87.9748 5.69867 87.7508 5.932C87.5268 6.16533 87.3681 6.36133 87.2748 6.52C87.2748 6.97733 87.3075 7.42067 87.3728 7.85C87.4381 8.27933 87.5501 8.66667 87.7088 9.012C87.8768 9.348 88.1055 9.61867 88.3948 9.824C88.6935 10.02 89.0668 10.118 89.5148 10.118ZM93.6117 3.496H94.9277L96.5517 7.766C96.6917 8.13933 96.8177 8.49867 96.9297 8.844C97.0417 9.18 97.1257 9.502 97.1817 9.81H97.2377C97.2937 9.57667 97.3823 9.27333 97.5037 8.9C97.625 8.51733 97.751 8.13467 97.8817 7.752L99.4077 3.496H100.738L97.5037 12.036C97.2423 12.7453 96.9017 13.31 96.4817 13.73C96.071 14.15 95.5017 14.36 94.7737 14.36C94.5497 14.36 94.3537 14.346 94.1857 14.318C94.0177 14.2993 93.873 14.276 93.7517 14.248V13.268C93.8543 13.2867 93.9757 13.3053 94.1157 13.324C94.265 13.3427 94.419 13.352 94.5777 13.352C95.007 13.352 95.3523 13.2307 95.6137 12.988C95.8843 12.7453 96.0943 12.4233 96.2437 12.022L96.6357 11.028L93.6117 3.496ZM105.494 3.356C106.418 3.356 107.16 3.678 107.72 4.322C108.29 4.966 108.574 5.93667 108.574 7.234C108.574 8.51267 108.29 9.48333 107.72 10.146C107.16 10.8087 106.414 11.14 105.48 11.14C104.902 11.14 104.421 11.0327 104.038 10.818C103.665 10.594 103.371 10.3373 103.156 10.048H103.072C103.091 10.2067 103.11 10.4073 103.128 10.65C103.147 10.8927 103.156 11.1027 103.156 11.28V14.36H101.924V3.496H102.932L103.1 4.518H103.156C103.38 4.19133 103.674 3.916 104.038 3.692C104.402 3.468 104.888 3.356 105.494 3.356ZM105.27 4.392C104.505 4.392 103.964 4.60667 103.646 5.036C103.338 5.46533 103.175 6.11867 103.156 6.996V7.234C103.156 8.158 103.306 8.872 103.604 9.376C103.912 9.87067 104.477 10.118 105.298 10.118C105.756 10.118 106.129 9.992 106.418 9.74C106.717 9.488 106.936 9.14733 107.076 8.718C107.226 8.27933 107.3 7.78 107.3 7.22C107.3 6.36133 107.132 5.67533 106.796 5.162C106.47 4.64867 105.961 4.392 105.27 4.392ZM115.116 3.496V4.532H111.77V11H110.538V3.496H115.116ZM119.356 3.356C120 3.356 120.55 3.496 121.008 3.776C121.474 4.056 121.829 4.45267 122.072 4.966C122.324 5.47 122.45 6.06267 122.45 6.744V7.486H117.312C117.33 8.33533 117.545 8.984 117.956 9.432C118.376 9.87067 118.959 10.09 119.706 10.09C120.182 10.09 120.602 10.048 120.966 9.964C121.339 9.87067 121.722 9.74 122.114 9.572V10.65C121.731 10.818 121.353 10.9393 120.98 11.014C120.606 11.098 120.163 11.14 119.65 11.14C118.94 11.14 118.31 10.9953 117.76 10.706C117.218 10.4167 116.794 9.98733 116.486 9.418C116.187 8.83933 116.038 8.13467 116.038 7.304C116.038 6.48267 116.173 5.778 116.444 5.19C116.724 4.602 117.111 4.14933 117.606 3.832C118.11 3.51467 118.693 3.356 119.356 3.356ZM119.342 4.364C118.754 4.364 118.287 4.55533 117.942 4.938C117.606 5.31133 117.405 5.834 117.34 6.506H121.162C121.152 5.87133 121.003 5.358 120.714 4.966C120.424 4.56467 119.967 4.364 119.342 4.364ZM127.93 3.356C128.854 3.356 129.596 3.678 130.156 4.322C130.725 4.966 131.01 5.93667 131.01 7.234C131.01 8.51267 130.725 9.48333 130.156 10.146C129.596 10.8087 128.849 11.14 127.916 11.14C127.337 11.14 126.857 11.0327 126.474 10.818C126.101 10.594 125.807 10.3373 125.592 10.048H125.508C125.527 10.2067 125.545 10.4073 125.564 10.65C125.583 10.8927 125.592 11.1027 125.592 11.28V14.36H124.36V3.496H125.368L125.536 4.518H125.592C125.816 4.19133 126.11 3.916 126.474 3.692C126.838 3.468 127.323 3.356 127.93 3.356ZM127.706 4.392C126.941 4.392 126.399 4.60667 126.082 5.036C125.774 5.46533 125.611 6.11867 125.592 6.996V7.234C125.592 8.158 125.741 8.872 126.04 9.376C126.348 9.87067 126.913 10.118 127.734 10.118C128.191 10.118 128.565 9.992 128.854 9.74C129.153 9.488 129.372 9.14733 129.512 8.718C129.661 8.27933 129.736 7.78 129.736 7.22C129.736 6.36133 129.568 5.67533 129.232 5.162C128.905 4.64867 128.397 4.392 127.706 4.392ZM132.623 12.092C132.913 12.0453 133.109 11.9427 133.211 11.784C133.323 11.6347 133.379 11.3733 133.379 11H132.665V9.67H134.037V10.79C134.037 11.3967 133.925 11.854 133.701 12.162C133.477 12.47 133.118 12.624 132.623 12.624V12.092ZM8.596 29.604H7.392V27H1.19V19.496H2.422V25.964H6.3V19.496H7.532V25.978H8.596V29.604ZM10.0357 27V19.496H11.2677V22.576H13.2137C14.1844 22.576 14.903 22.7533 15.3697 23.108C15.8364 23.4627 16.0697 23.9947 16.0697 24.704C16.0697 25.404 15.841 25.964 15.3837 26.384C14.9264 26.7947 14.1844 27 13.1577 27H10.0357ZM17.3157 27V19.496H18.5477V27H17.3157ZM13.0457 26.006C13.5777 26.006 14.0117 25.9173 14.3477 25.74C14.6837 25.5533 14.8517 25.2313 14.8517 24.774C14.8517 24.3167 14.6977 24.0087 14.3897 23.85C14.0817 23.682 13.6384 23.598 13.0597 23.598H11.2677V26.006H13.0457ZM27.2742 19.496V27H26.0422V20.546H22.1642V27H20.9322V19.496H27.2742ZM35.3805 27H34.1345V20.518H31.9225C31.8012 22.0953 31.6332 23.3693 31.4185 24.34C31.2038 25.3013 30.9192 26.0013 30.5645 26.44C30.2098 26.8787 29.7618 27.098 29.2205 27.098C29.0992 27.098 28.9778 27.0887 28.8565 27.07C28.7445 27.0607 28.6512 27.0373 28.5765 27V26.076C28.6325 26.0947 28.6932 26.1087 28.7585 26.118C28.8238 26.1273 28.8892 26.132 28.9545 26.132C29.4585 26.132 29.8598 25.5953 30.1585 24.522C30.4665 23.4487 30.6998 21.7733 30.8585 19.496H35.3805V27ZM40.6603 19.356C41.3043 19.356 41.8549 19.496 42.3123 19.776C42.7789 20.056 43.1336 20.4527 43.3763 20.966C43.6283 21.47 43.7543 22.0627 43.7543 22.744V23.486H38.6163C38.6349 24.3353 38.8496 24.984 39.2603 25.432C39.6803 25.8707 40.2636 26.09 41.0103 26.09C41.4863 26.09 41.9063 26.048 42.2703 25.964C42.6436 25.8707 43.0263 25.74 43.4183 25.572V26.65C43.0356 26.818 42.6576 26.9393 42.2843 27.014C41.9109 27.098 41.4676 27.14 40.9543 27.14C40.2449 27.14 39.6149 26.9953 39.0643 26.706C38.5229 26.4167 38.0983 25.9873 37.7903 25.418C37.4916 24.8393 37.3423 24.1347 37.3423 23.304C37.3423 22.4827 37.4776 21.778 37.7483 21.19C38.0283 20.602 38.4156 20.1493 38.9103 19.832C39.4143 19.5147 39.9976 19.356 40.6603 19.356ZM40.6463 20.364C40.0583 20.364 39.5916 20.5553 39.2463 20.938C38.9103 21.3113 38.7096 21.834 38.6443 22.506H42.4663C42.4569 21.8713 42.3076 21.358 42.0183 20.966C41.7289 20.5647 41.2716 20.364 40.6463 20.364ZM46.8966 19.496V22.618H50.9706V19.496H52.2026V27H50.9706V23.654H46.8966V27H45.6646V19.496H46.8966ZM61.1027 23.234C61.1027 24.4753 60.7853 25.4367 60.1507 26.118C59.5253 26.7993 58.676 27.14 57.6027 27.14C56.94 27.14 56.3473 26.9907 55.8247 26.692C55.3113 26.384 54.9053 25.9407 54.6067 25.362C54.308 24.774 54.1587 24.0647 54.1587 23.234C54.1587 21.9927 54.4713 21.036 55.0967 20.364C55.722 19.692 56.5713 19.356 57.6447 19.356C58.326 19.356 58.9233 19.51 59.4367 19.818C59.9593 20.1167 60.3653 20.5553 60.6547 21.134C60.9533 21.7033 61.1027 22.4033 61.1027 23.234ZM55.4327 23.234C55.4327 24.1207 55.6053 24.8253 55.9507 25.348C56.3053 25.8613 56.8653 26.118 57.6307 26.118C58.3867 26.118 58.942 25.8613 59.2967 25.348C59.6513 24.8253 59.8287 24.1207 59.8287 23.234C59.8287 22.3473 59.6513 21.652 59.2967 21.148C58.942 20.644 58.382 20.392 57.6167 20.392C56.8513 20.392 56.296 20.644 55.9507 21.148C55.6053 21.652 55.4327 22.3473 55.4327 23.234ZM67.4932 19.496H68.8372L65.6312 23.108L69.1032 27H67.6752L64.2872 23.192V27H63.0552V19.496H64.2872V23.136L67.4932 19.496ZM70.1154 28.092C70.4047 28.0453 70.6007 27.9427 70.7034 27.784C70.8154 27.6347 70.8714 27.3733 70.8714 27H70.1574V25.67H71.5294V26.79C71.5294 27.3967 71.4174 27.854 71.1934 28.162C70.9694 28.47 70.6101 28.624 70.1154 28.624V28.092ZM81.118 27.14C80.4553 27.14 79.8626 27.0047 79.34 26.734C78.8266 26.4633 78.4206 26.0433 78.122 25.474C77.8326 24.9047 77.688 24.1767 77.688 23.29C77.688 22.366 77.842 21.6147 78.15 21.036C78.458 20.4573 78.8733 20.0327 79.396 19.762C79.928 19.4913 80.53 19.356 81.202 19.356C81.5846 19.356 81.9533 19.398 82.308 19.482C82.6626 19.5567 82.952 19.65 83.176 19.762L82.798 20.784C82.574 20.7 82.3126 20.6207 82.014 20.546C81.7153 20.4713 81.4353 20.434 81.174 20.434C79.6993 20.434 78.962 21.3813 78.962 23.276C78.962 24.1813 79.1393 24.8767 79.494 25.362C79.858 25.838 80.3946 26.076 81.104 26.076C81.5146 26.076 81.874 26.034 82.182 25.95C82.4993 25.866 82.7886 25.7633 83.05 25.642V26.734C82.798 26.8647 82.518 26.9627 82.21 27.028C81.9113 27.1027 81.5473 27.14 81.118 27.14ZM91.3585 23.234C91.3585 24.4753 91.0412 25.4367 90.4065 26.118C89.7812 26.7993 88.9319 27.14 87.8585 27.14C87.1959 27.14 86.6032 26.9907 86.0805 26.692C85.5672 26.384 85.1612 25.9407 84.8625 25.362C84.5639 24.774 84.4145 24.0647 84.4145 23.234C84.4145 21.9927 84.7272 21.036 85.3525 20.364C85.9779 19.692 86.8272 19.356 87.9005 19.356C88.5819 19.356 89.1792 19.51 89.6925 19.818C90.2152 20.1167 90.6212 20.5553 90.9105 21.134C91.2092 21.7033 91.3585 22.4033 91.3585 23.234ZM85.6885 23.234C85.6885 24.1207 85.8612 24.8253 86.2065 25.348C86.5612 25.8613 87.1212 26.118 87.8865 26.118C88.6425 26.118 89.1979 25.8613 89.5525 25.348C89.9072 24.8253 90.0845 24.1207 90.0845 23.234C90.0845 22.3473 89.9072 21.652 89.5525 21.148C89.1979 20.644 88.6379 20.392 87.8725 20.392C87.1072 20.392 86.5519 20.644 86.2065 21.148C85.8612 21.652 85.6885 22.3473 85.6885 23.234ZM91.9984 19.496H93.3144L94.9384 23.766C95.0784 24.1393 95.2044 24.4987 95.3164 24.844C95.4284 25.18 95.5124 25.502 95.5684 25.81H95.6244C95.6804 25.5767 95.769 25.2733 95.8904 24.9C96.0117 24.5173 96.1377 24.1347 96.2684 23.752L97.7944 19.496H99.1244L95.8904 28.036C95.629 28.7453 95.2884 29.31 94.8684 29.73C94.4577 30.15 93.8884 30.36 93.1604 30.36C92.9364 30.36 92.7404 30.346 92.5724 30.318C92.4044 30.2993 92.2597 30.276 92.1384 30.248V29.268C92.241 29.2867 92.3624 29.3053 92.5024 29.324C92.6517 29.3427 92.8057 29.352 92.9644 29.352C93.3937 29.352 93.739 29.2307 94.0004 28.988C94.271 28.7453 94.481 28.4233 94.6304 28.022L95.0224 27.028L91.9984 19.496ZM103.321 27.14C102.658 27.14 102.066 27.0047 101.543 26.734C101.03 26.4633 100.624 26.0433 100.325 25.474C100.036 24.9047 99.8911 24.1767 99.8911 23.29C99.8911 22.366 100.045 21.6147 100.353 21.036C100.661 20.4573 101.076 20.0327 101.599 19.762C102.131 19.4913 102.733 19.356 103.405 19.356C103.788 19.356 104.156 19.398 104.511 19.482C104.866 19.5567 105.155 19.65 105.379 19.762L105.001 20.784C104.777 20.7 104.516 20.6207 104.217 20.546C103.918 20.4713 103.638 20.434 103.377 20.434C101.902 20.434 101.165 21.3813 101.165 23.276C101.165 24.1813 101.342 24.8767 101.697 25.362C102.061 25.838 102.598 26.076 103.307 26.076C103.718 26.076 104.077 26.034 104.385 25.95C104.702 25.866 104.992 25.7633 105.253 25.642V26.734C105.001 26.8647 104.721 26.9627 104.413 27.028C104.114 27.1027 103.75 27.14 103.321 27.14ZM114.873 19.356C115.797 19.356 116.539 19.678 117.099 20.322C117.669 20.966 117.953 21.9367 117.953 23.234C117.953 24.5127 117.669 25.4833 117.099 26.146C116.539 26.8087 115.793 27.14 114.859 27.14C114.281 27.14 113.8 27.0327 113.417 26.818C113.044 26.594 112.75 26.3373 112.535 26.048H112.451C112.47 26.2067 112.489 26.4073 112.507 26.65C112.526 26.8927 112.535 27.1027 112.535 27.28V30.36H111.303V19.496H112.311L112.479 20.518H112.535C112.759 20.1913 113.053 19.916 113.417 19.692C113.781 19.468 114.267 19.356 114.873 19.356ZM114.649 20.392C113.884 20.392 113.343 20.6067 113.025 21.036C112.717 21.4653 112.554 22.1187 112.535 22.996V23.234C112.535 24.158 112.685 24.872 112.983 25.376C113.291 25.8707 113.856 26.118 114.677 26.118C115.135 26.118 115.508 25.992 115.797 25.74C116.096 25.488 116.315 25.1473 116.455 24.718C116.605 24.2793 116.679 23.78 116.679 23.22C116.679 22.3613 116.511 21.6753 116.175 21.162C115.849 20.6487 115.34 20.392 114.649 20.392ZM122.759 19.37C123.673 19.37 124.35 19.5707 124.789 19.972C125.227 20.3733 125.447 21.0127 125.447 21.89V27H124.551L124.313 25.936H124.257C123.93 26.3467 123.585 26.65 123.221 26.846C122.866 27.042 122.371 27.14 121.737 27.14C121.055 27.14 120.491 26.9627 120.043 26.608C119.595 26.244 119.371 25.6793 119.371 24.914C119.371 24.1673 119.665 23.5933 120.253 23.192C120.841 22.7813 121.746 22.5573 122.969 22.52L124.243 22.478V22.03C124.243 21.4047 124.107 20.9707 123.837 20.728C123.566 20.4853 123.183 20.364 122.689 20.364C122.297 20.364 121.923 20.4247 121.569 20.546C121.214 20.658 120.883 20.7887 120.575 20.938L120.197 20.014C120.523 19.8367 120.911 19.6873 121.359 19.566C121.807 19.4353 122.273 19.37 122.759 19.37ZM123.123 23.374C122.189 23.4113 121.541 23.5607 121.177 23.822C120.822 24.0833 120.645 24.452 120.645 24.928C120.645 25.348 120.771 25.656 121.023 25.852C121.284 26.048 121.615 26.146 122.017 26.146C122.651 26.146 123.179 25.9733 123.599 25.628C124.019 25.2733 124.229 24.732 124.229 24.004V23.332L123.123 23.374ZM128.996 19.496V22.618H133.07V19.496H134.302V27H133.07V23.654H128.996V27H127.764V19.496H128.996ZM137.756 22.226C137.756 23.0847 138.237 23.514 139.198 23.514C139.665 23.514 140.09 23.444 140.472 23.304C140.855 23.1547 141.247 22.9587 141.648 22.716V19.496H142.88V27H141.648V23.654C141.228 23.9247 140.813 24.1393 140.402 24.298C140.001 24.4473 139.516 24.522 138.946 24.522C138.181 24.522 137.584 24.3213 137.154 23.92C136.734 23.5187 136.524 22.982 136.524 22.31V19.496H137.756V22.226ZM144.914 28.092C145.204 28.0453 145.4 27.9427 145.502 27.784C145.614 27.6347 145.67 27.3733 145.67 27H144.956V25.67H146.328V26.79C146.328 27.3967 146.216 27.854 145.992 28.162C145.768 28.47 145.409 28.624 144.914 28.624V28.092ZM2.268 38.226C2.268 39.0847 2.74867 39.514 3.71 39.514C4.17667 39.514 4.60133 39.444 4.984 39.304C5.36667 39.1547 5.75867 38.9587 6.16 38.716V35.496H7.392V43H6.16V39.654C5.74 39.9247 5.32467 40.1393 4.914 40.298C4.51267 40.4473 4.02733 40.522 3.458 40.522C2.69267 40.522 2.09533 40.3213 1.666 39.92C1.246 39.5187 1.036 38.982 1.036 38.31V35.496H2.268V38.226ZM16.2999 39.234C16.2999 40.4753 15.9826 41.4367 15.3479 42.118C14.7226 42.7993 13.8733 43.14 12.7999 43.14C12.1373 43.14 11.5446 42.9907 11.0219 42.692C10.5086 42.384 10.1026 41.9407 9.80394 41.362C9.50527 40.774 9.35594 40.0647 9.35594 39.234C9.35594 37.9927 9.6686 37.036 10.2939 36.364C10.9193 35.692 11.7686 35.356 12.8419 35.356C13.5233 35.356 14.1206 35.51 14.6339 35.818C15.1566 36.1167 15.5626 36.5553 15.8519 37.134C16.1506 37.7033 16.2999 38.4033 16.2999 39.234ZM10.6299 39.234C10.6299 40.1207 10.8026 40.8253 11.1479 41.348C11.5026 41.8613 12.0626 42.118 12.8279 42.118C13.5839 42.118 14.1393 41.8613 14.4939 41.348C14.8486 40.8253 15.0259 40.1207 15.0259 39.234C15.0259 38.3473 14.8486 37.652 14.4939 37.148C14.1393 36.644 13.5793 36.392 12.8139 36.392C12.0486 36.392 11.4933 36.644 11.1479 37.148C10.8026 37.652 10.6299 38.3473 10.6299 39.234ZM21.8225 35.356C22.7465 35.356 23.4885 35.678 24.0485 36.322C24.6178 36.966 24.9025 37.9367 24.9025 39.234C24.9025 40.5127 24.6178 41.4833 24.0485 42.146C23.4885 42.8087 22.7418 43.14 21.8085 43.14C21.2298 43.14 20.7492 43.0327 20.3665 42.818C19.9932 42.594 19.6992 42.3373 19.4845 42.048H19.4005C19.4192 42.2067 19.4378 42.4073 19.4565 42.65C19.4752 42.8927 19.4845 43.1027 19.4845 43.28V46.36H18.2525V35.496H19.2605L19.4285 36.518H19.4845C19.7085 36.1913 20.0025 35.916 20.3665 35.692C20.7305 35.468 21.2158 35.356 21.8225 35.356ZM21.5985 36.392C20.8332 36.392 20.2918 36.6067 19.9745 37.036C19.6665 37.4653 19.5032 38.1187 19.4845 38.996V39.234C19.4845 40.158 19.6338 40.872 19.9325 41.376C20.2405 41.8707 20.8052 42.118 21.6265 42.118C22.0838 42.118 22.4572 41.992 22.7465 41.74C23.0452 41.488 23.2645 41.1473 23.4045 40.718C23.5538 40.2793 23.6285 39.78 23.6285 39.22C23.6285 38.3613 23.4605 37.6753 23.1245 37.162C22.7978 36.6487 22.2892 36.392 21.5985 36.392ZM28.0278 40.074C28.0278 40.186 28.0231 40.354 28.0138 40.578C28.0044 40.802 27.9904 41.026 27.9718 41.25C27.9624 41.474 27.9531 41.6513 27.9438 41.782L31.9618 35.496H33.4738V43H32.3258V38.576C32.3258 38.4267 32.3258 38.2307 32.3258 37.988C32.3351 37.7453 32.3444 37.5073 32.3538 37.274C32.3631 37.0313 32.3724 36.8493 32.3818 36.728L28.3918 43H26.8658V35.496H28.0278V40.074ZM37.8359 35.356C38.6945 35.356 39.3759 35.5287 39.8799 35.874C40.3932 36.21 40.6499 36.6953 40.6499 37.33C40.6499 37.7873 40.5239 38.1513 40.2719 38.422C40.0199 38.6833 39.6745 38.8747 39.2359 38.996V39.052C39.5345 39.136 39.8099 39.2527 40.0619 39.402C40.3139 39.5513 40.5145 39.7473 40.6639 39.99C40.8225 40.2327 40.9019 40.5453 40.9019 40.928C40.9019 41.5533 40.6405 42.0807 40.1179 42.51C39.6045 42.93 38.7972 43.14 37.6959 43.14C37.1545 43.14 36.6645 43.0933 36.2259 43C35.7872 42.916 35.4232 42.7993 35.1339 42.65V41.544C35.4512 41.6933 35.8245 41.8287 36.2539 41.95C36.6925 42.0713 37.1685 42.132 37.6819 42.132C38.2419 42.132 38.7132 42.0387 39.0959 41.852C39.4879 41.656 39.6839 41.3247 39.6839 40.858C39.6839 40.018 38.9699 39.598 37.5419 39.598H36.5339V38.59H37.3459C37.9899 38.59 38.5032 38.506 38.8859 38.338C39.2779 38.1607 39.4739 37.862 39.4739 37.442C39.4739 37.0873 39.3245 36.8213 39.0259 36.644C38.7365 36.4667 38.3165 36.378 37.7659 36.378C37.3552 36.378 36.9912 36.42 36.6739 36.504C36.3659 36.5787 36.0252 36.6953 35.6519 36.854L35.2179 35.874C36.0019 35.5287 36.8745 35.356 37.8359 35.356ZM49.2492 39.234C49.2492 40.4753 48.9318 41.4367 48.2972 42.118C47.6718 42.7993 46.8225 43.14 45.7492 43.14C45.0865 43.14 44.4938 42.9907 43.9712 42.692C43.4578 42.384 43.0518 41.9407 42.7532 41.362C42.4545 40.774 42.3052 40.0647 42.3052 39.234C42.3052 37.9927 42.6178 37.036 43.2432 36.364C43.8685 35.692 44.7178 35.356 45.7912 35.356C46.4725 35.356 47.0698 35.51 47.5832 35.818C48.1058 36.1167 48.5118 36.5553 48.8012 37.134C49.0998 37.7033 49.2492 38.4033 49.2492 39.234ZM43.5792 39.234C43.5792 40.1207 43.7518 40.8253 44.0972 41.348C44.4518 41.8613 45.0118 42.118 45.7772 42.118C46.5332 42.118 47.0885 41.8613 47.4432 41.348C47.7978 40.8253 47.9752 40.1207 47.9752 39.234C47.9752 38.3473 47.7978 37.652 47.4432 37.148C47.0885 36.644 46.5285 36.392 45.7632 36.392C44.9978 36.392 44.4425 36.644 44.0972 37.148C43.7518 37.652 43.5792 38.3473 43.5792 39.234ZM50.8517 44.092C51.1411 44.0453 51.3371 43.9427 51.4397 43.784C51.5517 43.6347 51.6077 43.3733 51.6077 43H50.8937V41.67H52.2657V42.79C52.2657 43.3967 52.1537 43.854 51.9297 44.162C51.7057 44.47 51.3464 44.624 50.8517 44.624V44.092ZM61.8543 43.14C61.1916 43.14 60.599 43.0047 60.0763 42.734C59.563 42.4633 59.157 42.0433 58.8583 41.474C58.569 40.9047 58.4243 40.1767 58.4243 39.29C58.4243 38.366 58.5783 37.6147 58.8863 37.036C59.1943 36.4573 59.6096 36.0327 60.1323 35.762C60.6643 35.4913 61.2663 35.356 61.9383 35.356C62.321 35.356 62.6896 35.398 63.0443 35.482C63.399 35.5567 63.6883 35.65 63.9123 35.762L63.5343 36.784C63.3103 36.7 63.049 36.6207 62.7503 36.546C62.4516 36.4713 62.1716 36.434 61.9103 36.434C60.4356 36.434 59.6983 37.3813 59.6983 39.276C59.6983 40.1813 59.8756 40.8767 60.2303 41.362C60.5943 41.838 61.131 42.076 61.8403 42.076C62.251 42.076 62.6103 42.034 62.9183 41.95C63.2356 41.866 63.525 41.7633 63.7863 41.642V42.734C63.5343 42.8647 63.2543 42.9627 62.9463 43.028C62.6476 43.1027 62.2836 43.14 61.8543 43.14ZM71.2829 43H70.0369V36.518H67.8249C67.7035 38.0953 67.5355 39.3693 67.3209 40.34C67.1062 41.3013 66.8215 42.0013 66.4669 42.44C66.1122 42.8787 65.6642 43.098 65.1229 43.098C65.0015 43.098 64.8802 43.0887 64.7589 43.07C64.6469 43.0607 64.5535 43.0373 64.4789 43V42.076C64.5349 42.0947 64.5955 42.1087 64.6609 42.118C64.7262 42.1273 64.7915 42.132 64.8569 42.132C65.3609 42.132 65.7622 41.5953 66.0609 40.522C66.3689 39.4487 66.6022 37.7733 66.7609 35.496H71.2829V43ZM76.5066 35.37C77.4213 35.37 78.0979 35.5707 78.5366 35.972C78.9753 36.3733 79.1946 37.0127 79.1946 37.89V43H78.2986L78.0606 41.936H78.0046C77.6779 42.3467 77.3326 42.65 76.9686 42.846C76.6139 43.042 76.1193 43.14 75.4846 43.14C74.8033 43.14 74.2386 42.9627 73.7906 42.608C73.3426 42.244 73.1186 41.6793 73.1186 40.914C73.1186 40.1673 73.4126 39.5933 74.0006 39.192C74.5886 38.7813 75.4939 38.5573 76.7166 38.52L77.9906 38.478V38.03C77.9906 37.4047 77.8553 36.9707 77.5846 36.728C77.3139 36.4853 76.9313 36.364 76.4366 36.364C76.0446 36.364 75.6713 36.4247 75.3166 36.546C74.9619 36.658 74.6306 36.7887 74.3226 36.938L73.9446 36.014C74.2713 35.8367 74.6586 35.6873 75.1066 35.566C75.5546 35.4353 76.0213 35.37 76.5066 35.37ZM76.8706 39.374C75.9373 39.4113 75.2886 39.5607 74.9246 39.822C74.5699 40.0833 74.3926 40.452 74.3926 40.928C74.3926 41.348 74.5186 41.656 74.7706 41.852C75.0319 42.048 75.3633 42.146 75.7646 42.146C76.3993 42.146 76.9266 41.9733 77.3466 41.628C77.7666 41.2733 77.9766 40.732 77.9766 40.004V39.332L76.8706 39.374ZM87.0843 35.496V41.964H88.1763V45.604H86.9863V43H81.7643V45.604H80.5883V41.964H81.1903C81.8343 41.0773 82.3149 40.0693 82.6323 38.94C82.9589 37.8013 83.1269 36.6533 83.1363 35.496H87.0843ZM84.2283 36.462C84.1909 37.0967 84.0929 37.7547 83.9343 38.436C83.7756 39.108 83.5703 39.752 83.3183 40.368C83.0756 40.984 82.7909 41.516 82.4643 41.964H85.8943V36.462H84.2283ZM94.085 35.496H95.429L92.223 39.108L95.695 43H94.267L90.879 39.192V43H89.647V35.496H90.879V39.136L94.085 35.496ZM98.2192 40.074C98.2192 40.186 98.2145 40.354 98.2052 40.578C98.1959 40.802 98.1819 41.026 98.1632 41.25C98.1539 41.474 98.1445 41.6513 98.1352 41.782L102.153 35.496H103.665V43H102.517V38.576C102.517 38.4267 102.517 38.2307 102.517 37.988C102.527 37.7453 102.536 37.5073 102.545 37.274C102.555 37.0313 102.564 36.8493 102.573 36.728L98.5832 43H97.0572V35.496H98.2192V40.074ZM112.129 32.388C112.064 33.088 111.826 33.62 111.415 33.984C111.014 34.3387 110.37 34.516 109.483 34.516C108.569 34.516 107.92 34.3387 107.537 33.984C107.164 33.6293 106.954 33.0973 106.907 32.388H108.055C108.102 32.892 108.233 33.2327 108.447 33.41C108.671 33.578 109.026 33.662 109.511 33.662C109.941 33.662 110.277 33.5733 110.519 33.396C110.771 33.2093 110.921 32.8733 110.967 32.388H112.129ZM107.215 40.074C107.215 40.186 107.211 40.354 107.201 40.578C107.192 40.802 107.178 41.026 107.159 41.25C107.15 41.474 107.141 41.6513 107.131 41.782L111.149 35.496H112.661V43H111.513V38.576C111.513 38.4267 111.513 38.2307 111.513 37.988C111.523 37.7453 111.532 37.5073 111.541 37.274C111.551 37.0313 111.56 36.8493 111.569 36.728L107.579 43H106.053V35.496H107.215V40.074ZM125.657 35.496V43H124.425V36.546H120.547V43H119.315V35.496H125.657ZM130.949 35.356C131.593 35.356 132.144 35.496 132.601 35.776C133.068 36.056 133.423 36.4527 133.665 36.966C133.917 37.47 134.043 38.0627 134.043 38.744V39.486H128.905C128.924 40.3353 129.139 40.984 129.549 41.432C129.969 41.8707 130.553 42.09 131.299 42.09C131.775 42.09 132.195 42.048 132.559 41.964C132.933 41.8707 133.315 41.74 133.707 41.572V42.65C133.325 42.818 132.947 42.9393 132.573 43.014C132.2 43.098 131.757 43.14 131.243 43.14C130.534 43.14 129.904 42.9953 129.353 42.706C128.812 42.4167 128.387 41.9873 128.079 41.418C127.781 40.8393 127.631 40.1347 127.631 39.304C127.631 38.4827 127.767 37.778 128.037 37.19C128.317 36.602 128.705 36.1493 129.199 35.832C129.703 35.5147 130.287 35.356 130.949 35.356ZM130.935 36.364C130.347 36.364 129.881 36.5553 129.535 36.938C129.199 37.3113 128.999 37.834 128.933 38.506H132.755C132.746 37.8713 132.597 37.358 132.307 36.966C132.018 36.5647 131.561 36.364 130.935 36.364ZM139.524 35.356C140.448 35.356 141.19 35.678 141.75 36.322C142.319 36.966 142.604 37.9367 142.604 39.234C142.604 40.5127 142.319 41.4833 141.75 42.146C141.19 42.8087 140.443 43.14 139.51 43.14C138.931 43.14 138.45 43.0327 138.068 42.818C137.694 42.594 137.4 42.3373 137.186 42.048H137.102C137.12 42.2067 137.139 42.4073 137.158 42.65C137.176 42.8927 137.186 43.1027 137.186 43.28V46.36H135.954V35.496H136.962L137.13 36.518H137.186C137.41 36.1913 137.704 35.916 138.068 35.692C138.432 35.468 138.917 35.356 139.524 35.356ZM139.3 36.392C138.534 36.392 137.993 36.6067 137.676 37.036C137.368 37.4653 137.204 38.1187 137.186 38.996V39.234C137.186 40.158 137.335 40.872 137.634 41.376C137.942 41.8707 138.506 42.118 139.328 42.118C139.785 42.118 140.158 41.992 140.448 41.74C140.746 41.488 140.966 41.1473 141.106 40.718C141.255 40.2793 141.33 39.78 141.33 39.22C141.33 38.3613 141.162 37.6753 140.826 37.162C140.499 36.6487 139.99 36.392 139.3 36.392ZM147.465 35.356C148.109 35.356 148.66 35.496 149.117 35.776C149.584 36.056 149.938 36.4527 150.181 36.966C150.433 37.47 150.559 38.0627 150.559 38.744V39.486H145.421C145.44 40.3353 145.654 40.984 146.065 41.432C146.485 41.8707 147.068 42.09 147.815 42.09C148.291 42.09 148.711 42.048 149.075 41.964C149.448 41.8707 149.831 41.74 150.223 41.572V42.65C149.84 42.818 149.462 42.9393 149.089 43.014C148.716 43.098 148.272 43.14 147.759 43.14C147.05 43.14 146.42 42.9953 145.869 42.706C145.328 42.4167 144.903 41.9873 144.595 41.418C144.296 40.8393 144.147 40.1347 144.147 39.304C144.147 38.4827 144.282 37.778 144.553 37.19C144.833 36.602 145.22 36.1493 145.715 35.832C146.219 35.5147 146.802 35.356 147.465 35.356ZM147.451 36.364C146.863 36.364 146.396 36.5553 146.051 36.938C145.715 37.3113 145.514 37.834 145.449 38.506H149.271C149.262 37.8713 149.112 37.358 148.823 36.966C148.534 36.5647 148.076 36.364 147.451 36.364ZM159.875 45.604H158.671V43H152.469V35.496H153.701V41.964H157.579V35.496H158.811V41.978H159.875V45.604ZM160.965 44.092C161.254 44.0453 161.45 43.9427 161.553 43.784C161.665 43.6347 161.721 43.3733 161.721 43H161.007V41.67H162.379V42.79C162.379 43.3967 162.267 43.854 162.043 44.162C161.819 44.47 161.46 44.624 160.965 44.624V44.092ZM5.628 51.496H6.972L3.766 55.108L7.238 59H5.81L2.422 55.192V59H1.19V51.496H2.422V55.136L5.628 51.496ZM12.1702 51.356C13.0942 51.356 13.8362 51.678 14.3962 52.322C14.9655 52.966 15.2502 53.9367 15.2502 55.234C15.2502 56.5127 14.9655 57.4833 14.3962 58.146C13.8362 58.8087 13.0895 59.14 12.1562 59.14C11.5775 59.14 11.0968 59.0327 10.7142 58.818C10.3408 58.594 10.0468 58.3373 9.83216 58.048H9.74816C9.76682 58.2067 9.78549 58.4073 9.80416 58.65C9.82282 58.8927 9.83216 59.1027 9.83216 59.28V62.36H8.60016V51.496H9.60816L9.77616 52.518H9.83216C10.0562 52.1913 10.3502 51.916 10.7142 51.692C11.0782 51.468 11.5635 51.356 12.1702 51.356ZM11.9462 52.392C11.1808 52.392 10.6395 52.6067 10.3222 53.036C10.0142 53.4653 9.85082 54.1187 9.83216 54.996V55.234C9.83216 56.158 9.98149 56.872 10.2802 57.376C10.5882 57.8707 11.1528 58.118 11.9742 58.118C12.4315 58.118 12.8048 57.992 13.0942 57.74C13.3928 57.488 13.6122 57.1473 13.7522 56.718C13.9015 56.2793 13.9762 55.78 13.9762 55.22C13.9762 54.3613 13.8082 53.6753 13.4722 53.162C13.1455 52.6487 12.6368 52.392 11.9462 52.392ZM20.0554 51.37C20.9701 51.37 21.6468 51.5707 22.0854 51.972C22.5241 52.3733 22.7434 53.0127 22.7434 53.89V59H21.8474L21.6094 57.936H21.5534C21.2268 58.3467 20.8814 58.65 20.5174 58.846C20.1628 59.042 19.6681 59.14 19.0334 59.14C18.3521 59.14 17.7874 58.9627 17.3394 58.608C16.8914 58.244 16.6674 57.6793 16.6674 56.914C16.6674 56.1673 16.9614 55.5933 17.5494 55.192C18.1374 54.7813 19.0428 54.5573 20.2654 54.52L21.5394 54.478V54.03C21.5394 53.4047 21.4041 52.9707 21.1334 52.728C20.8628 52.4853 20.4801 52.364 19.9854 52.364C19.5934 52.364 19.2201 52.4247 18.8654 52.546C18.5108 52.658 18.1794 52.7887 17.8714 52.938L17.4934 52.014C17.8201 51.8367 18.2074 51.6873 18.6554 51.566C19.1034 51.4353 19.5701 51.37 20.0554 51.37ZM20.4194 55.374C19.4861 55.4113 18.8374 55.5607 18.4734 55.822C18.1188 56.0833 17.9414 56.452 17.9414 56.928C17.9414 57.348 18.0674 57.656 18.3194 57.852C18.5808 58.048 18.9121 58.146 19.3134 58.146C19.9481 58.146 20.4754 57.9733 20.8954 57.628C21.3154 57.2733 21.5254 56.732 21.5254 56.004V55.332L20.4194 55.374ZM28.0711 59.14C27.4084 59.14 26.8158 59.0047 26.2931 58.734C25.7798 58.4633 25.3738 58.0433 25.0751 57.474C24.7858 56.9047 24.6411 56.1767 24.6411 55.29C24.6411 54.366 24.7951 53.6147 25.1031 53.036C25.4111 52.4573 25.8264 52.0327 26.3491 51.762C26.8811 51.4913 27.4831 51.356 28.1551 51.356C28.5378 51.356 28.9064 51.398 29.2611 51.482C29.6158 51.5567 29.9051 51.65 30.1291 51.762L29.7511 52.784C29.5271 52.7 29.2658 52.6207 28.9671 52.546C28.6684 52.4713 28.3884 52.434 28.1271 52.434C26.6524 52.434 25.9151 53.3813 25.9151 55.276C25.9151 56.1813 26.0924 56.8767 26.4471 57.362C26.8111 57.838 27.3478 58.076 28.0571 58.076C28.4678 58.076 28.8271 58.034 29.1351 57.95C29.4524 57.866 29.7418 57.7633 30.0031 57.642V58.734C29.7511 58.8647 29.4711 58.9627 29.1631 59.028C28.8644 59.1027 28.5004 59.14 28.0711 59.14ZM33.0197 51.496V54.618H37.0937V51.496H38.3257V59H37.0937V55.654H33.0197V59H31.7877V51.496H33.0197ZM40.7017 59V51.496H41.9337V54.576H43.8797C44.8504 54.576 45.5691 54.7533 46.0357 55.108C46.5024 55.4627 46.7357 55.9947 46.7357 56.704C46.7357 57.404 46.5071 57.964 46.0497 58.384C45.5924 58.7947 44.8504 59 43.8237 59H40.7017ZM47.9817 59V51.496H49.2137V59H47.9817ZM43.7117 58.006C44.2437 58.006 44.6777 57.9173 45.0137 57.74C45.3497 57.5533 45.5177 57.2313 45.5177 56.774C45.5177 56.3167 45.3637 56.0087 45.0557 55.85C44.7477 55.682 44.3044 55.598 43.7257 55.598H41.9337V58.006H43.7117ZM57.6742 48.388C57.6089 49.088 57.3709 49.62 56.9602 49.984C56.5589 50.3387 55.9149 50.516 55.0282 50.516C54.1135 50.516 53.4649 50.3387 53.0822 49.984C52.7089 49.6293 52.4989 49.0973 52.4522 48.388H53.6002C53.6469 48.892 53.7775 49.2327 53.9922 49.41C54.2162 49.578 54.5709 49.662 55.0562 49.662C55.4855 49.662 55.8215 49.5733 56.0642 49.396C56.3162 49.2093 56.4655 48.8733 56.5122 48.388H57.6742ZM52.7602 56.074C52.7602 56.186 52.7555 56.354 52.7462 56.578C52.7369 56.802 52.7229 57.026 52.7042 57.25C52.6949 57.474 52.6855 57.6513 52.6762 57.782L56.6942 51.496H58.2062V59H57.0582V54.576C57.0582 54.4267 57.0582 54.2307 57.0582 53.988C57.0675 53.7453 57.0769 53.5073 57.0862 53.274C57.0955 53.0313 57.1049 52.8493 57.1142 52.728L53.1242 59H51.5982V51.496H52.7602V56.074ZM70.5719 59H69.3259V52.518H67.1139C66.9926 54.0953 66.8246 55.3693 66.6099 56.34C66.3953 57.3013 66.1106 58.0013 65.7559 58.44C65.4013 58.8787 64.9533 59.098 64.4119 59.098C64.2906 59.098 64.1693 59.0887 64.0479 59.07C63.9359 59.0607 63.8426 59.0373 63.7679 59V58.076C63.8239 58.0947 63.8846 58.1087 63.9499 58.118C64.0153 58.1273 64.0806 58.132 64.1459 58.132C64.6499 58.132 65.0513 57.5953 65.3499 56.522C65.6579 55.4487 65.8913 53.7733 66.0499 51.496H70.5719V59ZM71.7777 51.496H73.0937L74.7177 55.766C74.8577 56.1393 74.9837 56.4987 75.0957 56.844C75.2077 57.18 75.2917 57.502 75.3477 57.81H75.4037C75.4597 57.5767 75.5483 57.2733 75.6697 56.9C75.791 56.5173 75.917 56.1347 76.0477 55.752L77.5737 51.496H78.9037L75.6697 60.036C75.4083 60.7453 75.0677 61.31 74.6477 61.73C74.237 62.15 73.6677 62.36 72.9397 62.36C72.7157 62.36 72.5197 62.346 72.3517 62.318C72.1837 62.2993 72.039 62.276 71.9177 62.248V61.268C72.0203 61.2867 72.1417 61.3053 72.2817 61.324C72.431 61.3427 72.585 61.352 72.7437 61.352C73.173 61.352 73.5183 61.2307 73.7797 60.988C74.0503 60.7453 74.2603 60.4233 74.4097 60.022L74.8017 59.028L71.7777 51.496ZM84.5284 51.496H85.8724L82.6664 55.108L86.1384 59H84.7104L81.3224 55.192V59H80.0904V51.496H81.3224V55.136L84.5284 51.496ZM87.1505 60.092C87.4399 60.0453 87.6359 59.9427 87.7385 59.784C87.8505 59.6347 87.9065 59.3733 87.9065 59H87.1925V57.67H88.5645V58.79C88.5645 59.3967 88.4525 59.854 88.2285 60.162C88.0045 60.47 87.6452 60.624 87.1505 60.624V60.092ZM103.193 51.496V59H102.087V54.212C102.087 54.016 102.092 53.8107 102.101 53.596C102.12 53.3813 102.138 53.1713 102.157 52.966H102.115L99.6651 59H98.6291L96.2491 52.966H96.2071C96.2351 53.386 96.2491 53.8153 96.2491 54.254V59H95.1431V51.496H96.7811L99.1471 57.53L101.555 51.496H103.193ZM112.112 55.234C112.112 56.4753 111.795 57.4367 111.16 58.118C110.535 58.7993 109.686 59.14 108.612 59.14C107.95 59.14 107.357 58.9907 106.834 58.692C106.321 58.384 105.915 57.9407 105.616 57.362C105.318 56.774 105.168 56.0647 105.168 55.234C105.168 53.9927 105.481 53.036 106.106 52.364C106.732 51.692 107.581 51.356 108.654 51.356C109.336 51.356 109.933 51.51 110.446 51.818C110.969 52.1167 111.375 52.5553 111.664 53.134C111.963 53.7033 112.112 54.4033 112.112 55.234ZM106.442 55.234C106.442 56.1207 106.615 56.8253 106.96 57.348C107.315 57.8613 107.875 58.118 108.64 58.118C109.396 58.118 109.952 57.8613 110.306 57.348C110.661 56.8253 110.838 56.1207 110.838 55.234C110.838 54.3473 110.661 53.652 110.306 53.148C109.952 52.644 109.392 52.392 108.626 52.392C107.861 52.392 107.306 52.644 106.96 53.148C106.615 53.652 106.442 54.3473 106.442 55.234ZM121.471 61.604H120.267V59H114.065V51.496H115.297V57.964H119.175V51.496H120.407V57.978H121.471V61.604ZM125.753 51.37C126.667 51.37 127.344 51.5707 127.783 51.972C128.221 52.3733 128.441 53.0127 128.441 53.89V59H127.545L127.307 57.936H127.251C126.924 58.3467 126.579 58.65 126.215 58.846C125.86 59.042 125.365 59.14 124.731 59.14C124.049 59.14 123.485 58.9627 123.037 58.608C122.589 58.244 122.365 57.6793 122.365 56.914C122.365 56.1673 122.659 55.5933 123.247 55.192C123.835 54.7813 124.74 54.5573 125.963 54.52L127.237 54.478V54.03C127.237 53.4047 127.101 52.9707 126.831 52.728C126.56 52.4853 126.177 52.364 125.683 52.364C125.291 52.364 124.917 52.4247 124.563 52.546C124.208 52.658 123.877 52.7887 123.569 52.938L123.191 52.014C123.517 51.8367 123.905 51.6873 124.353 51.566C124.801 51.4353 125.267 51.37 125.753 51.37ZM126.117 55.374C125.183 55.4113 124.535 55.5607 124.171 55.822C123.816 56.0833 123.639 56.452 123.639 56.928C123.639 57.348 123.765 57.656 124.017 57.852C124.278 58.048 124.609 58.146 125.011 58.146C125.645 58.146 126.173 57.9733 126.593 57.628C127.013 57.2733 127.223 56.732 127.223 56.004V55.332L126.117 55.374ZM134.328 51.356C135.252 51.356 135.994 51.678 136.554 52.322C137.124 52.966 137.408 53.9367 137.408 55.234C137.408 56.5127 137.124 57.4833 136.554 58.146C135.994 58.8087 135.248 59.14 134.314 59.14C133.736 59.14 133.255 59.0327 132.872 58.818C132.499 58.594 132.205 58.3373 131.99 58.048H131.906C131.925 58.2067 131.944 58.4073 131.962 58.65C131.981 58.8927 131.99 59.1027 131.99 59.28V62.36H130.758V51.496H131.766L131.934 52.518H131.99C132.214 52.1913 132.508 51.916 132.872 51.692C133.236 51.468 133.722 51.356 134.328 51.356ZM134.104 52.392C133.339 52.392 132.798 52.6067 132.48 53.036C132.172 53.4653 132.009 54.1187 131.99 54.996V55.234C131.99 56.158 132.14 56.872 132.438 57.376C132.746 57.8707 133.311 58.118 134.132 58.118C134.59 58.118 134.963 57.992 135.252 57.74C135.551 57.488 135.77 57.1473 135.91 56.718C136.06 56.2793 136.134 55.78 136.134 55.22C136.134 54.3613 135.966 53.6753 135.63 53.162C135.304 52.6487 134.795 52.392 134.104 52.392ZM142.27 51.356C142.914 51.356 143.464 51.496 143.922 51.776C144.388 52.056 144.743 52.4527 144.986 52.966C145.238 53.47 145.364 54.0627 145.364 54.744V55.486H140.226C140.244 56.3353 140.459 56.984 140.87 57.432C141.29 57.8707 141.873 58.09 142.62 58.09C143.096 58.09 143.516 58.048 143.88 57.964C144.253 57.8707 144.636 57.74 145.028 57.572V58.65C144.645 58.818 144.267 58.9393 143.894 59.014C143.52 59.098 143.077 59.14 142.564 59.14C141.854 59.14 141.224 58.9953 140.674 58.706C140.132 58.4167 139.708 57.9873 139.4 57.418C139.101 56.8393 138.952 56.1347 138.952 55.304C138.952 54.4827 139.087 53.778 139.358 53.19C139.638 52.602 140.025 52.1493 140.52 51.832C141.024 51.5147 141.607 51.356 142.27 51.356ZM142.256 52.364C141.668 52.364 141.201 52.5553 140.856 52.938C140.52 53.3113 140.319 53.834 140.254 54.506H144.076C144.066 53.8713 143.917 53.358 143.628 52.966C143.338 52.5647 142.881 52.364 142.256 52.364ZM152.986 59H151.74V52.518H149.528C149.407 54.0953 149.239 55.3693 149.024 56.34C148.809 57.3013 148.525 58.0013 148.17 58.44C147.815 58.8787 147.367 59.098 146.826 59.098C146.705 59.098 146.583 59.0887 146.462 59.07C146.35 59.0607 146.257 59.0373 146.182 59V58.076C146.238 58.0947 146.299 58.1087 146.364 58.118C146.429 58.1273 146.495 58.132 146.56 58.132C147.064 58.132 147.465 57.5953 147.764 56.522C148.072 55.4487 148.305 53.7733 148.464 51.496H152.986V59ZM161.08 59H159.834V52.518H157.622C157.5 54.0953 157.332 55.3693 157.118 56.34C156.903 57.3013 156.618 58.0013 156.264 58.44C155.909 58.8787 155.461 59.098 154.92 59.098C154.798 59.098 154.677 59.0887 154.556 59.07C154.444 59.0607 154.35 59.0373 154.276 59V58.076C154.332 58.0947 154.392 58.1087 154.458 58.118C154.523 58.1273 154.588 58.132 154.654 58.132C155.158 58.132 155.559 57.5953 155.858 56.522C156.166 55.4487 156.399 53.7733 156.558 51.496H161.08V59ZM166.303 51.37C167.218 51.37 167.895 51.5707 168.333 51.972C168.772 52.3733 168.991 53.0127 168.991 53.89V59H168.095L167.857 57.936H167.801C167.475 58.3467 167.129 58.65 166.765 58.846C166.411 59.042 165.916 59.14 165.281 59.14C164.6 59.14 164.035 58.9627 163.587 58.608C163.139 58.244 162.915 57.6793 162.915 56.914C162.915 56.1673 163.209 55.5933 163.797 55.192C164.385 54.7813 165.291 54.5573 166.513 54.52L167.787 54.478V54.03C167.787 53.4047 167.652 52.9707 167.381 52.728C167.111 52.4853 166.728 52.364 166.233 52.364C165.841 52.364 165.468 52.4247 165.113 52.546C164.759 52.658 164.427 52.7887 164.119 52.938L163.741 52.014C164.068 51.8367 164.455 51.6873 164.903 51.566C165.351 51.4353 165.818 51.37 166.303 51.37ZM166.667 55.374C165.734 55.4113 165.085 55.5607 164.721 55.822C164.367 56.0833 164.189 56.452 164.189 56.928C164.189 57.348 164.315 57.656 164.567 57.852C164.829 58.048 165.16 58.146 165.561 58.146C166.196 58.146 166.723 57.9733 167.143 57.628C167.563 57.2733 167.773 56.732 167.773 56.004V55.332L166.667 55.374ZM170.959 60.092C171.248 60.0453 171.444 59.9427 171.547 59.784C171.659 59.6347 171.715 59.3733 171.715 59H171.001V57.67H172.373V58.79C172.373 59.3967 172.261 59.854 172.037 60.162C171.813 60.47 171.454 60.624 170.959 60.624V60.092ZM10.6356 68.532H8.18563V75H6.96763V68.532H4.54563V67.496H10.6356V68.532ZM18.5011 71.234C18.5011 72.4753 18.1838 73.4367 17.5491 74.118C16.9238 74.7993 16.0744 75.14 15.0011 75.14C14.3384 75.14 13.7458 74.9907 13.2231 74.692C12.7098 74.384 12.3038 73.9407 12.0051 73.362C11.7064 72.774 11.5571 72.0647 11.5571 71.234C11.5571 69.9927 11.8698 69.036 12.4951 68.364C13.1204 67.692 13.9698 67.356 15.0431 67.356C15.7244 67.356 16.3218 67.51 16.8351 67.818C17.3578 68.1167 17.7638 68.5553 18.0531 69.134C18.3518 69.7033 18.5011 70.4033 18.5011 71.234ZM12.8311 71.234C12.8311 72.1207 13.0038 72.8253 13.3491 73.348C13.7038 73.8613 14.2638 74.118 15.0291 74.118C15.7851 74.118 16.3404 73.8613 16.6951 73.348C17.0498 72.8253 17.2271 72.1207 17.2271 71.234C17.2271 70.3473 17.0498 69.652 16.6951 69.148C16.3404 68.644 15.7804 68.392 15.0151 68.392C14.2498 68.392 13.6944 68.644 13.3491 69.148C13.0038 69.652 12.8311 70.3473 12.8311 71.234ZM28.5037 67.496V75H27.3977V70.212C27.3977 70.016 27.4023 69.8107 27.4117 69.596C27.4303 69.3813 27.449 69.1713 27.4677 68.966H27.4257L24.9757 75H23.9397L21.5597 68.966H21.5177C21.5457 69.386 21.5597 69.8153 21.5597 70.254V75H20.4537V67.496H22.0917L24.4577 73.53L26.8657 67.496H28.5037ZM33.741 67.37C34.6557 67.37 35.3323 67.5707 35.771 67.972C36.2097 68.3733 36.429 69.0127 36.429 69.89V75H35.533L35.295 73.936H35.239C34.9123 74.3467 34.567 74.65 34.203 74.846C33.8483 75.042 33.3537 75.14 32.719 75.14C32.0377 75.14 31.473 74.9627 31.025 74.608C30.577 74.244 30.353 73.6793 30.353 72.914C30.353 72.1673 30.647 71.5933 31.235 71.192C31.823 70.7813 32.7283 70.5573 33.951 70.52L35.225 70.478V70.03C35.225 69.4047 35.0897 68.9707 34.819 68.728C34.5483 68.4853 34.1657 68.364 33.671 68.364C33.279 68.364 32.9057 68.4247 32.551 68.546C32.1963 68.658 31.865 68.7887 31.557 68.938L31.179 68.014C31.5057 67.8367 31.893 67.6873 32.341 67.566C32.789 67.4353 33.2557 67.37 33.741 67.37ZM34.105 71.374C33.1717 71.4113 32.523 71.5607 32.159 71.822C31.8043 72.0833 31.627 72.452 31.627 72.928C31.627 73.348 31.753 73.656 32.005 73.852C32.2663 74.048 32.5977 74.146 32.999 74.146C33.6337 74.146 34.161 73.9733 34.581 73.628C35.001 73.2733 35.211 72.732 35.211 72.004V71.332L34.105 71.374ZM43.9266 68.532H41.4766V75H40.2586V68.532H37.8366V67.496H43.9266V68.532ZM45.4048 75V67.496H46.6368V70.576H48.5828C49.5535 70.576 50.2722 70.7533 50.7388 71.108C51.2055 71.4627 51.4388 71.9947 51.4388 72.704C51.4388 73.404 51.2102 73.964 50.7528 74.384C50.2955 74.7947 49.5535 75 48.5268 75H45.4048ZM52.6848 75V67.496H53.9168V75H52.6848ZM48.4148 74.006C48.9468 74.006 49.3808 73.9173 49.7168 73.74C50.0528 73.5533 50.2208 73.2313 50.2208 72.774C50.2208 72.3167 50.0668 72.0087 49.7588 71.85C49.4508 71.682 49.0075 71.598 48.4288 71.598H46.6368V74.006H48.4148ZM55.9513 76.092C56.2407 76.0453 56.4367 75.9427 56.5393 75.784C56.6513 75.6347 56.7073 75.3733 56.7073 75H55.9933V73.67H57.3653V74.79C57.3653 75.3967 57.2533 75.854 57.0293 76.162C56.8053 76.47 56.446 76.624 55.9513 76.624V76.092ZM65.0219 70.226C65.0219 71.0847 65.5026 71.514 66.4639 71.514C66.9306 71.514 67.3552 71.444 67.7379 71.304C68.1206 71.1547 68.5126 70.9587 68.9139 70.716V67.496H70.1459V75H68.9139V71.654C68.4939 71.9247 68.0786 72.1393 67.6679 72.298C67.2666 72.4473 66.7812 72.522 66.2119 72.522C65.4466 72.522 64.8492 72.3213 64.4199 71.92C63.9999 71.5187 63.7899 70.982 63.7899 70.31V67.496H65.0219V70.226ZM75.4278 67.356C76.0718 67.356 76.6225 67.496 77.0798 67.776C77.5465 68.056 77.9012 68.4527 78.1438 68.966C78.3958 69.47 78.5218 70.0627 78.5218 70.744V71.486H73.3838C73.4025 72.3353 73.6172 72.984 74.0278 73.432C74.4478 73.8707 75.0312 74.09 75.7778 74.09C76.2538 74.09 76.6738 74.048 77.0378 73.964C77.4112 73.8707 77.7938 73.74 78.1858 73.572V74.65C77.8032 74.818 77.4252 74.9393 77.0518 75.014C76.6785 75.098 76.2352 75.14 75.7218 75.14C75.0125 75.14 74.3825 74.9953 73.8318 74.706C73.2905 74.4167 72.8658 73.9873 72.5578 73.418C72.2592 72.8393 72.1098 72.1347 72.1098 71.304C72.1098 70.4827 72.2452 69.778 72.5158 69.19C72.7958 68.602 73.1832 68.1493 73.6778 67.832C74.1818 67.5147 74.7652 67.356 75.4278 67.356ZM75.4138 68.364C74.8258 68.364 74.3592 68.5553 74.0138 68.938C73.6778 69.3113 73.4772 69.834 73.4118 70.506H77.2338C77.2245 69.8713 77.0752 69.358 76.7858 68.966C76.4965 68.5647 76.0392 68.364 75.4138 68.364ZM83.4422 75.14C82.7795 75.14 82.1869 75.0047 81.6642 74.734C81.1509 74.4633 80.7449 74.0433 80.4462 73.474C80.1569 72.9047 80.0122 72.1767 80.0122 71.29C80.0122 70.366 80.1662 69.6147 80.4742 69.036C80.7822 68.4573 81.1975 68.0327 81.7202 67.762C82.2522 67.4913 82.8542 67.356 83.5262 67.356C83.9089 67.356 84.2775 67.398 84.6322 67.482C84.9869 67.5567 85.2762 67.65 85.5002 67.762L85.1222 68.784C84.8982 68.7 84.6369 68.6207 84.3382 68.546C84.0395 68.4713 83.7595 68.434 83.4982 68.434C82.0235 68.434 81.2862 69.3813 81.2862 71.276C81.2862 72.1813 81.4635 72.8767 81.8182 73.362C82.1822 73.838 82.7189 74.076 83.4282 74.076C83.8389 74.076 84.1982 74.034 84.5062 73.95C84.8235 73.866 85.1129 73.7633 85.3742 73.642V74.734C85.1222 74.8647 84.8422 74.9627 84.5342 75.028C84.2355 75.1027 83.8715 75.14 83.4422 75.14ZM88.3908 67.496V70.618H92.4648V67.496H93.6968V75H92.4648V71.654H88.3908V75H87.1588V67.496H88.3908ZM102.597 71.234C102.597 72.4753 102.279 73.4367 101.645 74.118C101.019 74.7993 100.17 75.14 99.0968 75.14C98.4341 75.14 97.8415 74.9907 97.3188 74.692C96.8055 74.384 96.3995 73.9407 96.1008 73.362C95.8021 72.774 95.6528 72.0647 95.6528 71.234C95.6528 69.9927 95.9655 69.036 96.5908 68.364C97.2161 67.692 98.0655 67.356 99.1388 67.356C99.8201 67.356 100.417 67.51 100.931 67.818C101.453 68.1167 101.859 68.5553 102.149 69.134C102.447 69.7033 102.597 70.4033 102.597 71.234ZM96.9268 71.234C96.9268 72.1207 97.0995 72.8253 97.4448 73.348C97.7995 73.8613 98.3595 74.118 99.1248 74.118C99.8808 74.118 100.436 73.8613 100.791 73.348C101.145 72.8253 101.323 72.1207 101.323 71.234C101.323 70.3473 101.145 69.652 100.791 69.148C100.436 68.644 99.8761 68.392 99.1108 68.392C98.3455 68.392 97.7901 68.644 97.4448 69.148C97.0995 69.652 96.9268 70.3473 96.9268 71.234ZM108.987 67.496H110.331L107.125 71.108L110.597 75H109.169L105.781 71.192V75H104.549V67.496H105.781V71.136L108.987 67.496Z" fill="#E7E2E2"/>
</svg>
