<svg width="186" height="24" viewBox="0 0 186 24" fill="none" xmlns="http://www.w3.org/2000/svg">
<path d="M0.328 18V0.863999H13.192V18H11.056V2.76H2.488V18H0.328ZM19.5867 12.984C19.5867 13.176 19.5787 13.464 19.5627 13.848C19.5467 14.232 19.5227 14.616 19.4907 15C19.4747 15.384 19.4587 15.688 19.4427 15.912L26.3307 5.136H28.9227V18H26.9547V10.416C26.9547 10.16 26.9547 9.824 26.9547 9.408C26.9707 8.992 26.9867 8.584 27.0027 8.184C27.0187 7.768 27.0347 7.456 27.0507 7.248L20.2107 18H17.5947V5.136H19.5867V12.984ZM45.7126 22.464H43.6486V18H33.0166V5.136H35.1286V16.224H41.7766V5.136H43.8886V16.248H45.7126V22.464ZM60.8766 22.464H58.8126V18H48.1806V5.136H50.2926V16.224H56.9406V5.136H59.0526V16.248H60.8766V22.464ZM68.2167 4.92C69.7847 4.92 70.9447 5.264 71.6967 5.952C72.4487 6.64 72.8247 7.736 72.8247 9.24V18H71.2887L70.8807 16.176H70.7847C70.2247 16.88 69.6327 17.4 69.0087 17.736C68.4007 18.072 67.5527 18.24 66.4647 18.24C65.2967 18.24 64.3287 17.936 63.5607 17.328C62.7927 16.704 62.4087 15.736 62.4087 14.424C62.4087 13.144 62.9127 12.16 63.9207 11.472C64.9287 10.768 66.4807 10.384 68.5767 10.32L70.7607 10.248V9.48C70.7607 8.408 70.5287 7.664 70.0647 7.248C69.6007 6.832 68.9447 6.624 68.0967 6.624C67.4247 6.624 66.7847 6.728 66.1767 6.936C65.5687 7.128 65.0007 7.352 64.4727 7.608L63.8247 6.024C64.3847 5.72 65.0487 5.464 65.8167 5.256C66.5847 5.032 67.3847 4.92 68.2167 4.92ZM68.8407 11.784C67.2407 11.848 66.1287 12.104 65.5047 12.552C64.8967 13 64.5927 13.632 64.5927 14.448C64.5927 15.168 64.8087 15.696 65.2407 16.032C65.6887 16.368 66.2567 16.536 66.9447 16.536C68.0327 16.536 68.9367 16.24 69.6567 15.648C70.3767 15.04 70.7367 14.112 70.7367 12.864V11.712L68.8407 11.784ZM75.9818 16.176H77.7578V18H75.9818V16.176ZM75.9818 8.568H77.7578V10.392H75.9818V8.568ZM80.2128 7.224C80.6128 7.176 80.8848 7.04 81.0288 6.816C81.1728 6.592 81.2448 6.2 81.2448 5.64H80.2607V3.792H82.0848V5.352C82.0848 6.216 81.9408 6.864 81.6528 7.296C81.3648 7.728 80.8848 7.944 80.2128 7.944V7.224ZM83.0448 7.224C83.4448 7.176 83.7168 7.04 83.8608 6.816C84.0048 6.592 84.0768 6.2 84.0768 5.64H83.0928V3.792H84.9168V5.352C84.9168 6.216 84.7728 6.864 84.4848 7.296C84.1968 7.728 83.7168 7.944 83.0448 7.944V7.224ZM99.3691 18L97.3051 12.696H90.5131L88.4731 18H86.2891L92.9851 0.792H94.9291L101.601 18H99.3691ZM94.7371 5.592C94.6891 5.464 94.6091 5.232 94.4971 4.896C94.3851 4.56 94.2731 4.216 94.1611 3.864C94.0651 3.496 93.9851 3.216 93.9211 3.024C93.8091 3.52 93.6811 4.008 93.5371 4.488C93.3931 4.952 93.2731 5.32 93.1771 5.592L91.2331 10.776H96.6571L94.7371 5.592ZM109.777 4.896C111.361 4.896 112.633 5.448 113.593 6.552C114.569 7.656 115.057 9.32 115.057 11.544C115.057 13.736 114.569 15.4 113.593 16.536C112.633 17.672 111.353 18.24 109.753 18.24C108.761 18.24 107.937 18.056 107.281 17.688C106.641 17.304 106.137 16.864 105.769 16.368H105.625C105.657 16.64 105.689 16.984 105.721 17.4C105.753 17.816 105.769 18.176 105.769 18.48V23.76H103.657V5.136H105.385L105.673 6.888H105.769C106.153 6.328 106.657 5.856 107.281 5.472C107.905 5.088 108.737 4.896 109.777 4.896ZM109.393 6.672C108.081 6.672 107.153 7.04 106.609 7.776C106.081 8.512 105.801 9.632 105.769 11.136V11.544C105.769 13.128 106.025 14.352 106.537 15.216C107.065 16.064 108.033 16.488 109.441 16.488C110.225 16.488 110.865 16.272 111.361 15.84C111.873 15.408 112.249 14.824 112.489 14.088C112.745 13.336 112.873 12.48 112.873 11.52C112.873 10.048 112.585 8.872 112.009 7.992C111.449 7.112 110.577 6.672 109.393 6.672ZM124.543 4.896C126.127 4.896 127.399 5.448 128.359 6.552C129.335 7.656 129.823 9.32 129.823 11.544C129.823 13.736 129.335 15.4 128.359 16.536C127.399 17.672 126.119 18.24 124.519 18.24C123.527 18.24 122.703 18.056 122.047 17.688C121.407 17.304 120.903 16.864 120.535 16.368H120.391C120.423 16.64 120.455 16.984 120.487 17.4C120.519 17.816 120.535 18.176 120.535 18.48V23.76H118.423V5.136H120.151L120.439 6.888H120.535C120.919 6.328 121.423 5.856 122.047 5.472C122.671 5.088 123.503 4.896 124.543 4.896ZM124.159 6.672C122.847 6.672 121.919 7.04 121.375 7.776C120.847 8.512 120.567 9.632 120.535 11.136V11.544C120.535 13.128 120.791 14.352 121.303 15.216C121.831 16.064 122.799 16.488 124.207 16.488C124.991 16.488 125.631 16.272 126.127 15.84C126.639 15.408 127.015 14.824 127.255 14.088C127.511 13.336 127.639 12.48 127.639 11.52C127.639 10.048 127.351 8.872 126.775 7.992C126.215 7.112 125.343 6.672 124.159 6.672ZM135.18 12.984C135.18 13.176 135.172 13.464 135.156 13.848C135.14 14.232 135.116 14.616 135.084 15C135.068 15.384 135.052 15.688 135.036 15.912L141.924 5.136H144.516V18H142.548V10.416C142.548 10.16 142.548 9.824 142.548 9.408C142.564 8.992 142.58 8.584 142.596 8.184C142.612 7.768 142.628 7.456 142.644 7.248L135.804 18H133.188V5.136H135.18V12.984ZM158.954 8.376C158.954 9.176 158.714 9.8 158.234 10.248C157.754 10.696 157.138 11 156.386 11.16V11.256C157.186 11.368 157.882 11.656 158.474 12.12C159.066 12.568 159.362 13.272 159.362 14.232C159.362 15.32 158.954 16.224 158.138 16.944C157.338 17.648 156.01 18 154.154 18H148.61V5.136H154.13C155.042 5.136 155.858 5.24 156.578 5.448C157.314 5.64 157.89 5.976 158.306 6.456C158.738 6.92 158.954 7.56 158.954 8.376ZM156.818 8.64C156.818 8.032 156.594 7.592 156.146 7.32C155.714 7.032 155.002 6.888 154.01 6.888H150.722V10.416H153.626C155.754 10.416 156.818 9.824 156.818 8.64ZM157.178 14.232C157.178 13.496 156.898 12.968 156.338 12.648C155.778 12.328 154.954 12.168 153.866 12.168H150.722V16.296H153.914C154.97 16.296 155.778 16.144 156.338 15.84C156.898 15.52 157.178 14.984 157.178 14.232ZM167.31 4.92C168.878 4.92 170.038 5.264 170.79 5.952C171.542 6.64 171.918 7.736 171.918 9.24V18H170.382L169.974 16.176H169.878C169.318 16.88 168.726 17.4 168.102 17.736C167.494 18.072 166.646 18.24 165.558 18.24C164.39 18.24 163.422 17.936 162.654 17.328C161.886 16.704 161.502 15.736 161.502 14.424C161.502 13.144 162.006 12.16 163.014 11.472C164.022 10.768 165.574 10.384 167.67 10.32L169.854 10.248V9.48C169.854 8.408 169.622 7.664 169.158 7.248C168.694 6.832 168.038 6.624 167.19 6.624C166.518 6.624 165.878 6.728 165.27 6.936C164.662 7.128 164.094 7.352 163.566 7.608L162.918 6.024C163.478 5.72 164.142 5.464 164.91 5.256C165.678 5.032 166.478 4.92 167.31 4.92ZM167.934 11.784C166.334 11.848 165.222 12.104 164.598 12.552C163.99 13 163.686 13.632 163.686 14.448C163.686 15.168 163.902 15.696 164.334 16.032C164.782 16.368 165.35 16.536 166.038 16.536C167.126 16.536 168.03 16.24 168.75 15.648C169.47 15.04 169.83 14.112 169.83 12.864V11.712L167.934 11.784ZM174.788 8.544V4.104H176.132V8.544L175.892 14.568H175.028L174.788 8.544ZM175.46 18.144C175.172 18.144 174.932 18.064 174.74 17.904C174.564 17.728 174.476 17.504 174.476 17.232C174.476 16.96 174.564 16.736 174.74 16.56C174.932 16.368 175.172 16.272 175.46 16.272C175.748 16.272 175.988 16.368 176.18 16.56C176.372 16.736 176.468 16.96 176.468 17.232C176.468 17.488 176.372 17.704 176.18 17.88C175.988 18.056 175.748 18.144 175.46 18.144ZM185.203 3.29836L182.766 7.77054H181.584L184.021 3.29836H185.203ZM182.119 3.29836L179.682 7.77054H178.5L180.936 3.29836H182.119Z" fill="#EED7D7"/>
</svg>
