<svg width="186" height="92" viewBox="0 0 186 92" fill="none" xmlns="http://www.w3.org/2000/svg">
<path d="M5.642 1.97C4.56867 1.97 3.724 2.32933 3.108 3.048C2.492 3.76667 2.184 4.75133 2.184 6.002C2.184 7.24333 2.46867 8.228 3.038 8.956C3.61667 9.67467 4.48 10.034 5.628 10.034C6.06667 10.034 6.482 9.99667 6.874 9.922C7.266 9.84733 7.64867 9.754 8.022 9.642V10.734C7.64867 10.874 7.26133 10.9767 6.86 11.042C6.468 11.1073 5.99667 11.14 5.446 11.14C4.42867 11.14 3.57933 10.93 2.898 10.51C2.21667 10.09 1.70333 9.49267 1.358 8.718C1.022 7.94333 0.854 7.03333 0.854 5.988C0.854 4.98 1.036 4.09333 1.4 3.328C1.77333 2.55333 2.31933 1.95133 3.038 1.522C3.75667 1.08333 4.62933 0.863999 5.656 0.863999C6.71067 0.863999 7.63 1.06 8.414 1.452L7.91 2.516C7.602 2.376 7.25667 2.25 6.874 2.138C6.50067 2.026 6.09 1.97 5.642 1.97ZM16.5597 7.234C16.5597 8.47533 16.2424 9.43667 15.6077 10.118C14.9824 10.7993 14.133 11.14 13.0597 11.14C12.397 11.14 11.8044 10.9907 11.2817 10.692C10.7684 10.384 10.3624 9.94067 10.0637 9.362C9.76504 8.774 9.6157 8.06467 9.6157 7.234C9.6157 5.99267 9.92837 5.036 10.5537 4.364C11.179 3.692 12.0284 3.356 13.1017 3.356C13.783 3.356 14.3804 3.51 14.8937 3.818C15.4164 4.11667 15.8224 4.55533 16.1117 5.134C16.4104 5.70333 16.5597 6.40333 16.5597 7.234ZM10.8897 7.234C10.8897 8.12067 11.0624 8.82533 11.4077 9.348C11.7624 9.86133 12.3224 10.118 13.0877 10.118C13.8437 10.118 14.399 9.86133 14.7537 9.348C15.1084 8.82533 15.2857 8.12067 15.2857 7.234C15.2857 6.34733 15.1084 5.652 14.7537 5.148C14.399 4.644 13.839 4.392 13.0737 4.392C12.3084 4.392 11.753 4.644 11.4077 5.148C11.0624 5.652 10.8897 6.34733 10.8897 7.234ZM21.5223 11.14C20.8596 11.14 20.2669 11.0047 19.7443 10.734C19.2309 10.4633 18.8249 10.0433 18.5263 9.474C18.2369 8.90467 18.0923 8.17667 18.0923 7.29C18.0923 6.366 18.2463 5.61467 18.5543 5.036C18.8623 4.45733 19.2776 4.03267 19.8003 3.762C20.3323 3.49133 20.9343 3.356 21.6063 3.356C21.9889 3.356 22.3576 3.398 22.7123 3.482C23.0669 3.55667 23.3563 3.65 23.5803 3.762L23.2023 4.784C22.9783 4.7 22.7169 4.62067 22.4183 4.546C22.1196 4.47133 21.8396 4.434 21.5783 4.434C20.1036 4.434 19.3663 5.38133 19.3663 7.276C19.3663 8.18133 19.5436 8.87667 19.8983 9.362C20.2623 9.838 20.7989 10.076 21.5083 10.076C21.9189 10.076 22.2783 10.034 22.5863 9.95C22.9036 9.866 23.1929 9.76333 23.4543 9.642V10.734C23.2023 10.8647 22.9223 10.9627 22.6143 11.028C22.3156 11.1027 21.9516 11.14 21.5223 11.14ZM30.4188 4.532H27.9688V11H26.7508V4.532H24.3288V3.496H30.4188V4.532ZM34.739 3.37C35.6537 3.37 36.3304 3.57067 36.769 3.972C37.2077 4.37333 37.427 5.01267 37.427 5.89V11H36.531L36.293 9.936H36.237C35.9104 10.3467 35.565 10.65 35.201 10.846C34.8464 11.042 34.3517 11.14 33.717 11.14C33.0357 11.14 32.471 10.9627 32.023 10.608C31.575 10.244 31.351 9.67933 31.351 8.914C31.351 8.16733 31.645 7.59333 32.233 7.192C32.821 6.78133 33.7264 6.55733 34.949 6.52L36.223 6.478V6.03C36.223 5.40467 36.0877 4.97067 35.817 4.728C35.5464 4.48533 35.1637 4.364 34.669 4.364C34.277 4.364 33.9037 4.42467 33.549 4.546C33.1944 4.658 32.863 4.78867 32.555 4.938L32.177 4.014C32.5037 3.83667 32.891 3.68733 33.339 3.566C33.787 3.43533 34.2537 3.37 34.739 3.37ZM35.103 7.374C34.1697 7.41133 33.521 7.56067 33.157 7.822C32.8024 8.08333 32.625 8.452 32.625 8.928C32.625 9.348 32.751 9.656 33.003 9.852C33.2644 10.048 33.5957 10.146 33.997 10.146C34.6317 10.146 35.159 9.97333 35.579 9.628C35.999 9.27333 36.209 8.732 36.209 8.004V7.332L35.103 7.374ZM45.7787 5.386C45.7787 5.85267 45.6387 6.21667 45.3587 6.478C45.0787 6.73933 44.7194 6.91667 44.2807 7.01V7.066C44.7474 7.13133 45.1534 7.29933 45.4987 7.57C45.844 7.83133 46.0167 8.242 46.0167 8.802C46.0167 9.43667 45.7787 9.964 45.3027 10.384C44.836 10.7947 44.0614 11 42.9787 11H39.7447V3.496H42.9647C43.4967 3.496 43.9727 3.55667 44.3927 3.678C44.822 3.79 45.158 3.986 45.4007 4.266C45.6527 4.53667 45.7787 4.91 45.7787 5.386ZM44.5327 5.54C44.5327 5.18533 44.402 4.92867 44.1407 4.77C43.8887 4.602 43.4734 4.518 42.8947 4.518H40.9767V6.576H42.6707C43.912 6.576 44.5327 6.23067 44.5327 5.54ZM44.7427 8.802C44.7427 8.37267 44.5794 8.06467 44.2527 7.878C43.926 7.69133 43.4454 7.598 42.8107 7.598H40.9767V10.006H42.8387C43.4547 10.006 43.926 9.91733 44.2527 9.74C44.5794 9.55333 44.7427 9.24067 44.7427 8.802ZM47.4611 9.684H48.7771V11H47.4611V9.684ZM47.4611 5.498H48.7771V6.814H47.4611V5.498ZM59.81 1.97C58.7366 1.97 57.892 2.32933 57.276 3.048C56.66 3.76667 56.352 4.75133 56.352 6.002C56.352 7.24333 56.6366 8.228 57.206 8.956C57.7846 9.67467 58.648 10.034 59.796 10.034C60.2346 10.034 60.65 9.99667 61.042 9.922C61.434 9.84733 61.8166 9.754 62.19 9.642V10.734C61.8166 10.874 61.4293 10.9767 61.028 11.042C60.636 11.1073 60.1646 11.14 59.614 11.14C58.5966 11.14 57.7473 10.93 57.066 10.51C56.3846 10.09 55.8713 9.49267 55.526 8.718C55.19 7.94333 55.022 7.03333 55.022 5.988C55.022 4.98 55.204 4.09333 55.568 3.328C55.9413 2.55333 56.4873 1.95133 57.206 1.522C57.9246 1.08333 58.7973 0.863999 59.824 0.863999C60.8786 0.863999 61.798 1.06 62.582 1.452L62.078 2.516C61.77 2.376 61.4246 2.25 61.042 2.138C60.6686 2.026 60.258 1.97 59.81 1.97ZM64.2037 11V3.496H65.4357V6.576H67.3817C68.3523 6.576 69.071 6.75333 69.5377 7.108C70.0043 7.46267 70.2377 7.99467 70.2377 8.704C70.2377 9.404 70.009 9.964 69.5517 10.384C69.0943 10.7947 68.3523 11 67.3257 11H64.2037ZM71.4837 11V3.496H72.7157V11H71.4837ZM67.2137 10.006C67.7457 10.006 68.1797 9.91733 68.5157 9.74C68.8517 9.55333 69.0197 9.23133 69.0197 8.774C69.0197 8.31667 68.8657 8.00867 68.5577 7.85C68.2497 7.682 67.8063 7.598 67.2277 7.598H65.4357V10.006H67.2137ZM78.6702 3.356C79.5942 3.356 80.3362 3.678 80.8962 4.322C81.4655 4.966 81.7502 5.93667 81.7502 7.234C81.7502 8.51267 81.4655 9.48333 80.8962 10.146C80.3362 10.8087 79.5895 11.14 78.6562 11.14C78.0775 11.14 77.5968 11.0327 77.2142 10.818C76.8408 10.594 76.5468 10.3373 76.3322 10.048H76.2482C76.2668 10.2067 76.2855 10.4073 76.3042 10.65C76.3228 10.8927 76.3322 11.1027 76.3322 11.28V14.36H75.1002V3.496H76.1082L76.2762 4.518H76.3322C76.5562 4.19133 76.8502 3.916 77.2142 3.692C77.5782 3.468 78.0635 3.356 78.6702 3.356ZM78.4462 4.392C77.6808 4.392 77.1395 4.60667 76.8222 5.036C76.5142 5.46533 76.3508 6.11867 76.3322 6.996V7.234C76.3322 8.158 76.4815 8.872 76.7802 9.376C77.0882 9.87067 77.6528 10.118 78.4742 10.118C78.9315 10.118 79.3048 9.992 79.5942 9.74C79.8928 9.488 80.1122 9.14733 80.2522 8.718C80.4015 8.27933 80.4762 7.78 80.4762 7.22C80.4762 6.36133 80.3082 5.67533 79.9722 5.162C79.6455 4.64867 79.1368 4.392 78.4462 4.392ZM92.5571 11L89.2671 2.236H89.2111C89.2391 2.52533 89.2624 2.91733 89.2811 3.412C89.2997 3.89733 89.3091 4.406 89.3091 4.938V11H88.1471V1.004H90.0091L93.0891 9.194H93.1451L96.2811 1.004H98.1291V11H96.8831V4.854C96.8831 4.36867 96.8924 3.888 96.9111 3.412C96.9391 2.936 96.9624 2.54867 96.9811 2.25H96.9251L93.5931 11H92.5571ZM107.204 7.234C107.204 8.47533 106.887 9.43667 106.252 10.118C105.627 10.7993 104.778 11.14 103.704 11.14C103.042 11.14 102.449 10.9907 101.926 10.692C101.413 10.384 101.007 9.94067 100.708 9.362C100.41 8.774 100.26 8.06467 100.26 7.234C100.26 5.99267 100.573 5.036 101.198 4.364C101.824 3.692 102.673 3.356 103.746 3.356C104.428 3.356 105.025 3.51 105.538 3.818C106.061 4.11667 106.467 4.55533 106.756 5.134C107.055 5.70333 107.204 6.40333 107.204 7.234ZM101.534 7.234C101.534 8.12067 101.707 8.82533 102.052 9.348C102.407 9.86133 102.967 10.118 103.732 10.118C104.488 10.118 105.044 9.86133 105.398 9.348C105.753 8.82533 105.93 8.12067 105.93 7.234C105.93 6.34733 105.753 5.652 105.398 5.148C105.044 4.644 104.484 4.392 103.718 4.392C102.953 4.392 102.398 4.644 102.052 5.148C101.707 5.652 101.534 6.34733 101.534 7.234ZM116.563 13.604H115.359V11H109.157V3.496H110.389V9.964H114.267V3.496H115.499V9.978H116.563V13.604ZM120.845 3.37C121.759 3.37 122.436 3.57067 122.875 3.972C123.313 4.37333 123.533 5.01267 123.533 5.89V11H122.637L122.399 9.936H122.343C122.016 10.3467 121.671 10.65 121.307 10.846C120.952 11.042 120.457 11.14 119.823 11.14C119.141 11.14 118.577 10.9627 118.129 10.608C117.681 10.244 117.457 9.67933 117.457 8.914C117.457 8.16733 117.751 7.59333 118.339 7.192C118.927 6.78133 119.832 6.55733 121.055 6.52L122.329 6.478V6.03C122.329 5.40467 122.193 4.97067 121.923 4.728C121.652 4.48533 121.269 4.364 120.775 4.364C120.383 4.364 120.009 4.42467 119.655 4.546C119.3 4.658 118.969 4.78867 118.66 4.938L118.283 4.014C118.609 3.83667 118.997 3.68733 119.445 3.566C119.893 3.43533 120.359 3.37 120.845 3.37ZM121.209 7.374C120.275 7.41133 119.627 7.56067 119.263 7.822C118.908 8.08333 118.731 8.452 118.731 8.928C118.731 9.348 118.857 9.656 119.109 9.852C119.37 10.048 119.701 10.146 120.103 10.146C120.737 10.146 121.265 9.97333 121.685 9.628C122.105 9.27333 122.315 8.732 122.315 8.004V7.332L121.209 7.374ZM129.42 3.356C130.344 3.356 131.086 3.678 131.646 4.322C132.215 4.966 132.5 5.93667 132.5 7.234C132.5 8.51267 132.215 9.48333 131.646 10.146C131.086 10.8087 130.339 11.14 129.406 11.14C128.827 11.14 128.347 11.0327 127.964 10.818C127.591 10.594 127.297 10.3373 127.082 10.048H126.998C127.017 10.2067 127.035 10.4073 127.054 10.65C127.073 10.8927 127.082 11.1027 127.082 11.28V14.36H125.85V3.496H126.858L127.026 4.518H127.082C127.306 4.19133 127.6 3.916 127.964 3.692C128.328 3.468 128.813 3.356 129.42 3.356ZM129.196 4.392C128.431 4.392 127.889 4.60667 127.572 5.036C127.264 5.46533 127.101 6.11867 127.082 6.996V7.234C127.082 8.158 127.231 8.872 127.53 9.376C127.838 9.87067 128.403 10.118 129.224 10.118C129.681 10.118 130.055 9.992 130.344 9.74C130.643 9.488 130.862 9.14733 131.002 8.718C131.151 8.27933 131.226 7.78 131.226 7.22C131.226 6.36133 131.058 5.67533 130.722 5.162C130.395 4.64867 129.887 4.392 129.196 4.392ZM137.361 3.356C138.005 3.356 138.556 3.496 139.013 3.776C139.48 4.056 139.835 4.45267 140.077 4.966C140.329 5.47 140.455 6.06267 140.455 6.744V7.486H135.317C135.336 8.33533 135.551 8.984 135.961 9.432C136.381 9.87067 136.965 10.09 137.711 10.09C138.187 10.09 138.607 10.048 138.971 9.964C139.345 9.87067 139.727 9.74 140.119 9.572V10.65C139.737 10.818 139.359 10.9393 138.985 11.014C138.612 11.098 138.169 11.14 137.655 11.14C136.946 11.14 136.316 10.9953 135.765 10.706C135.224 10.4167 134.799 9.98733 134.491 9.418C134.193 8.83933 134.043 8.13467 134.043 7.304C134.043 6.48267 134.179 5.778 134.449 5.19C134.729 4.602 135.117 4.14933 135.611 3.832C136.115 3.51467 136.699 3.356 137.361 3.356ZM137.347 4.364C136.759 4.364 136.293 4.55533 135.947 4.938C135.611 5.31133 135.411 5.834 135.345 6.506H139.167C139.158 5.87133 139.009 5.358 138.719 4.966C138.43 4.56467 137.973 4.364 137.347 4.364ZM148.078 11H146.832V4.518H144.62C144.498 6.09533 144.33 7.36933 144.116 8.34C143.901 9.30133 143.616 10.0013 143.262 10.44C142.907 10.8787 142.459 11.098 141.918 11.098C141.796 11.098 141.675 11.0887 141.554 11.07C141.442 11.0607 141.348 11.0373 141.274 11V10.076C141.33 10.0947 141.39 10.1087 141.456 10.118C141.521 10.1273 141.586 10.132 141.652 10.132C142.156 10.132 142.557 9.59533 142.856 8.522C143.164 7.44867 143.397 5.77333 143.556 3.496H148.078V11ZM156.172 11H154.926V4.518H152.714C152.592 6.09533 152.424 7.36933 152.21 8.34C151.995 9.30133 151.71 10.0013 151.356 10.44C151.001 10.8787 150.553 11.098 150.012 11.098C149.89 11.098 149.769 11.0887 149.648 11.07C149.536 11.0607 149.442 11.0373 149.368 11V10.076C149.424 10.0947 149.484 10.1087 149.55 10.118C149.615 10.1273 149.68 10.132 149.746 10.132C150.25 10.132 150.651 9.59533 150.95 8.522C151.258 7.44867 151.491 5.77333 151.65 3.496H156.172V11ZM161.395 3.37C162.31 3.37 162.987 3.57067 163.425 3.972C163.864 4.37333 164.083 5.01267 164.083 5.89V11H163.187L162.949 9.936H162.893C162.567 10.3467 162.221 10.65 161.857 10.846C161.503 11.042 161.008 11.14 160.373 11.14C159.692 11.14 159.127 10.9627 158.679 10.608C158.231 10.244 158.007 9.67933 158.007 8.914C158.007 8.16733 158.301 7.59333 158.889 7.192C159.477 6.78133 160.383 6.55733 161.605 6.52L162.879 6.478V6.03C162.879 5.40467 162.744 4.97067 162.473 4.728C162.203 4.48533 161.82 4.364 161.325 4.364C160.933 4.364 160.56 4.42467 160.205 4.546C159.851 4.658 159.519 4.78867 159.211 4.938L158.833 4.014C159.16 3.83667 159.547 3.68733 159.995 3.566C160.443 3.43533 160.91 3.37 161.395 3.37ZM161.759 7.374C160.826 7.41133 160.177 7.56067 159.813 7.822C159.459 8.08333 159.281 8.452 159.281 8.928C159.281 9.348 159.407 9.656 159.659 9.852C159.921 10.048 160.252 10.146 160.653 10.146C161.288 10.146 161.815 9.97333 162.235 9.628C162.655 9.27333 162.865 8.732 162.865 8.004V7.332L161.759 7.374ZM166.051 12.092C166.34 12.0453 166.536 11.9427 166.639 11.784C166.751 11.6347 166.807 11.3733 166.807 11H166.093V9.67H167.465V10.79C167.465 11.3967 167.353 11.854 167.129 12.162C166.905 12.47 166.546 12.624 166.051 12.624V12.092ZM5.768 19.496V20.532H2.422V27H1.19V19.496H5.768ZM13.6339 23.234C13.6339 24.4753 13.3166 25.4367 12.6819 26.118C12.0566 26.7993 11.2073 27.14 10.1339 27.14C9.47126 27.14 8.87859 26.9907 8.35592 26.692C7.84259 26.384 7.43659 25.9407 7.13792 25.362C6.83926 24.774 6.68992 24.0647 6.68992 23.234C6.68992 21.9927 7.00259 21.036 7.62792 20.364C8.25326 19.692 9.10259 19.356 10.1759 19.356C10.8573 19.356 11.4546 19.51 11.9679 19.818C12.4906 20.1167 12.8966 20.5553 13.1859 21.134C13.4846 21.7033 13.6339 22.4033 13.6339 23.234ZM7.96392 23.234C7.96392 24.1207 8.13659 24.8253 8.48192 25.348C8.83659 25.8613 9.39659 26.118 10.1619 26.118C10.9179 26.118 11.4733 25.8613 11.8279 25.348C12.1826 24.8253 12.3599 24.1207 12.3599 23.234C12.3599 22.3473 12.1826 21.652 11.8279 21.148C11.4733 20.644 10.9133 20.392 10.1479 20.392C9.38259 20.392 8.82726 20.644 8.48192 21.148C8.13659 21.652 7.96392 22.3473 7.96392 23.234ZM21.6205 21.386C21.6205 21.8527 21.4805 22.2167 21.2005 22.478C20.9205 22.7393 20.5612 22.9167 20.1225 23.01V23.066C20.5892 23.1313 20.9952 23.2993 21.3405 23.57C21.6858 23.8313 21.8585 24.242 21.8585 24.802C21.8585 25.4367 21.6205 25.964 21.1445 26.384C20.6778 26.7947 19.9032 27 18.8205 27H15.5865V19.496H18.8065C19.3385 19.496 19.8145 19.5567 20.2345 19.678C20.6638 19.79 20.9998 19.986 21.2425 20.266C21.4945 20.5367 21.6205 20.91 21.6205 21.386ZM20.3745 21.54C20.3745 21.1853 20.2438 20.9287 19.9825 20.77C19.7305 20.602 19.3152 20.518 18.7365 20.518H16.8185V22.576H18.5125C19.7538 22.576 20.3745 22.2307 20.3745 21.54ZM20.5845 24.802C20.5845 24.3727 20.4212 24.0647 20.0945 23.878C19.7678 23.6913 19.2872 23.598 18.6525 23.598H16.8185V26.006H18.6805C19.2965 26.006 19.7678 25.9173 20.0945 25.74C20.4212 25.5533 20.5845 25.2407 20.5845 24.802ZM24.5387 27H23.1107L25.2527 23.85C24.9634 23.7753 24.6834 23.6587 24.4127 23.5C24.1421 23.332 23.9227 23.1033 23.7547 22.814C23.5867 22.5153 23.5027 22.1467 23.5027 21.708C23.5027 20.9893 23.7454 20.4433 24.2307 20.07C24.7161 19.6873 25.3601 19.496 26.1627 19.496H29.5227V27H28.2907V24.018H26.4707L24.5387 27ZM24.6927 21.722C24.6927 22.1513 24.8514 22.4733 25.1687 22.688C25.4954 22.8933 25.9481 22.996 26.5267 22.996H28.2907V20.518H26.2887C25.7194 20.518 25.3087 20.63 25.0567 20.854C24.8141 21.078 24.6927 21.3673 24.6927 21.722ZM37.469 19.496V25.964H38.561V29.604H37.371V27H32.149V29.604H30.973V25.964H31.575C32.219 25.0773 32.6997 24.0693 33.017 22.94C33.3437 21.8013 33.5117 20.6533 33.521 19.496H37.469ZM34.613 20.462C34.5757 21.0967 34.4777 21.7547 34.319 22.436C34.1604 23.108 33.955 23.752 33.703 24.368C33.4604 24.984 33.1757 25.516 32.849 25.964H36.279V20.462H34.613ZM41.1938 24.074C41.1938 24.186 41.1891 24.354 41.1798 24.578C41.1705 24.802 41.1565 25.026 41.1378 25.25C41.1285 25.474 41.1191 25.6513 41.1098 25.782L45.1278 19.496H46.6398V27H45.4918V22.576C45.4918 22.4267 45.4918 22.2307 45.4918 21.988C45.5011 21.7453 45.5105 21.5073 45.5198 21.274C45.5291 21.0313 45.5385 20.8493 45.5478 20.728L41.5578 27H40.0318V19.496H41.1938V24.074ZM50.2599 19.496V22.618H54.3339V19.496H55.5659V27H54.3339V23.654H50.2599V27H49.0279V19.496H50.2599ZM60.784 19.37C61.6986 19.37 62.3753 19.5707 62.814 19.972C63.2526 20.3733 63.472 21.0127 63.472 21.89V27H62.576L62.338 25.936H62.282C61.9553 26.3467 61.61 26.65 61.246 26.846C60.8913 27.042 60.3966 27.14 59.762 27.14C59.0806 27.14 58.516 26.9627 58.068 26.608C57.62 26.244 57.396 25.6793 57.396 24.914C57.396 24.1673 57.69 23.5933 58.278 23.192C58.866 22.7813 59.7713 22.5573 60.994 22.52L62.268 22.478V22.03C62.268 21.4047 62.1326 20.9707 61.862 20.728C61.5913 20.4853 61.2086 20.364 60.714 20.364C60.322 20.364 59.9486 20.4247 59.594 20.546C59.2393 20.658 58.908 20.7887 58.6 20.938L58.222 20.014C58.5486 19.8367 58.936 19.6873 59.384 19.566C59.832 19.4353 60.2986 19.37 60.784 19.37ZM61.148 23.374C60.2146 23.4113 59.566 23.5607 59.202 23.822C58.8473 24.0833 58.67 24.452 58.67 24.928C58.67 25.348 58.796 25.656 59.048 25.852C59.3093 26.048 59.6406 26.146 60.042 26.146C60.6766 26.146 61.204 25.9733 61.624 25.628C62.044 25.2733 62.254 24.732 62.254 24.004V23.332L61.148 23.374ZM74.4932 19.496H75.8372L72.6312 23.108L76.1032 27H74.6752L71.2872 23.192V27H70.0552V19.496H71.2872V23.136L74.4932 19.496ZM83.716 23.234C83.716 24.4753 83.3986 25.4367 82.764 26.118C82.1386 26.7993 81.2893 27.14 80.216 27.14C79.5533 27.14 78.9606 26.9907 78.438 26.692C77.9246 26.384 77.5186 25.9407 77.22 25.362C76.9213 24.774 76.772 24.0647 76.772 23.234C76.772 21.9927 77.0846 21.036 77.71 20.364C78.3353 19.692 79.1846 19.356 80.258 19.356C80.9393 19.356 81.5366 19.51 82.05 19.818C82.5726 20.1167 82.9786 20.5553 83.268 21.134C83.5666 21.7033 83.716 22.4033 83.716 23.234ZM78.046 23.234C78.046 24.1207 78.2186 24.8253 78.564 25.348C78.9186 25.8613 79.4786 26.118 80.244 26.118C81 26.118 81.5553 25.8613 81.91 25.348C82.2646 24.8253 82.442 24.1207 82.442 23.234C82.442 22.3473 82.2646 21.652 81.91 21.148C81.5553 20.644 80.9953 20.392 80.23 20.392C79.4646 20.392 78.9093 20.644 78.564 21.148C78.2186 21.652 78.046 22.3473 78.046 23.234ZM92.0105 19.496V27H90.7785V20.546H86.9005V27H85.6685V19.496H92.0105ZM95.4828 22.226C95.4828 23.0847 95.9635 23.514 96.9248 23.514C97.3915 23.514 97.8162 23.444 98.1988 23.304C98.5815 23.1547 98.9735 22.9587 99.3748 22.716V19.496H100.607V27H99.3748V23.654C98.9548 23.9247 98.5395 24.1393 98.1288 24.298C97.7275 24.4473 97.2422 24.522 96.6728 24.522C95.9075 24.522 95.3102 24.3213 94.8808 23.92C94.4608 23.5187 94.2508 22.982 94.2508 22.31V19.496H95.4828V22.226ZM105.889 19.356C106.533 19.356 107.083 19.496 107.541 19.776C108.007 20.056 108.362 20.4527 108.605 20.966C108.857 21.47 108.983 22.0627 108.983 22.744V23.486H103.845C103.863 24.3353 104.078 24.984 104.489 25.432C104.909 25.8707 105.492 26.09 106.239 26.09C106.715 26.09 107.135 26.048 107.499 25.964C107.872 25.8707 108.255 25.74 108.647 25.572V26.65C108.264 26.818 107.886 26.9393 107.513 27.014C107.139 27.098 106.696 27.14 106.183 27.14C105.473 27.14 104.843 26.9953 104.293 26.706C103.751 26.4167 103.327 25.9873 103.019 25.418C102.72 24.8393 102.571 24.1347 102.571 23.304C102.571 22.4827 102.706 21.778 102.977 21.19C103.257 20.602 103.644 20.1493 104.139 19.832C104.643 19.5147 105.226 19.356 105.889 19.356ZM105.875 20.364C105.287 20.364 104.82 20.5553 104.475 20.938C104.139 21.3113 103.938 21.834 103.873 22.506H107.695C107.685 21.8713 107.536 21.358 107.247 20.966C106.957 20.5647 106.5 20.364 105.875 20.364ZM112.125 19.496V22.618H116.199V19.496H117.431V27H116.199V23.654H112.125V27H110.893V19.496H112.125ZM122.649 19.37C123.564 19.37 124.241 19.5707 124.679 19.972C125.118 20.3733 125.337 21.0127 125.337 21.89V27H124.441L124.203 25.936H124.147C123.821 26.3467 123.475 26.65 123.111 26.846C122.757 27.042 122.262 27.14 121.627 27.14C120.946 27.14 120.381 26.9627 119.933 26.608C119.485 26.244 119.261 25.6793 119.261 24.914C119.261 24.1673 119.555 23.5933 120.143 23.192C120.731 22.7813 121.637 22.5573 122.859 22.52L124.133 22.478V22.03C124.133 21.4047 123.998 20.9707 123.727 20.728C123.457 20.4853 123.074 20.364 122.579 20.364C122.187 20.364 121.814 20.4247 121.459 20.546C121.105 20.658 120.773 20.7887 120.465 20.938L120.087 20.014C120.414 19.8367 120.801 19.6873 121.249 19.566C121.697 19.4353 122.164 19.37 122.649 19.37ZM123.013 23.374C122.08 23.4113 121.431 23.5607 121.067 23.822C120.713 24.0833 120.535 24.452 120.535 24.928C120.535 25.348 120.661 25.656 120.913 25.852C121.175 26.048 121.506 26.146 121.907 26.146C122.542 26.146 123.069 25.9733 123.489 25.628C123.909 25.2733 124.119 24.732 124.119 24.004V23.332L123.013 23.374ZM128.117 27H126.689L128.831 23.85C128.542 23.7753 128.262 23.6587 127.991 23.5C127.72 23.332 127.501 23.1033 127.333 22.814C127.165 22.5153 127.081 22.1467 127.081 21.708C127.081 20.9893 127.324 20.4433 127.809 20.07C128.294 19.6873 128.938 19.496 129.741 19.496H133.101V27H131.869V24.018H130.049L128.117 27ZM128.271 21.722C128.271 22.1513 128.43 22.4733 128.747 22.688C129.074 22.8933 129.526 22.996 130.105 22.996H131.869V20.518H129.867C129.298 20.518 128.887 20.63 128.635 20.854C128.392 21.078 128.271 21.3673 128.271 21.722ZM135.125 28.092C135.414 28.0453 135.61 27.9427 135.713 27.784C135.825 27.6347 135.881 27.3733 135.881 27H135.167V25.67H136.539V26.79C136.539 27.3967 136.427 27.854 136.203 28.162C135.979 28.47 135.62 28.624 135.125 28.624V28.092ZM147.696 19.496V20.532H144.35V27H143.118V19.496H147.696ZM152.744 19.356C153.668 19.356 154.41 19.678 154.97 20.322C155.54 20.966 155.824 21.9367 155.824 23.234C155.824 24.5127 155.54 25.4833 154.97 26.146C154.41 26.8087 153.664 27.14 152.73 27.14C152.152 27.14 151.671 27.0327 151.288 26.818C150.915 26.594 150.621 26.3373 150.406 26.048H150.322C150.341 26.2067 150.36 26.4073 150.378 26.65C150.397 26.8927 150.406 27.1027 150.406 27.28V30.36H149.174V19.496H150.182L150.35 20.518H150.406C150.63 20.1913 150.924 19.916 151.288 19.692C151.652 19.468 152.138 19.356 152.744 19.356ZM152.52 20.392C151.755 20.392 151.214 20.6067 150.896 21.036C150.588 21.4653 150.425 22.1187 150.406 22.996V23.234C150.406 24.158 150.556 24.872 150.854 25.376C151.162 25.8707 151.727 26.118 152.548 26.118C153.006 26.118 153.379 25.992 153.668 25.74C153.967 25.488 154.186 25.1473 154.326 24.718C154.476 24.2793 154.55 23.78 154.55 23.22C154.55 22.3613 154.382 21.6753 154.046 21.162C153.72 20.6487 153.211 20.392 152.52 20.392ZM156.475 19.496H157.791L159.415 23.766C159.555 24.1393 159.681 24.4987 159.793 24.844C159.905 25.18 159.989 25.502 160.045 25.81H160.101C160.157 25.5767 160.246 25.2733 160.367 24.9C160.488 24.5173 160.614 24.1347 160.745 23.752L162.271 19.496H163.601L160.367 28.036C160.106 28.7453 159.765 29.31 159.345 29.73C158.934 30.15 158.365 30.36 157.637 30.36C157.413 30.36 157.217 30.346 157.049 30.318C156.881 30.2993 156.736 30.276 156.615 30.248V29.268C156.718 29.2867 156.839 29.3053 156.979 29.324C157.128 29.3427 157.282 29.352 157.441 29.352C157.87 29.352 158.216 29.2307 158.477 28.988C158.748 28.7453 158.958 28.4233 159.107 28.022L159.499 27.028L156.475 19.496ZM170.086 19.496V25.964H171.178V29.604H169.988V27H164.766V29.604H163.59V25.964H164.192C164.836 25.0773 165.317 24.0693 165.634 22.94C165.961 21.8013 166.129 20.6533 166.138 19.496H170.086ZM167.23 20.462C167.193 21.0967 167.095 21.7547 166.936 22.436C166.778 23.108 166.572 23.752 166.32 24.368C166.078 24.984 165.793 25.516 165.466 25.964H168.896V20.462H167.23ZM177.087 19.496H178.431L175.225 23.108L178.697 27H177.269L173.881 23.192V27H172.649V19.496H173.881V23.136L177.087 19.496ZM182.901 19.37C183.816 19.37 184.492 19.5707 184.931 19.972C185.37 20.3733 185.589 21.0127 185.589 21.89V27H184.693L184.455 25.936H184.399C184.072 26.3467 183.727 26.65 183.363 26.846C183.008 27.042 182.514 27.14 181.879 27.14C181.198 27.14 180.633 26.9627 180.185 26.608C179.737 26.244 179.513 25.6793 179.513 24.914C179.513 24.1673 179.807 23.5933 180.395 23.192C180.983 22.7813 181.888 22.5573 183.111 22.52L184.385 22.478V22.03C184.385 21.4047 184.25 20.9707 183.979 20.728C183.708 20.4853 183.326 20.364 182.831 20.364C182.439 20.364 182.066 20.4247 181.711 20.546C181.356 20.658 181.025 20.7887 180.717 20.938L180.339 20.014C180.666 19.8367 181.053 19.6873 181.501 19.566C181.949 19.4353 182.416 19.37 182.901 19.37ZM183.265 23.374C182.332 23.4113 181.683 23.5607 181.319 23.822C180.964 24.0833 180.787 24.452 180.787 24.928C180.787 25.348 180.913 25.656 181.165 25.852C181.426 26.048 181.758 26.146 182.159 26.146C182.794 26.146 183.321 25.9733 183.741 25.628C184.161 25.2733 184.371 24.732 184.371 24.004V23.332L183.265 23.374ZM5.628 35.496H6.972L3.766 39.108L7.238 43H5.81L2.422 39.192V43H1.19V35.496H2.422V39.136L5.628 35.496ZM7.42416 35.496H8.74016L10.3642 39.766C10.5042 40.1393 10.6302 40.4987 10.7422 40.844C10.8542 41.18 10.9382 41.502 10.9942 41.81H11.0502C11.1062 41.5767 11.1948 41.2733 11.3162 40.9C11.4375 40.5173 11.5635 40.1347 11.6942 39.752L13.2202 35.496H14.5502L11.3162 44.036C11.0548 44.7453 10.7142 45.31 10.2942 45.73C9.88349 46.15 9.31416 46.36 8.58616 46.36C8.36216 46.36 8.16616 46.346 7.99816 46.318C7.83016 46.2993 7.68549 46.276 7.56416 46.248V45.268C7.66682 45.2867 7.78816 45.3053 7.92816 45.324C8.07749 45.3427 8.23149 45.352 8.39016 45.352C8.81949 45.352 9.16482 45.2307 9.42616 44.988C9.69682 44.7453 9.90682 44.4233 10.0562 44.022L10.4482 43.028L7.42416 35.496ZM19.3069 35.356C20.2309 35.356 20.9729 35.678 21.5329 36.322C22.1022 36.966 22.3869 37.9367 22.3869 39.234C22.3869 40.5127 22.1022 41.4833 21.5329 42.146C20.9729 42.8087 20.2262 43.14 19.2929 43.14C18.7142 43.14 18.2335 43.0327 17.8509 42.818C17.4775 42.594 17.1835 42.3373 16.9689 42.048H16.8849C16.9035 42.2067 16.9222 42.4073 16.9409 42.65C16.9595 42.8927 16.9689 43.1027 16.9689 43.28V46.36H15.7369V35.496H16.7449L16.9129 36.518H16.9689C17.1929 36.1913 17.4869 35.916 17.8509 35.692C18.2149 35.468 18.7002 35.356 19.3069 35.356ZM19.0829 36.392C18.3175 36.392 17.7762 36.6067 17.4589 37.036C17.1509 37.4653 16.9875 38.1187 16.9689 38.996V39.234C16.9689 40.158 17.1182 40.872 17.4169 41.376C17.7249 41.8707 18.2895 42.118 19.1109 42.118C19.5682 42.118 19.9415 41.992 20.2309 41.74C20.5295 41.488 20.7489 41.1473 20.8889 40.718C21.0382 40.2793 21.1129 39.78 21.1129 39.22C21.1129 38.3613 20.9449 37.6753 20.6089 37.162C20.2822 36.6487 19.7735 36.392 19.0829 36.392ZM25.5122 40.074C25.5122 40.186 25.5075 40.354 25.4982 40.578C25.4888 40.802 25.4748 41.026 25.4562 41.25C25.4468 41.474 25.4375 41.6513 25.4282 41.782L29.4462 35.496H30.9582V43H29.8102V38.576C29.8102 38.4267 29.8102 38.2307 29.8102 37.988C29.8195 37.7453 29.8288 37.5073 29.8382 37.274C29.8475 37.0313 29.8568 36.8493 29.8662 36.728L25.8762 43H24.3502V35.496H25.5122V40.074ZM34.5783 35.496V38.618H38.6523V35.496H39.8843V43H38.6523V39.654H34.5783V43H33.3463V35.496H34.5783ZM45.1023 35.37C46.017 35.37 46.6936 35.5707 47.1323 35.972C47.571 36.3733 47.7903 37.0127 47.7903 37.89V43H46.8943L46.6563 41.936H46.6003C46.2736 42.3467 45.9283 42.65 45.5643 42.846C45.2096 43.042 44.715 43.14 44.0803 43.14C43.399 43.14 42.8343 42.9627 42.3863 42.608C41.9383 42.244 41.7143 41.6793 41.7143 40.914C41.7143 40.1673 42.0083 39.5933 42.5963 39.192C43.1843 38.7813 44.0896 38.5573 45.3123 38.52L46.5863 38.478V38.03C46.5863 37.4047 46.451 36.9707 46.1803 36.728C45.9096 36.4853 45.527 36.364 45.0323 36.364C44.6403 36.364 44.267 36.4247 43.9123 36.546C43.5576 36.658 43.2263 36.7887 42.9183 36.938L42.5403 36.014C42.867 35.8367 43.2543 35.6873 43.7023 35.566C44.1503 35.4353 44.617 35.37 45.1023 35.37ZM45.4663 39.374C44.533 39.4113 43.8843 39.5607 43.5203 39.822C43.1656 40.0833 42.9883 40.452 42.9883 40.928C42.9883 41.348 43.1143 41.656 43.3663 41.852C43.6276 42.048 43.959 42.146 44.3603 42.146C44.995 42.146 45.5223 41.9733 45.9423 41.628C46.3623 41.2733 46.5723 40.732 46.5723 40.004V39.332L45.4663 39.374ZM50.57 43H49.142L51.284 39.85C50.9946 39.7753 50.7146 39.6587 50.444 39.5C50.1733 39.332 49.954 39.1033 49.786 38.814C49.618 38.5153 49.534 38.1467 49.534 37.708C49.534 36.9893 49.7766 36.4433 50.262 36.07C50.7473 35.6873 51.3913 35.496 52.194 35.496H55.554V43H54.322V40.018H52.502L50.57 43ZM50.724 37.722C50.724 38.1513 50.8826 38.4733 51.2 38.688C51.5266 38.8933 51.9793 38.996 52.558 38.996H54.322V36.518H52.32C51.7506 36.518 51.34 36.63 51.088 36.854C50.8453 37.078 50.724 37.3673 50.724 37.722ZM66.6319 35.496H67.9759L64.7699 39.108L68.2419 43H66.8139L63.4259 39.192V43H62.1939V35.496H63.4259V39.136L66.6319 35.496ZM75.8546 39.234C75.8546 40.4753 75.5373 41.4367 74.9026 42.118C74.2773 42.7993 73.428 43.14 72.3546 43.14C71.692 43.14 71.0993 42.9907 70.5766 42.692C70.0633 42.384 69.6573 41.9407 69.3586 41.362C69.06 40.774 68.9106 40.0647 68.9106 39.234C68.9106 37.9927 69.2233 37.036 69.8486 36.364C70.474 35.692 71.3233 35.356 72.3966 35.356C73.078 35.356 73.6753 35.51 74.1886 35.818C74.7113 36.1167 75.1173 36.5553 75.4066 37.134C75.7053 37.7033 75.8546 38.4033 75.8546 39.234ZM70.1846 39.234C70.1846 40.1207 70.3573 40.8253 70.7026 41.348C71.0573 41.8613 71.6173 42.118 72.3826 42.118C73.1386 42.118 73.694 41.8613 74.0486 41.348C74.4033 40.8253 74.5806 40.1207 74.5806 39.234C74.5806 38.3473 74.4033 37.652 74.0486 37.148C73.694 36.644 73.134 36.392 72.3686 36.392C71.6033 36.392 71.048 36.644 70.7026 37.148C70.3573 37.652 70.1846 38.3473 70.1846 39.234ZM84.1492 35.496V43H82.9172V36.546H79.0392V43H77.8072V35.496H84.1492ZM87.6215 38.226C87.6215 39.0847 88.1022 39.514 89.0635 39.514C89.5302 39.514 89.9548 39.444 90.3375 39.304C90.7202 39.1547 91.1122 38.9587 91.5135 38.716V35.496H92.7455V43H91.5135V39.654C91.0935 39.9247 90.6782 40.1393 90.2675 40.298C89.8662 40.4473 89.3808 40.522 88.8115 40.522C88.0462 40.522 87.4488 40.3213 87.0195 39.92C86.5995 39.5187 86.3895 38.982 86.3895 38.31V35.496H87.6215V38.226ZM98.0275 35.356C98.6715 35.356 99.2221 35.496 99.6795 35.776C100.146 36.056 100.501 36.4527 100.743 36.966C100.995 37.47 101.121 38.0627 101.121 38.744V39.486H95.9835C96.0021 40.3353 96.2168 40.984 96.6275 41.432C97.0475 41.8707 97.6308 42.09 98.3775 42.09C98.8535 42.09 99.2735 42.048 99.6375 41.964C100.011 41.8707 100.393 41.74 100.785 41.572V42.65C100.403 42.818 100.025 42.9393 99.6515 43.014C99.2781 43.098 98.8348 43.14 98.3215 43.14C97.6121 43.14 96.9821 42.9953 96.4315 42.706C95.8901 42.4167 95.4655 41.9873 95.1575 41.418C94.8588 40.8393 94.7095 40.1347 94.7095 39.304C94.7095 38.4827 94.8448 37.778 95.1155 37.19C95.3955 36.602 95.7828 36.1493 96.2775 35.832C96.7815 35.5147 97.3648 35.356 98.0275 35.356ZM98.0135 36.364C97.4255 36.364 96.9588 36.5553 96.6135 36.938C96.2775 37.3113 96.0768 37.834 96.0115 38.506H99.8335C99.8241 37.8713 99.6748 37.358 99.3855 36.966C99.0961 36.5647 98.6388 36.364 98.0135 36.364ZM104.264 35.496V38.618H108.338V35.496H109.57V43H108.338V39.654H104.264V43H103.032V35.496H104.264ZM114.788 35.37C115.703 35.37 116.379 35.5707 116.818 35.972C117.257 36.3733 117.476 37.0127 117.476 37.89V43H116.58L116.342 41.936H116.286C115.959 42.3467 115.614 42.65 115.25 42.846C114.895 43.042 114.401 43.14 113.766 43.14C113.085 43.14 112.52 42.9627 112.072 42.608C111.624 42.244 111.4 41.6793 111.4 40.914C111.4 40.1673 111.694 39.5933 112.282 39.192C112.87 38.7813 113.775 38.5573 114.998 38.52L116.272 38.478V38.03C116.272 37.4047 116.137 36.9707 115.866 36.728C115.595 36.4853 115.213 36.364 114.718 36.364C114.326 36.364 113.953 36.4247 113.598 36.546C113.243 36.658 112.912 36.7887 112.604 36.938L112.226 36.014C112.553 35.8367 112.94 35.6873 113.388 35.566C113.836 35.4353 114.303 35.37 114.788 35.37ZM115.152 39.374C114.219 39.4113 113.57 39.5607 113.206 39.822C112.851 40.0833 112.674 40.452 112.674 40.928C112.674 41.348 112.8 41.656 113.052 41.852C113.313 42.048 113.645 42.146 114.046 42.146C114.681 42.146 115.208 41.9733 115.628 41.628C116.048 41.2733 116.258 40.732 116.258 40.004V39.332L115.152 39.374ZM120.256 43H118.828L120.97 39.85C120.68 39.7753 120.4 39.6587 120.13 39.5C119.859 39.332 119.64 39.1033 119.472 38.814C119.304 38.5153 119.22 38.1467 119.22 37.708C119.22 36.9893 119.462 36.4433 119.948 36.07C120.433 35.6873 121.077 35.496 121.88 35.496H125.24V43H124.008V40.018H122.188L120.256 43ZM120.41 37.722C120.41 38.1513 120.568 38.4733 120.886 38.688C121.212 38.8933 121.665 38.996 122.244 38.996H124.008V36.518H122.006C121.436 36.518 121.026 36.63 120.774 36.854C120.531 37.078 120.41 37.3673 120.41 37.722ZM127.264 44.092C127.553 44.0453 127.749 43.9427 127.852 43.784C127.964 43.6347 128.02 43.3733 128.02 43H127.306V41.67H128.678V42.79C128.678 43.3967 128.566 43.854 128.342 44.162C128.118 44.47 127.758 44.624 127.264 44.624V44.092ZM7.532 51.496V59H6.3V52.546H2.422V59H1.19V51.496H7.532ZM16.4503 55.234C16.4503 56.4753 16.133 57.4367 15.4983 58.118C14.873 58.7993 14.0237 59.14 12.9503 59.14C12.2877 59.14 11.695 58.9907 11.1723 58.692C10.659 58.384 10.253 57.9407 9.95433 57.362C9.65566 56.774 9.50633 56.0647 9.50633 55.234C9.50633 53.9927 9.81899 53.036 10.4443 52.364C11.0697 51.692 11.919 51.356 12.9923 51.356C13.6737 51.356 14.271 51.51 14.7843 51.818C15.307 52.1167 15.713 52.5553 16.0023 53.134C16.301 53.7033 16.4503 54.4033 16.4503 55.234ZM10.7803 55.234C10.7803 56.1207 10.953 56.8253 11.2983 57.348C11.653 57.8613 12.213 58.118 12.9783 58.118C13.7343 58.118 14.2897 57.8613 14.6443 57.348C14.999 56.8253 15.1763 56.1207 15.1763 55.234C15.1763 54.3473 14.999 53.652 14.6443 53.148C14.2897 52.644 13.7297 52.392 12.9643 52.392C12.199 52.392 11.6437 52.644 11.2983 53.148C10.953 53.652 10.7803 54.3473 10.7803 55.234ZM26.4529 51.496V59H25.3469V54.212C25.3469 54.016 25.3516 53.8107 25.3609 53.596C25.3796 53.3813 25.3982 53.1713 25.4169 52.966H25.3749L22.9249 59H21.8889L19.5089 52.966H19.4669C19.4949 53.386 19.5089 53.8153 19.5089 54.254V59H18.4029V51.496H20.0409L22.4069 57.53L24.8149 51.496H26.4529ZM30.0102 56.074C30.0102 56.186 30.0055 56.354 29.9962 56.578C29.9869 56.802 29.9729 57.026 29.9542 57.25C29.9449 57.474 29.9355 57.6513 29.9262 57.782L33.9442 51.496H35.4562V59H34.3082V54.576C34.3082 54.4267 34.3082 54.2307 34.3082 53.988C34.3175 53.7453 34.3269 53.5073 34.3362 53.274C34.3455 53.0313 34.3549 52.8493 34.3642 52.728L30.3742 59H28.8482V51.496H30.0102V56.074ZM43.4163 51.496V57.964H44.5083V61.604H43.3183V59H38.0963V61.604H36.9203V57.964H37.5223C38.1663 57.0773 38.647 56.0693 38.9643 54.94C39.291 53.8013 39.459 52.6533 39.4683 51.496H43.4163ZM40.5603 52.462C40.523 53.0967 40.425 53.7547 40.2663 54.436C40.1076 55.108 39.9023 55.752 39.6503 56.368C39.4076 56.984 39.123 57.516 38.7963 57.964H42.2263V52.462H40.5603ZM52.5031 55.234C52.5031 56.4753 52.1857 57.4367 51.5511 58.118C50.9257 58.7993 50.0764 59.14 49.0031 59.14C48.3404 59.14 47.7477 58.9907 47.2251 58.692C46.7117 58.384 46.3057 57.9407 46.0071 57.362C45.7084 56.774 45.5591 56.0647 45.5591 55.234C45.5591 53.9927 45.8717 53.036 46.4971 52.364C47.1224 51.692 47.9717 51.356 49.0451 51.356C49.7264 51.356 50.3237 51.51 50.8371 51.818C51.3597 52.1167 51.7657 52.5553 52.0551 53.134C52.3537 53.7033 52.5031 54.4033 52.5031 55.234ZM46.8331 55.234C46.8331 56.1207 47.0057 56.8253 47.3511 57.348C47.7057 57.8613 48.2657 58.118 49.0311 58.118C49.7871 58.118 50.3424 57.8613 50.6971 57.348C51.0517 56.8253 51.2291 56.1207 51.2291 55.234C51.2291 54.3473 51.0517 53.652 50.6971 53.148C50.3424 52.644 49.7824 52.392 49.0171 52.392C48.2517 52.392 47.6964 52.644 47.3511 53.148C47.0057 53.652 46.8331 54.3473 46.8331 55.234ZM58.0256 51.356C58.9496 51.356 59.6916 51.678 60.2516 52.322C60.821 52.966 61.1056 53.9367 61.1056 55.234C61.1056 56.5127 60.821 57.4833 60.2516 58.146C59.6916 58.8087 58.945 59.14 58.0116 59.14C57.433 59.14 56.9523 59.0327 56.5696 58.818C56.1963 58.594 55.9023 58.3373 55.6876 58.048H55.6036C55.6223 58.2067 55.641 58.4073 55.6596 58.65C55.6783 58.8927 55.6876 59.1027 55.6876 59.28V62.36H54.4556V51.496H55.4636L55.6316 52.518H55.6876C55.9116 52.1913 56.2056 51.916 56.5696 51.692C56.9336 51.468 57.419 51.356 58.0256 51.356ZM57.8016 52.392C57.0363 52.392 56.495 52.6067 56.1776 53.036C55.8696 53.4653 55.7063 54.1187 55.6876 54.996V55.234C55.6876 56.158 55.837 56.872 56.1356 57.376C56.4436 57.8707 57.0083 58.118 57.8296 58.118C58.287 58.118 58.6603 57.992 58.9496 57.74C59.2483 57.488 59.4676 57.1473 59.6076 56.718C59.757 56.2793 59.8316 55.78 59.8316 55.22C59.8316 54.3613 59.6636 53.6753 59.3276 53.162C59.001 52.6487 58.4923 52.392 57.8016 52.392ZM63.0689 59V51.496H64.3009V54.576H66.2469C67.2176 54.576 67.9362 54.7533 68.4029 55.108C68.8696 55.4627 69.1029 55.9947 69.1029 56.704C69.1029 57.404 68.8742 57.964 68.4169 58.384C67.9596 58.7947 67.2176 59 66.1909 59H63.0689ZM70.3489 59V51.496H71.5809V59H70.3489ZM66.0789 58.006C66.6109 58.006 67.0449 57.9173 67.3809 57.74C67.7169 57.5533 67.8849 57.2313 67.8849 56.774C67.8849 56.3167 67.7309 56.0087 67.4229 55.85C67.1149 55.682 66.6716 55.598 66.0929 55.598H64.3009V58.006H66.0789ZM73.6154 60.092C73.9047 60.0453 74.1007 59.9427 74.2034 59.784C74.3154 59.6347 74.3714 59.3733 74.3714 59H73.6574V57.67H75.0294V58.79C75.0294 59.3967 74.9174 59.854 74.6934 60.162C74.4694 60.47 74.1101 60.624 73.6154 60.624V60.092ZM89.658 51.496V59H88.552V54.212C88.552 54.016 88.5566 53.8107 88.566 53.596C88.5846 53.3813 88.6033 53.1713 88.622 52.966H88.58L86.13 59H85.094L82.714 52.966H82.672C82.7 53.386 82.714 53.8153 82.714 54.254V59H81.608V51.496H83.246L85.612 57.53L88.02 51.496H89.658ZM92.5153 59H91.0873L93.2293 55.85C92.9399 55.7753 92.6599 55.6587 92.3893 55.5C92.1186 55.332 91.8993 55.1033 91.7313 54.814C91.5633 54.5153 91.4793 54.1467 91.4793 53.708C91.4793 52.9893 91.7219 52.4433 92.2073 52.07C92.6926 51.6873 93.3366 51.496 94.1393 51.496H97.4993V59H96.2673V56.018H94.4473L92.5153 59ZM92.6693 53.722C92.6693 54.1513 92.8279 54.4733 93.1453 54.688C93.4719 54.8933 93.9246 54.996 94.5033 54.996H96.2673V52.518H94.2653C93.6959 52.518 93.2853 52.63 93.0333 52.854C92.7906 53.078 92.6693 53.3673 92.6693 53.722ZM102.884 59.14C102.221 59.14 101.628 59.0047 101.106 58.734C100.592 58.4633 100.186 58.0433 99.8876 57.474C99.5983 56.9047 99.4536 56.1767 99.4536 55.29C99.4536 54.366 99.6076 53.6147 99.9156 53.036C100.224 52.4573 100.639 52.0327 101.162 51.762C101.694 51.4913 102.296 51.356 102.968 51.356C103.35 51.356 103.719 51.398 104.074 51.482C104.428 51.5567 104.718 51.65 104.942 51.762L104.564 52.784C104.34 52.7 104.078 52.6207 103.78 52.546C103.481 52.4713 103.201 52.434 102.94 52.434C101.465 52.434 100.728 53.3813 100.728 55.276C100.728 56.1813 100.905 56.8767 101.26 57.362C101.624 57.838 102.16 58.076 102.87 58.076C103.28 58.076 103.64 58.034 103.948 57.95C104.265 57.866 104.554 57.7633 104.816 57.642V58.734C104.564 58.8647 104.284 58.9627 103.976 59.028C103.677 59.1027 103.313 59.14 102.884 59.14ZM113.124 55.234C113.124 56.4753 112.807 57.4367 112.172 58.118C111.547 58.7993 110.697 59.14 109.624 59.14C108.961 59.14 108.369 58.9907 107.846 58.692C107.333 58.384 106.927 57.9407 106.628 57.362C106.329 56.774 106.18 56.0647 106.18 55.234C106.18 53.9927 106.493 53.036 107.118 52.364C107.743 51.692 108.593 51.356 109.666 51.356C110.347 51.356 110.945 51.51 111.458 51.818C111.981 52.1167 112.387 52.5553 112.676 53.134C112.975 53.7033 113.124 54.4033 113.124 55.234ZM107.454 55.234C107.454 56.1207 107.627 56.8253 107.972 57.348C108.327 57.8613 108.887 58.118 109.652 58.118C110.408 58.118 110.963 57.8613 111.318 57.348C111.673 56.8253 111.85 56.1207 111.85 55.234C111.85 54.3473 111.673 53.652 111.318 53.148C110.963 52.644 110.403 52.392 109.638 52.392C108.873 52.392 108.317 52.644 107.972 53.148C107.627 53.652 107.454 54.3473 107.454 55.234ZM123.78 51.496H125.124L121.918 55.108L125.39 59H123.962L120.574 55.192V59H119.342V51.496H120.574V55.136L123.78 51.496ZM125.577 51.496H126.893L128.517 55.766C128.657 56.1393 128.783 56.4987 128.895 56.844C129.007 57.18 129.091 57.502 129.147 57.81H129.203C129.259 57.5767 129.347 57.2733 129.469 56.9C129.59 56.5173 129.716 56.1347 129.847 55.752L131.373 51.496H132.703L129.469 60.036C129.207 60.7453 128.867 61.31 128.447 61.73C128.036 62.15 127.467 62.36 126.739 62.36C126.515 62.36 126.319 62.346 126.151 62.318C125.983 62.2993 125.838 62.276 125.717 62.248V61.268C125.819 61.2867 125.941 61.3053 126.081 61.324C126.23 61.3427 126.384 61.352 126.543 61.352C126.972 61.352 127.317 61.2307 127.579 60.988C127.849 60.7453 128.059 60.4233 128.209 60.022L128.601 59.028L125.577 51.496ZM137.459 51.356C138.383 51.356 139.125 51.678 139.685 52.322C140.255 52.966 140.539 53.9367 140.539 55.234C140.539 56.5127 140.255 57.4833 139.685 58.146C139.125 58.8087 138.379 59.14 137.445 59.14C136.867 59.14 136.386 59.0327 136.003 58.818C135.63 58.594 135.336 58.3373 135.121 58.048H135.037C135.056 58.2067 135.075 58.4073 135.093 58.65C135.112 58.8927 135.121 59.1027 135.121 59.28V62.36H133.889V51.496H134.897L135.065 52.518H135.121C135.345 52.1913 135.639 51.916 136.003 51.692C136.367 51.468 136.853 51.356 137.459 51.356ZM137.235 52.392C136.47 52.392 135.929 52.6067 135.611 53.036C135.303 53.4653 135.14 54.1187 135.121 54.996V55.234C135.121 56.158 135.271 56.872 135.569 57.376C135.877 57.8707 136.442 58.118 137.263 58.118C137.721 58.118 138.094 57.992 138.383 57.74C138.682 57.488 138.901 57.1473 139.041 56.718C139.191 56.2793 139.265 55.78 139.265 55.22C139.265 54.3613 139.097 53.6753 138.761 53.162C138.435 52.6487 137.926 52.392 137.235 52.392ZM143.665 56.074C143.665 56.186 143.66 56.354 143.651 56.578C143.641 56.802 143.627 57.026 143.609 57.25C143.599 57.474 143.59 57.6513 143.581 57.782L147.599 51.496H149.111V59H147.963V54.576C147.963 54.4267 147.963 54.2307 147.963 53.988C147.972 53.7453 147.981 53.5073 147.991 53.274C148 53.0313 148.009 52.8493 148.019 52.728L144.029 59H142.503V51.496H143.665V56.074ZM152.731 51.496V54.618H156.805V51.496H158.037V59H156.805V55.654H152.731V59H151.499V51.496H152.731ZM166.937 55.234C166.937 56.4753 166.619 57.4367 165.985 58.118C165.359 58.7993 164.51 59.14 163.437 59.14C162.774 59.14 162.181 58.9907 161.659 58.692C161.145 58.384 160.739 57.9407 160.441 57.362C160.142 56.774 159.993 56.0647 159.993 55.234C159.993 53.9927 160.305 53.036 160.931 52.364C161.556 51.692 162.405 51.356 163.479 51.356C164.16 51.356 164.757 51.51 165.271 51.818C165.793 52.1167 166.199 52.5553 166.489 53.134C166.787 53.7033 166.937 54.4033 166.937 55.234ZM161.267 55.234C161.267 56.1207 161.439 56.8253 161.785 57.348C162.139 57.8613 162.699 58.118 163.465 58.118C164.221 58.118 164.776 57.8613 165.131 57.348C165.485 56.8253 165.663 56.1207 165.663 55.234C165.663 54.3473 165.485 53.652 165.131 53.148C164.776 52.644 164.216 52.392 163.451 52.392C162.685 52.392 162.13 52.644 161.785 53.148C161.439 53.652 161.267 54.3473 161.267 55.234ZM171.787 51.356C172.431 51.356 172.982 51.496 173.439 51.776C173.906 52.056 174.261 52.4527 174.503 52.966C174.755 53.47 174.881 54.0627 174.881 54.744V55.486H169.743C169.762 56.3353 169.977 56.984 170.387 57.432C170.807 57.8707 171.391 58.09 172.137 58.09C172.613 58.09 173.033 58.048 173.397 57.964C173.771 57.8707 174.153 57.74 174.545 57.572V58.65C174.163 58.818 173.785 58.9393 173.411 59.014C173.038 59.098 172.595 59.14 172.081 59.14C171.372 59.14 170.742 58.9953 170.191 58.706C169.65 58.4167 169.225 57.9873 168.917 57.418C168.619 56.8393 168.469 56.1347 168.469 55.304C168.469 54.4827 168.605 53.778 168.875 53.19C169.155 52.602 169.543 52.1493 170.037 51.832C170.541 51.5147 171.125 51.356 171.787 51.356ZM171.773 52.364C171.185 52.364 170.719 52.5553 170.373 52.938C170.037 53.3113 169.837 53.834 169.771 54.506H173.593C173.584 53.8713 173.435 53.358 173.145 52.966C172.856 52.5647 172.399 52.364 171.773 52.364ZM7.714 71.234C7.714 72.4753 7.39667 73.4367 6.762 74.118C6.13667 74.7993 5.28733 75.14 4.214 75.14C3.55133 75.14 2.95867 74.9907 2.436 74.692C1.92267 74.384 1.51667 73.9407 1.218 73.362C0.919333 72.774 0.77 72.0647 0.77 71.234C0.77 69.9927 1.08267 69.036 1.708 68.364C2.33333 67.692 3.18267 67.356 4.256 67.356C4.93733 67.356 5.53467 67.51 6.048 67.818C6.57067 68.1167 6.97667 68.5553 7.266 69.134C7.56467 69.7033 7.714 70.4033 7.714 71.234ZM2.044 71.234C2.044 72.1207 2.21667 72.8253 2.562 73.348C2.91667 73.8613 3.47667 74.118 4.242 74.118C4.998 74.118 5.55333 73.8613 5.908 73.348C6.26267 72.8253 6.44 72.1207 6.44 71.234C6.44 70.3473 6.26267 69.652 5.908 69.148C5.55333 68.644 4.99333 68.392 4.228 68.392C3.46267 68.392 2.90733 68.644 2.562 69.148C2.21667 69.652 2.044 70.3473 2.044 71.234ZM14.7098 68.532H12.2598V75H11.0418V68.532H8.61984V67.496H14.7098V68.532ZM22.222 69.386C22.222 69.8527 22.082 70.2167 21.802 70.478C21.522 70.7393 21.1627 70.9167 20.724 71.01V71.066C21.1907 71.1313 21.5967 71.2993 21.942 71.57C22.2874 71.8313 22.46 72.242 22.46 72.802C22.46 73.4367 22.222 73.964 21.746 74.384C21.2794 74.7947 20.5047 75 19.422 75H16.188V67.496H19.408C19.94 67.496 20.416 67.5567 20.836 67.678C21.2654 67.79 21.6014 67.986 21.844 68.266C22.096 68.5367 22.222 68.91 22.222 69.386ZM20.976 69.54C20.976 69.1853 20.8454 68.9287 20.584 68.77C20.332 68.602 19.9167 68.518 19.338 68.518H17.42V70.576H19.114C20.3554 70.576 20.976 70.2307 20.976 69.54ZM21.186 72.802C21.186 72.3727 21.0227 72.0647 20.696 71.878C20.3694 71.6913 19.8887 71.598 19.254 71.598H17.42V74.006H19.282C19.898 74.006 20.3694 73.9173 20.696 73.74C21.0227 73.5533 21.186 73.2407 21.186 72.802ZM27.0965 67.37C28.0111 67.37 28.6878 67.5707 29.1265 67.972C29.5651 68.3733 29.7845 69.0127 29.7845 69.89V75H28.8885L28.6505 73.936H28.5945C28.2678 74.3467 27.9225 74.65 27.5585 74.846C27.2038 75.042 26.7091 75.14 26.0745 75.14C25.3931 75.14 24.8285 74.9627 24.3805 74.608C23.9325 74.244 23.7085 73.6793 23.7085 72.914C23.7085 72.1673 24.0025 71.5933 24.5905 71.192C25.1785 70.7813 26.0838 70.5573 27.3065 70.52L28.5805 70.478V70.03C28.5805 69.4047 28.4451 68.9707 28.1745 68.728C27.9038 68.4853 27.5211 68.364 27.0265 68.364C26.6345 68.364 26.2611 68.4247 25.9065 68.546C25.5518 68.658 25.2205 68.7887 24.9125 68.938L24.5345 68.014C24.8611 67.8367 25.2485 67.6873 25.6965 67.566C26.1445 67.4353 26.6111 67.37 27.0965 67.37ZM27.4605 71.374C26.5271 71.4113 25.8785 71.5607 25.5145 71.822C25.1598 72.0833 24.9825 72.452 24.9825 72.928C24.9825 73.348 25.1085 73.656 25.3605 73.852C25.6218 74.048 25.9531 74.146 26.3545 74.146C26.9891 74.146 27.5165 73.9733 27.9365 73.628C28.3565 73.2733 28.5665 72.732 28.5665 72.004V71.332L27.4605 71.374ZM35.6721 67.356C36.5961 67.356 37.3381 67.678 37.8981 68.322C38.4674 68.966 38.7521 69.9367 38.7521 71.234C38.7521 72.5127 38.4674 73.4833 37.8981 74.146C37.3381 74.8087 36.5914 75.14 35.6581 75.14C35.0794 75.14 34.5988 75.0327 34.2161 74.818C33.8428 74.594 33.5488 74.3373 33.3341 74.048H33.2501C33.2688 74.2067 33.2874 74.4073 33.3061 74.65C33.3248 74.8927 33.3341 75.1027 33.3341 75.28V78.36H32.1021V67.496H33.1101L33.2781 68.518H33.3341C33.5581 68.1913 33.8521 67.916 34.2161 67.692C34.5801 67.468 35.0654 67.356 35.6721 67.356ZM35.4481 68.392C34.6828 68.392 34.1414 68.6067 33.8241 69.036C33.5161 69.4653 33.3528 70.1187 33.3341 70.996V71.234C33.3341 72.158 33.4834 72.872 33.7821 73.376C34.0901 73.8707 34.6548 74.118 35.4761 74.118C35.9334 74.118 36.3068 73.992 36.5961 73.74C36.8948 73.488 37.1141 73.1473 37.2541 72.718C37.4034 72.2793 37.4781 71.78 37.4781 71.22C37.4781 70.3613 37.3101 69.6753 36.9741 69.162C36.6474 68.6487 36.1388 68.392 35.4481 68.392ZM41.9474 67.496V70.618H46.0214V67.496H47.2534V75H46.0214V71.654H41.9474V75H40.7154V67.496H41.9474ZM56.1535 71.234C56.1535 72.4753 55.8361 73.4367 55.2015 74.118C54.5761 74.7993 53.7268 75.14 52.6535 75.14C51.9908 75.14 51.3981 74.9907 50.8755 74.692C50.3621 74.384 49.9561 73.9407 49.6575 73.362C49.3588 72.774 49.2095 72.0647 49.2095 71.234C49.2095 69.9927 49.5221 69.036 50.1475 68.364C50.7728 67.692 51.6221 67.356 52.6955 67.356C53.3768 67.356 53.9741 67.51 54.4875 67.818C55.0101 68.1167 55.4161 68.5553 55.7055 69.134C56.0041 69.7033 56.1535 70.4033 56.1535 71.234ZM50.4835 71.234C50.4835 72.1207 50.6561 72.8253 51.0015 73.348C51.3561 73.8613 51.9161 74.118 52.6815 74.118C53.4375 74.118 53.9928 73.8613 54.3475 73.348C54.7021 72.8253 54.8795 72.1207 54.8795 71.234C54.8795 70.3473 54.7021 69.652 54.3475 69.148C53.9928 68.644 53.4328 68.392 52.6675 68.392C51.9021 68.392 51.3468 68.644 51.0015 69.148C50.6561 69.652 50.4835 70.3473 50.4835 71.234ZM61.004 67.356C61.648 67.356 62.1987 67.496 62.656 67.776C63.1227 68.056 63.4773 68.4527 63.72 68.966C63.972 69.47 64.098 70.0627 64.098 70.744V71.486H58.96C58.9787 72.3353 59.1933 72.984 59.604 73.432C60.024 73.8707 60.6073 74.09 61.354 74.09C61.83 74.09 62.25 74.048 62.614 73.964C62.9873 73.8707 63.37 73.74 63.762 73.572V74.65C63.3793 74.818 63.0013 74.9393 62.628 75.014C62.2547 75.098 61.8113 75.14 61.298 75.14C60.5887 75.14 59.9587 74.9953 59.408 74.706C58.8667 74.4167 58.442 73.9873 58.134 73.418C57.8353 72.8393 57.686 72.1347 57.686 71.304C57.686 70.4827 57.8213 69.778 58.092 69.19C58.372 68.602 58.7593 68.1493 59.254 67.832C59.758 67.5147 60.3413 67.356 61.004 67.356ZM60.99 68.364C60.402 68.364 59.9353 68.5553 59.59 68.938C59.254 69.3113 59.0533 69.834 58.988 70.506H62.81C62.8007 69.8713 62.6513 69.358 62.362 68.966C62.0727 68.5647 61.6153 68.364 60.99 68.364ZM65.6584 76.092C65.9477 76.0453 66.1437 75.9427 66.2464 75.784C66.3584 75.6347 66.4144 75.3733 66.4144 75H65.7004V73.67H67.0724V74.79C67.0724 75.3967 66.9604 75.854 66.7364 76.162C66.5124 76.47 66.153 76.624 65.6584 76.624V76.092ZM76.6609 75.14C75.9983 75.14 75.4056 75.0047 74.8829 74.734C74.3696 74.4633 73.9636 74.0433 73.6649 73.474C73.3756 72.9047 73.2309 72.1767 73.2309 71.29C73.2309 70.366 73.3849 69.6147 73.6929 69.036C74.0009 68.4573 74.4163 68.0327 74.9389 67.762C75.4709 67.4913 76.0729 67.356 76.7449 67.356C77.1276 67.356 77.4963 67.398 77.8509 67.482C78.2056 67.5567 78.4949 67.65 78.7189 67.762L78.3409 68.784C78.1169 68.7 77.8556 68.6207 77.5569 68.546C77.2583 68.4713 76.9783 68.434 76.7169 68.434C75.2423 68.434 74.5049 69.3813 74.5049 71.276C74.5049 72.1813 74.6823 72.8767 75.0369 73.362C75.4009 73.838 75.9376 74.076 76.6469 74.076C77.0576 74.076 77.4169 74.034 77.7249 73.95C78.0423 73.866 78.3316 73.7633 78.5929 73.642V74.734C78.3409 74.8647 78.0609 74.9627 77.7529 75.028C77.4543 75.1027 77.0903 75.14 76.6609 75.14ZM86.9015 71.234C86.9015 72.4753 86.5842 73.4367 85.9495 74.118C85.3242 74.7993 84.4748 75.14 83.4015 75.14C82.7388 75.14 82.1462 74.9907 81.6235 74.692C81.1102 74.384 80.7042 73.9407 80.4055 73.362C80.1068 72.774 79.9575 72.0647 79.9575 71.234C79.9575 69.9927 80.2702 69.036 80.8955 68.364C81.5208 67.692 82.3702 67.356 83.4435 67.356C84.1248 67.356 84.7222 67.51 85.2355 67.818C85.7582 68.1167 86.1642 68.5553 86.4535 69.134C86.7522 69.7033 86.9015 70.4033 86.9015 71.234ZM81.2315 71.234C81.2315 72.1207 81.4042 72.8253 81.7495 73.348C82.1042 73.8613 82.6642 74.118 83.4295 74.118C84.1855 74.118 84.7408 73.8613 85.0955 73.348C85.4502 72.8253 85.6275 72.1207 85.6275 71.234C85.6275 70.3473 85.4502 69.652 85.0955 69.148C84.7408 68.644 84.1808 68.392 83.4155 68.392C82.6502 68.392 82.0948 68.644 81.7495 69.148C81.4042 69.652 81.2315 70.3473 81.2315 71.234ZM87.5413 67.496H88.8573L90.4813 71.766C90.6213 72.1393 90.7473 72.4987 90.8593 72.844C90.9713 73.18 91.0553 73.502 91.1113 73.81H91.1673C91.2233 73.5767 91.312 73.2733 91.4333 72.9C91.5547 72.5173 91.6807 72.1347 91.8113 71.752L93.3373 67.496H94.6673L91.4333 76.036C91.172 76.7453 90.8313 77.31 90.4113 77.73C90.0007 78.15 89.4313 78.36 88.7033 78.36C88.4793 78.36 88.2833 78.346 88.1153 78.318C87.9473 78.2993 87.8027 78.276 87.6813 78.248V77.268C87.784 77.2867 87.9053 77.3053 88.0453 77.324C88.1947 77.3427 88.3487 77.352 88.5073 77.352C88.9367 77.352 89.282 77.2307 89.5433 76.988C89.814 76.7453 90.024 76.4233 90.1733 76.022L90.5653 75.028L87.5413 67.496ZM98.8641 75.14C98.2014 75.14 97.6087 75.0047 97.0861 74.734C96.5727 74.4633 96.1667 74.0433 95.8681 73.474C95.5787 72.9047 95.4341 72.1767 95.4341 71.29C95.4341 70.366 95.5881 69.6147 95.8961 69.036C96.2041 68.4573 96.6194 68.0327 97.1421 67.762C97.6741 67.4913 98.2761 67.356 98.9481 67.356C99.3307 67.356 99.6994 67.398 100.054 67.482C100.409 67.5567 100.698 67.65 100.922 67.762L100.544 68.784C100.32 68.7 100.059 68.6207 99.7601 68.546C99.4614 68.4713 99.1814 68.434 98.9201 68.434C97.4454 68.434 96.7081 69.3813 96.7081 71.276C96.7081 72.1813 96.8854 72.8767 97.2401 73.362C97.6041 73.838 98.1407 74.076 98.8501 74.076C99.2607 74.076 99.6201 74.034 99.9281 73.95C100.245 73.866 100.535 73.7633 100.796 73.642V74.734C100.544 74.8647 100.264 74.9627 99.9561 75.028C99.6574 75.1027 99.2934 75.14 98.8641 75.14ZM106.412 66.18H107.546L107.322 69.12H106.692L106.412 66.18ZM108.092 66.18H109.226L109.002 69.12H108.372L108.092 66.18ZM113.981 65.004C115.287 65.004 116.239 65.2607 116.837 65.774C117.434 66.2873 117.733 67.0107 117.733 67.944C117.733 68.4947 117.607 69.0127 117.355 69.498C117.112 69.974 116.697 70.3613 116.109 70.66C115.53 70.9587 114.741 71.108 113.743 71.108H112.595V75H111.335V65.004H113.981ZM113.869 66.082H112.595V70.03H113.603C114.555 70.03 115.264 69.876 115.731 69.568C116.197 69.26 116.431 68.7373 116.431 68C116.431 67.356 116.225 66.8753 115.815 66.558C115.404 66.2407 114.755 66.082 113.869 66.082ZM122.485 67.37C123.4 67.37 124.076 67.5707 124.515 67.972C124.954 68.3733 125.173 69.0127 125.173 69.89V75H124.277L124.039 73.936H123.983C123.656 74.3467 123.311 74.65 122.947 74.846C122.592 75.042 122.098 75.14 121.463 75.14C120.782 75.14 120.217 74.9627 119.769 74.608C119.321 74.244 119.097 73.6793 119.097 72.914C119.097 72.1673 119.391 71.5933 119.979 71.192C120.567 70.7813 121.472 70.5573 122.695 70.52L123.969 70.478V70.03C123.969 69.4047 123.834 68.9707 123.563 68.728C123.292 68.4853 122.91 68.364 122.415 68.364C122.023 68.364 121.65 68.4247 121.295 68.546C120.94 68.658 120.609 68.7887 120.301 68.938L119.923 68.014C120.25 67.8367 120.637 67.6873 121.085 67.566C121.533 67.4353 122 67.37 122.485 67.37ZM122.849 71.374C121.916 71.4113 121.267 71.5607 120.903 71.822C120.548 72.0833 120.371 72.452 120.371 72.928C120.371 73.348 120.497 73.656 120.749 73.852C121.01 74.048 121.342 74.146 121.743 74.146C122.378 74.146 122.905 73.9733 123.325 73.628C123.745 73.2733 123.955 72.732 123.955 72.004V71.332L122.849 71.374ZM128.723 67.496V70.618H132.797V67.496H134.029V75H132.797V71.654H128.723V75H127.491V67.496H128.723ZM137.483 70.226C137.483 71.0847 137.964 71.514 138.925 71.514C139.392 71.514 139.816 71.444 140.199 71.304C140.582 71.1547 140.974 70.9587 141.375 70.716V67.496H142.607V75H141.375V71.654C140.955 71.9247 140.54 72.1393 140.129 72.298C139.728 72.4473 139.242 72.522 138.673 72.522C137.908 72.522 137.31 72.3213 136.881 71.92C136.461 71.5187 136.251 70.982 136.251 70.31V67.496H137.483V70.226ZM144.557 66.18H145.691L145.467 69.12H144.837L144.557 66.18ZM146.237 66.18H147.371L147.147 69.12H146.517L146.237 66.18ZM148.961 76.092C149.25 76.0453 149.446 75.9427 149.549 75.784C149.661 75.6347 149.717 75.3733 149.717 75H149.003V73.67H150.375V74.79C150.375 75.3967 150.263 75.854 150.039 76.162C149.815 76.47 149.456 76.624 148.961 76.624V76.092ZM9.24 83.496V91H8.134V86.212C8.134 86.016 8.13867 85.8107 8.148 85.596C8.16667 85.3813 8.18533 85.1713 8.204 84.966H8.162L5.712 91H4.676L2.296 84.966H2.254C2.282 85.386 2.296 85.8153 2.296 86.254V91H1.19V83.496H2.828L5.194 89.53L7.602 83.496H9.24ZM14.4773 83.37C15.392 83.37 16.0686 83.5707 16.5073 83.972C16.946 84.3733 17.1653 85.0127 17.1653 85.89V91H16.2693L16.0313 89.936H15.9753C15.6486 90.3467 15.3033 90.65 14.9393 90.846C14.5846 91.042 14.09 91.14 13.4553 91.14C12.774 91.14 12.2093 90.9627 11.7613 90.608C11.3133 90.244 11.0893 89.6793 11.0893 88.914C11.0893 88.1673 11.3833 87.5933 11.9713 87.192C12.5593 86.7813 13.4646 86.5573 14.6873 86.52L15.9613 86.478V86.03C15.9613 85.4047 15.826 84.9707 15.5553 84.728C15.2846 84.4853 14.902 84.364 14.4073 84.364C14.0153 84.364 13.642 84.4247 13.2873 84.546C12.9326 84.658 12.6013 84.7887 12.2933 84.938L11.9153 84.014C12.242 83.8367 12.6293 83.6873 13.0773 83.566C13.5253 83.4353 13.992 83.37 14.4773 83.37ZM14.8413 87.374C13.908 87.4113 13.2593 87.5607 12.8953 87.822C12.5406 88.0833 12.3633 88.452 12.3633 88.928C12.3633 89.348 12.4893 89.656 12.7413 89.852C13.0026 90.048 13.334 90.146 13.7353 90.146C14.37 90.146 14.8973 89.9733 15.3173 89.628C15.7373 89.2733 15.9473 88.732 15.9473 88.004V87.332L14.8413 87.374ZM22.493 91.14C21.8303 91.14 21.2376 91.0047 20.715 90.734C20.2016 90.4633 19.7956 90.0433 19.497 89.474C19.2076 88.9047 19.063 88.1767 19.063 87.29C19.063 86.366 19.217 85.6147 19.525 85.036C19.833 84.4573 20.2483 84.0327 20.771 83.762C21.303 83.4913 21.905 83.356 22.577 83.356C22.9596 83.356 23.3283 83.398 23.683 83.482C24.0376 83.5567 24.327 83.65 24.551 83.762L24.173 84.784C23.949 84.7 23.6876 84.6207 23.389 84.546C23.0903 84.4713 22.8103 84.434 22.549 84.434C21.0743 84.434 20.337 85.3813 20.337 87.276C20.337 88.1813 20.5143 88.8767 20.869 89.362C21.233 89.838 21.7696 90.076 22.479 90.076C22.8896 90.076 23.249 90.034 23.557 89.95C23.8743 89.866 24.1636 89.7633 24.425 89.642V90.734C24.173 90.8647 23.893 90.9627 23.585 91.028C23.2863 91.1027 22.9223 91.14 22.493 91.14ZM31.9215 91H30.6755V84.518H28.4635C28.3422 86.0953 28.1742 87.3693 27.9595 88.34C27.7449 89.3013 27.4602 90.0013 27.1055 90.44C26.7509 90.8787 26.3029 91.098 25.7615 91.098C25.6402 91.098 25.5189 91.0887 25.3975 91.07C25.2855 91.0607 25.1922 91.0373 25.1175 91V90.076C25.1735 90.0947 25.2342 90.1087 25.2995 90.118C25.3649 90.1273 25.4302 90.132 25.4955 90.132C25.9995 90.132 26.4009 89.5953 26.6995 88.522C27.0075 87.4487 27.2409 85.7733 27.3995 83.496H31.9215V91ZM35.4653 88.074C35.4653 88.186 35.4606 88.354 35.4513 88.578C35.4419 88.802 35.4279 89.026 35.4093 89.25C35.3999 89.474 35.3906 89.6513 35.3813 89.782L39.3993 83.496H40.9113V91H39.7633V86.576C39.7633 86.4267 39.7633 86.2307 39.7633 85.988C39.7726 85.7453 39.7819 85.5073 39.7913 85.274C39.8006 85.0313 39.8099 84.8493 39.8193 84.728L35.8293 91H34.3033V83.496H35.4653V88.074ZM44.5314 83.496V86.618H48.6054V83.496H49.8374V91H48.6054V87.654H44.5314V91H43.2994V83.496H44.5314ZM52.2134 91V83.496H53.4454V86.576H55.3914C56.3621 86.576 57.0808 86.7533 57.5474 87.108C58.0141 87.4627 58.2474 87.9947 58.2474 88.704C58.2474 89.404 58.0188 89.964 57.5614 90.384C57.1041 90.7947 56.3621 91 55.3354 91H52.2134ZM59.4934 91V83.496H60.7254V91H59.4934ZM55.2234 90.006C55.7554 90.006 56.1894 89.9173 56.5254 89.74C56.8614 89.5533 57.0294 89.2313 57.0294 88.774C57.0294 88.3167 56.8754 88.0087 56.5674 87.85C56.2594 87.682 55.8161 87.598 55.2374 87.598H53.4454V90.006H55.2234Z" fill="#D7CCCC"/>
</svg>
