<svg width="170" height="81" viewBox="0 0 170 81" fill="none" xmlns="http://www.w3.org/2000/svg">
<path d="M6.17317 2.11986C4.99879 2.11986 4.0746 2.51303 3.40061 3.29935C2.72661 4.08568 2.38961 5.16305 2.38961 6.53146C2.38961 7.88966 2.70108 8.96703 3.32401 9.76357C3.95716 10.5499 4.90177 10.9431 6.15785 10.9431C6.63782 10.9431 7.09225 10.9022 7.52116 10.8205C7.95006 10.7388 8.36876 10.6367 8.77724 10.5141V11.709C8.36876 11.8621 7.94496 11.9745 7.50584 12.046C7.07694 12.1174 6.56123 12.1532 5.95872 12.1532C4.84561 12.1532 3.91631 11.9234 3.17083 11.4639C2.42536 11.0043 1.8637 10.3508 1.48585 9.50316C1.11822 8.65556 0.934401 7.65989 0.934401 6.51614C0.934401 5.41324 1.13354 4.4431 1.5318 3.60571C1.94029 2.75811 2.53769 2.09944 3.32401 1.62969C4.11034 1.14972 5.06517 0.909738 6.18849 0.909738C7.34245 0.909738 8.34833 1.12419 9.20614 1.5531L8.65469 2.71727C8.3177 2.56409 7.93985 2.42622 7.52116 2.30368C7.11268 2.18114 6.66335 2.11986 6.17317 2.11986ZM18.1187 7.87945C18.1187 9.23765 17.7715 10.2895 17.0771 11.035C16.3929 11.7804 15.4636 12.1532 14.2892 12.1532C13.5642 12.1532 12.9157 11.9898 12.3438 11.663C11.7822 11.326 11.3379 10.8409 11.0112 10.2078C10.6844 9.56443 10.521 8.78832 10.521 7.87945C10.521 6.52125 10.8631 5.47451 11.5473 4.73925C12.2315 4.00398 13.1608 3.63635 14.3352 3.63635C15.0807 3.63635 15.7342 3.80485 16.2959 4.14184C16.8678 4.46863 17.312 4.94859 17.6286 5.58174C17.9553 6.20467 18.1187 6.97058 18.1187 7.87945ZM11.9149 7.87945C11.9149 8.84959 12.1038 9.6206 12.4817 10.1925C12.8697 10.7541 13.4825 11.035 14.3199 11.035C15.147 11.035 15.7546 10.7541 16.1427 10.1925C16.5308 9.6206 16.7248 8.84959 16.7248 7.87945C16.7248 6.9093 16.5308 6.14851 16.1427 5.59706C15.7546 5.04561 15.1419 4.76988 14.3045 4.76988C13.4672 4.76988 12.8595 5.04561 12.4817 5.59706C12.1038 6.14851 11.9149 6.9093 11.9149 7.87945ZM23.5485 12.1532C22.8234 12.1532 22.175 12.0051 21.6031 11.709C21.0414 11.4128 20.5972 10.9533 20.2704 10.3303C19.9539 9.7074 19.7956 8.91086 19.7956 7.94072C19.7956 6.92973 19.9641 6.10766 20.3011 5.47451C20.6381 4.84137 21.0925 4.37672 21.6644 4.08057C22.2465 3.78442 22.9051 3.63635 23.6404 3.63635C24.0591 3.63635 24.4625 3.6823 24.8505 3.77421C25.2386 3.85591 25.5552 3.95803 25.8002 4.08057L25.3867 5.19879C25.1416 5.10688 24.8556 5.02008 24.5289 4.93838C24.2021 4.85669 23.8957 4.81584 23.6098 4.81584C21.9963 4.81584 21.1895 5.85236 21.1895 7.9254C21.1895 8.91597 21.3835 9.67676 21.7716 10.2078C22.1699 10.7286 22.7571 10.989 23.5332 10.989C23.9825 10.989 24.3757 10.9431 24.7127 10.8511C25.0599 10.7592 25.3764 10.6469 25.6624 10.5141V11.709C25.3867 11.8519 25.0803 11.9592 24.7433 12.0306C24.4165 12.1123 24.0182 12.1532 23.5485 12.1532ZM33.2826 4.92306H30.602V12H29.2693V4.92306H26.6193V3.78953H33.2826V4.92306ZM38.0096 3.65167C39.0103 3.65167 39.7507 3.87123 40.2307 4.31034C40.7106 4.74946 40.9506 5.44898 40.9506 6.40891V12H39.9703L39.7099 10.8358H39.6486C39.2912 11.2852 38.9133 11.617 38.5151 11.8315C38.127 12.046 37.5858 12.1532 36.8913 12.1532C36.1459 12.1532 35.528 11.9592 35.0379 11.5711C34.5477 11.1728 34.3026 10.555 34.3026 9.71761C34.3026 8.90065 34.6243 8.27261 35.2676 7.83349C35.911 7.38416 36.9016 7.13907 38.2393 7.09823L39.6333 7.05227V6.5621C39.6333 5.87789 39.4852 5.40303 39.1891 5.13752C38.8929 4.872 38.4742 4.73925 37.933 4.73925C37.5041 4.73925 37.0956 4.80563 36.7075 4.93838C36.3195 5.06093 35.9569 5.2039 35.62 5.36729L35.2064 4.3563C35.5638 4.16227 35.9876 3.99888 36.4778 3.86612C36.9679 3.72315 37.4785 3.65167 38.0096 3.65167ZM38.4078 8.03263C37.3866 8.07348 36.6769 8.23687 36.2786 8.5228C35.8906 8.80874 35.6965 9.21212 35.6965 9.73293C35.6965 10.1925 35.8344 10.5295 36.1101 10.7439C36.3961 10.9584 36.7586 11.0656 37.1977 11.0656C37.8921 11.0656 38.4691 10.8767 38.9286 10.4988C39.3882 10.1108 39.618 9.51848 39.618 8.72194V7.98667L38.4078 8.03263ZM50.0886 5.85747C50.0886 6.36807 49.9354 6.76634 49.629 7.05227C49.3227 7.33821 48.9295 7.53224 48.4495 7.63436V7.69563C48.9601 7.76711 49.4044 7.95093 49.7822 8.24708C50.16 8.53302 50.349 8.98235 50.349 9.59507C50.349 10.2895 50.0886 10.8665 49.5677 11.326C49.0571 11.7753 48.2095 12 47.0249 12H43.4865V3.78953H47.0096C47.5917 3.78953 48.1125 3.85591 48.5721 3.98866C49.0418 4.11121 49.4095 4.32566 49.675 4.63202C49.9507 4.92817 50.0886 5.33665 50.0886 5.85747ZM48.7253 6.02596C48.7253 5.63791 48.5823 5.35708 48.2963 5.18347C48.0206 4.99965 47.5662 4.90775 46.933 4.90775H44.8345V7.1595H46.688C48.0462 7.1595 48.7253 6.78165 48.7253 6.02596ZM48.955 9.59507C48.955 9.12531 48.7763 8.78832 48.4189 8.58408C48.0615 8.37984 47.5356 8.27772 46.8411 8.27772H44.8345V10.9124H46.8718C47.5458 10.9124 48.0615 10.8154 48.4189 10.6214C48.7763 10.4171 48.955 10.075 48.955 9.59507ZM51.9294 10.5601H53.3693V12H51.9294V10.5601ZM51.9294 5.98001H53.3693V7.41991H51.9294V5.98001ZM65.4255 3.78953H66.896L63.3882 7.74158L67.1871 12H65.6246L61.9177 7.83349V12H60.5697V3.78953H61.9177V7.77222L65.4255 3.78953ZM75.5165 7.87945C75.5165 9.23765 75.1693 10.2895 74.4749 11.035C73.7907 11.7804 72.8614 12.1532 71.687 12.1532C70.9619 12.1532 70.3135 11.9898 69.7416 11.663C69.1799 11.326 68.7357 10.8409 68.4089 10.2078C68.0821 9.56443 67.9188 8.78832 67.9188 7.87945C67.9188 6.52125 68.2609 5.47451 68.9451 4.73925C69.6293 4.00398 70.5586 3.63635 71.7329 3.63635C72.4784 3.63635 73.132 3.80485 73.6937 4.14184C74.2655 4.46863 74.7098 4.94859 75.0263 5.58174C75.3531 6.20467 75.5165 6.97058 75.5165 7.87945ZM69.3127 7.87945C69.3127 8.84959 69.5016 9.6206 69.8795 10.1925C70.2675 10.7541 70.8802 11.035 71.7176 11.035C72.5448 11.035 73.1524 10.7541 73.5405 10.1925C73.9285 9.6206 74.1226 8.84959 74.1226 7.87945C74.1226 6.9093 73.9285 6.14851 73.5405 5.59706C73.1524 5.04561 72.5397 4.76988 71.7023 4.76988C70.8649 4.76988 70.2573 5.04561 69.8795 5.59706C69.5016 6.14851 69.3127 6.9093 69.3127 7.87945ZM84.592 3.78953V12H83.244V4.93838H79.0009V12H77.6529V3.78953H84.592ZM88.3912 6.77655C88.3912 7.71605 88.9171 8.18581 89.969 8.18581C90.4796 8.18581 90.9442 8.10922 91.3629 7.95604C91.7816 7.79264 92.2105 7.57819 92.6496 7.31268V3.78953H93.9976V12H92.6496V8.33899C92.1901 8.63514 91.7356 8.87001 91.2863 9.04362C90.8472 9.20701 90.3162 9.28871 89.6932 9.28871C88.8558 9.28871 88.2023 9.06915 87.7325 8.63003C87.273 8.19091 87.0432 7.60372 87.0432 6.86846V3.78953H88.3912V6.77655ZM99.7768 3.63635C100.481 3.63635 101.084 3.78953 101.584 4.09589C102.095 4.40225 102.483 4.83626 102.749 5.39792C103.024 5.94937 103.162 6.59784 103.162 7.34332V8.15517H97.5404C97.5608 9.08447 97.7957 9.7942 98.245 10.2844C98.7046 10.7643 99.3428 11.0043 100.16 11.0043C100.681 11.0043 101.14 10.9584 101.538 10.8665C101.947 10.7643 102.366 10.6214 102.794 10.4376V11.617C102.376 11.8009 101.962 11.9336 101.554 12.0153C101.145 12.1072 100.66 12.1532 100.098 12.1532C99.3224 12.1532 98.6331 11.9949 98.0306 11.6783C97.4383 11.3617 96.9736 10.892 96.6366 10.2691C96.3098 9.63592 96.1464 8.86491 96.1464 7.95604C96.1464 7.05738 96.2945 6.28637 96.5907 5.64301C96.897 4.99966 97.3208 4.50437 97.8621 4.15716C98.4135 3.80995 99.0518 3.63635 99.7768 3.63635ZM99.7615 4.73925C99.1181 4.73925 98.6075 4.94859 98.2297 5.36729C97.8621 5.77577 97.6425 6.34764 97.571 7.08291H101.753C101.743 6.38849 101.579 5.82683 101.263 5.39792C100.946 4.95881 100.446 4.73925 99.7615 4.73925ZM106.6 3.78953V7.20545H111.058V3.78953H112.406V12H111.058V8.33899H106.6V12H105.252V3.78953H106.6ZM118.115 3.65167C119.116 3.65167 119.856 3.87123 120.336 4.31034C120.816 4.74946 121.056 5.44898 121.056 6.40891V12H120.076L119.815 10.8358H119.754C119.397 11.2852 119.019 11.617 118.621 11.8315C118.233 12.046 117.691 12.1532 116.997 12.1532C116.251 12.1532 115.634 11.9592 115.143 11.5711C114.653 11.1728 114.408 10.555 114.408 9.71761C114.408 8.90065 114.73 8.27261 115.373 7.83349C116.017 7.38416 117.007 7.13907 118.345 7.09823L119.739 7.05227V6.5621C119.739 5.87789 119.591 5.40303 119.295 5.13752C118.998 4.872 118.58 4.73925 118.039 4.73925C117.61 4.73925 117.201 4.80563 116.813 4.93838C116.425 5.06093 116.063 5.2039 115.726 5.36729L115.312 4.3563C115.669 4.16227 116.093 3.99888 116.583 3.86612C117.074 3.72315 117.584 3.65167 118.115 3.65167ZM118.513 8.03263C117.492 8.07348 116.782 8.23687 116.384 8.5228C115.996 8.80874 115.802 9.21212 115.802 9.73293C115.802 10.1925 115.94 10.5295 116.216 10.7439C116.502 10.9584 116.864 11.0656 117.303 11.0656C117.998 11.0656 118.575 10.8767 119.034 10.4988C119.494 10.1108 119.724 9.51848 119.724 8.72194V7.98667L118.513 8.03263ZM124.098 12H122.535L124.879 8.55344C124.562 8.47174 124.256 8.34409 123.96 8.17049C123.664 7.98667 123.424 7.73648 123.24 7.41991C123.056 7.09312 122.964 6.68975 122.964 6.20978C122.964 5.42345 123.23 4.82605 123.761 4.41757C124.292 3.99888 124.996 3.78953 125.874 3.78953H129.551V12H128.203V8.73726H126.211L124.098 12ZM124.266 6.2251C124.266 6.69485 124.44 7.04717 124.787 7.28204C125.144 7.50671 125.64 7.61904 126.273 7.61904H128.203V4.90775H126.012C125.389 4.90775 124.94 5.03029 124.664 5.27538C124.399 5.52047 124.266 5.83704 124.266 6.2251ZM6.15785 20.7895H7.62838L4.12055 24.7416L7.91943 29H6.35699L2.65002 24.8335V29H1.30203V20.7895H2.65002V24.7722L6.15785 20.7895ZM8.12311 20.7895H9.563L11.3399 25.4615C11.4931 25.87 11.6309 26.2632 11.7535 26.641C11.876 27.0087 11.9679 27.361 12.0292 27.698H12.0905C12.1518 27.4427 12.2488 27.1108 12.3815 26.7023C12.5143 26.2836 12.6521 25.8649 12.7951 25.4462L14.4648 20.7895H15.92L12.3815 30.1335C12.0956 30.9096 11.7228 31.5275 11.2633 31.987C10.814 32.4466 10.191 32.6763 9.39451 32.6763C9.14942 32.6763 8.93497 32.661 8.75115 32.6304C8.56733 32.61 8.40905 32.5844 8.27629 32.5538V31.4815C8.38862 31.5019 8.52138 31.5224 8.67456 31.5428C8.83795 31.5632 9.00645 31.5734 9.18005 31.5734C9.64981 31.5734 10.0277 31.4407 10.3136 31.1752C10.6097 30.9096 10.8395 30.5573 11.0029 30.1182L11.4318 29.0306L8.12311 20.7895ZM21.1245 20.6363C22.1355 20.6363 22.9474 20.9887 23.5601 21.6933C24.183 22.3979 24.4945 23.46 24.4945 24.8794C24.4945 26.2785 24.183 27.3405 23.5601 28.0656C22.9474 28.7907 22.1304 29.1532 21.1092 29.1532C20.4761 29.1532 19.9502 29.0357 19.5315 28.8009C19.123 28.5558 18.8013 28.2749 18.5664 27.9584H18.4745C18.4949 28.132 18.5154 28.3515 18.5358 28.617C18.5562 28.8826 18.5664 29.1123 18.5664 29.3064V32.6763H17.2184V20.7895H18.3213L18.5052 21.9077H18.5664C18.8115 21.5503 19.1332 21.2491 19.5315 21.004C19.9297 20.7589 20.4608 20.6363 21.1245 20.6363ZM20.8794 21.7699C20.0421 21.7699 19.4498 22.0048 19.1026 22.4745C18.7656 22.9443 18.5868 23.6591 18.5664 24.619V24.8794C18.5664 25.8904 18.7298 26.6717 19.0566 27.2231C19.3936 27.7643 20.0114 28.035 20.9101 28.035C21.4105 28.035 21.819 27.8971 22.1355 27.6214C22.4623 27.3457 22.7023 26.9729 22.8555 26.5032C23.0189 26.0232 23.1006 25.4769 23.1006 24.8641C23.1006 23.9246 22.9167 23.174 22.5491 22.6124C22.1917 22.0507 21.6351 21.7699 20.8794 21.7699ZM27.914 25.7985C27.914 25.9211 27.9089 26.1049 27.8987 26.35C27.8885 26.5951 27.8732 26.8402 27.8527 27.0852C27.8425 27.3303 27.8323 27.5244 27.8221 27.6673L32.2184 20.7895H33.8727V29H32.6167V24.1595C32.6167 23.9961 32.6167 23.7817 32.6167 23.5161C32.6269 23.2506 32.6371 22.9902 32.6473 22.7349C32.6575 22.4694 32.6677 22.2703 32.6779 22.1375L28.3123 29H26.6426V20.7895H27.914V25.7985ZM37.8336 20.7895V24.2055H42.2912V20.7895H43.6392V29H42.2912V25.339H37.8336V29H36.4857V20.7895H37.8336ZM49.3485 20.6517C50.3493 20.6517 51.0897 20.8712 51.5696 21.3103C52.0496 21.7495 52.2896 22.449 52.2896 23.4089V29H51.3092L51.0488 27.8358H50.9875C50.6301 28.2852 50.2523 28.617 49.854 28.8315C49.4659 29.046 48.9247 29.1532 48.2303 29.1532C47.4848 29.1532 46.867 28.9592 46.3768 28.5711C45.8866 28.1728 45.6415 27.555 45.6415 26.7176C45.6415 25.9006 45.9632 25.2726 46.6066 24.8335C47.2499 24.3842 48.2405 24.1391 49.5783 24.0982L50.9722 24.0523V23.5621C50.9722 22.8779 50.8241 22.403 50.528 22.1375C50.2318 21.872 49.8132 21.7392 49.2719 21.7392C48.843 21.7392 48.4345 21.8056 48.0465 21.9384C47.6584 22.0609 47.2959 22.2039 46.9589 22.3673L46.5453 21.3563C46.9027 21.1623 47.3265 20.9989 47.8167 20.8661C48.3069 20.7232 48.8175 20.6517 49.3485 20.6517ZM49.7468 25.0326C48.7256 25.0735 48.0158 25.2369 47.6176 25.5228C47.2295 25.8087 47.0355 26.2121 47.0355 26.7329C47.0355 27.1925 47.1733 27.5295 47.4491 27.7439C47.735 27.9584 48.0975 28.0656 48.5366 28.0656C49.2311 28.0656 49.808 27.8767 50.2676 27.4988C50.7271 27.1108 50.9569 26.5185 50.9569 25.7219V24.9867L49.7468 25.0326ZM55.3309 29H53.7685L56.1121 25.5534C55.7956 25.4717 55.4892 25.3441 55.1931 25.1705C54.8969 24.9867 54.6569 24.7365 54.4731 24.4199C54.2893 24.0931 54.1974 23.6897 54.1974 23.2098C54.1974 22.4235 54.4629 21.8261 54.9939 21.4176C55.5249 20.9989 56.2296 20.7895 57.1078 20.7895H60.7841V29H59.4362V25.7373H57.4448L55.3309 29ZM55.4994 23.2251C55.4994 23.6949 55.673 24.0472 56.0202 24.282C56.3776 24.5067 56.8729 24.619 57.5061 24.619H59.4362V21.9077H57.2457C56.6227 21.9077 56.1734 22.0303 55.8977 22.2754C55.6322 22.5205 55.4994 22.837 55.4994 23.2251ZM73.0582 20.7895V21.9231H69.3972V29H68.0492V20.7895H73.0582ZM78.5821 20.6363C79.5931 20.6363 80.405 20.9887 81.0177 21.6933C81.6407 22.3979 81.9521 23.46 81.9521 24.8794C81.9521 26.2785 81.6407 27.3405 81.0177 28.0656C80.405 28.7907 79.588 29.1532 78.5668 29.1532C77.9337 29.1532 77.4078 29.0357 76.9891 28.8009C76.5806 28.5558 76.2589 28.2749 76.024 27.9584H75.9321C75.9526 28.132 75.973 28.3515 75.9934 28.617C76.0138 28.8826 76.024 29.1123 76.024 29.3064V32.6763H74.676V20.7895H75.7789L75.9628 21.9077H76.024C76.2691 21.5503 76.5908 21.2491 76.9891 21.004C77.3873 20.7589 77.9184 20.6363 78.5821 20.6363ZM78.3371 21.7699C77.4997 21.7699 76.9074 22.0048 76.5602 22.4745C76.2232 22.9443 76.0445 23.6591 76.024 24.619V24.8794C76.024 25.8904 76.1874 26.6717 76.5142 27.2231C76.8512 27.7643 77.469 28.035 78.3677 28.035C78.8681 28.035 79.2766 27.8971 79.5931 27.6214C79.9199 27.3457 80.1599 26.9729 80.3131 26.5032C80.4765 26.0232 80.5582 25.4769 80.5582 24.8641C80.5582 23.9246 80.3744 23.174 80.0067 22.6124C79.6493 22.0507 79.0928 21.7699 78.3371 21.7699ZM82.6639 20.7895H84.1038L85.8807 25.4615C86.0339 25.87 86.1718 26.2632 86.2943 26.641C86.4168 27.0087 86.5088 27.361 86.57 27.698H86.6313C86.6926 27.4427 86.7896 27.1108 86.9223 26.7023C87.0551 26.2836 87.193 25.8649 87.3359 25.4462L89.0056 20.7895H90.4608L86.9223 30.1335C86.6364 30.9096 86.2637 31.5275 85.8041 31.987C85.3548 32.4466 84.7319 32.6763 83.9353 32.6763C83.6902 32.6763 83.4758 32.661 83.292 32.6304C83.1081 32.61 82.9499 32.5844 82.8171 32.5538V31.4815C82.9294 31.5019 83.0622 31.5224 83.2154 31.5428C83.3788 31.5632 83.5473 31.5734 83.7209 31.5734C84.1906 31.5734 84.5685 31.4407 84.8544 31.1752C85.1506 30.9096 85.3803 30.5573 85.5437 30.1182L85.9726 29.0306L82.6639 20.7895ZM97.5566 20.7895V27.8665H98.7515V31.8492H97.4494V29H91.7358V31.8492H90.4491V27.8665H91.1078C91.8124 26.8963 92.3383 25.7934 92.6855 24.5578C93.0429 23.3119 93.2267 22.0558 93.237 20.7895H97.5566ZM94.4318 21.8465C94.3909 22.5409 94.2837 23.2608 94.1101 24.0063C93.9365 24.7416 93.7118 25.4462 93.4361 26.1202C93.1706 26.7942 92.8591 27.3763 92.5017 27.8665H96.2546V21.8465H94.4318ZM105.217 20.7895H106.687L103.179 24.7416L106.978 29H105.416L101.709 24.8335V29H100.361V20.7895H101.709V24.7722L105.217 20.7895ZM111.578 20.6517C112.579 20.6517 113.319 20.8712 113.799 21.3103C114.279 21.7495 114.519 22.449 114.519 23.4089V29H113.539L113.278 27.8358H113.217C112.86 28.2852 112.482 28.617 112.084 28.8315C111.695 29.046 111.154 29.1532 110.46 29.1532C109.714 29.1532 109.097 28.9592 108.606 28.5711C108.116 28.1728 107.871 27.555 107.871 26.7176C107.871 25.9006 108.193 25.2726 108.836 24.8335C109.479 24.3842 110.47 24.1391 111.808 24.0982L113.202 24.0523V23.5621C113.202 22.8779 113.054 22.403 112.758 22.1375C112.461 21.872 112.043 21.7392 111.501 21.7392C111.073 21.7392 110.664 21.8056 110.276 21.9384C109.888 22.0609 109.525 22.2039 109.188 22.3673L108.775 21.3563C109.132 21.1623 109.556 20.9989 110.046 20.8661C110.536 20.7232 111.047 20.6517 111.578 20.6517ZM111.976 25.0326C110.955 25.0735 110.245 25.2369 109.847 25.5228C109.459 25.8087 109.265 26.2121 109.265 26.7329C109.265 27.1925 109.403 27.5295 109.679 27.7439C109.965 27.9584 110.327 28.0656 110.766 28.0656C111.461 28.0656 112.038 27.8767 112.497 27.4988C112.957 27.1108 113.186 26.5185 113.186 25.7219V24.9867L111.976 25.0326ZM116.672 30.1948C116.989 30.1437 117.203 30.0314 117.315 29.8578C117.438 29.6944 117.499 29.4085 117.499 29H116.718V27.5448H118.219V28.7702C118.219 29.434 118.097 29.9344 117.852 30.2714C117.606 30.6084 117.213 30.7769 116.672 30.7769V30.1948ZM1.80753 46H0.245089L2.58875 42.5534C2.27218 42.4717 1.96582 42.3441 1.66967 42.1705C1.37352 41.9867 1.13354 41.7365 0.949719 41.4199C0.765902 41.0931 0.673994 40.6897 0.673994 40.2098C0.673994 39.4235 0.939507 38.8261 1.47053 38.4176C2.00156 37.9989 2.70619 37.7895 3.58442 37.7895H7.26075V46H5.91276V42.7373H3.92142L1.80753 46ZM1.97603 40.2251C1.97603 40.6949 2.14963 41.0472 2.49684 41.282C2.85426 41.5067 3.34955 41.619 3.98269 41.619H5.91276V38.9077H3.72228C3.09935 38.9077 2.65002 39.0303 2.3743 39.2754C2.10878 39.5205 1.97603 39.837 1.97603 40.2251ZM16.7977 37.7895V46H15.4497V38.9384H11.2066V46H9.85859V37.7895H16.7977ZM26.5556 41.8794C26.5556 43.2376 26.2084 44.2895 25.514 45.035C24.8298 45.7804 23.9005 46.1532 22.7261 46.1532C22.0011 46.1532 21.3526 45.9898 20.7807 45.663C20.2191 45.326 19.7748 44.8409 19.448 44.2078C19.1213 43.5644 18.9579 42.7883 18.9579 41.8794C18.9579 40.5212 19.3 39.4745 19.9842 38.7392C20.6684 38.004 21.5977 37.6363 22.7721 37.6363C23.5175 37.6363 24.1711 37.8048 24.7328 38.1418C25.3046 38.4686 25.7489 38.9486 26.0654 39.5817C26.3922 40.2047 26.5556 40.9706 26.5556 41.8794ZM20.3518 41.8794C20.3518 42.8496 20.5407 43.6206 20.9186 44.1925C21.3066 44.7541 21.9194 45.035 22.7567 45.035C23.5839 45.035 24.1915 44.7541 24.5796 44.1925C24.9676 43.6206 25.1617 42.8496 25.1617 41.8794C25.1617 40.9093 24.9676 40.1485 24.5796 39.5971C24.1915 39.0456 23.5788 38.7699 22.7414 38.7699C21.904 38.7699 21.2964 39.0456 20.9186 39.5971C20.5407 40.1485 20.3518 40.9093 20.3518 41.8794ZM30.04 37.7895V41.2055H34.4975V37.7895H35.8455V46H34.4975V42.339H30.04V46H28.692V37.7895H30.04ZM41.7387 46.1532C41.0136 46.1532 40.3652 46.0051 39.7933 45.709C39.2316 45.4128 38.7874 44.9533 38.4606 44.3303C38.144 43.7074 37.9857 42.9109 37.9857 41.9407C37.9857 40.9297 38.1542 40.1077 38.4912 39.4745C38.8282 38.8414 39.2827 38.3767 39.8546 38.0806C40.4366 37.7844 41.0953 37.6363 41.8306 37.6363C42.2493 37.6363 42.6526 37.6823 43.0407 37.7742C43.4288 37.8559 43.7453 37.958 43.9904 38.0806L43.5768 39.1988C43.3317 39.1069 43.0458 39.0201 42.719 38.9384C42.3922 38.8567 42.0859 38.8158 41.7999 38.8158C40.1864 38.8158 39.3797 39.8524 39.3797 41.9254C39.3797 42.916 39.5737 43.6768 39.9618 44.2078C40.36 44.7286 40.9472 44.989 41.7234 44.989C42.1727 44.989 42.5658 44.9431 42.9028 44.8511C43.25 44.7592 43.5666 44.6469 43.8526 44.5141V45.709C43.5768 45.8519 43.2705 45.9592 42.9335 46.0306C42.6067 46.1123 42.2084 46.1532 41.7387 46.1532ZM50.661 37.7895H52.1315L48.6237 41.7416L52.4225 46H50.8601L47.1531 41.8335V46H45.8051V37.7895H47.1531V41.7722L50.661 37.7895ZM55.1843 42.7985C55.1843 42.9211 55.1792 43.1049 55.169 43.35C55.1588 43.5951 55.1435 43.8402 55.123 44.0852C55.1128 44.3303 55.1026 44.5244 55.0924 44.6673L59.4887 37.7895H61.143V46H59.887V41.1595C59.887 40.9961 59.887 40.7817 59.887 40.5161C59.8972 40.2506 59.9074 39.9902 59.9176 39.7349C59.9278 39.4694 59.938 39.2703 59.9482 39.1375L55.5826 46H53.9129V37.7895H55.1843V42.7985ZM70.404 34.3889C70.3325 35.1548 70.0721 35.7369 69.6228 36.1352C69.1837 36.5232 68.479 36.7173 67.5089 36.7173C66.5081 36.7173 65.7984 36.5232 65.3797 36.1352C64.9712 35.7471 64.7414 35.165 64.6904 34.3889H65.9464C65.9975 34.9404 66.1405 35.3131 66.3753 35.5071C66.6204 35.691 67.0085 35.7829 67.5395 35.7829C68.0093 35.7829 68.3769 35.6859 68.6424 35.4918C68.9181 35.2876 69.0815 34.92 69.1326 34.3889H70.404ZM65.0274 42.7985C65.0274 42.9211 65.0223 43.1049 65.012 43.35C65.0018 43.5951 64.9865 43.8402 64.9661 44.0852C64.9559 44.3303 64.9457 44.5244 64.9354 44.6673L69.3317 37.7895H70.9861V46H69.73V41.1595C69.73 40.9961 69.73 40.7817 69.73 40.5161C69.7402 40.2506 69.7504 39.9902 69.7606 39.7349C69.7708 39.4694 69.7811 39.2703 69.7913 39.1375L65.4256 46H63.756V37.7895H65.0274V42.7985ZM81.5596 46.1532C80.8345 46.1532 80.1861 46.0051 79.6142 45.709C79.0525 45.4128 78.6083 44.9533 78.2815 44.3303C77.965 43.7074 77.8067 42.9109 77.8067 41.9407C77.8067 40.9297 77.9752 40.1077 78.3122 39.4745C78.6492 38.8414 79.1036 38.3767 79.6755 38.0806C80.2576 37.7844 80.9162 37.6363 81.6515 37.6363C82.0702 37.6363 82.4736 37.6823 82.8616 37.7742C83.2497 37.8559 83.5663 37.958 83.8113 38.0806L83.3978 39.1988C83.1527 39.1069 82.8667 39.0201 82.5399 38.9384C82.2132 38.8567 81.9068 38.8158 81.6209 38.8158C80.0074 38.8158 79.2006 39.8524 79.2006 41.9254C79.2006 42.916 79.3946 43.6768 79.7827 44.2078C80.181 44.7286 80.7682 44.989 81.5443 44.989C81.9936 44.989 82.3868 44.9431 82.7238 44.8511C83.071 44.7592 83.3875 44.6469 83.6735 44.5141V45.709C83.3978 45.8519 83.0914 45.9592 82.7544 46.0306C82.4276 46.1123 82.0293 46.1532 81.5596 46.1532ZM92.7643 41.8794C92.7643 43.2376 92.4171 44.2895 91.7226 45.035C91.0384 45.7804 90.1091 46.1532 88.9348 46.1532C88.2097 46.1532 87.5612 45.9898 86.9894 45.663C86.4277 45.326 85.9835 44.8409 85.6567 44.2078C85.3299 43.5644 85.1665 42.7883 85.1665 41.8794C85.1665 40.5212 85.5086 39.4745 86.1928 38.7392C86.877 38.004 87.8063 37.6363 88.9807 37.6363C89.7262 37.6363 90.3798 37.8048 90.9414 38.1418C91.5133 38.4686 91.9575 38.9486 92.2741 39.5817C92.6009 40.2047 92.7643 40.9706 92.7643 41.8794ZM86.5605 41.8794C86.5605 42.8496 86.7494 43.6206 87.1272 44.1925C87.5153 44.7541 88.128 45.035 88.9654 45.035C89.7926 45.035 90.4002 44.7541 90.7882 44.1925C91.1763 43.6206 91.3703 42.8496 91.3703 41.8794C91.3703 40.9093 91.1763 40.1485 90.7882 39.5971C90.4002 39.0456 89.7875 38.7699 88.9501 38.7699C88.1127 38.7699 87.5051 39.0456 87.1272 39.5971C86.7494 40.1485 86.5605 40.9093 86.5605 41.8794ZM93.4643 37.7895H94.9042L96.6811 42.4615C96.8343 42.87 96.9722 43.2632 97.0947 43.641C97.2173 44.0087 97.3092 44.361 97.3704 44.698H97.4317C97.493 44.4427 97.59 44.1108 97.7228 43.7023C97.8555 43.2836 97.9934 42.8649 98.1363 42.4462L99.806 37.7895H101.261L97.7228 47.1335C97.4368 47.9096 97.0641 48.5275 96.6045 48.987C96.1552 49.4466 95.5323 49.6763 94.7357 49.6763C94.4906 49.6763 94.2762 49.661 94.0924 49.6304C93.9086 49.61 93.7503 49.5844 93.6175 49.5538V48.4815C93.7299 48.5019 93.8626 48.5224 94.0158 48.5428C94.1792 48.5632 94.3477 48.5734 94.5213 48.5734C94.991 48.5734 95.3689 48.4407 95.6548 48.1752C95.951 47.9096 96.1807 47.5573 96.3441 47.1182L96.773 46.0306L93.4643 37.7895ZM105.853 46.1532C105.128 46.1532 104.48 46.0051 103.908 45.709C103.346 45.4128 102.902 44.9533 102.575 44.3303C102.258 43.7074 102.1 42.9109 102.1 41.9407C102.1 40.9297 102.269 40.1077 102.606 39.4745C102.943 38.8414 103.397 38.3767 103.969 38.0806C104.551 37.7844 105.21 37.6363 105.945 37.6363C106.364 37.6363 106.767 37.6823 107.155 37.7742C107.543 37.8559 107.86 37.958 108.105 38.0806L107.691 39.1988C107.446 39.1069 107.16 39.0201 106.833 38.9384C106.507 38.8567 106.2 38.8158 105.914 38.8158C104.301 38.8158 103.494 39.8524 103.494 41.9254C103.494 42.916 103.688 43.6768 104.076 44.2078C104.474 44.7286 105.062 44.989 105.838 44.989C106.287 44.989 106.68 44.9431 107.017 44.8511C107.364 44.7592 107.681 44.6469 107.967 44.5141V45.709C107.691 45.8519 107.385 45.9592 107.048 46.0306C106.721 46.1123 106.323 46.1532 105.853 46.1532ZM117.895 35.0629C119.264 35.0629 120.295 35.2672 120.99 35.6756C121.694 36.0739 122.047 36.7734 122.047 37.7742C122.047 38.4176 121.868 38.9537 121.51 39.3826C121.153 39.8013 120.637 40.0719 119.963 40.1945V40.2711C120.423 40.3425 120.836 40.4753 121.204 40.6693C121.582 40.8633 121.878 41.1391 122.093 41.4965C122.307 41.8539 122.414 42.3186 122.414 42.8904C122.414 43.881 122.072 44.6469 121.388 45.1881C120.714 45.7294 119.79 46 118.615 46H114.771V35.0629H117.895ZM118.171 39.7196C119.111 39.7196 119.754 39.5715 120.101 39.2754C120.448 38.969 120.622 38.5197 120.622 37.9274C120.622 37.3249 120.408 36.896 119.979 36.6407C119.56 36.3752 118.886 36.2424 117.957 36.2424H116.149V39.7196H118.171ZM116.149 40.8685V44.8358H118.355C119.325 44.8358 119.999 44.6469 120.377 44.2691C120.755 43.8912 120.944 43.3959 120.944 42.7832C120.944 42.2113 120.745 41.7518 120.346 41.4046C119.958 41.0472 119.259 40.8685 118.248 40.8685H116.149ZM127.659 37.6517C128.66 37.6517 129.4 37.8712 129.88 38.3103C130.36 38.7495 130.6 39.449 130.6 40.4089V46H129.62L129.359 44.8358H129.298C128.941 45.2852 128.563 45.617 128.164 45.8315C127.776 46.046 127.235 46.1532 126.541 46.1532C125.795 46.1532 125.177 45.9592 124.687 45.5711C124.197 45.1728 123.952 44.555 123.952 43.7176C123.952 42.9006 124.274 42.2726 124.917 41.8335C125.56 41.3842 126.551 41.1391 127.889 41.0982L129.283 41.0523V40.5621C129.283 39.8779 129.135 39.403 128.838 39.1375C128.542 38.872 128.124 38.7392 127.582 38.7392C127.153 38.7392 126.745 38.8056 126.357 38.9384C125.969 39.0609 125.606 39.2039 125.269 39.3673L124.856 38.3563C125.213 38.1623 125.637 37.9989 126.127 37.8661C126.617 37.7232 127.128 37.6517 127.659 37.6517ZM128.057 42.0326C127.036 42.0735 126.326 42.2369 125.928 42.5228C125.54 42.8087 125.346 43.2121 125.346 43.7329C125.346 44.1925 125.484 44.5295 125.76 44.7439C126.045 44.9584 126.408 45.0656 126.847 45.0656C127.542 45.0656 128.119 44.8767 128.578 44.4988C129.038 44.1108 129.267 43.5185 129.267 42.7219V41.9867L128.057 42.0326ZM136.429 46.1532C135.704 46.1532 135.056 46.0051 134.484 45.709C133.922 45.4128 133.478 44.9533 133.151 44.3303C132.835 43.7074 132.676 42.9109 132.676 41.9407C132.676 40.9297 132.845 40.1077 133.182 39.4745C133.519 38.8414 133.973 38.3767 134.545 38.0806C135.127 37.7844 135.786 37.6363 136.521 37.6363C136.94 37.6363 137.343 37.6823 137.731 37.7742C138.119 37.8559 138.436 37.958 138.681 38.0806L138.267 39.1988C138.022 39.1069 137.736 39.0201 137.41 38.9384C137.083 38.8567 136.776 38.8158 136.491 38.8158C134.877 38.8158 134.07 39.8524 134.07 41.9254C134.07 42.916 134.264 43.6768 134.652 44.2078C135.051 44.7286 135.638 44.989 136.414 44.989C136.863 44.989 137.256 44.9431 137.593 44.8511C137.941 44.7592 138.257 44.6469 138.543 44.5141V45.709C138.267 45.8519 137.961 45.9592 137.624 46.0306C137.297 46.1123 136.899 46.1532 136.429 46.1532ZM143.605 37.6517C144.606 37.6517 145.346 37.8712 145.826 38.3103C146.306 38.7495 146.546 39.449 146.546 40.4089V46H145.566L145.306 44.8358H145.244C144.887 45.2852 144.509 45.617 144.111 45.8315C143.723 46.046 143.182 46.1532 142.487 46.1532C141.742 46.1532 141.124 45.9592 140.634 45.5711C140.143 45.1728 139.898 44.555 139.898 43.7176C139.898 42.9006 140.22 42.2726 140.863 41.8335C141.507 41.3842 142.497 41.1391 143.835 41.0982L145.229 41.0523V40.5621C145.229 39.8779 145.081 39.403 144.785 39.1375C144.489 38.872 144.07 38.7392 143.529 38.7392C143.1 38.7392 142.691 38.8056 142.303 38.9384C141.915 39.0609 141.553 39.2039 141.216 39.3673L140.802 38.3563C141.16 38.1623 141.583 37.9989 142.074 37.8661C142.564 37.7232 143.074 37.6517 143.605 37.6517ZM144.004 42.0326C142.982 42.0735 142.273 42.2369 141.874 42.5228C141.486 42.8087 141.292 43.2121 141.292 43.7329C141.292 44.1925 141.43 44.5295 141.706 44.7439C141.992 44.9584 142.354 45.0656 142.793 45.0656C143.488 45.0656 144.065 44.8767 144.524 44.4988C144.984 44.1108 145.214 43.5185 145.214 42.7219V41.9867L144.004 42.0326ZM148.653 41.0676C148.653 39.2703 148.924 37.8712 149.465 36.8704C150.006 35.8595 150.88 35.2263 152.085 34.971C152.748 34.828 153.397 34.7004 154.03 34.5881C154.663 34.4757 155.255 34.3736 155.807 34.2817L156.037 35.4612C155.679 35.5122 155.276 35.5786 154.826 35.6603C154.377 35.7318 153.933 35.8084 153.494 35.8901C153.055 35.9616 152.677 36.0331 152.36 36.1045C151.697 36.2475 151.171 36.5947 150.783 37.1462C150.394 37.6874 150.175 38.535 150.124 39.689H150.216C150.359 39.4949 150.553 39.2958 150.798 39.0916C151.053 38.8873 151.354 38.7137 151.702 38.5707C152.059 38.4278 152.462 38.3563 152.912 38.3563C153.974 38.3563 154.775 38.6984 155.317 39.3826C155.858 40.0668 156.129 40.9553 156.129 42.0479C156.129 42.9568 155.97 43.7176 155.654 44.3303C155.337 44.9431 154.898 45.4026 154.336 45.709C153.775 46.0051 153.121 46.1532 152.376 46.1532C151.242 46.1532 150.338 45.7192 149.664 44.8511C148.99 43.9831 148.653 42.7219 148.653 41.0676ZM152.483 45.035C153.147 45.035 153.683 44.8205 154.091 44.3916C154.5 43.9627 154.704 43.2274 154.704 42.1858C154.704 41.3484 154.546 40.6897 154.229 40.2098C153.923 39.7196 153.412 39.4745 152.697 39.4745C152.248 39.4745 151.839 39.5766 151.472 39.7809C151.104 39.9749 150.798 40.1996 150.553 40.4549C150.308 40.7102 150.134 40.9246 150.032 41.0982C150.032 41.5986 150.068 42.0837 150.139 42.5534C150.211 43.0232 150.333 43.447 150.507 43.8248C150.691 44.1925 150.941 44.4886 151.257 44.7133C151.584 44.9277 151.993 45.035 152.483 45.035ZM159.524 42.7985C159.524 42.9211 159.518 43.1049 159.508 43.35C159.498 43.5951 159.483 43.8402 159.462 44.0852C159.452 44.3303 159.442 44.5244 159.432 44.6673L163.828 37.7895H165.482V46H164.226V41.1595C164.226 40.9961 164.226 40.7817 164.226 40.5161C164.236 40.2506 164.247 39.9902 164.257 39.7349C164.267 39.4694 164.277 39.2703 164.287 39.1375L159.922 46H158.252V37.7895H159.524V42.7985ZM167.712 47.1948C168.029 47.1437 168.243 47.0314 168.356 46.8578C168.478 46.6944 168.539 46.4085 168.539 46H167.758V44.5448H169.259V45.7702C169.259 46.434 169.137 46.9344 168.892 47.2714C168.647 47.6084 168.253 47.7769 167.712 47.7769V47.1948ZM4.59541 63.1532C3.87036 63.1532 3.22189 63.0051 2.65002 62.709C2.08836 62.4128 1.64414 61.9533 1.31735 61.3303C1.00078 60.7074 0.842492 59.9109 0.842492 58.9407C0.842492 57.9297 1.01099 57.1077 1.34799 56.4745C1.68498 55.8414 2.13942 55.3767 2.71129 55.0806C3.29338 54.7844 3.95205 54.6363 4.68732 54.6363C5.10601 54.6363 5.50939 54.6823 5.89745 54.7742C6.2855 54.8559 6.60208 54.958 6.84716 55.0806L6.43358 56.1988C6.18849 56.1069 5.90255 56.0201 5.57577 55.9384C5.24898 55.8567 4.94262 55.8158 4.65668 55.8158C3.04318 55.8158 2.23643 56.8524 2.23643 58.9254C2.23643 59.916 2.43046 60.6768 2.81852 61.2078C3.21679 61.7286 3.80398 61.989 4.58009 61.989C5.02942 61.989 5.42259 61.9431 5.75958 61.8511C6.10679 61.7592 6.42337 61.6469 6.7093 61.5141V62.709C6.43358 62.8519 6.12722 62.9592 5.79022 63.0306C5.46343 63.1123 5.06517 63.1532 4.59541 63.1532ZM8.66187 63V54.7895H10.0099V58.1595H12.1391C13.2011 58.1595 13.9874 58.3535 14.498 58.7416C15.0086 59.1296 15.2639 59.7117 15.2639 60.4878C15.2639 61.2537 15.0138 61.8665 14.5134 62.326C14.013 62.7753 13.2011 63 12.0778 63H8.66187ZM16.6273 63V54.7895H17.9752V63H16.6273ZM11.9553 61.9124C12.5373 61.9124 13.0122 61.8154 13.3798 61.6214C13.7475 61.4171 13.9313 61.0648 13.9313 60.5644C13.9313 60.064 13.7628 59.727 13.4258 59.5534C13.0888 59.3696 12.6037 59.2777 11.9706 59.2777H10.0099V61.9124H11.9553ZM24.4903 54.6363C25.5013 54.6363 26.3132 54.9887 26.9259 55.6933C27.5488 56.3979 27.8603 57.46 27.8603 58.8794C27.8603 60.2785 27.5488 61.3405 26.9259 62.0656C26.3132 62.7907 25.4962 63.1532 24.475 63.1532C23.8419 63.1532 23.3159 63.0357 22.8972 62.8009C22.4888 62.5558 22.1671 62.2749 21.9322 61.9584H21.8403C21.8607 62.132 21.8811 62.3515 21.9016 62.617C21.922 62.8826 21.9322 63.1123 21.9322 63.3064V66.6763H20.5842V54.7895H21.6871L21.8709 55.9077H21.9322C22.1773 55.5503 22.499 55.2491 22.8972 55.004C23.2955 54.7589 23.8265 54.6363 24.4903 54.6363ZM24.2452 55.7699C23.4078 55.7699 22.8155 56.0048 22.4683 56.4745C22.1313 56.9443 21.9526 57.6591 21.9322 58.619V58.8794C21.9322 59.8904 22.0956 60.6717 22.4224 61.2231C22.7594 61.7643 23.3772 62.035 24.2759 62.035C24.7763 62.035 25.1847 61.8971 25.5013 61.6214C25.8281 61.3457 26.0681 60.9729 26.2213 60.5032C26.3846 60.0232 26.4663 59.4769 26.4663 58.8641C26.4663 57.9246 26.2825 57.174 25.9149 56.6124C25.5575 56.0507 25.0009 55.7699 24.2452 55.7699ZM39.6846 63L36.0849 53.4109H36.0236C36.0542 53.7275 36.0798 54.1564 36.1002 54.6976C36.1206 55.2286 36.1308 55.7852 36.1308 56.3673V63H34.8594V52.0629H36.8967L40.2667 61.024H40.328L43.7592 52.0629H45.7812V63H44.4179V56.2754C44.4179 55.7444 44.4281 55.2184 44.4485 54.6976C44.4792 54.1768 44.5047 53.753 44.5251 53.4262H44.4638L40.8182 63H39.6846ZM55.7108 58.8794C55.7108 60.2376 55.3635 61.2895 54.6691 62.035C53.9849 62.7804 53.0556 63.1532 51.8812 63.1532C51.1562 63.1532 50.5077 62.9898 49.9359 62.663C49.3742 62.326 48.93 61.8409 48.6032 61.2078C48.2764 60.5644 48.113 59.7883 48.113 58.8794C48.113 57.5212 48.4551 56.4745 49.1393 55.7392C49.8235 55.004 50.7528 54.6363 51.9272 54.6363C52.6727 54.6363 53.3262 54.8048 53.8879 55.1418C54.4598 55.4686 54.904 55.9486 55.2206 56.5817C55.5474 57.2047 55.7108 57.9706 55.7108 58.8794ZM49.5069 58.8794C49.5069 59.8496 49.6959 60.6206 50.0737 61.1925C50.4618 61.7541 51.0745 62.035 51.9119 62.035C52.7391 62.035 53.3467 61.7541 53.7347 61.1925C54.1228 60.6206 54.3168 59.8496 54.3168 58.8794C54.3168 57.9093 54.1228 57.1485 53.7347 56.5971C53.3467 56.0456 52.734 55.7699 51.8966 55.7699C51.0592 55.7699 50.4516 56.0456 50.0737 56.5971C49.6959 57.1485 49.5069 57.9093 49.5069 58.8794ZM65.9504 65.8492H64.633V63H57.8471V54.7895H59.1951V61.8665H63.4382V54.7895H64.7862V61.8818H65.9504V65.8492ZM70.6352 54.6517C71.636 54.6517 72.3763 54.8712 72.8563 55.3103C73.3363 55.7495 73.5763 56.449 73.5763 57.4089V63H72.5959L72.3355 61.8358H72.2742C71.9168 62.2852 71.539 62.617 71.1407 62.8315C70.7526 63.046 70.2114 63.1532 69.517 63.1532C68.7715 63.1532 68.1537 62.9592 67.6635 62.5711C67.1733 62.1728 66.9282 61.555 66.9282 60.7176C66.9282 59.9006 67.2499 59.2726 67.8933 58.8335C68.5366 58.3842 69.5272 58.1391 70.865 58.0982L72.2589 58.0523V57.5621C72.2589 56.8779 72.1108 56.403 71.8147 56.1375C71.5185 55.872 71.0998 55.7392 70.5586 55.7392C70.1297 55.7392 69.7212 55.8056 69.3332 55.9384C68.9451 56.0609 68.5826 56.2039 68.2456 56.3673L67.832 55.3563C68.1894 55.1623 68.6132 54.9989 69.1034 54.8661C69.5936 54.7232 70.1042 54.6517 70.6352 54.6517ZM71.0335 59.0326C70.0123 59.0735 69.3025 59.2369 68.9043 59.5228C68.5162 59.8087 68.3222 60.2121 68.3222 60.7329C68.3222 61.1925 68.46 61.5295 68.7358 61.7439C69.0217 61.9584 69.3842 62.0656 69.8233 62.0656C70.5178 62.0656 71.0947 61.8767 71.5543 61.4988C72.0138 61.1108 72.2436 60.5185 72.2436 59.7219V58.9867L71.0335 59.0326ZM80.0182 54.6363C81.0292 54.6363 81.8411 54.9887 82.4538 55.6933C83.0767 56.3979 83.3882 57.46 83.3882 58.8794C83.3882 60.2785 83.0767 61.3405 82.4538 62.0656C81.8411 62.7907 81.0241 63.1532 80.0029 63.1532C79.3698 63.1532 78.8438 63.0357 78.4251 62.8009C78.0167 62.5558 77.695 62.2749 77.4601 61.9584H77.3682C77.3886 62.132 77.409 62.3515 77.4295 62.617C77.4499 62.8826 77.4601 63.1123 77.4601 63.3064V66.6763H76.1121V54.7895H77.215L77.3988 55.9077H77.4601C77.7052 55.5503 78.0269 55.2491 78.4251 55.004C78.8234 54.7589 79.3544 54.6363 80.0182 54.6363ZM79.7731 55.7699C78.9357 55.7699 78.3434 56.0048 77.9962 56.4745C77.6592 56.9443 77.4805 57.6591 77.4601 58.619V58.8794C77.4601 59.8904 77.6235 60.6717 77.9503 61.2231C78.2873 61.7643 78.9051 62.035 79.8038 62.035C80.3042 62.035 80.7126 61.8971 81.0292 61.6214C81.356 61.3457 81.596 60.9729 81.7492 60.5032C81.9125 60.0232 81.9942 59.4769 81.9942 58.8641C81.9942 57.9246 81.8104 57.174 81.4428 56.6124C81.0854 56.0507 80.5288 55.7699 79.7731 55.7699ZM88.7071 54.6363C89.4118 54.6363 90.0143 54.7895 90.5147 55.0959C91.0253 55.4023 91.4133 55.8363 91.6788 56.3979C91.9546 56.9494 92.0924 57.5978 92.0924 58.3433V59.1552H86.4707C86.4911 60.0845 86.726 60.7942 87.1753 61.2844C87.6349 61.7643 88.2731 62.0043 89.0901 62.0043C89.6109 62.0043 90.0704 61.9584 90.4687 61.8665C90.8772 61.7643 91.2959 61.6214 91.7248 61.4376V62.617C91.3061 62.8009 90.8925 62.9336 90.484 63.0153C90.0755 63.1072 89.5905 63.1532 89.0288 63.1532C88.2527 63.1532 87.5634 62.9949 86.9609 62.6783C86.3686 62.3617 85.9039 61.892 85.5669 61.2691C85.2402 60.6359 85.0768 59.8649 85.0768 58.956C85.0768 58.0574 85.2248 57.2864 85.521 56.643C85.8273 55.9997 86.2511 55.5044 86.7924 55.1572C87.3438 54.81 87.9821 54.6363 88.7071 54.6363ZM88.6918 55.7392C88.0485 55.7392 87.5379 55.9486 87.16 56.3673C86.7924 56.7758 86.5728 57.3476 86.5013 58.0829H90.6832C90.673 57.3885 90.5096 56.8268 90.193 56.3979C89.8764 55.9588 89.376 55.7392 88.6918 55.7392ZM100.432 63H99.0691V55.9077H96.6488C96.5161 57.6336 96.3323 59.0275 96.0974 60.0896C95.8625 61.1414 95.551 61.9073 95.163 62.3873C94.7749 62.8672 94.2847 63.1072 93.6924 63.1072C93.5597 63.1072 93.4269 63.097 93.2942 63.0766C93.1716 63.0664 93.0695 63.0408 92.9878 63V61.989C93.0491 62.0094 93.1155 62.0248 93.1869 62.035C93.2584 62.0452 93.3299 62.0503 93.4014 62.0503C93.9528 62.0503 94.392 61.4631 94.7187 60.2887C95.0557 59.1143 95.311 57.2813 95.4847 54.7895H100.432V63ZM109.288 63H107.925V55.9077H105.505C105.372 57.6336 105.188 59.0275 104.953 60.0896C104.718 61.1414 104.407 61.9073 104.019 62.3873C103.631 62.8672 103.14 63.1072 102.548 63.1072C102.415 63.1072 102.283 63.097 102.15 63.0766C102.027 63.0664 101.925 63.0408 101.844 63V61.989C101.905 62.0094 101.971 62.0248 102.043 62.035C102.114 62.0452 102.186 62.0503 102.257 62.0503C102.809 62.0503 103.248 61.4631 103.574 60.2887C103.911 59.1143 104.167 57.2813 104.34 54.7895H109.288V63ZM115.004 54.6517C116.004 54.6517 116.745 54.8712 117.225 55.3103C117.705 55.7495 117.945 56.449 117.945 57.4089V63H116.964L116.704 61.8358H116.643C116.285 62.2852 115.907 62.617 115.509 62.8315C115.121 63.046 114.58 63.1532 113.885 63.1532C113.14 63.1532 112.522 62.9592 112.032 62.5711C111.542 62.1728 111.297 61.555 111.297 60.7176C111.297 59.9006 111.618 59.2726 112.262 58.8335C112.905 58.3842 113.896 58.1391 115.233 58.0982L116.627 58.0523V57.5621C116.627 56.8779 116.479 56.403 116.183 56.1375C115.887 55.872 115.468 55.7392 114.927 55.7392C114.498 55.7392 114.09 55.8056 113.702 55.9384C113.314 56.0609 112.951 56.2039 112.614 56.3673L112.2 55.3563C112.558 55.1623 112.982 54.9989 113.472 54.8661C113.962 54.7232 114.473 54.6517 115.004 54.6517ZM115.402 59.0326C114.381 59.0735 113.671 59.2369 113.273 59.5228C112.885 59.8087 112.691 60.2121 112.691 60.7329C112.691 61.1925 112.828 61.5295 113.104 61.7439C113.39 61.9584 113.753 62.0656 114.192 62.0656C114.886 62.0656 115.463 61.8767 115.923 61.4988C116.382 61.1108 116.612 60.5185 116.612 59.7219V58.9867L115.402 59.0326ZM120.098 64.1948C120.414 64.1437 120.629 64.0314 120.741 63.8578C120.864 63.6944 120.925 63.4085 120.925 63H120.144V61.5448H121.645V62.7702C121.645 63.434 121.522 63.9344 121.277 64.2714C121.032 64.6084 120.639 64.7769 120.098 64.7769V64.1948ZM12.4382 71.7895V80H1.30203V71.7895H2.65002V78.8665H6.18849V71.7895H7.53648V78.8665H11.0903V71.7895H12.4382ZM18.1739 71.6517C19.1747 71.6517 19.915 71.8712 20.395 72.3103C20.875 72.7495 21.115 73.449 21.115 74.4089V80H20.1346L19.8742 78.8358H19.8129C19.4555 79.2852 19.0777 79.617 18.6794 79.8315C18.2913 80.046 17.7501 80.1532 17.0557 80.1532C16.3102 80.1532 15.6924 79.9592 15.2022 79.5711C14.712 79.1728 14.4669 78.555 14.4669 77.7176C14.4669 76.9006 14.7886 76.2726 15.432 75.8335C16.0753 75.3842 17.0659 75.1391 18.4037 75.0982L19.7976 75.0523V74.5621C19.7976 73.8779 19.6495 73.403 19.3534 73.1375C19.0572 72.872 18.6385 72.7392 18.0973 72.7392C17.6684 72.7392 17.2599 72.8056 16.8719 72.9384C16.4838 73.0609 16.1213 73.2039 15.7843 73.3673L15.3707 72.3563C15.7281 72.1623 16.1519 71.9989 16.6421 71.8661C17.1323 71.7232 17.6429 71.6517 18.1739 71.6517ZM18.5722 76.0326C17.551 76.0735 16.8412 76.2369 16.443 76.5228C16.0549 76.8087 15.8609 77.2121 15.8609 77.7329C15.8609 78.1925 15.9987 78.5295 16.2745 78.7439C16.5604 78.9584 16.9229 79.0656 17.362 79.0656C18.0565 79.0656 18.6334 78.8767 19.093 78.4988C19.5525 78.1108 19.7823 77.5185 19.7823 76.7219V75.9867L18.5722 76.0326ZM32.4587 71.7895V80H31.2486V74.7612C31.2486 74.5468 31.2537 74.3221 31.2639 74.0872C31.2843 73.8524 31.3047 73.6226 31.3252 73.3979H31.2792L28.5985 80H27.465L24.8609 73.3979H24.815C24.8456 73.8575 24.8609 74.3272 24.8609 74.8072V80H23.6508V71.7895H25.443L28.0318 78.3916L30.6665 71.7895H32.4587ZM42.0186 71.7895V80H40.6706V72.9384H36.4275V80H35.0795V71.7895H42.0186ZM45.9097 76.7985C45.9097 76.9211 45.9046 77.1049 45.8944 77.35C45.8842 77.5951 45.8689 77.8402 45.8485 78.0852C45.8382 78.3303 45.828 78.5244 45.8178 78.6673L50.2141 71.7895H51.8684V80H50.6124V75.1595C50.6124 74.9961 50.6124 74.7817 50.6124 74.5161C50.6226 74.2506 50.6328 73.9902 50.643 73.7349C50.6532 73.4694 50.6634 73.2703 50.6736 73.1375L46.308 80H44.6383V71.7895H45.9097V76.7985ZM55.8294 71.7895V75.2055H60.2869V71.7895H61.6349V80H60.2869V76.339H55.8294V80H54.4814V71.7895H55.8294ZM68.0182 75.1595C70.1525 75.1595 71.2197 75.9356 71.2197 77.4878C71.2197 78.2537 70.9593 78.8665 70.4385 79.326C69.9176 79.7753 69.0905 80 67.9569 80H64.2347V71.7895H65.5826V75.1595H68.0182ZM69.8717 77.5644C69.8717 77.064 69.693 76.727 69.3356 76.5534C68.9883 76.3696 68.4982 76.2777 67.865 76.2777H65.5826V78.9124H67.8957C68.4675 78.9124 68.9373 78.8103 69.3049 78.6061C69.6828 78.4018 69.8717 78.0546 69.8717 77.5644ZM80.4679 75.8794C80.4679 77.2376 80.1207 78.2895 79.4263 79.035C78.7421 79.7804 77.8128 80.1532 76.6384 80.1532C75.9134 80.1532 75.2649 79.9898 74.693 79.663C74.1314 79.326 73.6872 78.8409 73.3604 78.2078C73.0336 77.5644 72.8702 76.7883 72.8702 75.8794C72.8702 74.5212 73.2123 73.4745 73.8965 72.7392C74.5807 72.004 75.51 71.6363 76.6844 71.6363C77.4299 71.6363 78.0834 71.8048 78.6451 72.1418C79.217 72.4686 79.6612 72.9486 79.9778 73.5817C80.3046 74.2047 80.4679 74.9706 80.4679 75.8794ZM74.2641 75.8794C74.2641 76.8496 74.4531 77.6206 74.8309 78.1925C75.219 78.7541 75.8317 79.035 76.6691 79.035C77.4962 79.035 78.1039 78.7541 78.4919 78.1925C78.88 77.6206 79.074 76.8496 79.074 75.8794C79.074 74.9093 78.88 74.1485 78.4919 73.5971C78.1039 73.0456 77.4911 72.7699 76.6538 72.7699C75.8164 72.7699 75.2087 73.0456 74.8309 73.5971C74.4531 74.1485 74.2641 74.9093 74.2641 75.8794ZM83.9523 71.7895V75.2055H88.4099V71.7895H89.7579V80H88.4099V76.339H83.9523V80H82.6043V71.7895H83.9523ZM92.3576 80V71.7895H93.7056V75.1595H95.8348C96.8969 75.1595 97.6832 75.3535 98.1938 75.7416C98.7044 76.1296 98.9597 76.7117 98.9597 77.4878C98.9597 78.2537 98.7095 78.8665 98.2091 79.326C97.7087 79.7753 96.8969 80 95.7735 80H92.3576ZM100.323 80V71.7895H101.671V80H100.323ZM95.651 78.9124C96.2331 78.9124 96.7079 78.8154 97.0756 78.6214C97.4432 78.4171 97.627 78.0648 97.627 77.5644C97.627 77.064 97.4585 76.727 97.1215 76.5534C96.7845 76.3696 96.2995 76.2777 95.6663 76.2777H93.7056V78.9124H95.651Z" fill="#E4D4D4"/>
</svg>
