<svg width="199" height="314" viewBox="0 0 199 314" fill="none" xmlns="http://www.w3.org/2000/svg">
<g filter="url(#filter0_b)">
<path d="M15.432 18H13.272V10.008H4.488V18H2.328V0.863999H4.488V8.112H13.272V0.863999H15.432V18ZM24.7011 4.92C26.2691 4.92 27.4291 5.264 28.1811 5.952C28.9331 6.64 29.3091 7.736 29.3091 9.24V18H27.7731L27.3651 16.176H27.2691C26.7091 16.88 26.1171 17.4 25.4931 17.736C24.8851 18.072 24.0371 18.24 22.9491 18.24C21.7811 18.24 20.8131 17.936 20.0451 17.328C19.2771 16.704 18.8931 15.736 18.8931 14.424C18.8931 13.144 19.3971 12.16 20.4051 11.472C21.4131 10.768 22.9651 10.384 25.0611 10.32L27.2451 10.248V9.48C27.2451 8.408 27.0131 7.664 26.5491 7.248C26.0851 6.832 25.4291 6.624 24.5811 6.624C23.9091 6.624 23.2691 6.728 22.6611 6.936C22.0531 7.128 21.4851 7.352 20.9571 7.608L20.3091 6.024C20.8691 5.72 21.5331 5.464 22.3011 5.256C23.0691 5.032 23.8691 4.92 24.7011 4.92ZM25.3251 11.784C23.7251 11.848 22.6131 12.104 21.9891 12.552C21.3811 13 21.0771 13.632 21.0771 14.448C21.0771 15.168 21.2931 15.696 21.7251 16.032C22.1731 16.368 22.7411 16.536 23.4291 16.536C24.5171 16.536 25.4211 16.24 26.1411 15.648C26.8611 15.04 27.2211 14.112 27.2211 12.864V11.712L25.3251 11.784ZM50.7302 5.136V18H33.2822V5.136H35.3942V16.224H40.9382V5.136H43.0502V16.224H48.6182V5.136H50.7302ZM56.8367 12.984C56.8367 13.176 56.8287 13.464 56.8127 13.848C56.7967 14.232 56.7727 14.616 56.7407 15C56.7247 15.384 56.7087 15.688 56.6927 15.912L63.5807 5.136H66.1727V18H64.2047V10.416C64.2047 10.16 64.2047 9.824 64.2047 9.408C64.2207 8.992 64.2367 8.584 64.2527 8.184C64.2687 7.768 64.2847 7.456 64.3007 7.248L57.4607 18H54.8447V5.136H56.8367V12.984ZM12.912 25.136V38H10.8V26.936H4.152V38H2.04V25.136H12.912ZM23.1366 24.896C24.7206 24.896 25.9926 25.448 26.9526 26.552C27.9286 27.656 28.4166 29.32 28.4166 31.544C28.4166 33.736 27.9286 35.4 26.9526 36.536C25.9926 37.672 24.7126 38.24 23.1126 38.24C22.1206 38.24 21.2966 38.056 20.6406 37.688C20.0006 37.304 19.4966 36.864 19.1286 36.368H18.9846C19.0166 36.64 19.0486 36.984 19.0806 37.4C19.1126 37.816 19.1286 38.176 19.1286 38.48V43.76H17.0166V25.136H18.7446L19.0326 26.888H19.1286C19.5126 26.328 20.0166 25.856 20.6406 25.472C21.2646 25.088 22.0966 24.896 23.1366 24.896ZM22.7526 26.672C21.4406 26.672 20.5126 27.04 19.9686 27.776C19.4406 28.512 19.1606 29.632 19.1286 31.136V31.544C19.1286 33.128 19.3846 34.352 19.8966 35.216C20.4246 36.064 21.3926 36.488 22.8006 36.488C23.5846 36.488 24.2246 36.272 24.7206 35.84C25.2326 35.408 25.6086 34.824 25.8486 34.088C26.1046 33.336 26.2326 32.48 26.2326 31.52C26.2326 30.048 25.9446 28.872 25.3686 27.992C24.8086 27.112 23.9366 26.672 22.7526 26.672ZM36.7502 24.896C37.8542 24.896 38.7982 25.136 39.5822 25.616C40.3822 26.096 40.9902 26.776 41.4062 27.656C41.8382 28.52 42.0542 29.536 42.0542 30.704V31.976H33.2462C33.2782 33.432 33.6462 34.544 34.3502 35.312C35.0702 36.064 36.0702 36.44 37.3502 36.44C38.1662 36.44 38.8862 36.368 39.5102 36.224C40.1502 36.064 40.8062 35.84 41.4782 35.552V37.4C40.8222 37.688 40.1742 37.896 39.5342 38.024C38.8942 38.168 38.1342 38.24 37.2542 38.24C36.0382 38.24 34.9582 37.992 34.0142 37.496C33.0862 37 32.3582 36.264 31.8302 35.288C31.3182 34.296 31.0622 33.088 31.0622 31.664C31.0622 30.256 31.2942 29.048 31.7582 28.04C32.2382 27.032 32.9022 26.256 33.7502 25.712C34.6142 25.168 35.6142 24.896 36.7502 24.896ZM36.7262 26.624C35.7182 26.624 34.9182 26.952 34.3262 27.608C33.7502 28.248 33.4062 29.144 33.2942 30.296H39.8462C39.8302 29.208 39.5742 28.328 39.0782 27.656C38.5822 26.968 37.7982 26.624 36.7262 26.624ZM47.3211 32.984C47.3211 33.176 47.3131 33.464 47.2971 33.848C47.2811 34.232 47.2571 34.616 47.2251 35C47.2091 35.384 47.1931 35.688 47.1771 35.912L54.0651 25.136H56.6571V38H54.6891V30.416C54.6891 30.16 54.6891 29.824 54.6891 29.408C54.7051 28.992 54.7211 28.584 54.7371 28.184C54.7531 27.768 54.7691 27.456 54.7851 27.248L47.9451 38H45.3291V25.136H47.3211V32.984ZM74.5509 25.136V38H72.6549V29.792C72.6549 29.456 72.6629 29.104 72.6789 28.736C72.7109 28.368 72.7429 28.008 72.7749 27.656H72.7029L68.5029 38H66.7269L62.6469 27.656H62.5749C62.6229 28.376 62.6469 29.112 62.6469 29.864V38H60.7509V25.136H63.5589L67.6149 35.48L71.7429 25.136H74.5509ZM76.6412 25.136H78.8972L81.6812 32.456C81.9212 33.096 82.1372 33.712 82.3292 34.304C82.5212 34.88 82.6652 35.432 82.7612 35.96H82.8572C82.9532 35.56 83.1052 35.04 83.3132 34.4C83.5212 33.744 83.7372 33.088 83.9612 32.432L86.5772 25.136H88.8572L83.3132 39.776C82.8652 40.992 82.2812 41.96 81.5612 42.68C80.8572 43.4 79.8812 43.76 78.6332 43.76C78.2492 43.76 77.9132 43.736 77.6252 43.688C77.3372 43.656 77.0892 43.616 76.8812 43.568V41.888C77.0572 41.92 77.2652 41.952 77.5052 41.984C77.7612 42.016 78.0252 42.032 78.2972 42.032C79.0332 42.032 79.6252 41.824 80.0732 41.408C80.5372 40.992 80.8972 40.44 81.1532 39.752L81.8252 38.048L76.6412 25.136ZM108.316 25.136V36.248H110.188V42.44H108.076V38H90.8916V25.136H93.0036V36.224H98.5476V25.136H100.66V36.224H106.228V25.136H108.316ZM117.61 24.896C118.714 24.896 119.658 25.136 120.442 25.616C121.242 26.096 121.85 26.776 122.266 27.656C122.698 28.52 122.914 29.536 122.914 30.704V31.976H114.106C114.138 33.432 114.506 34.544 115.21 35.312C115.93 36.064 116.93 36.44 118.21 36.44C119.026 36.44 119.746 36.368 120.37 36.224C121.01 36.064 121.666 35.84 122.338 35.552V37.4C121.682 37.688 121.034 37.896 120.394 38.024C119.754 38.168 118.994 38.24 118.114 38.24C116.898 38.24 115.818 37.992 114.874 37.496C113.946 37 113.218 36.264 112.69 35.288C112.178 34.296 111.922 33.088 111.922 31.664C111.922 30.256 112.154 29.048 112.618 28.04C113.098 27.032 113.762 26.256 114.61 25.712C115.474 25.168 116.474 24.896 117.61 24.896ZM117.586 26.624C116.578 26.624 115.778 26.952 115.186 27.608C114.61 28.248 114.266 29.144 114.154 30.296H120.706C120.69 29.208 120.434 28.328 119.938 27.656C119.442 26.968 118.658 26.624 117.586 26.624ZM131.348 38.24C130.212 38.24 129.196 38.008 128.3 37.544C127.42 37.08 126.724 36.36 126.212 35.384C125.716 34.408 125.468 33.16 125.468 31.64C125.468 30.056 125.732 28.768 126.26 27.776C126.788 26.784 127.5 26.056 128.396 25.592C129.308 25.128 130.34 24.896 131.492 24.896C132.148 24.896 132.78 24.968 133.388 25.112C133.996 25.24 134.492 25.4 134.876 25.592L134.228 27.344C133.844 27.2 133.396 27.064 132.884 26.936C132.372 26.808 131.892 26.744 131.444 26.744C128.916 26.744 127.652 28.368 127.652 31.616C127.652 33.168 127.956 34.36 128.564 35.192C129.188 36.008 130.108 36.416 131.324 36.416C132.028 36.416 132.644 36.344 133.172 36.2C133.716 36.056 134.212 35.88 134.66 35.672V37.544C134.228 37.768 133.748 37.936 133.22 38.048C132.708 38.176 132.084 38.24 131.348 38.24ZM146.6 26.912H142.4V38H140.312V26.912H136.16V25.136H146.6V26.912ZM159.478 28.376C159.478 29.176 159.238 29.8 158.758 30.248C158.278 30.696 157.662 31 156.91 31.16V31.256C157.71 31.368 158.406 31.656 158.998 32.12C159.59 32.568 159.886 33.272 159.886 34.232C159.886 35.32 159.478 36.224 158.662 36.944C157.862 37.648 156.534 38 154.678 38H149.134V25.136H154.654C155.566 25.136 156.382 25.24 157.102 25.448C157.838 25.64 158.414 25.976 158.83 26.456C159.262 26.92 159.478 27.56 159.478 28.376ZM157.342 28.64C157.342 28.032 157.118 27.592 156.67 27.32C156.238 27.032 155.526 26.888 154.534 26.888H151.246V30.416H154.15C156.278 30.416 157.342 29.824 157.342 28.64ZM157.702 34.232C157.702 33.496 157.422 32.968 156.862 32.648C156.302 32.328 155.478 32.168 154.39 32.168H151.246V36.296H154.438C155.494 36.296 156.302 36.144 156.862 35.84C157.422 35.52 157.702 34.984 157.702 34.232ZM167.834 24.92C169.402 24.92 170.562 25.264 171.314 25.952C172.066 26.64 172.442 27.736 172.442 29.24V38H170.906L170.498 36.176H170.402C169.842 36.88 169.25 37.4 168.626 37.736C168.018 38.072 167.17 38.24 166.082 38.24C164.914 38.24 163.946 37.936 163.178 37.328C162.41 36.704 162.026 35.736 162.026 34.424C162.026 33.144 162.53 32.16 163.538 31.472C164.546 30.768 166.098 30.384 168.194 30.32L170.378 30.248V29.48C170.378 28.408 170.146 27.664 169.682 27.248C169.218 26.832 168.562 26.624 167.714 26.624C167.042 26.624 166.402 26.728 165.794 26.936C165.186 27.128 164.618 27.352 164.09 27.608L163.442 26.024C164.002 25.72 164.666 25.464 165.434 25.256C166.202 25.032 167.002 24.92 167.834 24.92ZM168.458 31.784C166.858 31.848 165.746 32.104 165.122 32.552C164.514 33 164.21 33.632 164.21 34.448C164.21 35.168 164.426 35.696 164.858 36.032C165.306 36.368 165.874 36.536 166.562 36.536C167.65 36.536 168.554 36.24 169.274 35.648C169.994 35.04 170.354 34.112 170.354 32.864V31.712L168.458 31.784ZM1.68 85.712H7.56V86.696H1.68V85.712ZM18.7384 87.128C18.2264 88.264 17.7064 89.216 17.1784 89.984C16.6664 90.736 16.0584 91.304 15.3544 91.688C14.6504 92.056 13.7544 92.24 12.6664 92.24C12.2184 92.24 11.7944 92.208 11.3944 92.144C11.0104 92.08 10.6584 91.992 10.3384 91.88V89.744C10.6584 89.888 11.0024 90.008 11.3704 90.104C11.7384 90.184 12.1224 90.224 12.5224 90.224C13.4184 90.224 14.1224 90.032 14.6344 89.648C15.1624 89.264 15.6504 88.584 16.0984 87.608L9.49838 74.864H11.8744L16.6504 84.296C16.7304 84.456 16.8264 84.664 16.9384 84.92C17.0504 85.16 17.1464 85.392 17.2264 85.616H17.3224C17.3864 85.44 17.4664 85.232 17.5624 84.992C17.6584 84.736 17.7384 84.528 17.8024 84.368L21.9304 74.864H24.2104L18.7384 87.128ZM28.3629 79.136V84.488H35.3469V79.136H37.4589V92H35.3469V86.264H28.3629V92H26.2509V79.136H28.3629ZM43.5242 86.984C43.5242 87.176 43.5162 87.464 43.5002 87.848C43.4842 88.232 43.4602 88.616 43.4282 89C43.4122 89.384 43.3962 89.688 43.3802 89.912L50.2682 79.136H52.8602V92H50.8922V84.416C50.8922 84.16 50.8922 83.824 50.8922 83.408C50.9082 82.992 50.9242 82.584 50.9402 82.184C50.9562 81.768 50.9722 81.456 50.9882 81.248L44.1482 92H41.5322V79.136H43.5242V86.984ZM64.5621 79.136H66.8661L61.3701 85.328L67.3221 92H64.8741L59.0661 85.472V92H56.9541V79.136H59.0661V85.376L64.5621 79.136ZM74.5292 78.92C76.0972 78.92 77.2572 79.264 78.0092 79.952C78.7612 80.64 79.1372 81.736 79.1372 83.24V92H77.6012L77.1932 90.176H77.0972C76.5372 90.88 75.9452 91.4 75.3212 91.736C74.7132 92.072 73.8652 92.24 72.7772 92.24C71.6092 92.24 70.6412 91.936 69.8732 91.328C69.1052 90.704 68.7212 89.736 68.7212 88.424C68.7212 87.144 69.2252 86.16 70.2332 85.472C71.2412 84.768 72.7932 84.384 74.8892 84.32L77.0732 84.248V83.48C77.0732 82.408 76.8412 81.664 76.3772 81.248C75.9132 80.832 75.2572 80.624 74.4092 80.624C73.7372 80.624 73.0972 80.728 72.4892 80.936C71.8812 81.128 71.3132 81.352 70.7852 81.608L70.1372 80.024C70.6972 79.72 71.3612 79.464 72.1292 79.256C72.8972 79.032 73.6972 78.92 74.5292 78.92ZM75.1532 85.784C73.5532 85.848 72.4412 86.104 71.8172 86.552C71.2092 87 70.9052 87.632 70.9052 88.448C70.9052 89.168 71.1212 89.696 71.5532 90.032C72.0012 90.368 72.5692 90.536 73.2572 90.536C74.3452 90.536 75.2492 90.24 75.9692 89.648C76.6892 89.04 77.0492 88.112 77.0492 86.864V85.712L75.1532 85.784ZM92.9023 92H90.7663V80.888H86.9743C86.7663 83.592 86.4783 85.776 86.1103 87.44C85.7423 89.088 85.2543 90.288 84.6463 91.04C84.0383 91.792 83.2703 92.168 82.3423 92.168C82.1343 92.168 81.9263 92.152 81.7183 92.12C81.5263 92.104 81.3663 92.064 81.2383 92V90.416C81.3343 90.448 81.4383 90.472 81.5503 90.488C81.6623 90.504 81.7743 90.512 81.8863 90.512C82.7503 90.512 83.4383 89.592 83.9503 87.752C84.4783 85.912 84.8783 83.04 85.1503 79.136H92.9023V92ZM102.913 84.416C106.257 84.416 107.929 85.632 107.929 88.064C107.929 89.264 107.521 90.224 106.705 90.944C105.889 91.648 104.593 92 102.817 92H96.9853V79.136H99.0973V84.416H102.913ZM105.817 88.184C105.817 87.4 105.537 86.872 104.977 86.6C104.433 86.312 103.665 86.168 102.673 86.168H99.0973V90.296H102.721C103.617 90.296 104.353 90.136 104.929 89.816C105.521 89.496 105.817 88.952 105.817 88.184ZM113.347 79.136V84.488H120.331V79.136H122.443V92H120.331V86.264H113.347V92H111.235V79.136H113.347ZM126.517 92V79.136H128.629V84.416H131.965C133.629 84.416 134.861 84.72 135.661 85.328C136.461 85.936 136.861 86.848 136.861 88.064C136.861 89.264 136.469 90.224 135.685 90.944C134.901 91.648 133.629 92 131.869 92H126.517ZM138.997 92V79.136H141.109V92H138.997ZM131.677 90.296C132.589 90.296 133.333 90.144 133.909 89.84C134.485 89.52 134.773 88.968 134.773 88.184C134.773 87.4 134.509 86.872 133.981 86.6C133.453 86.312 132.693 86.168 131.701 86.168H128.629V90.296H131.677ZM150.164 78.896C151.268 78.896 152.212 79.136 152.996 79.616C153.796 80.096 154.404 80.776 154.82 81.656C155.252 82.52 155.468 83.536 155.468 84.704V85.976H146.66C146.692 87.432 147.06 88.544 147.764 89.312C148.484 90.064 149.484 90.44 150.764 90.44C151.58 90.44 152.3 90.368 152.924 90.224C153.564 90.064 154.22 89.84 154.892 89.552V91.4C154.236 91.688 153.588 91.896 152.948 92.024C152.308 92.168 151.548 92.24 150.668 92.24C149.452 92.24 148.372 91.992 147.428 91.496C146.5 91 145.772 90.264 145.244 89.288C144.732 88.296 144.476 87.088 144.476 85.664C144.476 84.256 144.708 83.048 145.172 82.04C145.652 81.032 146.316 80.256 147.164 79.712C148.028 79.168 149.028 78.896 150.164 78.896ZM150.14 80.624C149.132 80.624 148.332 80.952 147.74 81.608C147.164 82.248 146.82 83.144 146.708 84.296H153.26C153.244 83.208 152.988 82.328 152.492 81.656C151.996 80.968 151.212 80.624 150.14 80.624ZM10.92 107.912H6.72V119H4.632V107.912H0.48V106.136H10.92V107.912ZM18.1877 105.896C19.2917 105.896 20.2357 106.136 21.0197 106.616C21.8197 107.096 22.4277 107.776 22.8437 108.656C23.2757 109.52 23.4917 110.536 23.4917 111.704V112.976H14.6837C14.7157 114.432 15.0837 115.544 15.7877 116.312C16.5077 117.064 17.5077 117.44 18.7877 117.44C19.6037 117.44 20.3237 117.368 20.9477 117.224C21.5877 117.064 22.2437 116.84 22.9157 116.552V118.4C22.2597 118.688 21.6117 118.896 20.9717 119.024C20.3317 119.168 19.5717 119.24 18.6917 119.24C17.4757 119.24 16.3957 118.992 15.4517 118.496C14.5237 118 13.7957 117.264 13.2677 116.288C12.7557 115.296 12.4997 114.088 12.4997 112.664C12.4997 111.256 12.7317 110.048 13.1957 109.04C13.6757 108.032 14.3397 107.256 15.1877 106.712C16.0517 106.168 17.0517 105.896 18.1877 105.896ZM18.1637 107.624C17.1557 107.624 16.3557 107.952 15.7637 108.608C15.1877 109.248 14.8437 110.144 14.7317 111.296H21.2837C21.2677 110.208 21.0117 109.328 20.5157 108.656C20.0197 107.968 19.2357 107.624 18.1637 107.624ZM29.8146 112.424L25.3746 106.136H27.7746L31.0866 110.984L34.3746 106.136H36.7506L32.3106 112.424L36.9906 119H34.5906L31.0866 113.864L27.5346 119H25.1586L29.8146 112.424ZM41.5817 106.136V111.488H48.5657V106.136H50.6777V119H48.5657V113.264H41.5817V119H39.4697V106.136H41.5817ZM65.9349 112.544C65.9349 114.672 65.3909 116.32 64.3029 117.488C63.2309 118.656 61.7749 119.24 59.9349 119.24C58.7989 119.24 57.7829 118.984 56.8869 118.472C56.0069 117.944 55.3109 117.184 54.7989 116.192C54.2869 115.184 54.0309 113.968 54.0309 112.544C54.0309 110.416 54.5669 108.776 55.6389 107.624C56.7109 106.472 58.1669 105.896 60.0069 105.896C61.1749 105.896 62.1989 106.16 63.0789 106.688C63.9749 107.2 64.6709 107.952 65.1669 108.944C65.6789 109.92 65.9349 111.12 65.9349 112.544ZM56.2149 112.544C56.2149 114.064 56.5109 115.272 57.1029 116.168C57.7109 117.048 58.6709 117.488 59.9829 117.488C61.2789 117.488 62.2309 117.048 62.8389 116.168C63.4469 115.272 63.7509 114.064 63.7509 112.544C63.7509 111.024 63.4469 109.832 62.8389 108.968C62.2309 108.104 61.2709 107.672 59.9589 107.672C58.6469 107.672 57.6949 108.104 57.1029 108.968C56.5109 109.832 56.2149 111.024 56.2149 112.544ZM79.0742 119H76.9382V107.888H73.1462C72.9382 110.592 72.6502 112.776 72.2822 114.44C71.9142 116.088 71.4262 117.288 70.8182 118.04C70.2102 118.792 69.4422 119.168 68.5142 119.168C68.3062 119.168 68.0982 119.152 67.8902 119.12C67.6982 119.104 67.5382 119.064 67.4102 119V117.416C67.5062 117.448 67.6102 117.472 67.7222 117.488C67.8342 117.504 67.9462 117.512 68.0582 117.512C68.9222 117.512 69.6102 116.592 70.1222 114.752C70.6502 112.912 71.0502 110.04 71.3222 106.136H79.0742V119ZM94.3412 112.544C94.3412 114.672 93.7972 116.32 92.7092 117.488C91.6372 118.656 90.1812 119.24 88.3412 119.24C87.2052 119.24 86.1892 118.984 85.2932 118.472C84.4132 117.944 83.7172 117.184 83.2052 116.192C82.6932 115.184 82.4372 113.968 82.4372 112.544C82.4372 110.416 82.9732 108.776 84.0452 107.624C85.1172 106.472 86.5732 105.896 88.4132 105.896C89.5812 105.896 90.6052 106.16 91.4852 106.688C92.3812 107.2 93.0772 107.952 93.5732 108.944C94.0852 109.92 94.3412 111.12 94.3412 112.544ZM84.6212 112.544C84.6212 114.064 84.9172 115.272 85.5092 116.168C86.1172 117.048 87.0772 117.488 88.3892 117.488C89.6852 117.488 90.6372 117.048 91.2452 116.168C91.8532 115.272 92.1572 114.064 92.1572 112.544C92.1572 111.024 91.8532 109.832 91.2452 108.968C90.6372 108.104 89.6772 107.672 88.3652 107.672C87.0532 107.672 86.1012 108.104 85.5092 108.968C84.9172 109.832 84.6212 111.024 84.6212 112.544ZM105.536 106.136V107.912H99.8004V119H97.6884V106.136H105.536ZM110.063 113.984C110.063 114.176 110.055 114.464 110.039 114.848C110.023 115.232 109.999 115.616 109.967 116C109.951 116.384 109.935 116.688 109.919 116.912L116.807 106.136H119.399V119H117.431V111.416C117.431 111.16 117.431 110.824 117.431 110.408C117.447 109.992 117.463 109.584 117.479 109.184C117.495 108.768 117.511 108.456 117.527 108.248L110.687 119H108.071V106.136H110.063V113.984ZM125.485 113.984C125.485 114.176 125.477 114.464 125.461 114.848C125.445 115.232 125.421 115.616 125.389 116C125.373 116.384 125.357 116.688 125.341 116.912L132.229 106.136H134.821V119H132.853V111.416C132.853 111.16 132.853 110.824 132.853 110.408C132.869 109.992 132.885 109.584 132.901 109.184C132.917 108.768 132.933 108.456 132.949 108.248L126.109 119H123.493V106.136H125.485V113.984ZM12.912 133.136V146H10.8V134.936H4.152V146H2.04V133.136H12.912ZM23.1366 132.896C24.7206 132.896 25.9926 133.448 26.9526 134.552C27.9286 135.656 28.4166 137.32 28.4166 139.544C28.4166 141.736 27.9286 143.4 26.9526 144.536C25.9926 145.672 24.7126 146.24 23.1126 146.24C22.1206 146.24 21.2966 146.056 20.6406 145.688C20.0006 145.304 19.4966 144.864 19.1286 144.368H18.9846C19.0166 144.64 19.0486 144.984 19.0806 145.4C19.1126 145.816 19.1286 146.176 19.1286 146.48V151.76H17.0166V133.136H18.7446L19.0326 134.888H19.1286C19.5126 134.328 20.0166 133.856 20.6406 133.472C21.2646 133.088 22.0966 132.896 23.1366 132.896ZM22.7526 134.672C21.4406 134.672 20.5126 135.04 19.9686 135.776C19.4406 136.512 19.1606 137.632 19.1286 139.136V139.544C19.1286 141.128 19.3846 142.352 19.8966 143.216C20.4246 144.064 21.3926 144.488 22.8006 144.488C23.5846 144.488 24.2246 144.272 24.7206 143.84C25.2326 143.408 25.6086 142.824 25.8486 142.088C26.1046 141.336 26.2326 140.48 26.2326 139.52C26.2326 138.048 25.9446 136.872 25.3686 135.992C24.8086 135.112 23.9366 134.672 22.7526 134.672ZM33.7742 140.984C33.7742 141.176 33.7662 141.464 33.7502 141.848C33.7342 142.232 33.7102 142.616 33.6782 143C33.6622 143.384 33.6462 143.688 33.6302 143.912L40.5182 133.136H43.1102V146H41.1422V138.416C41.1422 138.16 41.1422 137.824 41.1422 137.408C41.1582 136.992 41.1742 136.584 41.1902 136.184C41.2062 135.768 41.2222 135.456 41.2382 135.248L34.3982 146H31.7822V133.136H33.7742V140.984ZM55.0521 133.136V134.912H49.3161V146H47.2041V133.136H55.0521ZM68.5365 139.544C68.5365 141.672 67.9925 143.32 66.9045 144.488C65.8325 145.656 64.3765 146.24 62.5365 146.24C61.4005 146.24 60.3845 145.984 59.4885 145.472C58.6085 144.944 57.9125 144.184 57.4005 143.192C56.8885 142.184 56.6325 140.968 56.6325 139.544C56.6325 137.416 57.1685 135.776 58.2405 134.624C59.3125 133.472 60.7685 132.896 62.6085 132.896C63.7765 132.896 64.8005 133.16 65.6805 133.688C66.5765 134.2 67.2725 134.952 67.7685 135.944C68.2805 136.92 68.5365 138.12 68.5365 139.544ZM58.8165 139.544C58.8165 141.064 59.1125 142.272 59.7045 143.168C60.3125 144.048 61.2725 144.488 62.5845 144.488C63.8805 144.488 64.8325 144.048 65.4405 143.168C66.0485 142.272 66.3525 141.064 66.3525 139.544C66.3525 138.024 66.0485 136.832 65.4405 135.968C64.8325 135.104 63.8725 134.672 62.5605 134.672C61.2485 134.672 60.2965 135.104 59.7045 135.968C59.1125 136.832 58.8165 138.024 58.8165 139.544ZM80.5294 134.912H76.3294V146H74.2414V134.912H70.0894V133.136H80.5294V134.912ZM94.0131 139.544C94.0131 141.672 93.4691 143.32 92.3811 144.488C91.3091 145.656 89.8531 146.24 88.0131 146.24C86.8771 146.24 85.8611 145.984 84.9651 145.472C84.0851 144.944 83.3891 144.184 82.8771 143.192C82.3651 142.184 82.1091 140.968 82.1091 139.544C82.1091 137.416 82.6451 135.776 83.7171 134.624C84.7891 133.472 86.2451 132.896 88.0851 132.896C89.2531 132.896 90.2771 133.16 91.1571 133.688C92.0531 134.2 92.7491 134.952 93.2451 135.944C93.7571 136.92 94.0131 138.12 94.0131 139.544ZM84.2931 139.544C84.2931 141.064 84.5891 142.272 85.1811 143.168C85.7891 144.048 86.7491 144.488 88.0611 144.488C89.3571 144.488 90.3091 144.048 90.9171 143.168C91.5251 142.272 91.8291 141.064 91.8291 139.544C91.8291 138.024 91.5251 136.832 90.9171 135.968C90.3091 135.104 89.3491 134.672 88.0371 134.672C86.7251 134.672 85.7731 135.104 85.1811 135.968C84.5891 136.832 84.2931 138.024 84.2931 139.544ZM107.704 136.376C107.704 137.176 107.464 137.8 106.984 138.248C106.504 138.696 105.888 139 105.136 139.16V139.256C105.936 139.368 106.632 139.656 107.224 140.12C107.816 140.568 108.112 141.272 108.112 142.232C108.112 143.32 107.704 144.224 106.888 144.944C106.088 145.648 104.76 146 102.904 146H97.3603V133.136H102.88C103.792 133.136 104.608 133.24 105.328 133.448C106.064 133.64 106.64 133.976 107.056 134.456C107.488 134.92 107.704 135.56 107.704 136.376ZM105.568 136.64C105.568 136.032 105.344 135.592 104.896 135.32C104.464 135.032 103.752 134.888 102.76 134.888H99.4723V138.416H102.376C104.504 138.416 105.568 137.824 105.568 136.64ZM105.928 142.232C105.928 141.496 105.648 140.968 105.088 140.648C104.528 140.328 103.704 140.168 102.616 140.168H99.4723V144.296H102.664C103.72 144.296 104.528 144.144 105.088 143.84C105.648 143.52 105.928 142.984 105.928 142.232ZM120.98 146H118.844V134.888H115.052C114.844 137.592 114.556 139.776 114.188 141.44C113.82 143.088 113.332 144.288 112.724 145.04C112.116 145.792 111.348 146.168 110.42 146.168C110.212 146.168 110.004 146.152 109.796 146.12C109.604 146.104 109.444 146.064 109.316 146V144.416C109.412 144.448 109.516 144.472 109.628 144.488C109.74 144.504 109.852 144.512 109.964 144.512C110.828 144.512 111.516 143.592 112.028 141.752C112.556 139.912 112.956 137.04 113.228 133.136H120.98V146ZM130.031 132.896C131.135 132.896 132.079 133.136 132.863 133.616C133.663 134.096 134.271 134.776 134.687 135.656C135.119 136.52 135.335 137.536 135.335 138.704V139.976H126.527C126.559 141.432 126.927 142.544 127.631 143.312C128.351 144.064 129.351 144.44 130.631 144.44C131.447 144.44 132.167 144.368 132.791 144.224C133.431 144.064 134.087 143.84 134.759 143.552V145.4C134.103 145.688 133.455 145.896 132.815 146.024C132.175 146.168 131.415 146.24 130.535 146.24C129.319 146.24 128.239 145.992 127.295 145.496C126.367 145 125.639 144.264 125.111 143.288C124.599 142.296 124.343 141.088 124.343 139.664C124.343 138.256 124.575 137.048 125.039 136.04C125.519 135.032 126.183 134.256 127.031 133.712C127.895 133.168 128.895 132.896 130.031 132.896ZM130.007 134.624C128.999 134.624 128.199 134.952 127.607 135.608C127.031 136.248 126.687 137.144 126.575 138.296H133.127C133.111 137.208 132.855 136.328 132.359 135.656C131.863 134.968 131.079 134.624 130.007 134.624ZM140.722 133.136V138.488H147.706V133.136H149.818V146H147.706V140.264H140.722V146H138.61V133.136H140.722ZM155.884 140.984C155.884 141.176 155.876 141.464 155.86 141.848C155.844 142.232 155.82 142.616 155.788 143C155.772 143.384 155.756 143.688 155.74 143.912L162.628 133.136H165.22V146H163.252V138.416C163.252 138.16 163.252 137.824 163.252 137.408C163.268 136.992 163.284 136.584 163.3 136.184C163.316 135.768 163.332 135.456 163.348 135.248L156.508 146H153.892V133.136H155.884V140.984ZM170.105 146H167.657L171.329 140.6C170.833 140.472 170.353 140.272 169.889 140C169.425 139.712 169.049 139.32 168.761 138.824C168.473 138.312 168.329 137.68 168.329 136.928C168.329 135.696 168.745 134.76 169.577 134.12C170.409 133.464 171.513 133.136 172.889 133.136H178.649V146H176.537V140.888H173.417L170.105 146ZM170.369 136.952C170.369 137.688 170.641 138.24 171.185 138.608C171.745 138.96 172.521 139.136 173.513 139.136H176.537V134.888H173.105C172.129 134.888 171.425 135.08 170.993 135.464C170.577 135.848 170.369 136.344 170.369 136.952ZM1.68 166.712H7.56V167.696H1.68V166.712ZM11.5624 173V155.864H21.7384V157.76H13.7224V163.112H16.2664C17.9784 163.112 19.3064 163.328 20.2504 163.76C21.1944 164.176 21.8504 164.752 22.2184 165.488C22.5864 166.208 22.7704 167.04 22.7704 167.984C22.7704 169.552 22.2984 170.784 21.3544 171.68C20.4104 172.56 18.8184 173 16.5784 173H11.5624ZM16.3624 171.152C17.8984 171.152 18.9784 170.896 19.6024 170.384C20.2264 169.856 20.5384 169.056 20.5384 167.984C20.5384 166.88 20.1944 166.104 19.5064 165.656C18.8184 165.208 17.6504 164.984 16.0024 164.984H13.7224V171.152H16.3624ZM37.224 166.544C37.224 168.672 36.68 170.32 35.592 171.488C34.52 172.656 33.064 173.24 31.224 173.24C30.088 173.24 29.072 172.984 28.176 172.472C27.296 171.944 26.6 171.184 26.088 170.192C25.576 169.184 25.32 167.968 25.32 166.544C25.32 164.416 25.856 162.776 26.928 161.624C28 160.472 29.456 159.896 31.296 159.896C32.464 159.896 33.488 160.16 34.368 160.688C35.264 161.2 35.96 161.952 36.456 162.944C36.968 163.92 37.224 165.12 37.224 166.544ZM27.504 166.544C27.504 168.064 27.8 169.272 28.392 170.168C29 171.048 29.96 171.488 31.272 171.488C32.568 171.488 33.52 171.048 34.128 170.168C34.736 169.272 35.04 168.064 35.04 166.544C35.04 165.024 34.736 163.832 34.128 162.968C33.52 162.104 32.56 161.672 31.248 161.672C29.936 161.672 28.984 162.104 28.392 162.968C27.8 163.832 27.504 165.024 27.504 166.544ZM50.3633 173H48.2273V161.888H44.4353C44.2273 164.592 43.9393 166.776 43.5713 168.44C43.2033 170.088 42.7153 171.288 42.1073 172.04C41.4993 172.792 40.7313 173.168 39.8033 173.168C39.5953 173.168 39.3873 173.152 39.1793 173.12C38.9873 173.104 38.8273 173.064 38.6993 173V171.416C38.7953 171.448 38.8993 171.472 39.0113 171.488C39.1233 171.504 39.2353 171.512 39.3473 171.512C40.2113 171.512 40.8993 170.592 41.4113 168.752C41.9393 166.912 42.3393 164.04 42.6113 160.136H50.3633V173ZM60.3743 165.416C63.7183 165.416 65.3903 166.632 65.3903 169.064C65.3903 170.264 64.9823 171.224 64.1663 171.944C63.3503 172.648 62.0543 173 60.2783 173H54.4463V160.136H56.5583V165.416H60.3743ZM63.2783 169.184C63.2783 168.4 62.9983 167.872 62.4383 167.6C61.8943 167.312 61.1263 167.168 60.1343 167.168H56.5583V171.296H60.1823C61.0783 171.296 61.8143 171.136 62.3903 170.816C62.9823 170.496 63.2783 169.952 63.2783 169.184ZM86.1443 160.136V173H68.6963V160.136H70.8083V171.224H76.3523V160.136H78.4643V171.224H84.0323V160.136H86.1443ZM101.443 166.544C101.443 168.672 100.899 170.32 99.8108 171.488C98.7388 172.656 97.2828 173.24 95.4428 173.24C94.3068 173.24 93.2908 172.984 92.3948 172.472C91.5148 171.944 90.8188 171.184 90.3068 170.192C89.7948 169.184 89.5388 167.968 89.5388 166.544C89.5388 164.416 90.0748 162.776 91.1468 161.624C92.2188 160.472 93.6748 159.896 95.5148 159.896C96.6828 159.896 97.7068 160.16 98.5868 160.688C99.4828 161.2 100.179 161.952 100.675 162.944C101.187 163.92 101.443 165.12 101.443 166.544ZM91.7228 166.544C91.7228 168.064 92.0188 169.272 92.6108 170.168C93.2188 171.048 94.1788 171.488 95.4908 171.488C96.7868 171.488 97.7388 171.048 98.3468 170.168C98.9548 169.272 99.2588 168.064 99.2588 166.544C99.2588 165.024 98.9548 163.832 98.3468 162.968C97.7388 162.104 96.7788 161.672 95.4668 161.672C94.1548 161.672 93.2028 162.104 92.6108 162.968C92.0188 163.832 91.7228 165.024 91.7228 166.544ZM115.206 154.808C115.094 156.008 114.686 156.92 113.982 157.544C113.294 158.152 112.19 158.456 110.67 158.456C109.102 158.456 107.99 158.152 107.334 157.544C106.694 156.936 106.334 156.024 106.254 154.808H108.222C108.302 155.672 108.526 156.256 108.894 156.56C109.278 156.848 109.886 156.992 110.718 156.992C111.454 156.992 112.03 156.84 112.446 156.536C112.878 156.216 113.134 155.64 113.214 154.808H115.206ZM106.782 167.984C106.782 168.176 106.774 168.464 106.758 168.848C106.742 169.232 106.718 169.616 106.686 170C106.67 170.384 106.654 170.688 106.638 170.912L113.526 160.136H116.118V173H114.15V165.416C114.15 165.16 114.15 164.824 114.15 164.408C114.166 163.992 114.182 163.584 114.198 163.184C114.214 162.768 114.23 162.456 114.246 162.248L107.406 173H104.79V160.136H106.782V167.984ZM138.333 166.544C138.333 168.672 137.789 170.32 136.701 171.488C135.629 172.656 134.173 173.24 132.333 173.24C131.197 173.24 130.181 172.984 129.285 172.472C128.405 171.944 127.709 171.184 127.197 170.192C126.685 169.184 126.429 167.968 126.429 166.544C126.429 164.416 126.965 162.776 128.037 161.624C129.109 160.472 130.565 159.896 132.405 159.896C133.573 159.896 134.597 160.16 135.477 160.688C136.373 161.2 137.069 161.952 137.565 162.944C138.077 163.92 138.333 165.12 138.333 166.544ZM128.613 166.544C128.613 168.064 128.909 169.272 129.501 170.168C130.109 171.048 131.069 171.488 132.381 171.488C133.677 171.488 134.629 171.048 135.237 170.168C135.845 169.272 136.149 168.064 136.149 166.544C136.149 165.024 135.845 163.832 135.237 162.968C134.629 162.104 133.669 161.672 132.357 161.672C131.045 161.672 130.093 162.104 129.501 162.968C128.909 163.832 128.613 165.024 128.613 166.544ZM152.553 160.136V173H150.441V161.936H143.793V173H141.681V160.136H152.553ZM156.657 173V160.136H158.769V165.416H162.105C163.769 165.416 165.001 165.72 165.801 166.328C166.601 166.936 167.001 167.848 167.001 169.064C167.001 170.264 166.609 171.224 165.825 171.944C165.041 172.648 163.769 173 162.009 173H156.657ZM169.137 173V160.136H171.249V173H169.137ZM161.817 171.296C162.729 171.296 163.473 171.144 164.049 170.84C164.625 170.52 164.913 169.968 164.913 169.184C164.913 168.4 164.649 167.872 164.121 167.6C163.593 167.312 162.833 167.168 161.841 167.168H158.769V171.296H161.817ZM184.217 161.912H180.017V173H177.929V161.912H173.777V160.136H184.217V161.912ZM12.912 187.136V200H10.8V188.936H4.152V200H2.04V187.136H12.912ZM28.2006 193.544C28.2006 195.672 27.6566 197.32 26.5686 198.488C25.4966 199.656 24.0406 200.24 22.2006 200.24C21.0646 200.24 20.0486 199.984 19.1526 199.472C18.2726 198.944 17.5766 198.184 17.0646 197.192C16.5526 196.184 16.2966 194.968 16.2966 193.544C16.2966 191.416 16.8326 189.776 17.9046 188.624C18.9766 187.472 20.4326 186.896 22.2726 186.896C23.4406 186.896 24.4646 187.16 25.3446 187.688C26.2406 188.2 26.9366 188.952 27.4326 189.944C27.9446 190.92 28.2006 192.12 28.2006 193.544ZM18.4806 193.544C18.4806 195.064 18.7766 196.272 19.3686 197.168C19.9766 198.048 20.9366 198.488 22.2486 198.488C23.5446 198.488 24.4966 198.048 25.1046 197.168C25.7126 196.272 26.0166 195.064 26.0166 193.544C26.0166 192.024 25.7126 190.832 25.1046 189.968C24.4966 189.104 23.5366 188.672 22.2246 188.672C20.9126 188.672 19.9606 189.104 19.3686 189.968C18.7766 190.832 18.4806 192.024 18.4806 193.544ZM36.7078 200.24C35.5718 200.24 34.5558 200.008 33.6598 199.544C32.7798 199.08 32.0838 198.36 31.5718 197.384C31.0758 196.408 30.8278 195.16 30.8278 193.64C30.8278 192.056 31.0918 190.768 31.6198 189.776C32.1478 188.784 32.8598 188.056 33.7558 187.592C34.6678 187.128 35.6998 186.896 36.8518 186.896C37.5078 186.896 38.1398 186.968 38.7478 187.112C39.3558 187.24 39.8518 187.4 40.2358 187.592L39.5878 189.344C39.2038 189.2 38.7558 189.064 38.2438 188.936C37.7318 188.808 37.2518 188.744 36.8038 188.744C34.2758 188.744 33.0118 190.368 33.0118 193.616C33.0118 195.168 33.3158 196.36 33.9238 197.192C34.5478 198.008 35.4678 198.416 36.6838 198.416C37.3878 198.416 38.0038 198.344 38.5318 198.2C39.0758 198.056 39.5718 197.88 40.0198 197.672V199.544C39.5878 199.768 39.1078 199.936 38.5798 200.048C38.0678 200.176 37.4438 200.24 36.7078 200.24ZM51.9591 188.912H47.7591V200H45.6711V188.912H41.5191V187.136H51.9591V188.912ZM60.6131 186.896C62.1971 186.896 63.4691 187.448 64.4291 188.552C65.4051 189.656 65.8931 191.32 65.8931 193.544C65.8931 195.736 65.4051 197.4 64.4291 198.536C63.4691 199.672 62.1891 200.24 60.5891 200.24C59.5971 200.24 58.7731 200.056 58.1171 199.688C57.4771 199.304 56.9731 198.864 56.6051 198.368H56.4611C56.4931 198.64 56.5251 198.984 56.5571 199.4C56.5891 199.816 56.6051 200.176 56.6051 200.48V205.76H54.4931V187.136H56.2211L56.5091 188.888H56.6051C56.9891 188.328 57.4931 187.856 58.1171 187.472C58.7411 187.088 59.5731 186.896 60.6131 186.896ZM60.2291 188.672C58.9171 188.672 57.9891 189.04 57.4451 189.776C56.9171 190.512 56.6371 191.632 56.6051 193.136V193.544C56.6051 195.128 56.8611 196.352 57.3731 197.216C57.9011 198.064 58.8691 198.488 60.2771 198.488C61.0611 198.488 61.7011 198.272 62.1971 197.84C62.7091 197.408 63.0851 196.824 63.3251 196.088C63.5811 195.336 63.7091 194.48 63.7091 193.52C63.7091 192.048 63.4211 190.872 62.8451 189.992C62.2851 189.112 61.4131 188.672 60.2291 188.672ZM80.4427 193.544C80.4427 195.672 79.8988 197.32 78.8108 198.488C77.7388 199.656 76.2828 200.24 74.4428 200.24C73.3068 200.24 72.2908 199.984 71.3948 199.472C70.5148 198.944 69.8188 198.184 69.3068 197.192C68.7948 196.184 68.5388 194.968 68.5388 193.544C68.5388 191.416 69.0748 189.776 70.1468 188.624C71.2188 187.472 72.6748 186.896 74.5148 186.896C75.6828 186.896 76.7068 187.16 77.5868 187.688C78.4828 188.2 79.1788 188.952 79.6748 189.944C80.1868 190.92 80.4427 192.12 80.4427 193.544ZM70.7228 193.544C70.7228 195.064 71.0188 196.272 71.6108 197.168C72.2188 198.048 73.1788 198.488 74.4908 198.488C75.7868 198.488 76.7388 198.048 77.3468 197.168C77.9548 196.272 78.2588 195.064 78.2588 193.544C78.2588 192.024 77.9548 190.832 77.3468 189.968C76.7388 189.104 75.7788 188.672 74.4668 188.672C73.1548 188.672 72.2028 189.104 71.6108 189.968C71.0188 190.832 70.7228 192.024 70.7228 193.544ZM88.758 186.896C89.862 186.896 90.806 187.136 91.59 187.616C92.39 188.096 92.998 188.776 93.414 189.656C93.846 190.52 94.062 191.536 94.062 192.704V193.976H85.254C85.286 195.432 85.654 196.544 86.358 197.312C87.078 198.064 88.078 198.44 89.358 198.44C90.174 198.44 90.894 198.368 91.518 198.224C92.158 198.064 92.814 197.84 93.486 197.552V199.4C92.83 199.688 92.182 199.896 91.542 200.024C90.902 200.168 90.142 200.24 89.262 200.24C88.046 200.24 86.966 199.992 86.022 199.496C85.094 199 84.366 198.264 83.838 197.288C83.326 196.296 83.07 195.088 83.07 193.664C83.07 192.256 83.302 191.048 83.766 190.04C84.246 189.032 84.91 188.256 85.758 187.712C86.622 187.168 87.622 186.896 88.758 186.896ZM88.734 188.624C87.726 188.624 86.926 188.952 86.334 189.608C85.758 190.248 85.414 191.144 85.302 192.296H91.854C91.838 191.208 91.582 190.328 91.086 189.656C90.59 188.968 89.806 188.624 88.734 188.624ZM99.4489 187.136V192.488H106.433V187.136H108.545V200H106.433V194.264H99.4489V200H97.3369V187.136H99.4489ZM114.61 194.984C114.61 195.176 114.602 195.464 114.586 195.848C114.57 196.232 114.546 196.616 114.514 197C114.498 197.384 114.482 197.688 114.466 197.912L121.354 187.136H123.946V200H121.978V192.416C121.978 192.16 121.978 191.824 121.978 191.408C121.994 190.992 122.01 190.584 122.026 190.184C122.042 189.768 122.058 189.456 122.074 189.248L115.234 200H112.618V187.136H114.61V194.984ZM128.832 200H126.384L130.056 194.6C129.56 194.472 129.08 194.272 128.616 194C128.152 193.712 127.776 193.32 127.488 192.824C127.2 192.312 127.056 191.68 127.056 190.928C127.056 189.696 127.472 188.76 128.304 188.12C129.136 187.464 130.24 187.136 131.616 187.136H137.376V200H135.264V194.888H132.144L128.832 200ZM129.096 190.952C129.096 191.688 129.368 192.24 129.912 192.608C130.472 192.96 131.248 193.136 132.24 193.136H135.264V188.888H131.832C130.856 188.888 130.152 189.08 129.72 189.464C129.304 189.848 129.096 190.344 129.096 190.952ZM1.368 219.272C1.368 216.456 1.792 214.264 2.64 212.696C3.488 211.112 4.856 210.12 6.744 209.72C7.784 209.496 8.8 209.296 9.792 209.12C10.784 208.944 11.712 208.784 12.576 208.64L12.936 210.488C12.376 210.568 11.744 210.672 11.04 210.8C10.336 210.912 9.64 211.032 8.952 211.16C8.264 211.272 7.672 211.384 7.176 211.496C6.136 211.72 5.312 212.264 4.704 213.128C4.096 213.976 3.752 215.304 3.672 217.112H3.816C4.04 216.808 4.344 216.496 4.728 216.176C5.128 215.856 5.6 215.584 6.144 215.36C6.704 215.136 7.336 215.024 8.04 215.024C9.704 215.024 10.96 215.56 11.808 216.632C12.656 217.704 13.08 219.096 13.08 220.808C13.08 222.232 12.832 223.424 12.336 224.384C11.84 225.344 11.152 226.064 10.272 226.544C9.392 227.008 8.368 227.24 7.2 227.24C5.424 227.24 4.008 226.56 2.952 225.2C1.896 223.84 1.368 221.864 1.368 219.272ZM7.368 225.488C8.408 225.488 9.248 225.152 9.888 224.48C10.528 223.808 10.848 222.656 10.848 221.024C10.848 219.712 10.6 218.68 10.104 217.928C9.624 217.16 8.824 216.776 7.704 216.776C7 216.776 6.36 216.936 5.784 217.256C5.208 217.56 4.728 217.912 4.344 218.312C3.96 218.712 3.688 219.048 3.528 219.32C3.528 220.104 3.584 220.864 3.696 221.6C3.808 222.336 4 223 4.272 223.592C4.56 224.168 4.952 224.632 5.448 224.984C5.96 225.32 6.6 225.488 7.368 225.488ZM18.3992 221.984C18.3992 222.176 18.3912 222.464 18.3752 222.848C18.3592 223.232 18.3352 223.616 18.3032 224C18.2872 224.384 18.2712 224.688 18.2552 224.912L25.1432 214.136H27.7352V227H25.7672V219.416C25.7672 219.16 25.7672 218.824 25.7672 218.408C25.7832 217.992 25.7992 217.584 25.8152 217.184C25.8312 216.768 25.8472 216.456 25.8632 216.248L19.0232 227H16.4072V214.136H18.3992V221.984ZM35.2131 213.896C36.6851 213.896 37.8531 214.192 38.7171 214.784C39.5971 215.36 40.0371 216.192 40.0371 217.28C40.0371 218.064 39.8211 218.688 39.3891 219.152C38.9571 219.6 38.3651 219.928 37.6131 220.136V220.232C38.1251 220.376 38.5971 220.576 39.0291 220.832C39.4611 221.088 39.8051 221.424 40.0611 221.84C40.3331 222.256 40.4691 222.792 40.4691 223.448C40.4691 224.52 40.0211 225.424 39.1251 226.16C38.2451 226.88 36.8611 227.24 34.9731 227.24C34.0451 227.24 33.2051 227.16 32.4531 227C31.7011 226.856 31.0771 226.656 30.5811 226.4V224.504C31.1251 224.76 31.7651 224.992 32.5011 225.2C33.2531 225.408 34.0691 225.512 34.9491 225.512C35.9091 225.512 36.7171 225.352 37.3731 225.032C38.0451 224.696 38.3811 224.128 38.3811 223.328C38.3811 221.888 37.1571 221.168 34.7091 221.168H32.9811V219.44H34.3731C35.4771 219.44 36.3571 219.296 37.0131 219.008C37.6851 218.704 38.0211 218.192 38.0211 217.472C38.0211 216.864 37.7651 216.408 37.2531 216.104C36.7571 215.8 36.0371 215.648 35.0931 215.648C34.3891 215.648 33.7651 215.72 33.2211 215.864C32.6931 215.992 32.1091 216.192 31.4691 216.464L30.7251 214.784C32.0691 214.192 33.5651 213.896 35.2131 213.896ZM45.7067 214.136V219.488H52.6907V214.136H54.8027V227H52.6907V221.264H45.7067V227H43.5947V214.136H45.7067ZM63.8439 213.896C64.9479 213.896 65.8919 214.136 66.6759 214.616C67.4759 215.096 68.0839 215.776 68.4999 216.656C68.9319 217.52 69.1479 218.536 69.1479 219.704V220.976H60.3399C60.3719 222.432 60.7399 223.544 61.4439 224.312C62.1639 225.064 63.1639 225.44 64.4439 225.44C65.2599 225.44 65.9799 225.368 66.6039 225.224C67.2439 225.064 67.8999 224.84 68.5719 224.552V226.4C67.9159 226.688 67.2679 226.896 66.6279 227.024C65.9879 227.168 65.2279 227.24 64.3479 227.24C63.1319 227.24 62.0519 226.992 61.1079 226.496C60.1799 226 59.4519 225.264 58.9239 224.288C58.4119 223.296 58.1559 222.088 58.1559 220.664C58.1559 219.256 58.3879 218.048 58.8519 217.04C59.3319 216.032 59.9959 215.256 60.8439 214.712C61.7079 214.168 62.7079 213.896 63.8439 213.896ZM63.8199 215.624C62.8119 215.624 62.0119 215.952 61.4199 216.608C60.8439 217.248 60.4999 218.144 60.3879 219.296H66.9399C66.9239 218.208 66.6679 217.328 66.1719 216.656C65.6759 215.968 64.8919 215.624 63.8199 215.624ZM77.5828 227.24C76.4468 227.24 75.4308 227.008 74.5348 226.544C73.6548 226.08 72.9588 225.36 72.4468 224.384C71.9508 223.408 71.7028 222.16 71.7028 220.64C71.7028 219.056 71.9668 217.768 72.4948 216.776C73.0228 215.784 73.7348 215.056 74.6308 214.592C75.5428 214.128 76.5748 213.896 77.7268 213.896C78.3828 213.896 79.0148 213.968 79.6228 214.112C80.2308 214.24 80.7268 214.4 81.1108 214.592L80.4628 216.344C80.0788 216.2 79.6308 216.064 79.1188 215.936C78.6068 215.808 78.1268 215.744 77.6788 215.744C75.1508 215.744 73.8868 217.368 73.8868 220.616C73.8868 222.168 74.1908 223.36 74.7988 224.192C75.4228 225.008 76.3428 225.416 77.5588 225.416C78.2628 225.416 78.8788 225.344 79.4068 225.2C79.9508 225.056 80.4468 224.88 80.8948 224.672V226.544C80.4628 226.768 79.9828 226.936 79.4548 227.048C78.9428 227.176 78.3188 227.24 77.5828 227.24ZM88.8261 213.92C90.3941 213.92 91.5541 214.264 92.3061 214.952C93.0581 215.64 93.4341 216.736 93.4341 218.24V227H91.8981L91.4901 225.176H91.3941C90.8341 225.88 90.2421 226.4 89.6181 226.736C89.0101 227.072 88.1621 227.24 87.0741 227.24C85.9061 227.24 84.9381 226.936 84.1701 226.328C83.4021 225.704 83.0181 224.736 83.0181 223.424C83.0181 222.144 83.5221 221.16 84.5301 220.472C85.5381 219.768 87.0901 219.384 89.1861 219.32L91.3701 219.248V218.48C91.3701 217.408 91.1381 216.664 90.6741 216.248C90.2101 215.832 89.5541 215.624 88.7061 215.624C88.0341 215.624 87.3941 215.728 86.7861 215.936C86.1781 216.128 85.6101 216.352 85.0821 216.608L84.4341 215.024C84.9941 214.72 85.6581 214.464 86.4261 214.256C87.1941 214.032 87.9941 213.92 88.8261 213.92ZM89.4501 220.784C87.8501 220.848 86.7381 221.104 86.1141 221.552C85.5061 222 85.2021 222.632 85.2021 223.448C85.2021 224.168 85.4181 224.696 85.8501 225.032C86.2981 225.368 86.8661 225.536 87.5541 225.536C88.6421 225.536 89.5461 225.24 90.2661 224.648C90.9861 224.04 91.3461 223.112 91.3461 221.864V220.712L89.4501 220.784ZM1.68 247.712H7.56V248.696H1.68V247.712ZM11.5624 254V236.864H24.4264V254H22.2904V238.76H13.7224V254H11.5624ZM40.0131 247.544C40.0131 249.672 39.4691 251.32 38.3811 252.488C37.3091 253.656 35.8531 254.24 34.0131 254.24C32.8771 254.24 31.8611 253.984 30.9651 253.472C30.0851 252.944 29.3891 252.184 28.8771 251.192C28.3651 250.184 28.1091 248.968 28.1091 247.544C28.1091 245.416 28.6451 243.776 29.7171 242.624C30.7891 241.472 32.2451 240.896 34.0851 240.896C35.2531 240.896 36.2771 241.16 37.1571 241.688C38.0531 242.2 38.7491 242.952 39.2451 243.944C39.7571 244.92 40.0131 246.12 40.0131 247.544ZM30.2931 247.544C30.2931 249.064 30.5891 250.272 31.1811 251.168C31.7891 252.048 32.7491 252.488 34.0611 252.488C35.3571 252.488 36.3091 252.048 36.9171 251.168C37.5251 250.272 37.8291 249.064 37.8291 247.544C37.8291 246.024 37.5251 244.832 36.9171 243.968C36.3091 243.104 35.3491 242.672 34.0371 242.672C32.7251 242.672 31.7731 243.104 31.1811 243.968C30.5891 244.832 30.2931 246.024 30.2931 247.544ZM52.9123 241.136V252.224H54.7843V258.464H52.7443V254H43.7923V258.464H41.7763V252.224H42.8083C43.9123 250.704 44.7363 248.976 45.2803 247.04C45.8403 245.088 46.1283 243.12 46.1443 241.136H52.9123ZM48.0163 242.792C47.9523 243.88 47.7843 245.008 47.5123 246.176C47.2403 247.328 46.8883 248.432 46.4563 249.488C46.0403 250.544 45.5523 251.456 44.9923 252.224H50.8723V242.792H48.0163ZM66.8576 241.136V252.224H68.7296V258.464H66.6896V254H57.7376V258.464H55.7216V252.224H56.7536C57.8576 250.704 58.6816 248.976 59.2256 247.04C59.7856 245.088 60.0736 243.12 60.0896 241.136H66.8576ZM61.9616 242.792C61.8976 243.88 61.7296 245.008 61.4576 246.176C61.1856 247.328 60.8336 248.432 60.4016 249.488C59.9856 250.544 59.4976 251.456 58.9376 252.224H64.8176V242.792H61.9616ZM76.2189 240.896C77.3229 240.896 78.2669 241.136 79.0509 241.616C79.8509 242.096 80.4589 242.776 80.8749 243.656C81.3069 244.52 81.5229 245.536 81.5229 246.704V247.976H72.7149C72.7469 249.432 73.1149 250.544 73.8189 251.312C74.5389 252.064 75.5389 252.44 76.8189 252.44C77.6349 252.44 78.3549 252.368 78.9789 252.224C79.6189 252.064 80.2749 251.84 80.9469 251.552V253.4C80.2909 253.688 79.6429 253.896 79.0029 254.024C78.3629 254.168 77.6029 254.24 76.7229 254.24C75.5069 254.24 74.4269 253.992 73.4829 253.496C72.5549 253 71.8269 252.264 71.2989 251.288C70.7869 250.296 70.5309 249.088 70.5309 247.664C70.5309 246.256 70.7629 245.048 71.2269 244.04C71.7069 243.032 72.3709 242.256 73.2189 241.712C74.0829 241.168 75.0829 240.896 76.2189 240.896ZM76.1949 242.624C75.1869 242.624 74.3869 242.952 73.7949 243.608C73.2189 244.248 72.8749 245.144 72.7629 246.296H79.3149C79.2989 245.208 79.0429 244.328 78.5469 243.656C78.0509 242.968 77.2669 242.624 76.1949 242.624ZM90.9178 240.896C92.5018 240.896 93.7738 241.448 94.7338 242.552C95.7098 243.656 96.1978 245.32 96.1978 247.544C96.1978 249.736 95.7098 251.4 94.7338 252.536C93.7738 253.672 92.4938 254.24 90.8938 254.24C89.9018 254.24 89.0778 254.056 88.4218 253.688C87.7818 253.304 87.2778 252.864 86.9098 252.368H86.7658C86.7978 252.64 86.8298 252.984 86.8618 253.4C86.8938 253.816 86.9098 254.176 86.9098 254.48V259.76H84.7978V241.136H86.5258L86.8138 242.888H86.9098C87.2938 242.328 87.7978 241.856 88.4218 241.472C89.0458 241.088 89.8778 240.896 90.9178 240.896ZM90.5338 242.672C89.2218 242.672 88.2938 243.04 87.7498 243.776C87.2218 244.512 86.9418 245.632 86.9098 247.136V247.544C86.9098 249.128 87.1658 250.352 87.6778 251.216C88.2058 252.064 89.1738 252.488 90.5818 252.488C91.3658 252.488 92.0058 252.272 92.5018 251.84C93.0138 251.408 93.3898 250.824 93.6298 250.088C93.8858 249.336 94.0138 248.48 94.0138 247.52C94.0138 246.048 93.7258 244.872 93.1498 243.992C92.5898 243.112 91.7178 242.672 90.5338 242.672ZM114.527 241.136L109.223 247.376L114.983 254H112.583L107.015 247.472V254H105.047V247.472L99.4787 254H97.0787L102.839 247.376L97.5347 241.136H99.8387L105.047 247.376V241.136H107.015V247.376L112.247 241.136H114.527ZM124.703 241.136H127.007L121.511 247.328L127.463 254H125.015L119.207 247.472V254H117.095V241.136H119.207V247.376L124.703 241.136ZM134.67 240.92C136.238 240.92 137.398 241.264 138.15 241.952C138.902 242.64 139.278 243.736 139.278 245.24V254H137.742L137.334 252.176H137.238C136.678 252.88 136.086 253.4 135.462 253.736C134.854 254.072 134.006 254.24 132.918 254.24C131.75 254.24 130.782 253.936 130.014 253.328C129.246 252.704 128.862 251.736 128.862 250.424C128.862 249.144 129.366 248.16 130.374 247.472C131.382 246.768 132.934 246.384 135.03 246.32L137.214 246.248V245.48C137.214 244.408 136.982 243.664 136.518 243.248C136.054 242.832 135.398 242.624 134.55 242.624C133.878 242.624 133.238 242.728 132.63 242.936C132.022 243.128 131.454 243.352 130.926 243.608L130.278 242.024C130.838 241.72 131.502 241.464 132.27 241.256C133.038 241.032 133.838 240.92 134.67 240.92ZM135.294 247.784C133.694 247.848 132.582 248.104 131.958 248.552C131.35 249 131.046 249.632 131.046 250.448C131.046 251.168 131.262 251.696 131.694 252.032C132.142 252.368 132.71 252.536 133.398 252.536C134.486 252.536 135.39 252.24 136.11 251.648C136.83 251.04 137.19 250.112 137.19 248.864V247.712L135.294 247.784ZM9.648 268.136H11.952L6.456 274.328L12.408 281H9.96L4.152 274.472V281H2.04V268.136H4.152V274.376L9.648 268.136ZM25.4584 274.544C25.4584 276.672 24.9144 278.32 23.8264 279.488C22.7544 280.656 21.2984 281.24 19.4584 281.24C18.3224 281.24 17.3064 280.984 16.4104 280.472C15.5304 279.944 14.8344 279.184 14.3224 278.192C13.8104 277.184 13.5544 275.968 13.5544 274.544C13.5544 272.416 14.0904 270.776 15.1624 269.624C16.2344 268.472 17.6904 267.896 19.5304 267.896C20.6984 267.896 21.7224 268.16 22.6024 268.688C23.4984 269.2 24.1944 269.952 24.6904 270.944C25.2024 271.92 25.4584 273.12 25.4584 274.544ZM15.7384 274.544C15.7384 276.064 16.0344 277.272 16.6264 278.168C17.2344 279.048 18.1944 279.488 19.5064 279.488C20.8024 279.488 21.7544 279.048 22.3624 278.168C22.9704 277.272 23.2744 276.064 23.2744 274.544C23.2744 273.024 22.9704 271.832 22.3624 270.968C21.7544 270.104 20.7944 269.672 19.4824 269.672C18.1704 269.672 17.2184 270.104 16.6264 270.968C16.0344 271.832 15.7384 273.024 15.7384 274.544ZM42.6056 268.136V281H40.7096V272.792C40.7096 272.456 40.7176 272.104 40.7336 271.736C40.7656 271.368 40.7976 271.008 40.8296 270.656H40.7576L36.5576 281H34.7816L30.7016 270.656H30.6296C30.6776 271.376 30.7016 272.112 30.7016 272.864V281H28.8056V268.136H31.6136L35.6696 278.48L39.7976 268.136H42.6056ZM51.5839 267.92C53.1519 267.92 54.3119 268.264 55.0639 268.952C55.8159 269.64 56.1919 270.736 56.1919 272.24V281H54.6559L54.2479 279.176H54.1519C53.5919 279.88 52.9999 280.4 52.3759 280.736C51.7679 281.072 50.9199 281.24 49.8319 281.24C48.6639 281.24 47.6959 280.936 46.9279 280.328C46.1599 279.704 45.7759 278.736 45.7759 277.424C45.7759 276.144 46.2799 275.16 47.2879 274.472C48.2959 273.768 49.8479 273.384 51.9439 273.32L54.1279 273.248V272.48C54.1279 271.408 53.8959 270.664 53.4319 270.248C52.9679 269.832 52.3119 269.624 51.4639 269.624C50.7919 269.624 50.1519 269.728 49.5439 269.936C48.9359 270.128 48.3679 270.352 47.8399 270.608L47.1919 269.024C47.7519 268.72 48.4159 268.464 49.1839 268.256C49.9519 268.032 50.7519 267.92 51.5839 267.92ZM52.2079 274.784C50.6079 274.848 49.4959 275.104 48.8719 275.552C48.2639 276 47.9599 276.632 47.9599 277.448C47.9599 278.168 48.1759 278.696 48.6079 279.032C49.0559 279.368 49.6239 279.536 50.3119 279.536C51.3999 279.536 52.3039 279.24 53.0239 278.648C53.7439 278.04 54.1039 277.112 54.1039 275.864V274.712L52.2079 274.784ZM62.277 268.136V273.488H69.261V268.136H71.373V281H69.261V275.264H62.277V281H60.165V268.136H62.277ZM84.9983 268.136V279.224H86.8703V285.464H84.8303V281H75.8783V285.464H73.8623V279.224H74.8943C75.9983 277.704 76.8223 275.976 77.3663 274.04C77.9263 272.088 78.2143 270.12 78.2303 268.136H84.9983ZM80.1023 269.792C80.0383 270.88 79.8703 272.008 79.5983 273.176C79.3263 274.328 78.9743 275.432 78.5423 276.488C78.1263 277.544 77.6383 278.456 77.0783 279.224H82.9583V269.792H80.1023ZM89.3916 281V268.136H91.5036V273.416H94.8396C96.5036 273.416 97.7356 273.72 98.5356 274.328C99.3356 274.936 99.7356 275.848 99.7356 277.064C99.7356 278.264 99.3436 279.224 98.5596 279.944C97.7756 280.648 96.5036 281 94.7436 281H89.3916ZM101.872 281V268.136H103.984V281H101.872ZM94.5516 279.296C95.4636 279.296 96.2076 279.144 96.7836 278.84C97.3596 278.52 97.6476 277.968 97.6476 277.184C97.6476 276.4 97.3836 275.872 96.8556 275.6C96.3276 275.312 95.5676 275.168 94.5756 275.168H91.5036V279.296H94.5516ZM12.912 295.136V308H10.8V296.936H4.152V308H2.04V295.136H12.912ZM23.1366 294.896C24.7206 294.896 25.9926 295.448 26.9526 296.552C27.9286 297.656 28.4166 299.32 28.4166 301.544C28.4166 303.736 27.9286 305.4 26.9526 306.536C25.9926 307.672 24.7126 308.24 23.1126 308.24C22.1206 308.24 21.2966 308.056 20.6406 307.688C20.0006 307.304 19.4966 306.864 19.1286 306.368H18.9846C19.0166 306.64 19.0486 306.984 19.0806 307.4C19.1126 307.816 19.1286 308.176 19.1286 308.48V313.76H17.0166V295.136H18.7446L19.0326 296.888H19.1286C19.5126 296.328 20.0166 295.856 20.6406 295.472C21.2646 295.088 22.0966 294.896 23.1366 294.896ZM22.7526 296.672C21.4406 296.672 20.5126 297.04 19.9686 297.776C19.4406 298.512 19.1606 299.632 19.1286 301.136V301.544C19.1286 303.128 19.3846 304.352 19.8966 305.216C20.4246 306.064 21.3926 306.488 22.8006 306.488C23.5846 306.488 24.2246 306.272 24.7206 305.84C25.2326 305.408 25.6086 304.824 25.8486 304.088C26.1046 303.336 26.2326 302.48 26.2326 301.52C26.2326 300.048 25.9446 298.872 25.3686 297.992C24.8086 297.112 23.9366 296.672 22.7526 296.672ZM42.9662 301.544C42.9662 303.672 42.4222 305.32 41.3342 306.488C40.2622 307.656 38.8062 308.24 36.9662 308.24C35.8302 308.24 34.8142 307.984 33.9182 307.472C33.0382 306.944 32.3422 306.184 31.8302 305.192C31.3182 304.184 31.0622 302.968 31.0622 301.544C31.0622 299.416 31.5982 297.776 32.6702 296.624C33.7422 295.472 35.1982 294.896 37.0382 294.896C38.2062 294.896 39.2302 295.16 40.1102 295.688C41.0062 296.2 41.7022 296.952 42.1982 297.944C42.7102 298.92 42.9662 300.12 42.9662 301.544ZM33.2462 301.544C33.2462 303.064 33.5422 304.272 34.1342 305.168C34.7422 306.048 35.7022 306.488 37.0142 306.488C38.3102 306.488 39.2622 306.048 39.8702 305.168C40.4782 304.272 40.7822 303.064 40.7822 301.544C40.7822 300.024 40.4782 298.832 39.8702 297.968C39.2622 297.104 38.3022 296.672 36.9902 296.672C35.6782 296.672 34.7262 297.104 34.1342 297.968C33.5422 298.832 33.2462 300.024 33.2462 301.544ZM53.9934 294.944C55.2734 295.056 56.3854 295.392 57.3294 295.952C58.2894 296.512 59.0334 297.264 59.5614 298.208C60.0894 299.152 60.3534 300.272 60.3534 301.568C60.3534 303.504 59.7854 305.048 58.6494 306.2C57.5294 307.352 55.9774 308.016 53.9934 308.192V313.76H51.9294V308.192C50.6654 308.08 49.5534 307.752 48.5934 307.208C47.6334 306.648 46.8894 305.896 46.3614 304.952C45.8334 303.992 45.5694 302.864 45.5694 301.568C45.5694 299.616 46.1294 298.064 47.2494 296.912C48.3854 295.76 49.9694 295.104 52.0014 294.944V289.76H53.9934V294.944ZM52.0014 296.696C50.5294 296.84 49.4574 297.328 48.7854 298.16C48.1134 298.976 47.7774 300.112 47.7774 301.568C47.7774 303.024 48.1134 304.168 48.7854 305C49.4734 305.832 50.5454 306.32 52.0014 306.464V296.696ZM53.9934 306.464C55.4334 306.304 56.4894 305.808 57.1614 304.976C57.8334 304.144 58.1694 303.008 58.1694 301.568C58.1694 300.128 57.8254 299 57.1374 298.184C56.4654 297.368 55.4174 296.88 53.9934 296.72V306.464ZM68.6721 294.896C69.7761 294.896 70.7201 295.136 71.5041 295.616C72.3041 296.096 72.9121 296.776 73.3281 297.656C73.7601 298.52 73.9761 299.536 73.9761 300.704V301.976H65.1681C65.2001 303.432 65.5681 304.544 66.2721 305.312C66.9921 306.064 67.9921 306.44 69.2721 306.44C70.0881 306.44 70.8081 306.368 71.4321 306.224C72.0721 306.064 72.7281 305.84 73.4001 305.552V307.4C72.7441 307.688 72.0961 307.896 71.4561 308.024C70.8161 308.168 70.0561 308.24 69.1761 308.24C67.9601 308.24 66.8801 307.992 65.9361 307.496C65.0081 307 64.2801 306.264 63.7521 305.288C63.2401 304.296 62.9841 303.088 62.9841 301.664C62.9841 300.256 63.2161 299.048 63.6801 298.04C64.1601 297.032 64.8241 296.256 65.6721 295.712C66.5361 295.168 67.5361 294.896 68.6721 294.896ZM68.6481 296.624C67.6401 296.624 66.8401 296.952 66.2481 297.608C65.6721 298.248 65.3281 299.144 65.2161 300.296H71.7681C71.7521 299.208 71.4961 298.328 71.0001 297.656C70.5041 296.968 69.7201 296.624 68.6481 296.624ZM82.4109 308.24C81.2749 308.24 80.2589 308.008 79.3629 307.544C78.4829 307.08 77.7869 306.36 77.2749 305.384C76.7789 304.408 76.5309 303.16 76.5309 301.64C76.5309 300.056 76.7949 298.768 77.3229 297.776C77.8509 296.784 78.5629 296.056 79.4589 295.592C80.3709 295.128 81.4029 294.896 82.5549 294.896C83.2109 294.896 83.8429 294.968 84.4509 295.112C85.0589 295.24 85.5549 295.4 85.9389 295.592L85.2909 297.344C84.9069 297.2 84.4589 297.064 83.9469 296.936C83.4349 296.808 82.9549 296.744 82.5069 296.744C79.9789 296.744 78.7149 298.368 78.7149 301.616C78.7149 303.168 79.0189 304.36 79.6269 305.192C80.2509 306.008 81.1709 306.416 82.3869 306.416C83.0909 306.416 83.7069 306.344 84.2349 306.2C84.7789 306.056 85.2749 305.88 85.7229 305.672V307.544C85.2909 307.768 84.8109 307.936 84.2829 308.048C83.7709 308.176 83.1469 308.24 82.4109 308.24ZM93.9422 308.24C92.8062 308.24 91.7902 308.008 90.8942 307.544C90.0142 307.08 89.3182 306.36 88.8062 305.384C88.3102 304.408 88.0622 303.16 88.0622 301.64C88.0622 300.056 88.3262 298.768 88.8542 297.776C89.3822 296.784 90.0942 296.056 90.9902 295.592C91.9022 295.128 92.9342 294.896 94.0862 294.896C94.7422 294.896 95.3742 294.968 95.9822 295.112C96.5902 295.24 97.0862 295.4 97.4702 295.592L96.8222 297.344C96.4382 297.2 95.9902 297.064 95.4782 296.936C94.9662 296.808 94.4862 296.744 94.0382 296.744C91.5102 296.744 90.2462 298.368 90.2462 301.616C90.2462 303.168 90.5502 304.36 91.1582 305.192C91.7822 306.008 92.7022 306.416 93.9182 306.416C94.6222 306.416 95.2382 306.344 95.7662 306.2C96.3102 306.056 96.8062 305.88 97.2542 305.672V307.544C96.8222 307.768 96.3422 307.936 95.8142 308.048C95.3022 308.176 94.6782 308.24 93.9422 308.24ZM102.305 302.984C102.305 303.176 102.297 303.464 102.281 303.848C102.265 304.232 102.241 304.616 102.209 305C102.193 305.384 102.177 305.688 102.161 305.912L109.049 295.136H111.641V308H109.673V300.416C109.673 300.16 109.673 299.824 109.673 299.408C109.689 298.992 109.705 298.584 109.721 298.184C109.737 297.768 109.753 297.456 109.769 297.248L102.929 308H100.313V295.136H102.305V302.984ZM126.919 301.544C126.919 303.672 126.375 305.32 125.287 306.488C124.215 307.656 122.759 308.24 120.919 308.24C119.783 308.24 118.767 307.984 117.871 307.472C116.991 306.944 116.295 306.184 115.783 305.192C115.271 304.184 115.015 302.968 115.015 301.544C115.015 299.416 115.551 297.776 116.623 296.624C117.695 295.472 119.151 294.896 120.991 294.896C122.159 294.896 123.183 295.16 124.063 295.688C124.959 296.2 125.655 296.952 126.151 297.944C126.663 298.92 126.919 300.12 126.919 301.544ZM117.199 301.544C117.199 303.064 117.495 304.272 118.087 305.168C118.695 306.048 119.655 306.488 120.967 306.488C122.263 306.488 123.215 306.048 123.823 305.168C124.431 304.272 124.735 303.064 124.735 301.544C124.735 300.024 124.431 298.832 123.823 297.968C123.215 297.104 122.255 296.672 120.943 296.672C119.631 296.672 118.679 297.104 118.087 297.968C117.495 298.832 117.199 300.024 117.199 301.544ZM132.379 295.136V300.488H139.363V295.136H141.475V308H139.363V302.264H132.379V308H130.267V295.136H132.379ZM150.42 294.92C151.988 294.92 153.148 295.264 153.9 295.952C154.652 296.64 155.028 297.736 155.028 299.24V308H153.492L153.084 306.176H152.988C152.428 306.88 151.836 307.4 151.212 307.736C150.604 308.072 149.756 308.24 148.668 308.24C147.5 308.24 146.532 307.936 145.764 307.328C144.996 306.704 144.612 305.736 144.612 304.424C144.612 303.144 145.116 302.16 146.124 301.472C147.132 300.768 148.684 300.384 150.78 300.32L152.964 300.248V299.48C152.964 298.408 152.732 297.664 152.268 297.248C151.804 296.832 151.148 296.624 150.3 296.624C149.628 296.624 148.988 296.728 148.38 296.936C147.772 297.128 147.204 297.352 146.676 297.608L146.028 296.024C146.588 295.72 147.252 295.464 148.02 295.256C148.788 295.032 149.588 294.92 150.42 294.92ZM151.044 301.784C149.444 301.848 148.332 302.104 147.708 302.552C147.1 303 146.796 303.632 146.796 304.448C146.796 305.168 147.012 305.696 147.444 306.032C147.892 306.368 148.46 306.536 149.148 306.536C150.236 306.536 151.14 306.24 151.86 305.648C152.58 305.04 152.94 304.112 152.94 302.864V301.712L151.044 301.784ZM168.793 308H166.657V296.888H162.865C162.657 299.592 162.369 301.776 162.001 303.44C161.633 305.088 161.145 306.288 160.537 307.04C159.929 307.792 159.161 308.168 158.233 308.168C158.025 308.168 157.817 308.152 157.609 308.12C157.417 308.104 157.257 308.064 157.129 308V306.416C157.225 306.448 157.329 306.472 157.441 306.488C157.553 306.504 157.665 306.512 157.777 306.512C158.641 306.512 159.329 305.592 159.841 303.752C160.369 301.912 160.769 299.04 161.041 295.136H168.793V308ZM184.06 301.544C184.06 303.672 183.516 305.32 182.428 306.488C181.356 307.656 179.9 308.24 178.06 308.24C176.924 308.24 175.908 307.984 175.012 307.472C174.132 306.944 173.436 306.184 172.924 305.192C172.412 304.184 172.156 302.968 172.156 301.544C172.156 299.416 172.692 297.776 173.764 296.624C174.836 295.472 176.292 294.896 178.132 294.896C179.3 294.896 180.324 295.16 181.204 295.688C182.1 296.2 182.796 296.952 183.292 297.944C183.804 298.92 184.06 300.12 184.06 301.544ZM174.34 301.544C174.34 303.064 174.636 304.272 175.228 305.168C175.836 306.048 176.796 306.488 178.108 306.488C179.404 306.488 180.356 306.048 180.964 305.168C181.572 304.272 181.876 303.064 181.876 301.544C181.876 300.024 181.572 298.832 180.964 297.968C180.356 297.104 179.396 296.672 178.084 296.672C176.772 296.672 175.82 297.104 175.228 297.968C174.636 298.832 174.34 300.024 174.34 301.544ZM197.751 298.376C197.751 299.176 197.511 299.8 197.031 300.248C196.551 300.696 195.935 301 195.183 301.16V301.256C195.983 301.368 196.679 301.656 197.271 302.12C197.863 302.568 198.159 303.272 198.159 304.232C198.159 305.32 197.751 306.224 196.935 306.944C196.135 307.648 194.807 308 192.951 308H187.407V295.136H192.927C193.839 295.136 194.655 295.24 195.375 295.448C196.111 295.64 196.687 295.976 197.103 296.456C197.535 296.92 197.751 297.56 197.751 298.376ZM195.615 298.64C195.615 298.032 195.391 297.592 194.943 297.32C194.511 297.032 193.799 296.888 192.807 296.888H189.519V300.416H192.423C194.551 300.416 195.615 299.824 195.615 298.64ZM195.975 304.232C195.975 303.496 195.695 302.968 195.135 302.648C194.575 302.328 193.751 302.168 192.663 302.168H189.519V306.296H192.711C193.767 306.296 194.575 306.144 195.135 305.84C195.695 305.52 195.975 304.984 195.975 304.232Z" fill="#580909"/>
</g>
<defs>
<filter id="filter0_b" x="-3.96217" y="-3.57814" width="206.563" height="321.78" filterUnits="userSpaceOnUse" color-interpolation-filters="sRGB">
<feFlood flood-opacity="0" result="BackgroundImageFix"/>
<feGaussianBlur in="BackgroundImage" stdDeviation="2.22107"/>
<feComposite in2="SourceAlpha" operator="in" result="effect1_backgroundBlur"/>
<feBlend mode="normal" in="SourceGraphic" in2="effect1_backgroundBlur" result="shape"/>
</filter>
</defs>
</svg>
