<svg width="233" height="35" viewBox="0 0 233 35" fill="none" xmlns="http://www.w3.org/2000/svg">
<path d="M7.296 0.295998C10.656 0.295998 13.104 0.955998 14.64 2.276C16.176 3.596 16.944 5.456 16.944 7.856C16.944 9.272 16.62 10.604 15.972 11.852C15.348 13.076 14.28 14.072 12.768 14.84C11.28 15.608 9.252 15.992 6.684 15.992H3.732V26H0.492V0.295998H7.296ZM7.008 3.068H3.732V13.22H6.324C8.772 13.22 10.596 12.824 11.796 12.032C12.996 11.24 13.596 9.896 13.596 8C13.596 6.344 13.068 5.108 12.012 4.292C10.956 3.476 9.288 3.068 7.008 3.068ZM29.3089 6.344C30.9649 6.344 32.3809 6.704 33.5569 7.424C34.7569 8.144 35.6689 9.164 36.2929 10.484C36.9409 11.78 37.2649 13.304 37.2649 15.056V16.964H24.0529C24.1009 19.148 24.6529 20.816 25.7089 21.968C26.7889 23.096 28.2889 23.66 30.2089 23.66C31.4329 23.66 32.5129 23.552 33.4489 23.336C34.4089 23.096 35.3929 22.76 36.4009 22.328V25.1C35.4169 25.532 34.4449 25.844 33.4849 26.036C32.5249 26.252 31.3849 26.36 30.0649 26.36C28.2409 26.36 26.6209 25.988 25.2049 25.244C23.8129 24.5 22.7209 23.396 21.9289 21.932C21.1609 20.444 20.7769 18.632 20.7769 16.496C20.7769 14.384 21.1249 12.572 21.8209 11.06C22.5409 9.548 23.5369 8.384 24.8089 7.568C26.1049 6.752 27.6049 6.344 29.3089 6.344ZM29.2729 8.936C27.7609 8.936 26.5609 9.428 25.6729 10.412C24.8089 11.372 24.2929 12.716 24.1249 14.444H33.9529C33.9289 12.812 33.5449 11.492 32.8009 10.484C32.0569 9.452 30.8809 8.936 29.2729 8.936ZM53.5892 6.704H57.0452L48.8012 15.992L57.7292 26H54.0572L45.3452 16.208V26H42.1772V6.704H45.3452V16.064L53.5892 6.704ZM77.3047 16.316C77.3047 19.508 76.4888 21.98 74.8568 23.732C73.2488 25.484 71.0648 26.36 68.3048 26.36C66.6008 26.36 65.0768 25.976 63.7328 25.208C62.4128 24.416 61.3688 23.276 60.6008 21.788C59.8328 20.276 59.4488 18.452 59.4488 16.316C59.4488 13.124 60.2528 10.664 61.8608 8.936C63.4688 7.208 65.6528 6.344 68.4128 6.344C70.1648 6.344 71.7008 6.74 73.0208 7.532C74.3648 8.3 75.4088 9.428 76.1528 10.916C76.9208 12.38 77.3047 14.18 77.3047 16.316ZM62.7248 16.316C62.7248 18.596 63.1688 20.408 64.0568 21.752C64.9688 23.072 66.4088 23.732 68.3768 23.732C70.3208 23.732 71.7488 23.072 72.6608 21.752C73.5728 20.408 74.0288 18.596 74.0288 16.316C74.0288 14.036 73.5728 12.248 72.6608 10.952C71.7488 9.656 70.3088 9.008 68.3408 9.008C66.3728 9.008 64.9448 9.656 64.0568 10.952C63.1688 12.248 62.7248 14.036 62.7248 16.316ZM103.026 6.704V26H100.182V13.688C100.182 13.184 100.194 12.656 100.218 12.104C100.266 11.552 100.314 11.012 100.362 10.484H100.254L93.9536 26H91.2896L85.1696 10.484H85.0616C85.1336 11.564 85.1696 12.668 85.1696 13.796V26H82.3256V6.704H86.5376L92.6216 22.22L98.8136 6.704H103.026ZM116.637 6.344C118.293 6.344 119.709 6.704 120.885 7.424C122.085 8.144 122.997 9.164 123.621 10.484C124.269 11.78 124.593 13.304 124.593 15.056V16.964H111.381C111.429 19.148 111.981 20.816 113.037 21.968C114.117 23.096 115.617 23.66 117.537 23.66C118.761 23.66 119.841 23.552 120.777 23.336C121.737 23.096 122.721 22.76 123.729 22.328V25.1C122.745 25.532 121.773 25.844 120.813 26.036C119.853 26.252 118.713 26.36 117.393 26.36C115.569 26.36 113.949 25.988 112.533 25.244C111.141 24.5 110.049 23.396 109.257 21.932C108.489 20.444 108.105 18.632 108.105 16.496C108.105 14.384 108.453 12.572 109.149 11.06C109.869 9.548 110.865 8.384 112.137 7.568C113.433 6.752 114.933 6.344 116.637 6.344ZM116.601 8.936C115.089 8.936 113.889 9.428 113.001 10.412C112.137 11.372 111.621 12.716 111.453 14.444H121.281C121.257 12.812 120.873 11.492 120.129 10.484C119.385 9.452 118.209 8.936 116.601 8.936ZM132.673 6.704V14.732H143.149V6.704H146.317V26H143.149V17.396H132.673V26H129.505V6.704H132.673ZM166.755 6.704V23.336H169.563V32.696H166.503V26H153.075V32.696H150.051V23.336H151.599C153.255 21.056 154.491 18.464 155.307 15.56C156.147 12.632 156.579 9.68 156.603 6.704H166.755ZM159.411 9.188C159.315 10.82 159.063 12.512 158.655 14.264C158.247 15.992 157.719 17.648 157.071 19.232C156.447 20.816 155.715 22.184 154.875 23.336H163.695V9.188H159.411ZM170.321 6.704H173.705L177.881 17.684C178.241 18.644 178.565 19.568 178.853 20.456C179.141 21.32 179.357 22.148 179.501 22.94H179.645C179.789 22.34 180.017 21.56 180.329 20.6C180.641 19.616 180.965 18.632 181.301 17.648L185.225 6.704H188.645L180.329 28.664C179.657 30.488 178.781 31.94 177.701 33.02C176.645 34.1 175.181 34.64 173.309 34.64C172.733 34.64 172.229 34.604 171.797 34.532C171.365 34.484 170.993 34.424 170.681 34.352V31.832C170.945 31.88 171.257 31.928 171.617 31.976C172.001 32.024 172.397 32.048 172.805 32.048C173.909 32.048 174.797 31.736 175.469 31.112C176.165 30.488 176.705 29.66 177.089 28.628L178.097 26.072L170.321 6.704ZM199.149 6.344C200.805 6.344 202.221 6.704 203.397 7.424C204.597 8.144 205.509 9.164 206.133 10.484C206.781 11.78 207.105 13.304 207.105 15.056V16.964H193.893C193.941 19.148 194.493 20.816 195.549 21.968C196.629 23.096 198.129 23.66 200.049 23.66C201.273 23.66 202.353 23.552 203.289 23.336C204.249 23.096 205.233 22.76 206.241 22.328V25.1C205.257 25.532 204.285 25.844 203.325 26.036C202.365 26.252 201.225 26.36 199.905 26.36C198.081 26.36 196.461 25.988 195.045 25.244C193.653 24.5 192.561 23.396 191.769 21.932C191.001 20.444 190.617 18.632 190.617 16.496C190.617 14.384 190.965 12.572 191.661 11.06C192.381 9.548 193.377 8.384 194.649 7.568C195.945 6.752 197.445 6.344 199.149 6.344ZM199.113 8.936C197.601 8.936 196.401 9.428 195.513 10.412C194.649 11.372 194.133 12.716 193.965 14.444H203.793C203.769 12.812 203.385 11.492 202.641 10.484C201.897 9.452 200.721 8.936 199.113 8.936ZM232.717 6.704V26H229.873V13.688C229.873 13.184 229.885 12.656 229.909 12.104C229.957 11.552 230.005 11.012 230.053 10.484H229.945L223.645 26H220.981L214.861 10.484H214.753C214.825 11.564 214.861 12.668 214.861 13.796V26H212.017V6.704H216.229L222.313 22.22L228.505 6.704H232.717Z" fill="black"/>
</svg>
