<svg width="438" height="37" viewBox="0 0 438 37" fill="none" xmlns="http://www.w3.org/2000/svg">
<path d="M7.296 2.296C10.656 2.296 13.104 2.956 14.64 4.276C16.176 5.596 16.944 7.456 16.944 9.856C16.944 11.272 16.62 12.604 15.972 13.852C15.348 15.076 14.28 16.072 12.768 16.84C11.28 17.608 9.252 17.992 6.684 17.992H3.732V28H0.492V2.296H7.296ZM7.008 5.068H3.732V15.22H6.324C8.772 15.22 10.596 14.824 11.796 14.032C12.996 13.24 13.596 11.896 13.596 10C13.596 8.344 13.068 7.108 12.012 6.292C10.956 5.476 9.288 5.068 7.008 5.068ZM29.1649 8.38C31.5169 8.38 33.2569 8.896 34.3849 9.928C35.5129 10.96 36.0769 12.604 36.0769 14.86V28H33.7729L33.1609 25.264H33.0169C32.1769 26.32 31.2889 27.1 30.3529 27.604C29.4409 28.108 28.1689 28.36 26.5369 28.36C24.7849 28.36 23.3329 27.904 22.1809 26.992C21.0289 26.056 20.4529 24.604 20.4529 22.636C20.4529 20.716 21.2089 19.24 22.7209 18.208C24.2329 17.152 26.5609 16.576 29.7049 16.48L32.9809 16.372V15.22C32.9809 13.612 32.6329 12.496 31.9369 11.872C31.2409 11.248 30.2569 10.936 28.9849 10.936C27.9769 10.936 27.0169 11.092 26.1049 11.404C25.1929 11.692 24.3409 12.028 23.5489 12.412L22.5769 10.036C23.4169 9.58 24.4129 9.196 25.5649 8.884C26.7169 8.548 27.9169 8.38 29.1649 8.38ZM30.1009 18.676C27.7009 18.772 26.0329 19.156 25.0969 19.828C24.1849 20.5 23.7289 21.448 23.7289 22.672C23.7289 23.752 24.0529 24.544 24.7009 25.048C25.3729 25.552 26.2249 25.804 27.2569 25.804C28.8889 25.804 30.2449 25.36 31.3249 24.472C32.4049 23.56 32.9449 22.168 32.9449 20.296V18.568L30.1009 18.676ZM41.0286 16.408C41.0286 12.184 41.6646 8.896 42.9366 6.544C44.2086 4.168 46.2606 2.68 49.0926 2.08C50.6526 1.744 52.1766 1.444 53.6646 1.18C55.1526 0.915998 56.5446 0.675998 57.8406 0.459998L58.3806 3.232C57.5406 3.352 56.5926 3.508 55.5366 3.7C54.4806 3.868 53.4366 4.048 52.4046 4.24C51.3726 4.408 50.4846 4.576 49.7406 4.744C48.1806 5.08 46.9446 5.896 46.0326 7.192C45.1206 8.464 44.6046 10.456 44.4846 13.168H44.7006C45.0366 12.712 45.4926 12.244 46.0686 11.764C46.6686 11.284 47.3766 10.876 48.1926 10.54C49.0326 10.204 49.9806 10.036 51.0366 10.036C53.5326 10.036 55.4166 10.84 56.6886 12.448C57.9606 14.056 58.5966 16.144 58.5966 18.712C58.5966 20.848 58.2246 22.636 57.4806 24.076C56.7366 25.516 55.7046 26.596 54.3846 27.316C53.0646 28.012 51.5286 28.36 49.7766 28.36C47.1126 28.36 44.9886 27.34 43.4046 25.3C41.8206 23.26 41.0286 20.296 41.0286 16.408ZM50.0286 25.732C51.5886 25.732 52.8486 25.228 53.8086 24.22C54.7686 23.212 55.2486 21.484 55.2486 19.036C55.2486 17.068 54.8766 15.52 54.1326 14.392C53.4126 13.24 52.2126 12.664 50.5326 12.664C49.4766 12.664 48.5166 12.904 47.6526 13.384C46.7886 13.84 46.0686 14.368 45.4926 14.968C44.9166 15.568 44.5086 16.072 44.2686 16.48C44.2686 17.656 44.3526 18.796 44.5206 19.9C44.6886 21.004 44.9766 22 45.3846 22.888C45.8166 23.752 46.4046 24.448 47.1486 24.976C47.9166 25.48 48.8766 25.732 50.0286 25.732ZM80.3633 18.316C80.3633 21.508 79.5473 23.98 77.9153 25.732C76.3073 27.484 74.1233 28.36 71.3633 28.36C69.6593 28.36 68.1353 27.976 66.7913 27.208C65.4713 26.416 64.4273 25.276 63.6593 23.788C62.8913 22.276 62.5073 20.452 62.5073 18.316C62.5073 15.124 63.3113 12.664 64.9193 10.936C66.5273 9.208 68.7113 8.344 71.4713 8.344C73.2233 8.344 74.7593 8.74 76.0793 9.532C77.4233 10.3 78.4673 11.428 79.2113 12.916C79.9793 14.38 80.3633 16.18 80.3633 18.316ZM65.7833 18.316C65.7833 20.596 66.2273 22.408 67.1153 23.752C68.0273 25.072 69.4673 25.732 71.4353 25.732C73.3793 25.732 74.8073 25.072 75.7193 23.752C76.6313 22.408 77.0873 20.596 77.0873 18.316C77.0873 16.036 76.6313 14.248 75.7193 12.952C74.8073 11.656 73.3673 11.008 71.3993 11.008C69.4313 11.008 68.0033 11.656 67.1153 12.952C66.2273 14.248 65.7833 16.036 65.7833 18.316ZM98.3527 11.368H92.0527V28H88.9207V11.368H82.6927V8.704H98.3527V11.368ZM109.462 8.38C111.814 8.38 113.554 8.896 114.682 9.928C115.81 10.96 116.374 12.604 116.374 14.86V28H114.07L113.458 25.264H113.314C112.474 26.32 111.586 27.1 110.65 27.604C109.738 28.108 108.466 28.36 106.834 28.36C105.082 28.36 103.63 27.904 102.478 26.992C101.326 26.056 100.75 24.604 100.75 22.636C100.75 20.716 101.506 19.24 103.018 18.208C104.53 17.152 106.858 16.576 110.002 16.48L113.278 16.372V15.22C113.278 13.612 112.93 12.496 112.234 11.872C111.538 11.248 110.554 10.936 109.282 10.936C108.274 10.936 107.314 11.092 106.402 11.404C105.49 11.692 104.638 12.028 103.846 12.412L102.874 10.036C103.714 9.58 104.71 9.196 105.862 8.884C107.014 8.548 108.214 8.38 109.462 8.38ZM110.398 18.676C107.998 18.772 106.33 19.156 105.394 19.828C104.482 20.5 104.026 21.448 104.026 22.672C104.026 23.752 104.35 24.544 104.998 25.048C105.67 25.552 106.522 25.804 107.554 25.804C109.186 25.804 110.542 25.36 111.622 24.472C112.702 23.56 113.242 22.168 113.242 20.296V18.568L110.398 18.676ZM129.785 8.344C131.441 8.344 132.857 8.704 134.033 9.424C135.233 10.144 136.145 11.164 136.769 12.484C137.417 13.78 137.741 15.304 137.741 17.056V18.964H124.529C124.577 21.148 125.129 22.816 126.185 23.968C127.265 25.096 128.765 25.66 130.685 25.66C131.909 25.66 132.989 25.552 133.925 25.336C134.885 25.096 135.869 24.76 136.877 24.328V27.1C135.893 27.532 134.921 27.844 133.961 28.036C133.001 28.252 131.861 28.36 130.541 28.36C128.717 28.36 127.097 27.988 125.681 27.244C124.289 26.5 123.197 25.396 122.405 23.932C121.637 22.444 121.253 20.632 121.253 18.496C121.253 16.384 121.601 14.572 122.297 13.06C123.017 11.548 124.013 10.384 125.285 9.568C126.581 8.752 128.081 8.344 129.785 8.344ZM129.749 10.936C128.237 10.936 127.037 11.428 126.149 12.412C125.285 13.372 124.769 14.716 124.601 16.444H134.429C134.405 14.812 134.021 13.492 133.277 12.484C132.533 11.452 131.357 10.936 129.749 10.936ZM163.354 8.704V28H160.51V15.688C160.51 15.184 160.522 14.656 160.546 14.104C160.594 13.552 160.642 13.012 160.69 12.484H160.582L154.282 28H151.618L145.498 12.484H145.39C145.462 13.564 145.498 14.668 145.498 15.796V28H142.654V8.704H146.866L152.95 24.22L159.142 8.704H163.354ZM191.331 8.704H194.787L186.543 17.992L195.471 28H191.799L183.087 18.208V28H179.919V8.704H183.087V18.064L191.331 8.704ZM208.154 8.344C210.53 8.344 212.438 9.172 213.878 10.828C215.342 12.484 216.074 14.98 216.074 18.316C216.074 21.604 215.342 24.1 213.878 25.804C212.438 27.508 210.518 28.36 208.118 28.36C206.63 28.36 205.394 28.084 204.41 27.532C203.45 26.956 202.694 26.296 202.142 25.552H201.926C201.974 25.96 202.022 26.476 202.07 27.1C202.118 27.724 202.142 28.264 202.142 28.72V36.64H198.974V8.704H201.566L201.998 11.332H202.142C202.718 10.492 203.474 9.784 204.41 9.208C205.346 8.632 206.594 8.344 208.154 8.344ZM207.578 11.008C205.61 11.008 204.218 11.56 203.402 12.664C202.61 13.768 202.19 15.448 202.142 17.704V18.316C202.142 20.692 202.526 22.528 203.294 23.824C204.086 25.096 205.538 25.732 207.65 25.732C208.826 25.732 209.786 25.408 210.53 24.76C211.298 24.112 211.862 23.236 212.222 22.132C212.606 21.004 212.798 19.72 212.798 18.28C212.798 16.072 212.366 14.308 211.502 12.988C210.662 11.668 209.354 11.008 207.578 11.008ZM217.747 8.704H221.131L225.307 19.684C225.667 20.644 225.991 21.568 226.279 22.456C226.567 23.32 226.783 24.148 226.927 24.94H227.071C227.215 24.34 227.443 23.56 227.755 22.6C228.067 21.616 228.391 20.632 228.727 19.648L232.651 8.704H236.071L227.755 30.664C227.083 32.488 226.207 33.94 225.127 35.02C224.071 36.1 222.607 36.64 220.735 36.64C220.159 36.64 219.655 36.604 219.223 36.532C218.791 36.484 218.419 36.424 218.107 36.352V33.832C218.371 33.88 218.683 33.928 219.043 33.976C219.427 34.024 219.823 34.048 220.231 34.048C221.335 34.048 222.223 33.736 222.895 33.112C223.591 32.488 224.131 31.66 224.515 30.628L225.523 28.072L217.747 8.704ZM250.895 8.704V11.368H242.291V28H239.123V8.704H250.895ZM268.295 28H265.091V11.332H259.403C259.091 15.388 258.659 18.664 258.107 21.16C257.555 23.632 256.823 25.432 255.911 26.56C254.999 27.688 253.847 28.252 252.455 28.252C252.143 28.252 251.831 28.228 251.519 28.18C251.231 28.156 250.991 28.096 250.799 28V25.624C250.943 25.672 251.099 25.708 251.267 25.732C251.435 25.756 251.603 25.768 251.771 25.768C253.067 25.768 254.099 24.388 254.867 21.628C255.659 18.868 256.259 14.56 256.667 8.704H268.295V28ZM291.195 18.316C291.195 21.508 290.379 23.98 288.747 25.732C287.139 27.484 284.955 28.36 282.195 28.36C280.491 28.36 278.967 27.976 277.623 27.208C276.303 26.416 275.259 25.276 274.491 23.788C273.723 22.276 273.339 20.452 273.339 18.316C273.339 15.124 274.143 12.664 275.751 10.936C277.359 9.208 279.543 8.344 282.303 8.344C284.055 8.344 285.591 8.74 286.911 9.532C288.255 10.3 289.299 11.428 290.043 12.916C290.811 14.38 291.195 16.18 291.195 18.316ZM276.615 18.316C276.615 20.596 277.059 22.408 277.947 23.752C278.859 25.072 280.299 25.732 282.267 25.732C284.211 25.732 285.639 25.072 286.551 23.752C287.463 22.408 287.919 20.596 287.919 18.316C287.919 16.036 287.463 14.248 286.551 12.952C285.639 11.656 284.199 11.008 282.231 11.008C280.263 11.008 278.835 11.656 277.947 12.952C277.059 14.248 276.615 16.036 276.615 18.316ZM303.956 28.36C302.252 28.36 300.728 28.012 299.384 27.316C298.064 26.62 297.02 25.54 296.252 24.076C295.508 22.612 295.136 20.74 295.136 18.46C295.136 16.084 295.532 14.152 296.324 12.664C297.116 11.176 298.184 10.084 299.528 9.388C300.896 8.692 302.444 8.344 304.172 8.344C305.156 8.344 306.104 8.452 307.016 8.668C307.928 8.86 308.672 9.1 309.248 9.388L308.276 12.016C307.7 11.8 307.028 11.596 306.26 11.404C305.492 11.212 304.772 11.116 304.1 11.116C300.308 11.116 298.412 13.552 298.412 18.424C298.412 20.752 298.868 22.54 299.78 23.788C300.716 25.012 302.096 25.624 303.92 25.624C304.976 25.624 305.9 25.516 306.692 25.3C307.508 25.084 308.252 24.82 308.924 24.508V27.316C308.276 27.652 307.556 27.904 306.764 28.072C305.996 28.264 305.06 28.36 303.956 28.36ZM310.489 8.704H313.873L318.049 19.684C318.409 20.644 318.733 21.568 319.021 22.456C319.309 23.32 319.525 24.148 319.669 24.94H319.813C319.957 24.34 320.185 23.56 320.497 22.6C320.809 21.616 321.133 20.632 321.469 19.648L325.393 8.704H328.813L320.497 30.664C319.825 32.488 318.949 33.94 317.869 35.02C316.813 36.1 315.349 36.64 313.477 36.64C312.901 36.64 312.397 36.604 311.965 36.532C311.533 36.484 311.161 36.424 310.849 36.352V33.832C311.113 33.88 311.425 33.928 311.785 33.976C312.169 34.024 312.565 34.048 312.973 34.048C314.077 34.048 314.965 33.736 315.637 33.112C316.333 32.488 316.873 31.66 317.257 30.628L318.265 28.072L310.489 8.704ZM345.185 11.368H338.885V28H335.753V11.368H329.525V8.704H345.185V11.368ZM365.41 18.316C365.41 21.508 364.594 23.98 362.962 25.732C361.354 27.484 359.17 28.36 356.41 28.36C354.706 28.36 353.182 27.976 351.838 27.208C350.518 26.416 349.474 25.276 348.706 23.788C347.938 22.276 347.554 20.452 347.554 18.316C347.554 15.124 348.358 12.664 349.966 10.936C351.574 9.208 353.758 8.344 356.518 8.344C358.27 8.344 359.806 8.74 361.126 9.532C362.47 10.3 363.514 11.428 364.258 12.916C365.026 14.38 365.41 16.18 365.41 18.316ZM350.83 18.316C350.83 20.596 351.274 22.408 352.162 23.752C353.074 25.072 354.514 25.732 356.482 25.732C358.426 25.732 359.854 25.072 360.766 23.752C361.678 22.408 362.134 20.596 362.134 18.316C362.134 16.036 361.678 14.248 360.766 12.952C359.854 11.656 358.414 11.008 356.446 11.008C354.478 11.008 353.05 11.656 352.162 12.952C351.274 14.248 350.83 16.036 350.83 18.316ZM372.852 15.724C372.852 17.932 374.088 19.036 376.56 19.036C377.76 19.036 378.852 18.856 379.836 18.496C380.82 18.112 381.828 17.608 382.86 16.984V8.704H386.028V28H382.86V19.396C381.78 20.092 380.712 20.644 379.656 21.052C378.624 21.436 377.376 21.628 375.912 21.628C373.944 21.628 372.408 21.112 371.304 20.08C370.224 19.048 369.684 17.668 369.684 15.94V8.704H372.852V15.724ZM395.326 8.704V16.732H405.802V8.704H408.97V28H405.802V19.396H395.326V28H392.158V8.704H395.326ZM431.856 18.316C431.856 21.508 431.04 23.98 429.408 25.732C427.8 27.484 425.616 28.36 422.856 28.36C421.152 28.36 419.628 27.976 418.284 27.208C416.964 26.416 415.92 25.276 415.152 23.788C414.384 22.276 414 20.452 414 18.316C414 15.124 414.804 12.664 416.412 10.936C418.02 9.208 420.204 8.344 422.964 8.344C424.716 8.344 426.252 8.74 427.572 9.532C428.916 10.3 429.96 11.428 430.704 12.916C431.472 14.38 431.856 16.18 431.856 18.316ZM417.276 18.316C417.276 20.596 417.72 22.408 418.608 23.752C419.52 25.072 420.96 25.732 422.928 25.732C424.872 25.732 426.3 25.072 427.212 23.752C428.124 22.408 428.58 20.596 428.58 18.316C428.58 16.036 428.124 14.248 427.212 12.952C426.3 11.656 424.86 11.008 422.892 11.008C420.924 11.008 419.496 11.656 418.608 12.952C417.72 14.248 417.276 16.036 417.276 18.316ZM435.22 13.816V7.156H437.236V13.816L436.876 22.852H435.58L435.22 13.816ZM436.228 28.216C435.796 28.216 435.436 28.096 435.148 27.856C434.884 27.592 434.752 27.256 434.752 26.848C434.752 26.44 434.884 26.104 435.148 25.84C435.436 25.552 435.796 25.408 436.228 25.408C436.66 25.408 437.02 25.552 437.308 25.84C437.596 26.104 437.74 26.44 437.74 26.848C437.74 27.232 437.596 27.556 437.308 27.82C437.02 28.084 436.66 28.216 436.228 28.216Z" fill="black"/>
</svg>
