<svg width="321" height="36" viewBox="0 0 321 36" fill="none" xmlns="http://www.w3.org/2000/svg">
<path d="M23.912 8.744C23.912 11.08 23.176 12.936 21.704 14.312C20.232 15.656 18.264 16.52 15.8 16.904V17.096C18.68 17.48 20.872 18.376 22.376 19.784C23.88 21.192 24.632 23.032 24.632 25.304C24.632 28.312 23.48 30.76 21.176 32.648C18.872 34.536 15.416 35.48 10.808 35.48C8.952 35.48 7.176 35.336 5.48 35.048C3.816 34.792 2.264 34.312 0.824 33.608V29.672C2.328 30.376 3.96 30.936 5.72 31.352C7.512 31.736 9.192 31.928 10.76 31.928C13.832 31.928 16.152 31.352 17.72 30.2C19.32 29.048 20.12 27.416 20.12 25.304C20.12 23.128 19.192 21.544 17.336 20.552C15.48 19.56 12.888 19.064 9.56 19.064H4.664V15.464H9.32C12.712 15.464 15.24 14.904 16.904 13.784C18.6 12.632 19.448 11.096 19.448 9.176C19.448 7.448 18.808 6.12 17.528 5.192C16.248 4.264 14.584 3.8 12.536 3.8C10.392 3.8 8.6 4.072 7.16 4.616C5.752 5.16 4.376 5.864 3.032 6.728L0.968 3.8C2.312 2.808 3.96 1.976 5.912 1.304C7.896 0.599998 10.12 0.247998 12.584 0.247998C16.296 0.247998 19.112 1.048 21.032 2.648C22.952 4.248 23.912 6.28 23.912 8.744ZM41.0428 8.84C44.1788 8.84 46.4988 9.528 48.0028 10.904C49.5068 12.28 50.2588 14.472 50.2588 17.48V35H47.1868L46.3708 31.352H46.1788C45.0588 32.76 43.8748 33.8 42.6268 34.472C41.4108 35.144 39.7148 35.48 37.5388 35.48C35.2028 35.48 33.2668 34.872 31.7308 33.656C30.1948 32.408 29.4268 30.472 29.4268 27.848C29.4268 25.288 30.4348 23.32 32.4508 21.944C34.4668 20.536 37.5708 19.768 41.7628 19.64L46.1308 19.496V17.96C46.1308 15.816 45.6668 14.328 44.7388 13.496C43.8108 12.664 42.4988 12.248 40.8028 12.248C39.4588 12.248 38.1788 12.456 36.9628 12.872C35.7468 13.256 34.6108 13.704 33.5547 14.216L32.2588 11.048C33.3788 10.44 34.7068 9.928 36.2428 9.512C37.7788 9.064 39.3788 8.84 41.0428 8.84ZM42.2908 22.568C39.0908 22.696 36.8668 23.208 35.6188 24.104C34.4028 25 33.7948 26.264 33.7948 27.896C33.7948 29.336 34.2268 30.392 35.0908 31.064C35.9868 31.736 37.1228 32.072 38.4988 32.072C40.6748 32.072 42.4828 31.48 43.9228 30.296C45.3628 29.08 46.0828 27.224 46.0828 24.728V22.424L42.2908 22.568ZM73.421 9.272H78.029L67.037 21.656L78.941 35H74.045L62.429 21.944V35H58.205V9.272H62.429V21.752L73.421 9.272ZM93.3553 8.84C96.4913 8.84 98.8113 9.528 100.315 10.904C101.819 12.28 102.571 14.472 102.571 17.48V35H99.4993L98.6833 31.352H98.4913C97.3713 32.76 96.1873 33.8 94.9393 34.472C93.7233 35.144 92.0273 35.48 89.8513 35.48C87.5153 35.48 85.5793 34.872 84.0433 33.656C82.5073 32.408 81.7393 30.472 81.7393 27.848C81.7393 25.288 82.7473 23.32 84.7633 21.944C86.7793 20.536 89.8833 19.768 94.0753 19.64L98.4433 19.496V17.96C98.4433 15.816 97.9793 14.328 97.0513 13.496C96.1233 12.664 94.8113 12.248 93.1153 12.248C91.7713 12.248 90.4913 12.456 89.2753 12.872C88.0593 13.256 86.9233 13.704 85.8672 14.216L84.5713 11.048C85.6913 10.44 87.0193 9.928 88.5553 9.512C90.0913 9.064 91.6913 8.84 93.3553 8.84ZM94.6033 22.568C91.4033 22.696 89.1793 23.208 87.9313 24.104C86.7153 25 86.1073 26.264 86.1073 27.896C86.1073 29.336 86.5393 30.392 87.4033 31.064C88.2993 31.736 89.4353 32.072 90.8113 32.072C92.9873 32.072 94.7953 31.48 96.2353 30.296C97.6753 29.08 98.3953 27.224 98.3953 24.728V22.424L94.6033 22.568ZM117.286 8.792C120.23 8.792 122.566 9.384 124.294 10.568C126.054 11.72 126.934 13.384 126.934 15.56C126.934 17.128 126.502 18.376 125.638 19.304C124.774 20.2 123.59 20.856 122.086 21.272V21.464C123.11 21.752 124.054 22.152 124.918 22.664C125.782 23.176 126.47 23.848 126.982 24.68C127.526 25.512 127.798 26.584 127.798 27.896C127.798 30.04 126.902 31.848 125.11 33.32C123.35 34.76 120.582 35.48 116.806 35.48C114.95 35.48 113.27 35.32 111.766 35C110.262 34.712 109.014 34.312 108.021 33.8V30.008C109.11 30.52 110.39 30.984 111.862 31.4C113.366 31.816 114.998 32.024 116.758 32.024C118.678 32.024 120.294 31.704 121.606 31.064C122.95 30.392 123.622 29.256 123.622 27.656C123.622 24.776 121.174 23.336 116.278 23.336H112.822V19.88H115.606C117.814 19.88 119.574 19.592 120.886 19.016C122.23 18.408 122.902 17.384 122.902 15.944C122.902 14.728 122.39 13.816 121.366 13.208C120.374 12.6 118.934 12.296 117.046 12.296C115.638 12.296 114.39 12.44 113.302 12.728C112.246 12.984 111.078 13.384 109.798 13.928L108.31 10.568C110.998 9.384 113.99 8.792 117.286 8.792ZM143.793 8.84C146.929 8.84 149.249 9.528 150.753 10.904C152.257 12.28 153.009 14.472 153.009 17.48V35H149.937L149.121 31.352H148.929C147.809 32.76 146.625 33.8 145.377 34.472C144.161 35.144 142.465 35.48 140.289 35.48C137.953 35.48 136.017 34.872 134.481 33.656C132.945 32.408 132.177 30.472 132.177 27.848C132.177 25.288 133.185 23.32 135.201 21.944C137.217 20.536 140.321 19.768 144.513 19.64L148.881 19.496V17.96C148.881 15.816 148.417 14.328 147.489 13.496C146.561 12.664 145.249 12.248 143.553 12.248C142.209 12.248 140.929 12.456 139.713 12.872C138.497 13.256 137.361 13.704 136.305 14.216L135.009 11.048C136.129 10.44 137.457 9.928 138.993 9.512C140.529 9.064 142.129 8.84 143.793 8.84ZM145.041 22.568C141.841 22.696 139.617 23.208 138.369 24.104C137.153 25 136.545 26.264 136.545 27.896C136.545 29.336 136.977 30.392 137.841 31.064C138.737 31.736 139.873 32.072 141.249 32.072C143.425 32.072 145.233 31.48 146.673 30.296C148.113 29.08 148.833 27.224 148.833 24.728V22.424L145.041 22.568ZM178.715 12.824H170.315V35H166.139V12.824H157.835V9.272H178.715V12.824ZM195.639 19.832C202.327 19.832 205.671 22.264 205.671 27.128C205.671 29.528 204.855 31.448 203.223 32.888C201.591 34.296 198.999 35 195.447 35H183.783V9.272H188.007V19.832H195.639ZM201.447 27.368C201.447 25.8 200.887 24.744 199.767 24.2C198.679 23.624 197.143 23.336 195.159 23.336H188.007V31.592H195.255C197.047 31.592 198.519 31.272 199.671 30.632C200.855 29.992 201.447 28.904 201.447 27.368ZM236.478 35.48C234.206 35.48 232.174 35.016 230.382 34.088C228.622 33.16 227.23 31.72 226.206 29.768C225.214 27.816 224.718 25.32 224.718 22.28C224.718 19.112 225.246 16.536 226.302 14.552C227.358 12.568 228.782 11.112 230.574 10.184C232.398 9.256 234.462 8.792 236.766 8.792C238.078 8.792 239.342 8.936 240.558 9.224C241.774 9.48 242.766 9.8 243.534 10.184L242.238 13.688C241.47 13.4 240.574 13.128 239.55 12.872C238.526 12.616 237.566 12.488 236.67 12.488C231.614 12.488 229.086 15.736 229.086 22.232C229.086 25.336 229.694 27.72 230.91 29.384C232.158 31.016 233.998 31.832 236.43 31.832C237.838 31.832 239.07 31.688 240.126 31.4C241.214 31.112 242.206 30.76 243.102 30.344V34.088C242.238 34.536 241.278 34.872 240.222 35.096C239.198 35.352 237.95 35.48 236.478 35.48ZM266.981 12.824H258.581V35H254.405V12.824H246.101V9.272H266.981V12.824ZM293.948 22.088C293.948 26.344 292.86 29.64 290.684 31.976C288.54 34.312 285.628 35.48 281.948 35.48C279.676 35.48 277.644 34.968 275.852 33.944C274.092 32.888 272.7 31.368 271.676 29.384C270.652 27.368 270.14 24.936 270.14 22.088C270.14 17.832 271.212 14.552 273.356 12.248C275.5 9.944 278.412 8.792 282.092 8.792C284.428 8.792 286.476 9.32 288.236 10.376C290.028 11.4 291.42 12.904 292.412 14.888C293.436 16.84 293.948 19.24 293.948 22.088ZM274.508 22.088C274.508 25.128 275.1 27.544 276.284 29.336C277.5 31.096 279.42 31.976 282.044 31.976C284.636 31.976 286.54 31.096 287.756 29.336C288.972 27.544 289.58 25.128 289.58 22.088C289.58 19.048 288.972 16.664 287.756 14.936C286.54 13.208 284.62 12.344 281.996 12.344C279.372 12.344 277.468 13.208 276.284 14.936C275.1 16.664 274.508 19.048 274.508 22.088ZM320.227 35H315.955V12.776H308.371C307.955 18.184 307.379 22.552 306.643 25.88C305.907 29.176 304.931 31.576 303.715 33.08C302.499 34.584 300.963 35.336 299.107 35.336C298.691 35.336 298.275 35.304 297.859 35.24C297.475 35.208 297.155 35.128 296.899 35V31.832C297.091 31.896 297.299 31.944 297.523 31.976C297.747 32.008 297.971 32.024 298.195 32.024C299.923 32.024 301.299 30.184 302.323 26.504C303.379 22.824 304.179 17.08 304.723 9.272H320.227V35Z" fill="#1F0505"/>
</svg>
