<svg width="214" height="38" viewBox="0 0 214 38" fill="none" xmlns="http://www.w3.org/2000/svg">
<path d="M24.9085 9.69376C24.9085 12.1232 24.143 14.0534 22.6122 15.4845C21.0813 16.8822 19.0346 17.7808 16.472 18.1802V18.3798C19.4672 18.7792 21.7469 19.711 23.311 21.1754C24.8752 22.6397 25.6573 24.5533 25.6573 26.9162C25.6573 30.0445 24.4592 32.5904 22.063 34.5539C19.6669 36.5174 16.0726 37.4992 11.2803 37.4992C9.35008 37.4992 7.50304 37.3494 5.7392 37.0499C4.00864 36.7837 2.39456 36.2845 0.89696 35.5523V31.4589C2.46112 32.191 4.1584 32.7734 5.9888 33.2061C7.85248 33.6054 9.59968 33.8051 11.2304 33.8051C14.4253 33.8051 16.8381 33.2061 18.4688 32.008C20.1328 30.8099 20.9648 29.1126 20.9648 26.9162C20.9648 24.6531 19.9997 23.0058 18.0694 21.9741C16.1392 20.9424 13.4435 20.4266 9.9824 20.4266H4.89056V16.6826H9.7328C13.2605 16.6826 15.8896 16.1002 17.6202 14.9354C19.384 13.7373 20.2659 12.1398 20.2659 10.143C20.2659 8.34592 19.6003 6.9648 18.2691 5.99968C16.9379 5.03456 15.2074 4.552 13.0774 4.552C10.8477 4.552 8.984 4.83488 7.4864 5.40064C6.02208 5.9664 4.59104 6.69856 3.19328 7.59712L1.04672 4.552C2.44448 3.52032 4.1584 2.65504 6.18848 1.95616C8.25184 1.224 10.5648 0.857917 13.1274 0.857917C16.9878 0.857917 19.9165 1.68992 21.9133 3.35392C23.9101 5.01792 24.9085 7.1312 24.9085 9.69376ZM42.7245 9.7936C45.9859 9.7936 48.3987 10.5091 49.9629 11.9402C51.527 13.3712 52.3091 15.6509 52.3091 18.7792V37H49.1142L48.2656 33.2061H48.0659C46.9011 34.6704 45.6697 35.752 44.3718 36.4509C43.1072 37.1498 41.3433 37.4992 39.0803 37.4992C36.6509 37.4992 34.6374 36.8669 33.04 35.6022C31.4425 34.3043 30.6438 32.2909 30.6438 29.5619C30.6438 26.8995 31.6921 24.8528 33.7888 23.4218C35.8854 21.9574 39.1136 21.1587 43.4733 21.0256L48.016 20.8758V19.2784C48.016 17.0486 47.5334 15.5011 46.5683 14.6358C45.6032 13.7706 44.2387 13.3379 42.4749 13.3379C41.0771 13.3379 39.7459 13.5542 38.4813 13.9869C37.2166 14.3862 36.0352 14.8522 34.9369 15.3846L33.5891 12.0899C34.7539 11.4576 36.135 10.9251 37.7325 10.4925C39.3299 10.0266 40.9939 9.7936 42.7245 9.7936ZM44.0224 24.0707C40.6944 24.2038 38.3814 24.7363 37.0835 25.6682C35.8189 26.6 35.1865 27.9146 35.1865 29.6118C35.1865 31.1094 35.6358 32.2077 36.5344 32.9066C37.4662 33.6054 38.6477 33.9549 40.0787 33.9549C42.3417 33.9549 44.2221 33.3392 45.7197 32.1078C47.2173 30.8432 47.9661 28.913 47.9661 26.3171V23.921L44.0224 24.0707ZM76.3978 10.2429H81.1902L69.7585 23.1222L82.1386 37H77.0468L64.9662 23.4218V37H60.5732V10.2429H64.9662V23.2221L76.3978 10.2429ZM97.1295 9.7936C100.391 9.7936 102.804 10.5091 104.368 11.9402C105.932 13.3712 106.714 15.6509 106.714 18.7792V37H103.519L102.671 33.2061H102.471C101.306 34.6704 100.075 35.752 98.7768 36.4509C97.5122 37.1498 95.7483 37.4992 93.4853 37.4992C91.0559 37.4992 89.0424 36.8669 87.445 35.6022C85.8475 34.3043 85.0488 32.2909 85.0488 29.5619C85.0488 26.8995 86.0971 24.8528 88.1938 23.4218C90.2904 21.9574 93.5186 21.1587 97.8783 21.0256L102.421 20.8758V19.2784C102.421 17.0486 101.938 15.5011 100.973 14.6358C100.008 13.7706 98.6437 13.3379 96.8799 13.3379C95.4821 13.3379 94.1509 13.5542 92.8863 13.9869C91.6216 14.3862 90.4402 14.8522 89.3419 15.3846L87.9941 12.0899C89.1589 11.4576 90.54 10.9251 92.1375 10.4925C93.7349 10.0266 95.3989 9.7936 97.1295 9.7936ZM98.4274 24.0707C95.0994 24.2038 92.7864 24.7363 91.4885 25.6682C90.2239 26.6 89.5915 27.9146 89.5915 29.6118C89.5915 31.1094 90.0408 32.2077 90.9394 32.9066C91.8712 33.6054 93.0527 33.9549 94.4837 33.9549C96.7467 33.9549 98.6271 33.3392 100.125 32.1078C101.622 30.8432 102.371 28.913 102.371 26.3171V23.921L98.4274 24.0707ZM122.017 9.74368C125.079 9.74368 127.508 10.3594 129.305 11.5907C131.136 12.7888 132.051 14.5194 132.051 16.7824C132.051 18.4131 131.602 19.711 130.703 20.6762C129.804 21.608 128.573 22.2902 127.009 22.7229V22.9226C128.074 23.2221 129.056 23.6381 129.954 24.1706C130.853 24.703 131.568 25.4019 132.101 26.2672C132.667 27.1325 132.949 28.2474 132.949 29.6118C132.949 31.8416 132.018 33.7219 130.154 35.2528C128.323 36.7504 125.445 37.4992 121.518 37.4992C119.587 37.4992 117.84 37.3328 116.276 37C114.712 36.7005 113.414 36.2845 112.382 35.752V31.8083C113.514 32.3408 114.845 32.8234 116.376 33.256C117.94 33.6886 119.637 33.905 121.468 33.905C123.465 33.905 125.145 33.5722 126.51 32.9066C127.907 32.2077 128.606 31.0262 128.606 29.3622C128.606 26.367 126.06 24.8694 120.969 24.8694H117.374V21.2752H120.27C122.566 21.2752 124.396 20.9757 125.761 20.3766C127.159 19.7443 127.858 18.6794 127.858 17.1818C127.858 15.9171 127.325 14.9686 126.26 14.3363C125.228 13.704 123.731 13.3878 121.767 13.3878C120.303 13.3878 119.005 13.5376 117.874 13.8371C116.775 14.1034 115.561 14.5194 114.229 15.0851L112.682 11.5907C115.477 10.3594 118.589 9.74368 122.017 9.74368ZM149.584 9.7936C152.846 9.7936 155.259 10.5091 156.823 11.9402C158.387 13.3712 159.169 15.6509 159.169 18.7792V37H155.974L155.126 33.2061H154.926C153.761 34.6704 152.53 35.752 151.232 36.4509C149.967 37.1498 148.203 37.4992 145.94 37.4992C143.511 37.4992 141.497 36.8669 139.9 35.6022C138.303 34.3043 137.504 32.2909 137.504 29.5619C137.504 26.8995 138.552 24.8528 140.649 23.4218C142.745 21.9574 145.974 21.1587 150.333 21.0256L154.876 20.8758V19.2784C154.876 17.0486 154.393 15.5011 153.428 14.6358C152.463 13.7706 151.099 13.3379 149.335 13.3379C147.937 13.3379 146.606 13.5542 145.341 13.9869C144.077 14.3862 142.895 14.8522 141.797 15.3846L140.449 12.0899C141.614 11.4576 142.995 10.9251 144.592 10.4925C146.19 10.0266 147.854 9.7936 149.584 9.7936ZM150.882 24.0707C147.554 24.2038 145.241 24.7363 143.944 25.6682C142.679 26.6 142.047 27.9146 142.047 29.6118C142.047 31.1094 142.496 32.2077 143.394 32.9066C144.326 33.6054 145.508 33.9549 146.939 33.9549C149.202 33.9549 151.082 33.3392 152.58 32.1078C154.077 30.8432 154.826 28.913 154.826 26.3171V23.921L150.882 24.0707ZM185.904 13.937H177.168V37H172.825V13.937H164.188V10.2429H185.904V13.937ZM203.505 21.2253C210.46 21.2253 213.938 23.7546 213.938 28.8131C213.938 31.3091 213.089 33.3059 211.392 34.8035C209.695 36.2678 206.999 37 203.305 37H191.174V10.2429H195.567V21.2253H203.505ZM209.545 29.0627C209.545 27.432 208.963 26.3338 207.798 25.768C206.666 25.169 205.069 24.8694 203.006 24.8694H195.567V33.4557H203.105C204.969 33.4557 206.5 33.1229 207.698 32.4573C208.929 31.7917 209.545 30.6602 209.545 29.0627Z" fill="#851313"/>
</svg>
